G04 #@! TF.GenerationSoftware,KiCad,Pcbnew,5.1.2*
G04 #@! TF.CreationDate,2019-05-24T19:47:36-03:00*
G04 #@! TF.ProjectId,ouroboros,6f75726f-626f-4726-9f73-2e6b69636164,rev?*
G04 #@! TF.SameCoordinates,Original*
G04 #@! TF.FileFunction,Soldermask,Top*
G04 #@! TF.FilePolarity,Negative*
%FSLAX46Y46*%
G04 Gerber Fmt 4.6, Leading zero omitted, Abs format (unit mm)*
G04 Created by KiCad (PCBNEW 5.1.2) date 2019-05-24 19:47:36*
%MOMM*%
%LPD*%
G04 APERTURE LIST*
%ADD10C,0.120000*%
%ADD11C,0.050000*%
%ADD12C,0.200000*%
G04 APERTURE END LIST*
D10*
X123000000Y-59000000D02*
G75*
G02X125500000Y-61500000I0J-2500000D01*
G01*
X125500000Y-86500000D02*
G75*
G02X123000000Y-89000000I-2500000J0D01*
G01*
X89000000Y-61500000D02*
G75*
G02X91500000Y-59000000I2500000J0D01*
G01*
D11*
X59666666Y-68000000D02*
G75*
G03X59666666Y-68000000I-1666666J0D01*
G01*
X55500000Y-68000000D02*
X60500000Y-68000000D01*
X58000000Y-65500000D02*
X58000000Y-70500000D01*
D10*
X89000000Y-89000000D02*
X89000000Y-61500000D01*
X123000000Y-89000000D02*
X89000000Y-89000000D01*
X125500000Y-61500000D02*
X125500000Y-86500000D01*
X91500000Y-59000000D02*
X123000000Y-59000000D01*
D12*
G36*
X117488674Y-85253465D02*
G01*
X117526367Y-85264899D01*
X117561103Y-85283466D01*
X117591548Y-85308452D01*
X117616534Y-85338897D01*
X117635101Y-85373633D01*
X117646535Y-85411326D01*
X117651000Y-85456661D01*
X117651000Y-86543339D01*
X117646535Y-86588674D01*
X117635101Y-86626367D01*
X117616534Y-86661103D01*
X117591548Y-86691548D01*
X117561103Y-86716534D01*
X117526367Y-86735101D01*
X117488674Y-86746535D01*
X117443339Y-86751000D01*
X116606661Y-86751000D01*
X116561326Y-86746535D01*
X116523633Y-86735101D01*
X116488897Y-86716534D01*
X116458452Y-86691548D01*
X116433466Y-86661103D01*
X116414899Y-86626367D01*
X116403465Y-86588674D01*
X116399000Y-86543339D01*
X116399000Y-85456661D01*
X116403465Y-85411326D01*
X116414899Y-85373633D01*
X116433466Y-85338897D01*
X116458452Y-85308452D01*
X116488897Y-85283466D01*
X116523633Y-85264899D01*
X116561326Y-85253465D01*
X116606661Y-85249000D01*
X117443339Y-85249000D01*
X117488674Y-85253465D01*
X117488674Y-85253465D01*
G37*
G36*
X115438674Y-85253465D02*
G01*
X115476367Y-85264899D01*
X115511103Y-85283466D01*
X115541548Y-85308452D01*
X115566534Y-85338897D01*
X115585101Y-85373633D01*
X115596535Y-85411326D01*
X115601000Y-85456661D01*
X115601000Y-86543339D01*
X115596535Y-86588674D01*
X115585101Y-86626367D01*
X115566534Y-86661103D01*
X115541548Y-86691548D01*
X115511103Y-86716534D01*
X115476367Y-86735101D01*
X115438674Y-86746535D01*
X115393339Y-86751000D01*
X114556661Y-86751000D01*
X114511326Y-86746535D01*
X114473633Y-86735101D01*
X114438897Y-86716534D01*
X114408452Y-86691548D01*
X114383466Y-86661103D01*
X114364899Y-86626367D01*
X114353465Y-86588674D01*
X114349000Y-86543339D01*
X114349000Y-85456661D01*
X114353465Y-85411326D01*
X114364899Y-85373633D01*
X114383466Y-85338897D01*
X114408452Y-85308452D01*
X114438897Y-85283466D01*
X114473633Y-85264899D01*
X114511326Y-85253465D01*
X114556661Y-85249000D01*
X115393339Y-85249000D01*
X115438674Y-85253465D01*
X115438674Y-85253465D01*
G37*
G36*
X103438674Y-85253465D02*
G01*
X103476367Y-85264899D01*
X103511103Y-85283466D01*
X103541548Y-85308452D01*
X103566534Y-85338897D01*
X103585101Y-85373633D01*
X103596535Y-85411326D01*
X103601000Y-85456661D01*
X103601000Y-86543339D01*
X103596535Y-86588674D01*
X103585101Y-86626367D01*
X103566534Y-86661103D01*
X103541548Y-86691548D01*
X103511103Y-86716534D01*
X103476367Y-86735101D01*
X103438674Y-86746535D01*
X103393339Y-86751000D01*
X102556661Y-86751000D01*
X102511326Y-86746535D01*
X102473633Y-86735101D01*
X102438897Y-86716534D01*
X102408452Y-86691548D01*
X102383466Y-86661103D01*
X102364899Y-86626367D01*
X102353465Y-86588674D01*
X102349000Y-86543339D01*
X102349000Y-85456661D01*
X102353465Y-85411326D01*
X102364899Y-85373633D01*
X102383466Y-85338897D01*
X102408452Y-85308452D01*
X102438897Y-85283466D01*
X102473633Y-85264899D01*
X102511326Y-85253465D01*
X102556661Y-85249000D01*
X103393339Y-85249000D01*
X103438674Y-85253465D01*
X103438674Y-85253465D01*
G37*
G36*
X105488674Y-85253465D02*
G01*
X105526367Y-85264899D01*
X105561103Y-85283466D01*
X105591548Y-85308452D01*
X105616534Y-85338897D01*
X105635101Y-85373633D01*
X105646535Y-85411326D01*
X105651000Y-85456661D01*
X105651000Y-86543339D01*
X105646535Y-86588674D01*
X105635101Y-86626367D01*
X105616534Y-86661103D01*
X105591548Y-86691548D01*
X105561103Y-86716534D01*
X105526367Y-86735101D01*
X105488674Y-86746535D01*
X105443339Y-86751000D01*
X104606661Y-86751000D01*
X104561326Y-86746535D01*
X104523633Y-86735101D01*
X104488897Y-86716534D01*
X104458452Y-86691548D01*
X104433466Y-86661103D01*
X104414899Y-86626367D01*
X104403465Y-86588674D01*
X104399000Y-86543339D01*
X104399000Y-85456661D01*
X104403465Y-85411326D01*
X104414899Y-85373633D01*
X104433466Y-85338897D01*
X104458452Y-85308452D01*
X104488897Y-85283466D01*
X104523633Y-85264899D01*
X104561326Y-85253465D01*
X104606661Y-85249000D01*
X105443339Y-85249000D01*
X105488674Y-85253465D01*
X105488674Y-85253465D01*
G37*
G36*
X109351000Y-86651000D02*
G01*
X108349000Y-86651000D01*
X108349000Y-85349000D01*
X109351000Y-85349000D01*
X109351000Y-86651000D01*
X109351000Y-86651000D01*
G37*
G36*
X112651000Y-86651000D02*
G01*
X111649000Y-86651000D01*
X111649000Y-85349000D01*
X112651000Y-85349000D01*
X112651000Y-86651000D01*
X112651000Y-86651000D01*
G37*
G36*
X114651000Y-84651000D02*
G01*
X113349000Y-84651000D01*
X113349000Y-83649000D01*
X114651000Y-83649000D01*
X114651000Y-84651000D01*
X114651000Y-84651000D01*
G37*
G36*
X110501000Y-83901000D02*
G01*
X109499000Y-83901000D01*
X109499000Y-82999000D01*
X110501000Y-82999000D01*
X110501000Y-83901000D01*
X110501000Y-83901000D01*
G37*
G36*
X107501000Y-83401000D02*
G01*
X106499000Y-83401000D01*
X106499000Y-82499000D01*
X107501000Y-82499000D01*
X107501000Y-83401000D01*
X107501000Y-83401000D01*
G37*
G36*
X100501000Y-83401000D02*
G01*
X99499000Y-83401000D01*
X99499000Y-82499000D01*
X100501000Y-82499000D01*
X100501000Y-83401000D01*
X100501000Y-83401000D01*
G37*
G36*
X112501000Y-82951000D02*
G01*
X111499000Y-82951000D01*
X111499000Y-82049000D01*
X112501000Y-82049000D01*
X112501000Y-82951000D01*
X112501000Y-82951000D01*
G37*
G36*
X98501000Y-82451000D02*
G01*
X97499000Y-82451000D01*
X97499000Y-81549000D01*
X98501000Y-81549000D01*
X98501000Y-82451000D01*
X98501000Y-82451000D01*
G37*
G36*
X105501000Y-82451000D02*
G01*
X104499000Y-82451000D01*
X104499000Y-81549000D01*
X105501000Y-81549000D01*
X105501000Y-82451000D01*
X105501000Y-82451000D01*
G37*
G36*
X110501000Y-82001000D02*
G01*
X109499000Y-82001000D01*
X109499000Y-81099000D01*
X110501000Y-81099000D01*
X110501000Y-82001000D01*
X110501000Y-82001000D01*
G37*
G36*
X107501000Y-81501000D02*
G01*
X106499000Y-81501000D01*
X106499000Y-80599000D01*
X107501000Y-80599000D01*
X107501000Y-81501000D01*
X107501000Y-81501000D01*
G37*
G36*
X100501000Y-81501000D02*
G01*
X99499000Y-81501000D01*
X99499000Y-80599000D01*
X100501000Y-80599000D01*
X100501000Y-81501000D01*
X100501000Y-81501000D01*
G37*
G36*
X114651000Y-81351000D02*
G01*
X113349000Y-81351000D01*
X113349000Y-80349000D01*
X114651000Y-80349000D01*
X114651000Y-81351000D01*
X114651000Y-81351000D01*
G37*
G36*
X94851000Y-81201000D02*
G01*
X93149000Y-81201000D01*
X93149000Y-79499000D01*
X94851000Y-79499000D01*
X94851000Y-81201000D01*
X94851000Y-81201000D01*
G37*
G36*
X105251000Y-79901000D02*
G01*
X104249000Y-79901000D01*
X104249000Y-78999000D01*
X105251000Y-78999000D01*
X105251000Y-79901000D01*
X105251000Y-79901000D01*
G37*
G36*
X107251000Y-78951000D02*
G01*
X106249000Y-78951000D01*
X106249000Y-78049000D01*
X107251000Y-78049000D01*
X107251000Y-78951000D01*
X107251000Y-78951000D01*
G37*
G36*
X94248228Y-76991703D02*
G01*
X94403100Y-77055853D01*
X94542481Y-77148985D01*
X94661015Y-77267519D01*
X94754147Y-77406900D01*
X94818297Y-77561772D01*
X94851000Y-77726184D01*
X94851000Y-77893816D01*
X94818297Y-78058228D01*
X94754147Y-78213100D01*
X94661015Y-78352481D01*
X94542481Y-78471015D01*
X94403100Y-78564147D01*
X94248228Y-78628297D01*
X94083816Y-78661000D01*
X93916184Y-78661000D01*
X93751772Y-78628297D01*
X93596900Y-78564147D01*
X93457519Y-78471015D01*
X93338985Y-78352481D01*
X93245853Y-78213100D01*
X93181703Y-78058228D01*
X93149000Y-77893816D01*
X93149000Y-77726184D01*
X93181703Y-77561772D01*
X93245853Y-77406900D01*
X93338985Y-77267519D01*
X93457519Y-77148985D01*
X93596900Y-77055853D01*
X93751772Y-76991703D01*
X93916184Y-76959000D01*
X94083816Y-76959000D01*
X94248228Y-76991703D01*
X94248228Y-76991703D01*
G37*
G36*
X112501000Y-78401000D02*
G01*
X111499000Y-78401000D01*
X111499000Y-77499000D01*
X112501000Y-77499000D01*
X112501000Y-78401000D01*
X112501000Y-78401000D01*
G37*
G36*
X116901000Y-78401000D02*
G01*
X115899000Y-78401000D01*
X115899000Y-77499000D01*
X116901000Y-77499000D01*
X116901000Y-78401000D01*
X116901000Y-78401000D01*
G37*
G36*
X100488674Y-76753465D02*
G01*
X100526367Y-76764899D01*
X100561103Y-76783466D01*
X100591548Y-76808452D01*
X100616534Y-76838897D01*
X100635101Y-76873633D01*
X100646535Y-76911326D01*
X100651000Y-76956661D01*
X100651000Y-78043339D01*
X100646535Y-78088674D01*
X100635101Y-78126367D01*
X100616534Y-78161103D01*
X100591548Y-78191548D01*
X100561103Y-78216534D01*
X100526367Y-78235101D01*
X100488674Y-78246535D01*
X100443339Y-78251000D01*
X99606661Y-78251000D01*
X99561326Y-78246535D01*
X99523633Y-78235101D01*
X99488897Y-78216534D01*
X99458452Y-78191548D01*
X99433466Y-78161103D01*
X99414899Y-78126367D01*
X99403465Y-78088674D01*
X99399000Y-78043339D01*
X99399000Y-76956661D01*
X99403465Y-76911326D01*
X99414899Y-76873633D01*
X99433466Y-76838897D01*
X99458452Y-76808452D01*
X99488897Y-76783466D01*
X99523633Y-76764899D01*
X99561326Y-76753465D01*
X99606661Y-76749000D01*
X100443339Y-76749000D01*
X100488674Y-76753465D01*
X100488674Y-76753465D01*
G37*
G36*
X98438674Y-76753465D02*
G01*
X98476367Y-76764899D01*
X98511103Y-76783466D01*
X98541548Y-76808452D01*
X98566534Y-76838897D01*
X98585101Y-76873633D01*
X98596535Y-76911326D01*
X98601000Y-76956661D01*
X98601000Y-78043339D01*
X98596535Y-78088674D01*
X98585101Y-78126367D01*
X98566534Y-78161103D01*
X98541548Y-78191548D01*
X98511103Y-78216534D01*
X98476367Y-78235101D01*
X98438674Y-78246535D01*
X98393339Y-78251000D01*
X97556661Y-78251000D01*
X97511326Y-78246535D01*
X97473633Y-78235101D01*
X97438897Y-78216534D01*
X97408452Y-78191548D01*
X97383466Y-78161103D01*
X97364899Y-78126367D01*
X97353465Y-78088674D01*
X97349000Y-78043339D01*
X97349000Y-76956661D01*
X97353465Y-76911326D01*
X97364899Y-76873633D01*
X97383466Y-76838897D01*
X97408452Y-76808452D01*
X97438897Y-76783466D01*
X97473633Y-76764899D01*
X97511326Y-76753465D01*
X97556661Y-76749000D01*
X98393339Y-76749000D01*
X98438674Y-76753465D01*
X98438674Y-76753465D01*
G37*
G36*
X105251000Y-78001000D02*
G01*
X104249000Y-78001000D01*
X104249000Y-77099000D01*
X105251000Y-77099000D01*
X105251000Y-78001000D01*
X105251000Y-78001000D01*
G37*
G36*
X118901000Y-77451000D02*
G01*
X117899000Y-77451000D01*
X117899000Y-76549000D01*
X118901000Y-76549000D01*
X118901000Y-77451000D01*
X118901000Y-77451000D01*
G37*
G36*
X114501000Y-77451000D02*
G01*
X113499000Y-77451000D01*
X113499000Y-76549000D01*
X114501000Y-76549000D01*
X114501000Y-77451000D01*
X114501000Y-77451000D01*
G37*
G36*
X108501000Y-77401000D02*
G01*
X107499000Y-77401000D01*
X107499000Y-76499000D01*
X108501000Y-76499000D01*
X108501000Y-77401000D01*
X108501000Y-77401000D01*
G37*
G36*
X112501000Y-76501000D02*
G01*
X111499000Y-76501000D01*
X111499000Y-75599000D01*
X112501000Y-75599000D01*
X112501000Y-76501000D01*
X112501000Y-76501000D01*
G37*
G36*
X116901000Y-76501000D02*
G01*
X115899000Y-76501000D01*
X115899000Y-75599000D01*
X116901000Y-75599000D01*
X116901000Y-76501000D01*
X116901000Y-76501000D01*
G37*
G36*
X110501000Y-76451000D02*
G01*
X109499000Y-76451000D01*
X109499000Y-75549000D01*
X110501000Y-75549000D01*
X110501000Y-76451000D01*
X110501000Y-76451000D01*
G37*
G36*
X94248228Y-74451703D02*
G01*
X94403100Y-74515853D01*
X94542481Y-74608985D01*
X94661015Y-74727519D01*
X94754147Y-74866900D01*
X94818297Y-75021772D01*
X94851000Y-75186184D01*
X94851000Y-75353816D01*
X94818297Y-75518228D01*
X94754147Y-75673100D01*
X94661015Y-75812481D01*
X94542481Y-75931015D01*
X94403100Y-76024147D01*
X94248228Y-76088297D01*
X94083816Y-76121000D01*
X93916184Y-76121000D01*
X93751772Y-76088297D01*
X93596900Y-76024147D01*
X93457519Y-75931015D01*
X93338985Y-75812481D01*
X93245853Y-75673100D01*
X93181703Y-75518228D01*
X93149000Y-75353816D01*
X93149000Y-75186184D01*
X93181703Y-75021772D01*
X93245853Y-74866900D01*
X93338985Y-74727519D01*
X93457519Y-74608985D01*
X93596900Y-74515853D01*
X93751772Y-74451703D01*
X93916184Y-74419000D01*
X94083816Y-74419000D01*
X94248228Y-74451703D01*
X94248228Y-74451703D01*
G37*
G36*
X103001000Y-75901000D02*
G01*
X101999000Y-75901000D01*
X101999000Y-74999000D01*
X103001000Y-74999000D01*
X103001000Y-75901000D01*
X103001000Y-75901000D01*
G37*
G36*
X99001000Y-75901000D02*
G01*
X97999000Y-75901000D01*
X97999000Y-74999000D01*
X99001000Y-74999000D01*
X99001000Y-75901000D01*
X99001000Y-75901000D01*
G37*
G36*
X108501000Y-75501000D02*
G01*
X107499000Y-75501000D01*
X107499000Y-74599000D01*
X108501000Y-74599000D01*
X108501000Y-75501000D01*
X108501000Y-75501000D01*
G37*
G36*
X101001000Y-74951000D02*
G01*
X99999000Y-74951000D01*
X99999000Y-74049000D01*
X101001000Y-74049000D01*
X101001000Y-74951000D01*
X101001000Y-74951000D01*
G37*
G36*
X105001000Y-74951000D02*
G01*
X103999000Y-74951000D01*
X103999000Y-74049000D01*
X105001000Y-74049000D01*
X105001000Y-74951000D01*
X105001000Y-74951000D01*
G37*
G36*
X103001000Y-74001000D02*
G01*
X101999000Y-74001000D01*
X101999000Y-73099000D01*
X103001000Y-73099000D01*
X103001000Y-74001000D01*
X103001000Y-74001000D01*
G37*
G36*
X99001000Y-74001000D02*
G01*
X97999000Y-74001000D01*
X97999000Y-73099000D01*
X99001000Y-73099000D01*
X99001000Y-74001000D01*
X99001000Y-74001000D01*
G37*
G36*
X94248228Y-71911703D02*
G01*
X94403100Y-71975853D01*
X94542481Y-72068985D01*
X94661015Y-72187519D01*
X94754147Y-72326900D01*
X94818297Y-72481772D01*
X94851000Y-72646184D01*
X94851000Y-72813816D01*
X94818297Y-72978228D01*
X94754147Y-73133100D01*
X94661015Y-73272481D01*
X94542481Y-73391015D01*
X94403100Y-73484147D01*
X94248228Y-73548297D01*
X94083816Y-73581000D01*
X93916184Y-73581000D01*
X93751772Y-73548297D01*
X93596900Y-73484147D01*
X93457519Y-73391015D01*
X93338985Y-73272481D01*
X93245853Y-73133100D01*
X93181703Y-72978228D01*
X93149000Y-72813816D01*
X93149000Y-72646184D01*
X93181703Y-72481772D01*
X93245853Y-72326900D01*
X93338985Y-72187519D01*
X93457519Y-72068985D01*
X93596900Y-71975853D01*
X93751772Y-71911703D01*
X93916184Y-71879000D01*
X94083816Y-71879000D01*
X94248228Y-71911703D01*
X94248228Y-71911703D01*
G37*
G36*
X113501000Y-73401000D02*
G01*
X112499000Y-73401000D01*
X112499000Y-72499000D01*
X113501000Y-72499000D01*
X113501000Y-73401000D01*
X113501000Y-73401000D01*
G37*
G36*
X109251000Y-72651000D02*
G01*
X108249000Y-72651000D01*
X108249000Y-71749000D01*
X109251000Y-71749000D01*
X109251000Y-72651000D01*
X109251000Y-72651000D01*
G37*
G36*
X118088674Y-71403465D02*
G01*
X118126367Y-71414899D01*
X118161103Y-71433466D01*
X118191548Y-71458452D01*
X118216534Y-71488897D01*
X118235101Y-71523633D01*
X118246535Y-71561326D01*
X118251000Y-71606661D01*
X118251000Y-72443339D01*
X118246535Y-72488674D01*
X118235101Y-72526367D01*
X118216534Y-72561103D01*
X118191548Y-72591548D01*
X118161103Y-72616534D01*
X118126367Y-72635101D01*
X118088674Y-72646535D01*
X118043339Y-72651000D01*
X116956661Y-72651000D01*
X116911326Y-72646535D01*
X116873633Y-72635101D01*
X116838897Y-72616534D01*
X116808452Y-72591548D01*
X116783466Y-72561103D01*
X116764899Y-72526367D01*
X116753465Y-72488674D01*
X116749000Y-72443339D01*
X116749000Y-71606661D01*
X116753465Y-71561326D01*
X116764899Y-71523633D01*
X116783466Y-71488897D01*
X116808452Y-71458452D01*
X116838897Y-71433466D01*
X116873633Y-71414899D01*
X116911326Y-71403465D01*
X116956661Y-71399000D01*
X118043339Y-71399000D01*
X118088674Y-71403465D01*
X118088674Y-71403465D01*
G37*
G36*
X105751000Y-72651000D02*
G01*
X104749000Y-72651000D01*
X104749000Y-71749000D01*
X105751000Y-71749000D01*
X105751000Y-72651000D01*
X105751000Y-72651000D01*
G37*
G36*
X115501000Y-72451000D02*
G01*
X114499000Y-72451000D01*
X114499000Y-71549000D01*
X115501000Y-71549000D01*
X115501000Y-72451000D01*
X115501000Y-72451000D01*
G37*
G36*
X111251000Y-71701000D02*
G01*
X110249000Y-71701000D01*
X110249000Y-70799000D01*
X111251000Y-70799000D01*
X111251000Y-71701000D01*
X111251000Y-71701000D01*
G37*
G36*
X107751000Y-71701000D02*
G01*
X106749000Y-71701000D01*
X106749000Y-70799000D01*
X107751000Y-70799000D01*
X107751000Y-71701000D01*
X107751000Y-71701000D01*
G37*
G36*
X113501000Y-71501000D02*
G01*
X112499000Y-71501000D01*
X112499000Y-70599000D01*
X113501000Y-70599000D01*
X113501000Y-71501000D01*
X113501000Y-71501000D01*
G37*
G36*
X94248228Y-69371703D02*
G01*
X94403100Y-69435853D01*
X94542481Y-69528985D01*
X94661015Y-69647519D01*
X94754147Y-69786900D01*
X94818297Y-69941772D01*
X94851000Y-70106184D01*
X94851000Y-70273816D01*
X94818297Y-70438228D01*
X94754147Y-70593100D01*
X94661015Y-70732481D01*
X94542481Y-70851015D01*
X94403100Y-70944147D01*
X94248228Y-71008297D01*
X94083816Y-71041000D01*
X93916184Y-71041000D01*
X93751772Y-71008297D01*
X93596900Y-70944147D01*
X93457519Y-70851015D01*
X93338985Y-70732481D01*
X93245853Y-70593100D01*
X93181703Y-70438228D01*
X93149000Y-70273816D01*
X93149000Y-70106184D01*
X93181703Y-69941772D01*
X93245853Y-69786900D01*
X93338985Y-69647519D01*
X93457519Y-69528985D01*
X93596900Y-69435853D01*
X93751772Y-69371703D01*
X93916184Y-69339000D01*
X94083816Y-69339000D01*
X94248228Y-69371703D01*
X94248228Y-69371703D01*
G37*
G36*
X103234622Y-69099981D02*
G01*
X103238299Y-69101097D01*
X103241688Y-69102908D01*
X103244656Y-69105344D01*
X103247092Y-69108312D01*
X103248903Y-69111701D01*
X103250019Y-69115378D01*
X103251000Y-69125340D01*
X103251000Y-70774660D01*
X103250019Y-70784622D01*
X103248903Y-70788299D01*
X103247092Y-70791688D01*
X103244656Y-70794656D01*
X103241688Y-70797092D01*
X103238299Y-70798903D01*
X103234622Y-70800019D01*
X103224660Y-70801000D01*
X102075340Y-70801000D01*
X102065378Y-70800019D01*
X102061701Y-70798903D01*
X102058312Y-70797092D01*
X102055344Y-70794656D01*
X102052908Y-70791688D01*
X102051097Y-70788299D01*
X102049981Y-70784622D01*
X102049000Y-70774660D01*
X102049000Y-69125340D01*
X102049981Y-69115378D01*
X102051097Y-69111701D01*
X102052908Y-69108312D01*
X102055344Y-69105344D01*
X102058312Y-69102908D01*
X102061701Y-69101097D01*
X102065378Y-69099981D01*
X102075340Y-69099000D01*
X103224660Y-69099000D01*
X103234622Y-69099981D01*
X103234622Y-69099981D01*
G37*
G36*
X100934622Y-69099981D02*
G01*
X100938299Y-69101097D01*
X100941688Y-69102908D01*
X100944656Y-69105344D01*
X100947092Y-69108312D01*
X100948903Y-69111701D01*
X100950019Y-69115378D01*
X100951000Y-69125340D01*
X100951000Y-70774660D01*
X100950019Y-70784622D01*
X100948903Y-70788299D01*
X100947092Y-70791688D01*
X100944656Y-70794656D01*
X100941688Y-70797092D01*
X100938299Y-70798903D01*
X100934622Y-70800019D01*
X100924660Y-70801000D01*
X99775340Y-70801000D01*
X99765378Y-70800019D01*
X99761701Y-70798903D01*
X99758312Y-70797092D01*
X99755344Y-70794656D01*
X99752908Y-70791688D01*
X99751097Y-70788299D01*
X99749981Y-70784622D01*
X99749000Y-70774660D01*
X99749000Y-69125340D01*
X99749981Y-69115378D01*
X99751097Y-69111701D01*
X99752908Y-69108312D01*
X99755344Y-69105344D01*
X99758312Y-69102908D01*
X99761701Y-69101097D01*
X99765378Y-69099981D01*
X99775340Y-69099000D01*
X100924660Y-69099000D01*
X100934622Y-69099981D01*
X100934622Y-69099981D01*
G37*
G36*
X109251000Y-70751000D02*
G01*
X108249000Y-70751000D01*
X108249000Y-69849000D01*
X109251000Y-69849000D01*
X109251000Y-70751000D01*
X109251000Y-70751000D01*
G37*
G36*
X105751000Y-70751000D02*
G01*
X104749000Y-70751000D01*
X104749000Y-69849000D01*
X105751000Y-69849000D01*
X105751000Y-70751000D01*
X105751000Y-70751000D01*
G37*
G36*
X118088674Y-69353465D02*
G01*
X118126367Y-69364899D01*
X118161103Y-69383466D01*
X118191548Y-69408452D01*
X118216534Y-69438897D01*
X118235101Y-69473633D01*
X118246535Y-69511326D01*
X118251000Y-69556661D01*
X118251000Y-70393339D01*
X118246535Y-70438674D01*
X118235101Y-70476367D01*
X118216534Y-70511103D01*
X118191548Y-70541548D01*
X118161103Y-70566534D01*
X118126367Y-70585101D01*
X118088674Y-70596535D01*
X118043339Y-70601000D01*
X116956661Y-70601000D01*
X116911326Y-70596535D01*
X116873633Y-70585101D01*
X116838897Y-70566534D01*
X116808452Y-70541548D01*
X116783466Y-70511103D01*
X116764899Y-70476367D01*
X116753465Y-70438674D01*
X116749000Y-70393339D01*
X116749000Y-69556661D01*
X116753465Y-69511326D01*
X116764899Y-69473633D01*
X116783466Y-69438897D01*
X116808452Y-69408452D01*
X116838897Y-69383466D01*
X116873633Y-69364899D01*
X116911326Y-69353465D01*
X116956661Y-69349000D01*
X118043339Y-69349000D01*
X118088674Y-69353465D01*
X118088674Y-69353465D01*
G37*
G36*
X105501000Y-68901000D02*
G01*
X104499000Y-68901000D01*
X104499000Y-67999000D01*
X105501000Y-67999000D01*
X105501000Y-68901000D01*
X105501000Y-68901000D01*
G37*
G36*
X116938674Y-67253465D02*
G01*
X116976367Y-67264899D01*
X117011103Y-67283466D01*
X117041548Y-67308452D01*
X117066534Y-67338897D01*
X117085101Y-67373633D01*
X117096535Y-67411326D01*
X117101000Y-67456661D01*
X117101000Y-68543339D01*
X117096535Y-68588674D01*
X117085101Y-68626367D01*
X117066534Y-68661103D01*
X117041548Y-68691548D01*
X117011103Y-68716534D01*
X116976367Y-68735101D01*
X116938674Y-68746535D01*
X116893339Y-68751000D01*
X116056661Y-68751000D01*
X116011326Y-68746535D01*
X115973633Y-68735101D01*
X115938897Y-68716534D01*
X115908452Y-68691548D01*
X115883466Y-68661103D01*
X115864899Y-68626367D01*
X115853465Y-68588674D01*
X115849000Y-68543339D01*
X115849000Y-67456661D01*
X115853465Y-67411326D01*
X115864899Y-67373633D01*
X115883466Y-67338897D01*
X115908452Y-67308452D01*
X115938897Y-67283466D01*
X115973633Y-67264899D01*
X116011326Y-67253465D01*
X116056661Y-67249000D01*
X116893339Y-67249000D01*
X116938674Y-67253465D01*
X116938674Y-67253465D01*
G37*
G36*
X118988674Y-67253465D02*
G01*
X119026367Y-67264899D01*
X119061103Y-67283466D01*
X119091548Y-67308452D01*
X119116534Y-67338897D01*
X119135101Y-67373633D01*
X119146535Y-67411326D01*
X119151000Y-67456661D01*
X119151000Y-68543339D01*
X119146535Y-68588674D01*
X119135101Y-68626367D01*
X119116534Y-68661103D01*
X119091548Y-68691548D01*
X119061103Y-68716534D01*
X119026367Y-68735101D01*
X118988674Y-68746535D01*
X118943339Y-68751000D01*
X118106661Y-68751000D01*
X118061326Y-68746535D01*
X118023633Y-68735101D01*
X117988897Y-68716534D01*
X117958452Y-68691548D01*
X117933466Y-68661103D01*
X117914899Y-68626367D01*
X117903465Y-68588674D01*
X117899000Y-68543339D01*
X117899000Y-67456661D01*
X117903465Y-67411326D01*
X117914899Y-67373633D01*
X117933466Y-67338897D01*
X117958452Y-67308452D01*
X117988897Y-67283466D01*
X118023633Y-67264899D01*
X118061326Y-67253465D01*
X118106661Y-67249000D01*
X118943339Y-67249000D01*
X118988674Y-67253465D01*
X118988674Y-67253465D01*
G37*
G36*
X111963674Y-67253465D02*
G01*
X112001367Y-67264899D01*
X112036103Y-67283466D01*
X112066548Y-67308452D01*
X112091534Y-67338897D01*
X112110101Y-67373633D01*
X112121535Y-67411326D01*
X112126000Y-67456661D01*
X112126000Y-68543339D01*
X112121535Y-68588674D01*
X112110101Y-68626367D01*
X112091534Y-68661103D01*
X112066548Y-68691548D01*
X112036103Y-68716534D01*
X112001367Y-68735101D01*
X111963674Y-68746535D01*
X111918339Y-68751000D01*
X111081661Y-68751000D01*
X111036326Y-68746535D01*
X110998633Y-68735101D01*
X110963897Y-68716534D01*
X110933452Y-68691548D01*
X110908466Y-68661103D01*
X110889899Y-68626367D01*
X110878465Y-68588674D01*
X110874000Y-68543339D01*
X110874000Y-67456661D01*
X110878465Y-67411326D01*
X110889899Y-67373633D01*
X110908466Y-67338897D01*
X110933452Y-67308452D01*
X110963897Y-67283466D01*
X110998633Y-67264899D01*
X111036326Y-67253465D01*
X111081661Y-67249000D01*
X111918339Y-67249000D01*
X111963674Y-67253465D01*
X111963674Y-67253465D01*
G37*
G36*
X109913674Y-67253465D02*
G01*
X109951367Y-67264899D01*
X109986103Y-67283466D01*
X110016548Y-67308452D01*
X110041534Y-67338897D01*
X110060101Y-67373633D01*
X110071535Y-67411326D01*
X110076000Y-67456661D01*
X110076000Y-68543339D01*
X110071535Y-68588674D01*
X110060101Y-68626367D01*
X110041534Y-68661103D01*
X110016548Y-68691548D01*
X109986103Y-68716534D01*
X109951367Y-68735101D01*
X109913674Y-68746535D01*
X109868339Y-68751000D01*
X109031661Y-68751000D01*
X108986326Y-68746535D01*
X108948633Y-68735101D01*
X108913897Y-68716534D01*
X108883452Y-68691548D01*
X108858466Y-68661103D01*
X108839899Y-68626367D01*
X108828465Y-68588674D01*
X108824000Y-68543339D01*
X108824000Y-67456661D01*
X108828465Y-67411326D01*
X108839899Y-67373633D01*
X108858466Y-67338897D01*
X108883452Y-67308452D01*
X108913897Y-67283466D01*
X108948633Y-67264899D01*
X108986326Y-67253465D01*
X109031661Y-67249000D01*
X109868339Y-67249000D01*
X109913674Y-67253465D01*
X109913674Y-67253465D01*
G37*
G36*
X94248228Y-66831703D02*
G01*
X94403100Y-66895853D01*
X94542481Y-66988985D01*
X94661015Y-67107519D01*
X94754147Y-67246900D01*
X94818297Y-67401772D01*
X94851000Y-67566184D01*
X94851000Y-67733816D01*
X94818297Y-67898228D01*
X94754147Y-68053100D01*
X94661015Y-68192481D01*
X94542481Y-68311015D01*
X94403100Y-68404147D01*
X94248228Y-68468297D01*
X94083816Y-68501000D01*
X93916184Y-68501000D01*
X93751772Y-68468297D01*
X93596900Y-68404147D01*
X93457519Y-68311015D01*
X93338985Y-68192481D01*
X93245853Y-68053100D01*
X93181703Y-67898228D01*
X93149000Y-67733816D01*
X93149000Y-67566184D01*
X93181703Y-67401772D01*
X93245853Y-67246900D01*
X93338985Y-67107519D01*
X93457519Y-66988985D01*
X93596900Y-66895853D01*
X93751772Y-66831703D01*
X93916184Y-66799000D01*
X94083816Y-66799000D01*
X94248228Y-66831703D01*
X94248228Y-66831703D01*
G37*
G36*
X107501000Y-67951000D02*
G01*
X106499000Y-67951000D01*
X106499000Y-67049000D01*
X107501000Y-67049000D01*
X107501000Y-67951000D01*
X107501000Y-67951000D01*
G37*
G36*
X102294375Y-66200942D02*
G01*
X102307437Y-66204904D01*
X102319465Y-66211333D01*
X102330011Y-66219989D01*
X102338667Y-66230535D01*
X102345096Y-66242563D01*
X102349058Y-66255625D01*
X102351000Y-66275341D01*
X102351000Y-67824659D01*
X102349058Y-67844375D01*
X102345096Y-67857437D01*
X102338667Y-67869465D01*
X102330011Y-67880011D01*
X102319465Y-67888667D01*
X102307437Y-67895096D01*
X102294375Y-67899058D01*
X102274659Y-67901000D01*
X100725341Y-67901000D01*
X100705625Y-67899058D01*
X100692563Y-67895096D01*
X100680535Y-67888667D01*
X100669989Y-67880011D01*
X100661333Y-67869465D01*
X100654904Y-67857437D01*
X100650942Y-67844375D01*
X100649000Y-67824659D01*
X100649000Y-66275341D01*
X100650942Y-66255625D01*
X100654904Y-66242563D01*
X100661333Y-66230535D01*
X100669989Y-66219989D01*
X100680535Y-66211333D01*
X100692563Y-66204904D01*
X100705625Y-66200942D01*
X100725341Y-66199000D01*
X102274659Y-66199000D01*
X102294375Y-66200942D01*
X102294375Y-66200942D01*
G37*
G36*
X113701000Y-67401000D02*
G01*
X112699000Y-67401000D01*
X112699000Y-66499000D01*
X113701000Y-66499000D01*
X113701000Y-67401000D01*
X113701000Y-67401000D01*
G37*
G36*
X105501000Y-67001000D02*
G01*
X104499000Y-67001000D01*
X104499000Y-66099000D01*
X105501000Y-66099000D01*
X105501000Y-67001000D01*
X105501000Y-67001000D01*
G37*
G36*
X115701000Y-66451000D02*
G01*
X114699000Y-66451000D01*
X114699000Y-65549000D01*
X115701000Y-65549000D01*
X115701000Y-66451000D01*
X115701000Y-66451000D01*
G37*
G36*
X113701000Y-65501000D02*
G01*
X112699000Y-65501000D01*
X112699000Y-64599000D01*
X113701000Y-64599000D01*
X113701000Y-65501000D01*
X113701000Y-65501000D01*
G37*
G36*
X98501000Y-65401000D02*
G01*
X97499000Y-65401000D01*
X97499000Y-64499000D01*
X98501000Y-64499000D01*
X98501000Y-65401000D01*
X98501000Y-65401000D01*
G37*
G36*
X102501000Y-65401000D02*
G01*
X101499000Y-65401000D01*
X101499000Y-64499000D01*
X102501000Y-64499000D01*
X102501000Y-65401000D01*
X102501000Y-65401000D01*
G37*
G36*
X108001000Y-64901000D02*
G01*
X106999000Y-64901000D01*
X106999000Y-63999000D01*
X108001000Y-63999000D01*
X108001000Y-64901000D01*
X108001000Y-64901000D01*
G37*
G36*
X100501000Y-64451000D02*
G01*
X99499000Y-64451000D01*
X99499000Y-63549000D01*
X100501000Y-63549000D01*
X100501000Y-64451000D01*
X100501000Y-64451000D01*
G37*
G36*
X104501000Y-64451000D02*
G01*
X103499000Y-64451000D01*
X103499000Y-63549000D01*
X104501000Y-63549000D01*
X104501000Y-64451000D01*
X104501000Y-64451000D01*
G37*
G36*
X110001000Y-63951000D02*
G01*
X108999000Y-63951000D01*
X108999000Y-63049000D01*
X110001000Y-63049000D01*
X110001000Y-63951000D01*
X110001000Y-63951000D01*
G37*
G36*
X111938674Y-62253465D02*
G01*
X111976367Y-62264899D01*
X112011103Y-62283466D01*
X112041548Y-62308452D01*
X112066534Y-62338897D01*
X112085101Y-62373633D01*
X112096535Y-62411326D01*
X112101000Y-62456661D01*
X112101000Y-63543339D01*
X112096535Y-63588674D01*
X112085101Y-63626367D01*
X112066534Y-63661103D01*
X112041548Y-63691548D01*
X112011103Y-63716534D01*
X111976367Y-63735101D01*
X111938674Y-63746535D01*
X111893339Y-63751000D01*
X111056661Y-63751000D01*
X111011326Y-63746535D01*
X110973633Y-63735101D01*
X110938897Y-63716534D01*
X110908452Y-63691548D01*
X110883466Y-63661103D01*
X110864899Y-63626367D01*
X110853465Y-63588674D01*
X110849000Y-63543339D01*
X110849000Y-62456661D01*
X110853465Y-62411326D01*
X110864899Y-62373633D01*
X110883466Y-62338897D01*
X110908452Y-62308452D01*
X110938897Y-62283466D01*
X110973633Y-62264899D01*
X111011326Y-62253465D01*
X111056661Y-62249000D01*
X111893339Y-62249000D01*
X111938674Y-62253465D01*
X111938674Y-62253465D01*
G37*
G36*
X113988674Y-62253465D02*
G01*
X114026367Y-62264899D01*
X114061103Y-62283466D01*
X114091548Y-62308452D01*
X114116534Y-62338897D01*
X114135101Y-62373633D01*
X114146535Y-62411326D01*
X114151000Y-62456661D01*
X114151000Y-63543339D01*
X114146535Y-63588674D01*
X114135101Y-63626367D01*
X114116534Y-63661103D01*
X114091548Y-63691548D01*
X114061103Y-63716534D01*
X114026367Y-63735101D01*
X113988674Y-63746535D01*
X113943339Y-63751000D01*
X113106661Y-63751000D01*
X113061326Y-63746535D01*
X113023633Y-63735101D01*
X112988897Y-63716534D01*
X112958452Y-63691548D01*
X112933466Y-63661103D01*
X112914899Y-63626367D01*
X112903465Y-63588674D01*
X112899000Y-63543339D01*
X112899000Y-62456661D01*
X112903465Y-62411326D01*
X112914899Y-62373633D01*
X112933466Y-62338897D01*
X112958452Y-62308452D01*
X112988897Y-62283466D01*
X113023633Y-62264899D01*
X113061326Y-62253465D01*
X113106661Y-62249000D01*
X113943339Y-62249000D01*
X113988674Y-62253465D01*
X113988674Y-62253465D01*
G37*
G36*
X102501000Y-63501000D02*
G01*
X101499000Y-63501000D01*
X101499000Y-62599000D01*
X102501000Y-62599000D01*
X102501000Y-63501000D01*
X102501000Y-63501000D01*
G37*
G36*
X98501000Y-63501000D02*
G01*
X97499000Y-63501000D01*
X97499000Y-62599000D01*
X98501000Y-62599000D01*
X98501000Y-63501000D01*
X98501000Y-63501000D01*
G37*
G36*
X108001000Y-63001000D02*
G01*
X106999000Y-63001000D01*
X106999000Y-62099000D01*
X108001000Y-62099000D01*
X108001000Y-63001000D01*
X108001000Y-63001000D01*
G37*
G36*
X110988674Y-59753465D02*
G01*
X111026367Y-59764899D01*
X111061103Y-59783466D01*
X111091548Y-59808452D01*
X111116534Y-59838897D01*
X111135101Y-59873633D01*
X111146535Y-59911326D01*
X111151000Y-59956661D01*
X111151000Y-61043339D01*
X111146535Y-61088674D01*
X111135101Y-61126367D01*
X111116534Y-61161103D01*
X111091548Y-61191548D01*
X111061103Y-61216534D01*
X111026367Y-61235101D01*
X110988674Y-61246535D01*
X110943339Y-61251000D01*
X110106661Y-61251000D01*
X110061326Y-61246535D01*
X110023633Y-61235101D01*
X109988897Y-61216534D01*
X109958452Y-61191548D01*
X109933466Y-61161103D01*
X109914899Y-61126367D01*
X109903465Y-61088674D01*
X109899000Y-61043339D01*
X109899000Y-59956661D01*
X109903465Y-59911326D01*
X109914899Y-59873633D01*
X109933466Y-59838897D01*
X109958452Y-59808452D01*
X109988897Y-59783466D01*
X110023633Y-59764899D01*
X110061326Y-59753465D01*
X110106661Y-59749000D01*
X110943339Y-59749000D01*
X110988674Y-59753465D01*
X110988674Y-59753465D01*
G37*
G36*
X108938674Y-59753465D02*
G01*
X108976367Y-59764899D01*
X109011103Y-59783466D01*
X109041548Y-59808452D01*
X109066534Y-59838897D01*
X109085101Y-59873633D01*
X109096535Y-59911326D01*
X109101000Y-59956661D01*
X109101000Y-61043339D01*
X109096535Y-61088674D01*
X109085101Y-61126367D01*
X109066534Y-61161103D01*
X109041548Y-61191548D01*
X109011103Y-61216534D01*
X108976367Y-61235101D01*
X108938674Y-61246535D01*
X108893339Y-61251000D01*
X108056661Y-61251000D01*
X108011326Y-61246535D01*
X107973633Y-61235101D01*
X107938897Y-61216534D01*
X107908452Y-61191548D01*
X107883466Y-61161103D01*
X107864899Y-61126367D01*
X107853465Y-61088674D01*
X107849000Y-61043339D01*
X107849000Y-59956661D01*
X107853465Y-59911326D01*
X107864899Y-59873633D01*
X107883466Y-59838897D01*
X107908452Y-59808452D01*
X107938897Y-59783466D01*
X107973633Y-59764899D01*
X108011326Y-59753465D01*
X108056661Y-59749000D01*
X108893339Y-59749000D01*
X108938674Y-59753465D01*
X108938674Y-59753465D01*
G37*
M02*
