G04 #@! TF.GenerationSoftware,KiCad,Pcbnew,5.1.2*
G04 #@! TF.CreationDate,2019-05-24T19:47:36-03:00*
G04 #@! TF.ProjectId,ouroboros,6f75726f-626f-4726-9f73-2e6b69636164,rev?*
G04 #@! TF.SameCoordinates,Original*
G04 #@! TF.FileFunction,Legend,Bot*
G04 #@! TF.FilePolarity,Positive*
%FSLAX46Y46*%
G04 Gerber Fmt 4.6, Leading zero omitted, Abs format (unit mm)*
G04 Created by KiCad (PCBNEW 5.1.2) date 2019-05-24 19:47:36*
%MOMM*%
%LPD*%
G04 APERTURE LIST*
%ADD10C,0.150000*%
%ADD11C,0.120000*%
%ADD12C,0.050000*%
%ADD13C,0.100000*%
G04 APERTURE END LIST*
D10*
X91771428Y-80021428D02*
X91571428Y-80621428D01*
X91371428Y-80021428D01*
X91200000Y-80592857D02*
X91114285Y-80621428D01*
X90971428Y-80621428D01*
X90914285Y-80592857D01*
X90885714Y-80564285D01*
X90857142Y-80507142D01*
X90857142Y-80450000D01*
X90885714Y-80392857D01*
X90914285Y-80364285D01*
X90971428Y-80335714D01*
X91085714Y-80307142D01*
X91142857Y-80278571D01*
X91171428Y-80250000D01*
X91200000Y-80192857D01*
X91200000Y-80135714D01*
X91171428Y-80078571D01*
X91142857Y-80050000D01*
X91085714Y-80021428D01*
X90942857Y-80021428D01*
X90857142Y-80050000D01*
X90628571Y-80592857D02*
X90542857Y-80621428D01*
X90400000Y-80621428D01*
X90342857Y-80592857D01*
X90314285Y-80564285D01*
X90285714Y-80507142D01*
X90285714Y-80450000D01*
X90314285Y-80392857D01*
X90342857Y-80364285D01*
X90400000Y-80335714D01*
X90514285Y-80307142D01*
X90571428Y-80278571D01*
X90600000Y-80250000D01*
X90628571Y-80192857D01*
X90628571Y-80135714D01*
X90600000Y-80078571D01*
X90571428Y-80050000D01*
X90514285Y-80021428D01*
X90371428Y-80021428D01*
X90285714Y-80050000D01*
X91457142Y-77510000D02*
X91514285Y-77481428D01*
X91600000Y-77481428D01*
X91685714Y-77510000D01*
X91742857Y-77567142D01*
X91771428Y-77624285D01*
X91800000Y-77738571D01*
X91800000Y-77824285D01*
X91771428Y-77938571D01*
X91742857Y-77995714D01*
X91685714Y-78052857D01*
X91600000Y-78081428D01*
X91542857Y-78081428D01*
X91457142Y-78052857D01*
X91428571Y-78024285D01*
X91428571Y-77824285D01*
X91542857Y-77824285D01*
X91171428Y-78081428D02*
X91171428Y-77481428D01*
X90828571Y-78081428D01*
X90828571Y-77481428D01*
X90542857Y-78081428D02*
X90542857Y-77481428D01*
X90400000Y-77481428D01*
X90314285Y-77510000D01*
X90257142Y-77567142D01*
X90228571Y-77624285D01*
X90200000Y-77738571D01*
X90200000Y-77824285D01*
X90228571Y-77938571D01*
X90257142Y-77995714D01*
X90314285Y-78052857D01*
X90400000Y-78081428D01*
X90542857Y-78081428D01*
X91957142Y-74941428D02*
X91757142Y-75541428D01*
X91557142Y-74941428D01*
X91242857Y-74941428D02*
X91128571Y-74941428D01*
X91071428Y-74970000D01*
X91014285Y-75027142D01*
X90985714Y-75141428D01*
X90985714Y-75341428D01*
X91014285Y-75455714D01*
X91071428Y-75512857D01*
X91128571Y-75541428D01*
X91242857Y-75541428D01*
X91300000Y-75512857D01*
X91357142Y-75455714D01*
X91385714Y-75341428D01*
X91385714Y-75141428D01*
X91357142Y-75027142D01*
X91300000Y-74970000D01*
X91242857Y-74941428D01*
X90471428Y-75141428D02*
X90471428Y-75541428D01*
X90728571Y-75141428D02*
X90728571Y-75455714D01*
X90700000Y-75512857D01*
X90642857Y-75541428D01*
X90557142Y-75541428D01*
X90500000Y-75512857D01*
X90471428Y-75484285D01*
X90271428Y-75141428D02*
X90042857Y-75141428D01*
X90185714Y-74941428D02*
X90185714Y-75455714D01*
X90157142Y-75512857D01*
X90100000Y-75541428D01*
X90042857Y-75541428D01*
X91571428Y-72401428D02*
X91371428Y-73001428D01*
X91171428Y-72401428D01*
X90971428Y-72772857D02*
X90514285Y-72772857D01*
X90742857Y-73001428D02*
X90742857Y-72544285D01*
X91571428Y-69861428D02*
X91371428Y-70461428D01*
X91171428Y-69861428D01*
X90971428Y-70232857D02*
X90514285Y-70232857D01*
X91800000Y-67321428D02*
X91600000Y-67921428D01*
X91400000Y-67321428D01*
X90857142Y-67864285D02*
X90885714Y-67892857D01*
X90971428Y-67921428D01*
X91028571Y-67921428D01*
X91114285Y-67892857D01*
X91171428Y-67835714D01*
X91200000Y-67778571D01*
X91228571Y-67664285D01*
X91228571Y-67578571D01*
X91200000Y-67464285D01*
X91171428Y-67407142D01*
X91114285Y-67350000D01*
X91028571Y-67321428D01*
X90971428Y-67321428D01*
X90885714Y-67350000D01*
X90857142Y-67378571D01*
X90257142Y-67864285D02*
X90285714Y-67892857D01*
X90371428Y-67921428D01*
X90428571Y-67921428D01*
X90514285Y-67892857D01*
X90571428Y-67835714D01*
X90600000Y-67778571D01*
X90628571Y-67664285D01*
X90628571Y-67578571D01*
X90600000Y-67464285D01*
X90571428Y-67407142D01*
X90514285Y-67350000D01*
X90428571Y-67321428D01*
X90371428Y-67321428D01*
X90285714Y-67350000D01*
X90257142Y-67378571D01*
D11*
X123000000Y-59000000D02*
G75*
G02X125500000Y-61500000I0J-2500000D01*
G01*
X125500000Y-86500000D02*
G75*
G02X123000000Y-89000000I-2500000J0D01*
G01*
X89000000Y-61500000D02*
G75*
G02X91500000Y-59000000I2500000J0D01*
G01*
D12*
X59666666Y-68000000D02*
G75*
G03X59666666Y-68000000I-1666666J0D01*
G01*
X55500000Y-68000000D02*
X60500000Y-68000000D01*
X58000000Y-65500000D02*
X58000000Y-70500000D01*
D13*
G36*
X94000000Y-65500000D02*
G01*
X93250000Y-64250000D01*
X94750000Y-64250000D01*
X94000000Y-65500000D01*
G37*
X94000000Y-65500000D02*
X93250000Y-64250000D01*
X94750000Y-64250000D01*
X94000000Y-65500000D01*
D11*
X89000000Y-89000000D02*
X89000000Y-61500000D01*
X123000000Y-89000000D02*
X89000000Y-89000000D01*
X125500000Y-61500000D02*
X125500000Y-86500000D01*
X91500000Y-59000000D02*
X123000000Y-59000000D01*
X106790000Y-70261252D02*
X106790000Y-69738748D01*
X108210000Y-70261252D02*
X108210000Y-69738748D01*
X118500000Y-75750000D02*
X120500000Y-75750000D01*
X120500000Y-75750000D02*
X120500000Y-79650000D01*
X118500000Y-75750000D02*
X118500000Y-79650000D01*
X118500000Y-69750000D02*
X120500000Y-69750000D01*
X120500000Y-69750000D02*
X120500000Y-73650000D01*
X118500000Y-69750000D02*
X118500000Y-73650000D01*
X98240000Y-82580000D02*
X99700000Y-82580000D01*
X98240000Y-79420000D02*
X100400000Y-79420000D01*
X98240000Y-79420000D02*
X98240000Y-80350000D01*
X98240000Y-82580000D02*
X98240000Y-81650000D01*
X103760000Y-76420000D02*
X103760000Y-77350000D01*
X103760000Y-79580000D02*
X103760000Y-78650000D01*
X103760000Y-79580000D02*
X101600000Y-79580000D01*
X103760000Y-76420000D02*
X102300000Y-76420000D01*
X106760000Y-79420000D02*
X105300000Y-79420000D01*
X106760000Y-82580000D02*
X104600000Y-82580000D01*
X106760000Y-82580000D02*
X106760000Y-81650000D01*
X106760000Y-79420000D02*
X106760000Y-80350000D01*
X111760000Y-80920000D02*
X110300000Y-80920000D01*
X111760000Y-84080000D02*
X109600000Y-84080000D01*
X111760000Y-84080000D02*
X111760000Y-83150000D01*
X111760000Y-80920000D02*
X111760000Y-81850000D01*
X115240000Y-77080000D02*
X116700000Y-77080000D01*
X115240000Y-73920000D02*
X117400000Y-73920000D01*
X115240000Y-73920000D02*
X115240000Y-74850000D01*
X115240000Y-77080000D02*
X115240000Y-76150000D01*
X114240000Y-82430000D02*
X114240000Y-81500000D01*
X114240000Y-79270000D02*
X114240000Y-80200000D01*
X114240000Y-79270000D02*
X116400000Y-79270000D01*
X114240000Y-82430000D02*
X115700000Y-82430000D01*
X112740000Y-86580000D02*
X114200000Y-86580000D01*
X112740000Y-83420000D02*
X114900000Y-83420000D01*
X112740000Y-83420000D02*
X112740000Y-84350000D01*
X112740000Y-86580000D02*
X112740000Y-85650000D01*
X113760000Y-67420000D02*
X113760000Y-68350000D01*
X113760000Y-70580000D02*
X113760000Y-69650000D01*
X113760000Y-70580000D02*
X111600000Y-70580000D01*
X113760000Y-67420000D02*
X112300000Y-67420000D01*
X116240000Y-87580000D02*
X117700000Y-87580000D01*
X116240000Y-84420000D02*
X118400000Y-84420000D01*
X116240000Y-84420000D02*
X116240000Y-85350000D01*
X116240000Y-87580000D02*
X116240000Y-86650000D01*
X103710000Y-68261252D02*
X103710000Y-67738748D01*
X102290000Y-68261252D02*
X102290000Y-67738748D01*
X97290000Y-63738748D02*
X97290000Y-64261252D01*
X98710000Y-63738748D02*
X98710000Y-64261252D01*
X100710000Y-63261252D02*
X100710000Y-62738748D01*
X99290000Y-63261252D02*
X99290000Y-62738748D01*
X101511252Y-71960000D02*
X100988748Y-71960000D01*
X101511252Y-70540000D02*
X100988748Y-70540000D01*
X104290000Y-74511252D02*
X104290000Y-73988748D01*
X105710000Y-74511252D02*
X105710000Y-73988748D01*
X102761252Y-82790000D02*
X102238748Y-82790000D01*
X102761252Y-84210000D02*
X102238748Y-84210000D01*
X103710000Y-64261252D02*
X103710000Y-63738748D01*
X102290000Y-64261252D02*
X102290000Y-63738748D01*
X106761252Y-84710000D02*
X106238748Y-84710000D01*
X106761252Y-83290000D02*
X106238748Y-83290000D01*
X99290000Y-68261252D02*
X99290000Y-67738748D01*
X100710000Y-68261252D02*
X100710000Y-67738748D01*
X102238748Y-86710000D02*
X102761252Y-86710000D01*
X102238748Y-85290000D02*
X102761252Y-85290000D01*
X109290000Y-67738748D02*
X109290000Y-68261252D01*
X110710000Y-67738748D02*
X110710000Y-68261252D01*
X118790000Y-82761252D02*
X118790000Y-82238748D01*
X120210000Y-82761252D02*
X120210000Y-82238748D01*
X100350000Y-72640000D02*
X102150000Y-72640000D01*
X102150000Y-75860000D02*
X99700000Y-75860000D01*
D10*
X107714285Y-67200000D02*
X107742857Y-67171428D01*
X107771428Y-67085714D01*
X107771428Y-67028571D01*
X107742857Y-66942857D01*
X107685714Y-66885714D01*
X107628571Y-66857142D01*
X107514285Y-66828571D01*
X107428571Y-66828571D01*
X107314285Y-66857142D01*
X107257142Y-66885714D01*
X107200000Y-66942857D01*
X107171428Y-67028571D01*
X107171428Y-67085714D01*
X107200000Y-67171428D01*
X107228571Y-67200000D01*
X107771428Y-67771428D02*
X107771428Y-67428571D01*
X107771428Y-67600000D02*
X107171428Y-67600000D01*
X107257142Y-67542857D01*
X107314285Y-67485714D01*
X107342857Y-67428571D01*
X121521428Y-78057142D02*
X120921428Y-78057142D01*
X120921428Y-78200000D01*
X120950000Y-78285714D01*
X121007142Y-78342857D01*
X121064285Y-78371428D01*
X121178571Y-78400000D01*
X121264285Y-78400000D01*
X121378571Y-78371428D01*
X121435714Y-78342857D01*
X121492857Y-78285714D01*
X121521428Y-78200000D01*
X121521428Y-78057142D01*
X120921428Y-78600000D02*
X120921428Y-78971428D01*
X121150000Y-78771428D01*
X121150000Y-78857142D01*
X121178571Y-78914285D01*
X121207142Y-78942857D01*
X121264285Y-78971428D01*
X121407142Y-78971428D01*
X121464285Y-78942857D01*
X121492857Y-78914285D01*
X121521428Y-78857142D01*
X121521428Y-78685714D01*
X121492857Y-78628571D01*
X121464285Y-78600000D01*
X121521428Y-71807142D02*
X120921428Y-71807142D01*
X120921428Y-71950000D01*
X120950000Y-72035714D01*
X121007142Y-72092857D01*
X121064285Y-72121428D01*
X121178571Y-72150000D01*
X121264285Y-72150000D01*
X121378571Y-72121428D01*
X121435714Y-72092857D01*
X121492857Y-72035714D01*
X121521428Y-71950000D01*
X121521428Y-71807142D01*
X121121428Y-72664285D02*
X121521428Y-72664285D01*
X120892857Y-72521428D02*
X121321428Y-72378571D01*
X121321428Y-72750000D01*
X99057142Y-83728571D02*
X99114285Y-83700000D01*
X99171428Y-83642857D01*
X99257142Y-83557142D01*
X99314285Y-83528571D01*
X99371428Y-83528571D01*
X99342857Y-83671428D02*
X99400000Y-83642857D01*
X99457142Y-83585714D01*
X99485714Y-83471428D01*
X99485714Y-83271428D01*
X99457142Y-83157142D01*
X99400000Y-83100000D01*
X99342857Y-83071428D01*
X99228571Y-83071428D01*
X99171428Y-83100000D01*
X99114285Y-83157142D01*
X99085714Y-83271428D01*
X99085714Y-83471428D01*
X99114285Y-83585714D01*
X99171428Y-83642857D01*
X99228571Y-83671428D01*
X99342857Y-83671428D01*
X98514285Y-83671428D02*
X98857142Y-83671428D01*
X98685714Y-83671428D02*
X98685714Y-83071428D01*
X98742857Y-83157142D01*
X98800000Y-83214285D01*
X98857142Y-83242857D01*
X100828571Y-77942857D02*
X100800000Y-77885714D01*
X100742857Y-77828571D01*
X100657142Y-77742857D01*
X100628571Y-77685714D01*
X100628571Y-77628571D01*
X100771428Y-77657142D02*
X100742857Y-77600000D01*
X100685714Y-77542857D01*
X100571428Y-77514285D01*
X100371428Y-77514285D01*
X100257142Y-77542857D01*
X100200000Y-77600000D01*
X100171428Y-77657142D01*
X100171428Y-77771428D01*
X100200000Y-77828571D01*
X100257142Y-77885714D01*
X100371428Y-77914285D01*
X100571428Y-77914285D01*
X100685714Y-77885714D01*
X100742857Y-77828571D01*
X100771428Y-77771428D01*
X100771428Y-77657142D01*
X100171428Y-78114285D02*
X100171428Y-78514285D01*
X100771428Y-78257142D01*
X105557142Y-78828571D02*
X105614285Y-78800000D01*
X105671428Y-78742857D01*
X105757142Y-78657142D01*
X105814285Y-78628571D01*
X105871428Y-78628571D01*
X105842857Y-78771428D02*
X105900000Y-78742857D01*
X105957142Y-78685714D01*
X105985714Y-78571428D01*
X105985714Y-78371428D01*
X105957142Y-78257142D01*
X105900000Y-78200000D01*
X105842857Y-78171428D01*
X105728571Y-78171428D01*
X105671428Y-78200000D01*
X105614285Y-78257142D01*
X105585714Y-78371428D01*
X105585714Y-78571428D01*
X105614285Y-78685714D01*
X105671428Y-78742857D01*
X105728571Y-78771428D01*
X105842857Y-78771428D01*
X105300000Y-78771428D02*
X105185714Y-78771428D01*
X105128571Y-78742857D01*
X105100000Y-78714285D01*
X105042857Y-78628571D01*
X105014285Y-78514285D01*
X105014285Y-78285714D01*
X105042857Y-78228571D01*
X105071428Y-78200000D01*
X105128571Y-78171428D01*
X105242857Y-78171428D01*
X105300000Y-78200000D01*
X105328571Y-78228571D01*
X105357142Y-78285714D01*
X105357142Y-78428571D01*
X105328571Y-78485714D01*
X105300000Y-78514285D01*
X105242857Y-78542857D01*
X105128571Y-78542857D01*
X105071428Y-78514285D01*
X105042857Y-78485714D01*
X105014285Y-78428571D01*
X110942857Y-85228571D02*
X111000000Y-85200000D01*
X111057142Y-85142857D01*
X111142857Y-85057142D01*
X111200000Y-85028571D01*
X111257142Y-85028571D01*
X111228571Y-85171428D02*
X111285714Y-85142857D01*
X111342857Y-85085714D01*
X111371428Y-84971428D01*
X111371428Y-84771428D01*
X111342857Y-84657142D01*
X111285714Y-84600000D01*
X111228571Y-84571428D01*
X111114285Y-84571428D01*
X111057142Y-84600000D01*
X111000000Y-84657142D01*
X110971428Y-84771428D01*
X110971428Y-84971428D01*
X111000000Y-85085714D01*
X111057142Y-85142857D01*
X111114285Y-85171428D01*
X111228571Y-85171428D01*
X110400000Y-85171428D02*
X110742857Y-85171428D01*
X110571428Y-85171428D02*
X110571428Y-84571428D01*
X110628571Y-84657142D01*
X110685714Y-84714285D01*
X110742857Y-84742857D01*
X109885714Y-84571428D02*
X110000000Y-84571428D01*
X110057142Y-84600000D01*
X110085714Y-84628571D01*
X110142857Y-84714285D01*
X110171428Y-84828571D01*
X110171428Y-85057142D01*
X110142857Y-85114285D01*
X110114285Y-85142857D01*
X110057142Y-85171428D01*
X109942857Y-85171428D01*
X109885714Y-85142857D01*
X109857142Y-85114285D01*
X109828571Y-85057142D01*
X109828571Y-84914285D01*
X109857142Y-84857142D01*
X109885714Y-84828571D01*
X109942857Y-84800000D01*
X110057142Y-84800000D01*
X110114285Y-84828571D01*
X110142857Y-84857142D01*
X110171428Y-84914285D01*
X116592857Y-73578571D02*
X116650000Y-73550000D01*
X116707142Y-73492857D01*
X116792857Y-73407142D01*
X116850000Y-73378571D01*
X116907142Y-73378571D01*
X116878571Y-73521428D02*
X116935714Y-73492857D01*
X116992857Y-73435714D01*
X117021428Y-73321428D01*
X117021428Y-73121428D01*
X116992857Y-73007142D01*
X116935714Y-72950000D01*
X116878571Y-72921428D01*
X116764285Y-72921428D01*
X116707142Y-72950000D01*
X116650000Y-73007142D01*
X116621428Y-73121428D01*
X116621428Y-73321428D01*
X116650000Y-73435714D01*
X116707142Y-73492857D01*
X116764285Y-73521428D01*
X116878571Y-73521428D01*
X116392857Y-72978571D02*
X116364285Y-72950000D01*
X116307142Y-72921428D01*
X116164285Y-72921428D01*
X116107142Y-72950000D01*
X116078571Y-72978571D01*
X116050000Y-73035714D01*
X116050000Y-73092857D01*
X116078571Y-73178571D01*
X116421428Y-73521428D01*
X116050000Y-73521428D01*
X115821428Y-72978571D02*
X115792857Y-72950000D01*
X115735714Y-72921428D01*
X115592857Y-72921428D01*
X115535714Y-72950000D01*
X115507142Y-72978571D01*
X115478571Y-73035714D01*
X115478571Y-73092857D01*
X115507142Y-73178571D01*
X115850000Y-73521428D01*
X115478571Y-73521428D01*
X115592857Y-78928571D02*
X115650000Y-78900000D01*
X115707142Y-78842857D01*
X115792857Y-78757142D01*
X115850000Y-78728571D01*
X115907142Y-78728571D01*
X115878571Y-78871428D02*
X115935714Y-78842857D01*
X115992857Y-78785714D01*
X116021428Y-78671428D01*
X116021428Y-78471428D01*
X115992857Y-78357142D01*
X115935714Y-78300000D01*
X115878571Y-78271428D01*
X115764285Y-78271428D01*
X115707142Y-78300000D01*
X115650000Y-78357142D01*
X115621428Y-78471428D01*
X115621428Y-78671428D01*
X115650000Y-78785714D01*
X115707142Y-78842857D01*
X115764285Y-78871428D01*
X115878571Y-78871428D01*
X115392857Y-78328571D02*
X115364285Y-78300000D01*
X115307142Y-78271428D01*
X115164285Y-78271428D01*
X115107142Y-78300000D01*
X115078571Y-78328571D01*
X115050000Y-78385714D01*
X115050000Y-78442857D01*
X115078571Y-78528571D01*
X115421428Y-78871428D01*
X115050000Y-78871428D01*
X114850000Y-78271428D02*
X114478571Y-78271428D01*
X114678571Y-78500000D01*
X114592857Y-78500000D01*
X114535714Y-78528571D01*
X114507142Y-78557142D01*
X114478571Y-78614285D01*
X114478571Y-78757142D01*
X114507142Y-78814285D01*
X114535714Y-78842857D01*
X114592857Y-78871428D01*
X114764285Y-78871428D01*
X114821428Y-78842857D01*
X114850000Y-78814285D01*
X113842857Y-87828571D02*
X113900000Y-87800000D01*
X113957142Y-87742857D01*
X114042857Y-87657142D01*
X114100000Y-87628571D01*
X114157142Y-87628571D01*
X114128571Y-87771428D02*
X114185714Y-87742857D01*
X114242857Y-87685714D01*
X114271428Y-87571428D01*
X114271428Y-87371428D01*
X114242857Y-87257142D01*
X114185714Y-87200000D01*
X114128571Y-87171428D01*
X114014285Y-87171428D01*
X113957142Y-87200000D01*
X113900000Y-87257142D01*
X113871428Y-87371428D01*
X113871428Y-87571428D01*
X113900000Y-87685714D01*
X113957142Y-87742857D01*
X114014285Y-87771428D01*
X114128571Y-87771428D01*
X113642857Y-87228571D02*
X113614285Y-87200000D01*
X113557142Y-87171428D01*
X113414285Y-87171428D01*
X113357142Y-87200000D01*
X113328571Y-87228571D01*
X113300000Y-87285714D01*
X113300000Y-87342857D01*
X113328571Y-87428571D01*
X113671428Y-87771428D01*
X113300000Y-87771428D01*
X112785714Y-87371428D02*
X112785714Y-87771428D01*
X112928571Y-87142857D02*
X113071428Y-87571428D01*
X112700000Y-87571428D01*
X115828571Y-68657142D02*
X115800000Y-68600000D01*
X115742857Y-68542857D01*
X115657142Y-68457142D01*
X115628571Y-68400000D01*
X115628571Y-68342857D01*
X115771428Y-68371428D02*
X115742857Y-68314285D01*
X115685714Y-68257142D01*
X115571428Y-68228571D01*
X115371428Y-68228571D01*
X115257142Y-68257142D01*
X115200000Y-68314285D01*
X115171428Y-68371428D01*
X115171428Y-68485714D01*
X115200000Y-68542857D01*
X115257142Y-68600000D01*
X115371428Y-68628571D01*
X115571428Y-68628571D01*
X115685714Y-68600000D01*
X115742857Y-68542857D01*
X115771428Y-68485714D01*
X115771428Y-68371428D01*
X115228571Y-68857142D02*
X115200000Y-68885714D01*
X115171428Y-68942857D01*
X115171428Y-69085714D01*
X115200000Y-69142857D01*
X115228571Y-69171428D01*
X115285714Y-69200000D01*
X115342857Y-69200000D01*
X115428571Y-69171428D01*
X115771428Y-68828571D01*
X115771428Y-69200000D01*
X115171428Y-69742857D02*
X115171428Y-69457142D01*
X115457142Y-69428571D01*
X115428571Y-69457142D01*
X115400000Y-69514285D01*
X115400000Y-69657142D01*
X115428571Y-69714285D01*
X115457142Y-69742857D01*
X115514285Y-69771428D01*
X115657142Y-69771428D01*
X115714285Y-69742857D01*
X115742857Y-69714285D01*
X115771428Y-69657142D01*
X115771428Y-69514285D01*
X115742857Y-69457142D01*
X115714285Y-69428571D01*
X117642857Y-83728571D02*
X117700000Y-83700000D01*
X117757142Y-83642857D01*
X117842857Y-83557142D01*
X117900000Y-83528571D01*
X117957142Y-83528571D01*
X117928571Y-83671428D02*
X117985714Y-83642857D01*
X118042857Y-83585714D01*
X118071428Y-83471428D01*
X118071428Y-83271428D01*
X118042857Y-83157142D01*
X117985714Y-83100000D01*
X117928571Y-83071428D01*
X117814285Y-83071428D01*
X117757142Y-83100000D01*
X117700000Y-83157142D01*
X117671428Y-83271428D01*
X117671428Y-83471428D01*
X117700000Y-83585714D01*
X117757142Y-83642857D01*
X117814285Y-83671428D01*
X117928571Y-83671428D01*
X117442857Y-83128571D02*
X117414285Y-83100000D01*
X117357142Y-83071428D01*
X117214285Y-83071428D01*
X117157142Y-83100000D01*
X117128571Y-83128571D01*
X117100000Y-83185714D01*
X117100000Y-83242857D01*
X117128571Y-83328571D01*
X117471428Y-83671428D01*
X117100000Y-83671428D01*
X116585714Y-83071428D02*
X116700000Y-83071428D01*
X116757142Y-83100000D01*
X116785714Y-83128571D01*
X116842857Y-83214285D01*
X116871428Y-83328571D01*
X116871428Y-83557142D01*
X116842857Y-83614285D01*
X116814285Y-83642857D01*
X116757142Y-83671428D01*
X116642857Y-83671428D01*
X116585714Y-83642857D01*
X116557142Y-83614285D01*
X116528571Y-83557142D01*
X116528571Y-83414285D01*
X116557142Y-83357142D01*
X116585714Y-83328571D01*
X116642857Y-83300000D01*
X116757142Y-83300000D01*
X116814285Y-83328571D01*
X116842857Y-83357142D01*
X116871428Y-83414285D01*
X104771428Y-67900000D02*
X104485714Y-67700000D01*
X104771428Y-67557142D02*
X104171428Y-67557142D01*
X104171428Y-67785714D01*
X104200000Y-67842857D01*
X104228571Y-67871428D01*
X104285714Y-67900000D01*
X104371428Y-67900000D01*
X104428571Y-67871428D01*
X104457142Y-67842857D01*
X104485714Y-67785714D01*
X104485714Y-67557142D01*
X104771428Y-68471428D02*
X104771428Y-68128571D01*
X104771428Y-68300000D02*
X104171428Y-68300000D01*
X104257142Y-68242857D01*
X104314285Y-68185714D01*
X104342857Y-68128571D01*
X96821428Y-63925000D02*
X96535714Y-63725000D01*
X96821428Y-63582142D02*
X96221428Y-63582142D01*
X96221428Y-63810714D01*
X96250000Y-63867857D01*
X96278571Y-63896428D01*
X96335714Y-63925000D01*
X96421428Y-63925000D01*
X96478571Y-63896428D01*
X96507142Y-63867857D01*
X96535714Y-63810714D01*
X96535714Y-63582142D01*
X96221428Y-64125000D02*
X96221428Y-64496428D01*
X96450000Y-64296428D01*
X96450000Y-64382142D01*
X96478571Y-64439285D01*
X96507142Y-64467857D01*
X96564285Y-64496428D01*
X96707142Y-64496428D01*
X96764285Y-64467857D01*
X96792857Y-64439285D01*
X96821428Y-64382142D01*
X96821428Y-64210714D01*
X96792857Y-64153571D01*
X96764285Y-64125000D01*
X101771428Y-62900000D02*
X101485714Y-62700000D01*
X101771428Y-62557142D02*
X101171428Y-62557142D01*
X101171428Y-62785714D01*
X101200000Y-62842857D01*
X101228571Y-62871428D01*
X101285714Y-62900000D01*
X101371428Y-62900000D01*
X101428571Y-62871428D01*
X101457142Y-62842857D01*
X101485714Y-62785714D01*
X101485714Y-62557142D01*
X101371428Y-63414285D02*
X101771428Y-63414285D01*
X101142857Y-63271428D02*
X101571428Y-63128571D01*
X101571428Y-63500000D01*
X98771428Y-71150000D02*
X98485714Y-70950000D01*
X98771428Y-70807142D02*
X98171428Y-70807142D01*
X98171428Y-71035714D01*
X98200000Y-71092857D01*
X98228571Y-71121428D01*
X98285714Y-71150000D01*
X98371428Y-71150000D01*
X98428571Y-71121428D01*
X98457142Y-71092857D01*
X98485714Y-71035714D01*
X98485714Y-70807142D01*
X98171428Y-71692857D02*
X98171428Y-71407142D01*
X98457142Y-71378571D01*
X98428571Y-71407142D01*
X98400000Y-71464285D01*
X98400000Y-71607142D01*
X98428571Y-71664285D01*
X98457142Y-71692857D01*
X98514285Y-71721428D01*
X98657142Y-71721428D01*
X98714285Y-71692857D01*
X98742857Y-71664285D01*
X98771428Y-71607142D01*
X98771428Y-71464285D01*
X98742857Y-71407142D01*
X98714285Y-71378571D01*
X106771428Y-74150000D02*
X106485714Y-73950000D01*
X106771428Y-73807142D02*
X106171428Y-73807142D01*
X106171428Y-74035714D01*
X106200000Y-74092857D01*
X106228571Y-74121428D01*
X106285714Y-74150000D01*
X106371428Y-74150000D01*
X106428571Y-74121428D01*
X106457142Y-74092857D01*
X106485714Y-74035714D01*
X106485714Y-73807142D01*
X106171428Y-74664285D02*
X106171428Y-74550000D01*
X106200000Y-74492857D01*
X106228571Y-74464285D01*
X106314285Y-74407142D01*
X106428571Y-74378571D01*
X106657142Y-74378571D01*
X106714285Y-74407142D01*
X106742857Y-74435714D01*
X106771428Y-74492857D01*
X106771428Y-74607142D01*
X106742857Y-74664285D01*
X106714285Y-74692857D01*
X106657142Y-74721428D01*
X106514285Y-74721428D01*
X106457142Y-74692857D01*
X106428571Y-74664285D01*
X106400000Y-74607142D01*
X106400000Y-74492857D01*
X106428571Y-74435714D01*
X106457142Y-74407142D01*
X106514285Y-74378571D01*
X102600000Y-82371428D02*
X102800000Y-82085714D01*
X102942857Y-82371428D02*
X102942857Y-81771428D01*
X102714285Y-81771428D01*
X102657142Y-81800000D01*
X102628571Y-81828571D01*
X102600000Y-81885714D01*
X102600000Y-81971428D01*
X102628571Y-82028571D01*
X102657142Y-82057142D01*
X102714285Y-82085714D01*
X102942857Y-82085714D01*
X102400000Y-81771428D02*
X102000000Y-81771428D01*
X102257142Y-82371428D01*
X104771428Y-63900000D02*
X104485714Y-63700000D01*
X104771428Y-63557142D02*
X104171428Y-63557142D01*
X104171428Y-63785714D01*
X104200000Y-63842857D01*
X104228571Y-63871428D01*
X104285714Y-63900000D01*
X104371428Y-63900000D01*
X104428571Y-63871428D01*
X104457142Y-63842857D01*
X104485714Y-63785714D01*
X104485714Y-63557142D01*
X104428571Y-64242857D02*
X104400000Y-64185714D01*
X104371428Y-64157142D01*
X104314285Y-64128571D01*
X104285714Y-64128571D01*
X104228571Y-64157142D01*
X104200000Y-64185714D01*
X104171428Y-64242857D01*
X104171428Y-64357142D01*
X104200000Y-64414285D01*
X104228571Y-64442857D01*
X104285714Y-64471428D01*
X104314285Y-64471428D01*
X104371428Y-64442857D01*
X104400000Y-64414285D01*
X104428571Y-64357142D01*
X104428571Y-64242857D01*
X104457142Y-64185714D01*
X104485714Y-64157142D01*
X104542857Y-64128571D01*
X104657142Y-64128571D01*
X104714285Y-64157142D01*
X104742857Y-64185714D01*
X104771428Y-64242857D01*
X104771428Y-64357142D01*
X104742857Y-64414285D01*
X104714285Y-64442857D01*
X104657142Y-64471428D01*
X104542857Y-64471428D01*
X104485714Y-64442857D01*
X104457142Y-64414285D01*
X104428571Y-64357142D01*
X106600000Y-85871428D02*
X106800000Y-85585714D01*
X106942857Y-85871428D02*
X106942857Y-85271428D01*
X106714285Y-85271428D01*
X106657142Y-85300000D01*
X106628571Y-85328571D01*
X106600000Y-85385714D01*
X106600000Y-85471428D01*
X106628571Y-85528571D01*
X106657142Y-85557142D01*
X106714285Y-85585714D01*
X106942857Y-85585714D01*
X106314285Y-85871428D02*
X106200000Y-85871428D01*
X106142857Y-85842857D01*
X106114285Y-85814285D01*
X106057142Y-85728571D01*
X106028571Y-85614285D01*
X106028571Y-85385714D01*
X106057142Y-85328571D01*
X106085714Y-85300000D01*
X106142857Y-85271428D01*
X106257142Y-85271428D01*
X106314285Y-85300000D01*
X106342857Y-85328571D01*
X106371428Y-85385714D01*
X106371428Y-85528571D01*
X106342857Y-85585714D01*
X106314285Y-85614285D01*
X106257142Y-85642857D01*
X106142857Y-85642857D01*
X106085714Y-85614285D01*
X106057142Y-85585714D01*
X106028571Y-85528571D01*
X98771428Y-67614285D02*
X98485714Y-67414285D01*
X98771428Y-67271428D02*
X98171428Y-67271428D01*
X98171428Y-67500000D01*
X98200000Y-67557142D01*
X98228571Y-67585714D01*
X98285714Y-67614285D01*
X98371428Y-67614285D01*
X98428571Y-67585714D01*
X98457142Y-67557142D01*
X98485714Y-67500000D01*
X98485714Y-67271428D01*
X98771428Y-68185714D02*
X98771428Y-67842857D01*
X98771428Y-68014285D02*
X98171428Y-68014285D01*
X98257142Y-67957142D01*
X98314285Y-67900000D01*
X98342857Y-67842857D01*
X98171428Y-68557142D02*
X98171428Y-68614285D01*
X98200000Y-68671428D01*
X98228571Y-68700000D01*
X98285714Y-68728571D01*
X98400000Y-68757142D01*
X98542857Y-68757142D01*
X98657142Y-68728571D01*
X98714285Y-68700000D01*
X98742857Y-68671428D01*
X98771428Y-68614285D01*
X98771428Y-68557142D01*
X98742857Y-68500000D01*
X98714285Y-68471428D01*
X98657142Y-68442857D01*
X98542857Y-68414285D01*
X98400000Y-68414285D01*
X98285714Y-68442857D01*
X98228571Y-68471428D01*
X98200000Y-68500000D01*
X98171428Y-68557142D01*
X102885714Y-87771428D02*
X103085714Y-87485714D01*
X103228571Y-87771428D02*
X103228571Y-87171428D01*
X103000000Y-87171428D01*
X102942857Y-87200000D01*
X102914285Y-87228571D01*
X102885714Y-87285714D01*
X102885714Y-87371428D01*
X102914285Y-87428571D01*
X102942857Y-87457142D01*
X103000000Y-87485714D01*
X103228571Y-87485714D01*
X102314285Y-87771428D02*
X102657142Y-87771428D01*
X102485714Y-87771428D02*
X102485714Y-87171428D01*
X102542857Y-87257142D01*
X102600000Y-87314285D01*
X102657142Y-87342857D01*
X102085714Y-87228571D02*
X102057142Y-87200000D01*
X102000000Y-87171428D01*
X101857142Y-87171428D01*
X101800000Y-87200000D01*
X101771428Y-87228571D01*
X101742857Y-87285714D01*
X101742857Y-87342857D01*
X101771428Y-87428571D01*
X102114285Y-87771428D01*
X101742857Y-87771428D01*
X110385714Y-65771428D02*
X110585714Y-65485714D01*
X110728571Y-65771428D02*
X110728571Y-65171428D01*
X110500000Y-65171428D01*
X110442857Y-65200000D01*
X110414285Y-65228571D01*
X110385714Y-65285714D01*
X110385714Y-65371428D01*
X110414285Y-65428571D01*
X110442857Y-65457142D01*
X110500000Y-65485714D01*
X110728571Y-65485714D01*
X109814285Y-65771428D02*
X110157142Y-65771428D01*
X109985714Y-65771428D02*
X109985714Y-65171428D01*
X110042857Y-65257142D01*
X110100000Y-65314285D01*
X110157142Y-65342857D01*
X109471428Y-65428571D02*
X109528571Y-65400000D01*
X109557142Y-65371428D01*
X109585714Y-65314285D01*
X109585714Y-65285714D01*
X109557142Y-65228571D01*
X109528571Y-65200000D01*
X109471428Y-65171428D01*
X109357142Y-65171428D01*
X109300000Y-65200000D01*
X109271428Y-65228571D01*
X109242857Y-65285714D01*
X109242857Y-65314285D01*
X109271428Y-65371428D01*
X109300000Y-65400000D01*
X109357142Y-65428571D01*
X109471428Y-65428571D01*
X109528571Y-65457142D01*
X109557142Y-65485714D01*
X109585714Y-65542857D01*
X109585714Y-65657142D01*
X109557142Y-65714285D01*
X109528571Y-65742857D01*
X109471428Y-65771428D01*
X109357142Y-65771428D01*
X109300000Y-65742857D01*
X109271428Y-65714285D01*
X109242857Y-65657142D01*
X109242857Y-65542857D01*
X109271428Y-65485714D01*
X109300000Y-65457142D01*
X109357142Y-65428571D01*
X121271428Y-82114285D02*
X120985714Y-81914285D01*
X121271428Y-81771428D02*
X120671428Y-81771428D01*
X120671428Y-82000000D01*
X120700000Y-82057142D01*
X120728571Y-82085714D01*
X120785714Y-82114285D01*
X120871428Y-82114285D01*
X120928571Y-82085714D01*
X120957142Y-82057142D01*
X120985714Y-82000000D01*
X120985714Y-81771428D01*
X121271428Y-82685714D02*
X121271428Y-82342857D01*
X121271428Y-82514285D02*
X120671428Y-82514285D01*
X120757142Y-82457142D01*
X120814285Y-82400000D01*
X120842857Y-82342857D01*
X121271428Y-82971428D02*
X121271428Y-83085714D01*
X121242857Y-83142857D01*
X121214285Y-83171428D01*
X121128571Y-83228571D01*
X121014285Y-83257142D01*
X120785714Y-83257142D01*
X120728571Y-83228571D01*
X120700000Y-83200000D01*
X120671428Y-83142857D01*
X120671428Y-83028571D01*
X120700000Y-82971428D01*
X120728571Y-82942857D01*
X120785714Y-82914285D01*
X120928571Y-82914285D01*
X120985714Y-82942857D01*
X121014285Y-82971428D01*
X121042857Y-83028571D01*
X121042857Y-83142857D01*
X121014285Y-83200000D01*
X120985714Y-83228571D01*
X120928571Y-83257142D01*
X99178571Y-74707142D02*
X98692857Y-74707142D01*
X98635714Y-74678571D01*
X98607142Y-74650000D01*
X98578571Y-74592857D01*
X98578571Y-74478571D01*
X98607142Y-74421428D01*
X98635714Y-74392857D01*
X98692857Y-74364285D01*
X99178571Y-74364285D01*
X98578571Y-73764285D02*
X98578571Y-74107142D01*
X98578571Y-73935714D02*
X99178571Y-73935714D01*
X99092857Y-73992857D01*
X99035714Y-74050000D01*
X99007142Y-74107142D01*
M02*
