G04 #@! TF.GenerationSoftware,KiCad,Pcbnew,5.1.2*
G04 #@! TF.CreationDate,2019-05-24T19:47:36-03:00*
G04 #@! TF.ProjectId,ouroboros,6f75726f-626f-4726-9f73-2e6b69636164,rev?*
G04 #@! TF.SameCoordinates,Original*
G04 #@! TF.FileFunction,Drawing*
%FSLAX46Y46*%
G04 Gerber Fmt 4.6, Leading zero omitted, Abs format (unit mm)*
G04 Created by KiCad (PCBNEW 5.1.2) date 2019-05-24 19:47:36*
%MOMM*%
%LPD*%
G04 APERTURE LIST*
%ADD10C,0.150000*%
%ADD11C,0.120000*%
%ADD12C,0.050000*%
G04 APERTURE END LIST*
D10*
X90023809Y-50182380D02*
X89547619Y-50182380D01*
X89500000Y-50658571D01*
X89547619Y-50610952D01*
X89642857Y-50563333D01*
X89880952Y-50563333D01*
X89976190Y-50610952D01*
X90023809Y-50658571D01*
X90071428Y-50753809D01*
X90071428Y-50991904D01*
X90023809Y-51087142D01*
X89976190Y-51134761D01*
X89880952Y-51182380D01*
X89642857Y-51182380D01*
X89547619Y-51134761D01*
X89500000Y-51087142D01*
X91261904Y-51182380D02*
X91261904Y-50515714D01*
X91261904Y-50610952D02*
X91309523Y-50563333D01*
X91404761Y-50515714D01*
X91547619Y-50515714D01*
X91642857Y-50563333D01*
X91690476Y-50658571D01*
X91690476Y-51182380D01*
X91690476Y-50658571D02*
X91738095Y-50563333D01*
X91833333Y-50515714D01*
X91976190Y-50515714D01*
X92071428Y-50563333D01*
X92119047Y-50658571D01*
X92119047Y-51182380D01*
X92595238Y-51182380D02*
X92595238Y-50515714D01*
X92595238Y-50610952D02*
X92642857Y-50563333D01*
X92738095Y-50515714D01*
X92880952Y-50515714D01*
X92976190Y-50563333D01*
X93023809Y-50658571D01*
X93023809Y-51182380D01*
X93023809Y-50658571D02*
X93071428Y-50563333D01*
X93166666Y-50515714D01*
X93309523Y-50515714D01*
X93404761Y-50563333D01*
X93452380Y-50658571D01*
X93452380Y-51182380D01*
D11*
X94000000Y-52000000D02*
X89000000Y-52000000D01*
X94000000Y-66500000D02*
X94000000Y-51413579D01*
X89000000Y-66500000D02*
X89000000Y-51413579D01*
X89000000Y-52000000D02*
X90126504Y-51413579D01*
X89000000Y-52000000D02*
X90126504Y-52586421D01*
X94000000Y-52000000D02*
X92873496Y-51413579D01*
X94000000Y-52000000D02*
X92873496Y-52586421D01*
X123000000Y-59000000D02*
G75*
G02X125500000Y-61500000I0J-2500000D01*
G01*
X125500000Y-86500000D02*
G75*
G02X123000000Y-89000000I-2500000J0D01*
G01*
X89000000Y-61500000D02*
G75*
G02X91500000Y-59000000I2500000J0D01*
G01*
D12*
X59666666Y-68000000D02*
G75*
G03X59666666Y-68000000I-1666666J0D01*
G01*
X55500000Y-68000000D02*
X60500000Y-68000000D01*
X58000000Y-65500000D02*
X58000000Y-70500000D01*
D10*
X103059523Y-43182380D02*
X103678571Y-43182380D01*
X103345238Y-43563333D01*
X103488095Y-43563333D01*
X103583333Y-43610952D01*
X103630952Y-43658571D01*
X103678571Y-43753809D01*
X103678571Y-43991904D01*
X103630952Y-44087142D01*
X103583333Y-44134761D01*
X103488095Y-44182380D01*
X103202380Y-44182380D01*
X103107142Y-44134761D01*
X103059523Y-44087142D01*
X104535714Y-43182380D02*
X104345238Y-43182380D01*
X104250000Y-43230000D01*
X104202380Y-43277619D01*
X104107142Y-43420476D01*
X104059523Y-43610952D01*
X104059523Y-43991904D01*
X104107142Y-44087142D01*
X104154761Y-44134761D01*
X104250000Y-44182380D01*
X104440476Y-44182380D01*
X104535714Y-44134761D01*
X104583333Y-44087142D01*
X104630952Y-43991904D01*
X104630952Y-43753809D01*
X104583333Y-43658571D01*
X104535714Y-43610952D01*
X104440476Y-43563333D01*
X104250000Y-43563333D01*
X104154761Y-43610952D01*
X104107142Y-43658571D01*
X104059523Y-43753809D01*
X105059523Y-44087142D02*
X105107142Y-44134761D01*
X105059523Y-44182380D01*
X105011904Y-44134761D01*
X105059523Y-44087142D01*
X105059523Y-44182380D01*
X106011904Y-43182380D02*
X105535714Y-43182380D01*
X105488095Y-43658571D01*
X105535714Y-43610952D01*
X105630952Y-43563333D01*
X105869047Y-43563333D01*
X105964285Y-43610952D01*
X106011904Y-43658571D01*
X106059523Y-43753809D01*
X106059523Y-43991904D01*
X106011904Y-44087142D01*
X105964285Y-44134761D01*
X105869047Y-44182380D01*
X105630952Y-44182380D01*
X105535714Y-44134761D01*
X105488095Y-44087142D01*
X106678571Y-43182380D02*
X106773809Y-43182380D01*
X106869047Y-43230000D01*
X106916666Y-43277619D01*
X106964285Y-43372857D01*
X107011904Y-43563333D01*
X107011904Y-43801428D01*
X106964285Y-43991904D01*
X106916666Y-44087142D01*
X106869047Y-44134761D01*
X106773809Y-44182380D01*
X106678571Y-44182380D01*
X106583333Y-44134761D01*
X106535714Y-44087142D01*
X106488095Y-43991904D01*
X106440476Y-43801428D01*
X106440476Y-43563333D01*
X106488095Y-43372857D01*
X106535714Y-43277619D01*
X106583333Y-43230000D01*
X106678571Y-43182380D01*
X107630952Y-43182380D02*
X107726190Y-43182380D01*
X107821428Y-43230000D01*
X107869047Y-43277619D01*
X107916666Y-43372857D01*
X107964285Y-43563333D01*
X107964285Y-43801428D01*
X107916666Y-43991904D01*
X107869047Y-44087142D01*
X107821428Y-44134761D01*
X107726190Y-44182380D01*
X107630952Y-44182380D01*
X107535714Y-44134761D01*
X107488095Y-44087142D01*
X107440476Y-43991904D01*
X107392857Y-43801428D01*
X107392857Y-43563333D01*
X107440476Y-43372857D01*
X107488095Y-43277619D01*
X107535714Y-43230000D01*
X107630952Y-43182380D01*
X109154761Y-44182380D02*
X109154761Y-43515714D01*
X109154761Y-43610952D02*
X109202380Y-43563333D01*
X109297619Y-43515714D01*
X109440476Y-43515714D01*
X109535714Y-43563333D01*
X109583333Y-43658571D01*
X109583333Y-44182380D01*
X109583333Y-43658571D02*
X109630952Y-43563333D01*
X109726190Y-43515714D01*
X109869047Y-43515714D01*
X109964285Y-43563333D01*
X110011904Y-43658571D01*
X110011904Y-44182380D01*
X110488095Y-44182380D02*
X110488095Y-43515714D01*
X110488095Y-43610952D02*
X110535714Y-43563333D01*
X110630952Y-43515714D01*
X110773809Y-43515714D01*
X110869047Y-43563333D01*
X110916666Y-43658571D01*
X110916666Y-44182380D01*
X110916666Y-43658571D02*
X110964285Y-43563333D01*
X111059523Y-43515714D01*
X111202380Y-43515714D01*
X111297619Y-43563333D01*
X111345238Y-43658571D01*
X111345238Y-44182380D01*
D11*
X125500000Y-45000000D02*
X89000000Y-45000000D01*
X125500000Y-58000000D02*
X125500000Y-44413579D01*
X89000000Y-58000000D02*
X89000000Y-44413579D01*
X89000000Y-45000000D02*
X90126504Y-44413579D01*
X89000000Y-45000000D02*
X90126504Y-45586421D01*
X125500000Y-45000000D02*
X124373496Y-44413579D01*
X125500000Y-45000000D02*
X124373496Y-45586421D01*
D10*
X134867619Y-69809523D02*
X134867619Y-70428571D01*
X134486666Y-70095238D01*
X134486666Y-70238095D01*
X134439047Y-70333333D01*
X134391428Y-70380952D01*
X134296190Y-70428571D01*
X134058095Y-70428571D01*
X133962857Y-70380952D01*
X133915238Y-70333333D01*
X133867619Y-70238095D01*
X133867619Y-69952380D01*
X133915238Y-69857142D01*
X133962857Y-69809523D01*
X134867619Y-71047619D02*
X134867619Y-71142857D01*
X134820000Y-71238095D01*
X134772380Y-71285714D01*
X134677142Y-71333333D01*
X134486666Y-71380952D01*
X134248571Y-71380952D01*
X134058095Y-71333333D01*
X133962857Y-71285714D01*
X133915238Y-71238095D01*
X133867619Y-71142857D01*
X133867619Y-71047619D01*
X133915238Y-70952380D01*
X133962857Y-70904761D01*
X134058095Y-70857142D01*
X134248571Y-70809523D01*
X134486666Y-70809523D01*
X134677142Y-70857142D01*
X134772380Y-70904761D01*
X134820000Y-70952380D01*
X134867619Y-71047619D01*
X133962857Y-71809523D02*
X133915238Y-71857142D01*
X133867619Y-71809523D01*
X133915238Y-71761904D01*
X133962857Y-71809523D01*
X133867619Y-71809523D01*
X134867619Y-72476190D02*
X134867619Y-72571428D01*
X134820000Y-72666666D01*
X134772380Y-72714285D01*
X134677142Y-72761904D01*
X134486666Y-72809523D01*
X134248571Y-72809523D01*
X134058095Y-72761904D01*
X133962857Y-72714285D01*
X133915238Y-72666666D01*
X133867619Y-72571428D01*
X133867619Y-72476190D01*
X133915238Y-72380952D01*
X133962857Y-72333333D01*
X134058095Y-72285714D01*
X134248571Y-72238095D01*
X134486666Y-72238095D01*
X134677142Y-72285714D01*
X134772380Y-72333333D01*
X134820000Y-72380952D01*
X134867619Y-72476190D01*
X134867619Y-73428571D02*
X134867619Y-73523809D01*
X134820000Y-73619047D01*
X134772380Y-73666666D01*
X134677142Y-73714285D01*
X134486666Y-73761904D01*
X134248571Y-73761904D01*
X134058095Y-73714285D01*
X133962857Y-73666666D01*
X133915238Y-73619047D01*
X133867619Y-73523809D01*
X133867619Y-73428571D01*
X133915238Y-73333333D01*
X133962857Y-73285714D01*
X134058095Y-73238095D01*
X134248571Y-73190476D01*
X134486666Y-73190476D01*
X134677142Y-73238095D01*
X134772380Y-73285714D01*
X134820000Y-73333333D01*
X134867619Y-73428571D01*
X134867619Y-74380952D02*
X134867619Y-74476190D01*
X134820000Y-74571428D01*
X134772380Y-74619047D01*
X134677142Y-74666666D01*
X134486666Y-74714285D01*
X134248571Y-74714285D01*
X134058095Y-74666666D01*
X133962857Y-74619047D01*
X133915238Y-74571428D01*
X133867619Y-74476190D01*
X133867619Y-74380952D01*
X133915238Y-74285714D01*
X133962857Y-74238095D01*
X134058095Y-74190476D01*
X134248571Y-74142857D01*
X134486666Y-74142857D01*
X134677142Y-74190476D01*
X134772380Y-74238095D01*
X134820000Y-74285714D01*
X134867619Y-74380952D01*
X133867619Y-75904761D02*
X134534285Y-75904761D01*
X134439047Y-75904761D02*
X134486666Y-75952380D01*
X134534285Y-76047619D01*
X134534285Y-76190476D01*
X134486666Y-76285714D01*
X134391428Y-76333333D01*
X133867619Y-76333333D01*
X134391428Y-76333333D02*
X134486666Y-76380952D01*
X134534285Y-76476190D01*
X134534285Y-76619047D01*
X134486666Y-76714285D01*
X134391428Y-76761904D01*
X133867619Y-76761904D01*
X133867619Y-77238095D02*
X134534285Y-77238095D01*
X134439047Y-77238095D02*
X134486666Y-77285714D01*
X134534285Y-77380952D01*
X134534285Y-77523809D01*
X134486666Y-77619047D01*
X134391428Y-77666666D01*
X133867619Y-77666666D01*
X134391428Y-77666666D02*
X134486666Y-77714285D01*
X134534285Y-77809523D01*
X134534285Y-77952380D01*
X134486666Y-78047619D01*
X134391428Y-78095238D01*
X133867619Y-78095238D01*
D11*
X133050000Y-59000000D02*
X133050000Y-89000000D01*
X126000000Y-59000000D02*
X133636421Y-59000000D01*
X126000000Y-89000000D02*
X133636421Y-89000000D01*
X133050000Y-89000000D02*
X132463579Y-87873496D01*
X133050000Y-89000000D02*
X133636421Y-87873496D01*
X133050000Y-59000000D02*
X132463579Y-60126504D01*
X133050000Y-59000000D02*
X133636421Y-60126504D01*
X89000000Y-89000000D02*
X89000000Y-61500000D01*
X123000000Y-89000000D02*
X89000000Y-89000000D01*
X125500000Y-61500000D02*
X125500000Y-86500000D01*
X91500000Y-59000000D02*
X123000000Y-59000000D01*
M02*
