M48
; DRILL file {KiCad 5.1.2} date Fri 24 May 2019 07:47:37 PM -03
; FORMAT={-:-/ absolute / metric / decimal}
; #@! TF.CreationDate,2019-05-24T19:47:37-03:00
; #@! TF.GenerationSoftware,Kicad,Pcbnew,5.1.2
FMAT,2
METRIC
T1C0.400
T2C0.800
%
G90
G05
T1
X97.0Y-83.5
X98.0Y-65.0
X100.0Y-62.0
X100.0Y-69.5
X101.5Y-81.0
X103.0Y-69.5
X103.5Y-81.0
X103.5Y-83.5
X105.0Y-66.55
X105.0Y-82.0
X105.0Y-82.0
X105.75Y-64.25
X107.0Y-81.0
X107.5Y-73.5
X108.0Y-76.95
X108.85Y-86.0
X112.0Y-82.5
X114.0Y-77.0
X114.0Y-80.85
X115.0Y-72.0
X115.0Y-75.5
X117.0Y-74.5
X117.5Y-70.0
T2
X94.0Y-67.65
X94.0Y-70.19
X94.0Y-72.73
X94.0Y-75.27
X94.0Y-77.81
X94.0Y-80.35
T0
M30
