%FSLAX45Y45*%
G04 Gerber Fmt 4.5, Leading zero omitted, Abs format (unit mm)*
G04 Created by KiCad (PCBNEW 5.1.2) date 2019-05-24 19:47:37*
%MOMM*%
%LPD*%
G04 APERTURE LIST*
%ADD10C,0.120000*%
%ADD11C,0.200000*%
%ADD12C,0.300000*%
G04 APERTURE END LIST*
D10*
X12300000Y-5900000D02*
G75*
G02X12550000Y-6150000I0J-250000D01*
G01*
X12550000Y-8650000D02*
G75*
G02X12300000Y-8900000I-250000J0D01*
G01*
X8900000Y-6150000D02*
G75*
G02X9150000Y-5900000I250000J0D01*
G01*
X8900000Y-8900000D02*
X8900000Y-6150000D01*
X12300000Y-8900000D02*
X8900000Y-8900000D01*
X12550000Y-6150000D02*
X12550000Y-8650000D01*
X9150000Y-5900000D02*
X12300000Y-5900000D01*
D11*
X9680000Y-8330000D02*
X9720000Y-8370000D01*
X9720000Y-8330000D02*
X9680000Y-8370000D01*
X9780000Y-6480000D02*
X9820000Y-6520000D01*
X9820000Y-6480000D02*
X9780000Y-6520000D01*
X9980000Y-6180000D02*
X10020000Y-6220000D01*
X10020000Y-6180000D02*
X9980000Y-6220000D01*
X9980000Y-6930000D02*
X10020000Y-6970000D01*
X10020000Y-6930000D02*
X9980000Y-6970000D01*
X10130000Y-8080000D02*
X10170000Y-8120000D01*
X10170000Y-8080000D02*
X10130000Y-8120000D01*
X10280000Y-6930000D02*
X10320000Y-6970000D01*
X10320000Y-6930000D02*
X10280000Y-6970000D01*
X10330000Y-8080000D02*
X10370000Y-8120000D01*
X10370000Y-8080000D02*
X10330000Y-8120000D01*
X10330000Y-8330000D02*
X10370000Y-8370000D01*
X10370000Y-8330000D02*
X10330000Y-8370000D01*
X10480000Y-6635000D02*
X10520000Y-6675000D01*
X10520000Y-6635000D02*
X10480000Y-6675000D01*
X10480000Y-8180000D02*
X10520000Y-8220000D01*
X10520000Y-8180000D02*
X10480000Y-8220000D01*
X10480000Y-8180000D02*
X10520000Y-8220000D01*
X10520000Y-8180000D02*
X10480000Y-8220000D01*
X10555000Y-6405000D02*
X10595000Y-6445000D01*
X10595000Y-6405000D02*
X10555000Y-6445000D01*
X10680000Y-8080000D02*
X10720000Y-8120000D01*
X10720000Y-8080000D02*
X10680000Y-8120000D01*
X10730000Y-7330000D02*
X10770000Y-7370000D01*
X10770000Y-7330000D02*
X10730000Y-7370000D01*
X10780000Y-7675000D02*
X10820000Y-7715000D01*
X10820000Y-7675000D02*
X10780000Y-7715000D01*
X10865000Y-8580000D02*
X10905000Y-8620000D01*
X10905000Y-8580000D02*
X10865000Y-8620000D01*
X11180000Y-8230000D02*
X11220000Y-8270000D01*
X11220000Y-8230000D02*
X11180000Y-8270000D01*
X11380000Y-7680000D02*
X11420000Y-7720000D01*
X11420000Y-7680000D02*
X11380000Y-7720000D01*
X11380000Y-8065000D02*
X11420000Y-8105000D01*
X11420000Y-8065000D02*
X11380000Y-8105000D01*
X11480000Y-7180000D02*
X11520000Y-7220000D01*
X11520000Y-7180000D02*
X11480000Y-7220000D01*
X11480000Y-7530000D02*
X11520000Y-7570000D01*
X11520000Y-7530000D02*
X11480000Y-7570000D01*
X11680000Y-7430000D02*
X11720000Y-7470000D01*
X11720000Y-7430000D02*
X11680000Y-7470000D01*
X11730000Y-6980000D02*
X11770000Y-7020000D01*
X11770000Y-6980000D02*
X11730000Y-7020000D01*
X9440000Y-6765000D02*
G75*
G03X9440000Y-6765000I-40000J0D01*
G01*
X9440000Y-7019000D02*
G75*
G03X9440000Y-7019000I-40000J0D01*
G01*
X9440000Y-7273000D02*
G75*
G03X9440000Y-7273000I-40000J0D01*
G01*
X9440000Y-7527000D02*
G75*
G03X9440000Y-7527000I-40000J0D01*
G01*
X9440000Y-7781000D02*
G75*
G03X9440000Y-7781000I-40000J0D01*
G01*
X9440000Y-8035000D02*
G75*
G03X9440000Y-8035000I-40000J0D01*
G01*
D12*
X9180428Y-9371714D02*
X9180428Y-9071714D01*
X9251857Y-9071714D01*
X9294714Y-9086000D01*
X9323286Y-9114572D01*
X9337571Y-9143143D01*
X9351857Y-9200286D01*
X9351857Y-9243143D01*
X9337571Y-9300286D01*
X9323286Y-9328857D01*
X9294714Y-9357429D01*
X9251857Y-9371714D01*
X9180428Y-9371714D01*
X9480428Y-9371714D02*
X9480428Y-9171714D01*
X9480428Y-9228857D02*
X9494714Y-9200286D01*
X9509000Y-9186000D01*
X9537571Y-9171714D01*
X9566143Y-9171714D01*
X9666143Y-9371714D02*
X9666143Y-9171714D01*
X9666143Y-9071714D02*
X9651857Y-9086000D01*
X9666143Y-9100286D01*
X9680428Y-9086000D01*
X9666143Y-9071714D01*
X9666143Y-9100286D01*
X9851857Y-9371714D02*
X9823286Y-9357429D01*
X9809000Y-9328857D01*
X9809000Y-9071714D01*
X10009000Y-9371714D02*
X9980428Y-9357429D01*
X9966143Y-9328857D01*
X9966143Y-9071714D01*
X10351857Y-9371714D02*
X10351857Y-9071714D01*
X10451857Y-9286000D01*
X10551857Y-9071714D01*
X10551857Y-9371714D01*
X10823286Y-9371714D02*
X10823286Y-9214572D01*
X10809000Y-9186000D01*
X10780428Y-9171714D01*
X10723286Y-9171714D01*
X10694714Y-9186000D01*
X10823286Y-9357429D02*
X10794714Y-9371714D01*
X10723286Y-9371714D01*
X10694714Y-9357429D01*
X10680428Y-9328857D01*
X10680428Y-9300286D01*
X10694714Y-9271714D01*
X10723286Y-9257429D01*
X10794714Y-9257429D01*
X10823286Y-9243143D01*
X10966143Y-9171714D02*
X10966143Y-9471714D01*
X10966143Y-9186000D02*
X10994714Y-9171714D01*
X11051857Y-9171714D01*
X11080428Y-9186000D01*
X11094714Y-9200286D01*
X11109000Y-9228857D01*
X11109000Y-9314572D01*
X11094714Y-9343143D01*
X11080428Y-9357429D01*
X11051857Y-9371714D01*
X10994714Y-9371714D01*
X10966143Y-9357429D01*
X11237571Y-9343143D02*
X11251857Y-9357429D01*
X11237571Y-9371714D01*
X11223286Y-9357429D01*
X11237571Y-9343143D01*
X11237571Y-9371714D01*
X11237571Y-9186000D02*
X11251857Y-9200286D01*
X11237571Y-9214572D01*
X11223286Y-9200286D01*
X11237571Y-9186000D01*
X11237571Y-9214572D01*
X8854000Y-9846000D02*
X8894000Y-9886000D01*
X8894000Y-9846000D02*
X8854000Y-9886000D01*
X9237571Y-9701714D02*
X9266143Y-9701714D01*
X9294714Y-9716000D01*
X9309000Y-9730286D01*
X9323286Y-9758857D01*
X9337571Y-9816000D01*
X9337571Y-9887429D01*
X9323286Y-9944572D01*
X9309000Y-9973143D01*
X9294714Y-9987429D01*
X9266143Y-10001714D01*
X9237571Y-10001714D01*
X9209000Y-9987429D01*
X9194714Y-9973143D01*
X9180428Y-9944572D01*
X9166143Y-9887429D01*
X9166143Y-9816000D01*
X9180428Y-9758857D01*
X9194714Y-9730286D01*
X9209000Y-9716000D01*
X9237571Y-9701714D01*
X9466143Y-9973143D02*
X9480428Y-9987429D01*
X9466143Y-10001714D01*
X9451857Y-9987429D01*
X9466143Y-9973143D01*
X9466143Y-10001714D01*
X9737571Y-9801714D02*
X9737571Y-10001714D01*
X9666143Y-9687429D02*
X9594714Y-9901714D01*
X9780428Y-9901714D01*
X9951857Y-9701714D02*
X9980428Y-9701714D01*
X10009000Y-9716000D01*
X10023286Y-9730286D01*
X10037571Y-9758857D01*
X10051857Y-9816000D01*
X10051857Y-9887429D01*
X10037571Y-9944572D01*
X10023286Y-9973143D01*
X10009000Y-9987429D01*
X9980428Y-10001714D01*
X9951857Y-10001714D01*
X9923286Y-9987429D01*
X9909000Y-9973143D01*
X9894714Y-9944572D01*
X9880428Y-9887429D01*
X9880428Y-9816000D01*
X9894714Y-9758857D01*
X9909000Y-9730286D01*
X9923286Y-9716000D01*
X9951857Y-9701714D01*
X10180428Y-10001714D02*
X10180428Y-9801714D01*
X10180428Y-9830286D02*
X10194714Y-9816000D01*
X10223286Y-9801714D01*
X10266143Y-9801714D01*
X10294714Y-9816000D01*
X10309000Y-9844572D01*
X10309000Y-10001714D01*
X10309000Y-9844572D02*
X10323286Y-9816000D01*
X10351857Y-9801714D01*
X10394714Y-9801714D01*
X10423286Y-9816000D01*
X10437571Y-9844572D01*
X10437571Y-10001714D01*
X10580428Y-10001714D02*
X10580428Y-9801714D01*
X10580428Y-9830286D02*
X10594714Y-9816000D01*
X10623286Y-9801714D01*
X10666143Y-9801714D01*
X10694714Y-9816000D01*
X10709000Y-9844572D01*
X10709000Y-10001714D01*
X10709000Y-9844572D02*
X10723286Y-9816000D01*
X10751857Y-9801714D01*
X10794714Y-9801714D01*
X10823286Y-9816000D01*
X10837571Y-9844572D01*
X10837571Y-10001714D01*
X11423286Y-9687429D02*
X11166143Y-10073143D01*
X11809000Y-9701714D02*
X11837571Y-9701714D01*
X11866143Y-9716000D01*
X11880428Y-9730286D01*
X11894714Y-9758857D01*
X11909000Y-9816000D01*
X11909000Y-9887429D01*
X11894714Y-9944572D01*
X11880428Y-9973143D01*
X11866143Y-9987429D01*
X11837571Y-10001714D01*
X11809000Y-10001714D01*
X11780428Y-9987429D01*
X11766143Y-9973143D01*
X11751857Y-9944572D01*
X11737571Y-9887429D01*
X11737571Y-9816000D01*
X11751857Y-9758857D01*
X11766143Y-9730286D01*
X11780428Y-9716000D01*
X11809000Y-9701714D01*
X12037571Y-9973143D02*
X12051857Y-9987429D01*
X12037571Y-10001714D01*
X12023286Y-9987429D01*
X12037571Y-9973143D01*
X12037571Y-10001714D01*
X12237571Y-9701714D02*
X12266143Y-9701714D01*
X12294714Y-9716000D01*
X12309000Y-9730286D01*
X12323286Y-9758857D01*
X12337571Y-9816000D01*
X12337571Y-9887429D01*
X12323286Y-9944572D01*
X12309000Y-9973143D01*
X12294714Y-9987429D01*
X12266143Y-10001714D01*
X12237571Y-10001714D01*
X12209000Y-9987429D01*
X12194714Y-9973143D01*
X12180428Y-9944572D01*
X12166143Y-9887429D01*
X12166143Y-9816000D01*
X12180428Y-9758857D01*
X12194714Y-9730286D01*
X12209000Y-9716000D01*
X12237571Y-9701714D01*
X12623286Y-10001714D02*
X12451857Y-10001714D01*
X12537571Y-10001714D02*
X12537571Y-9701714D01*
X12509000Y-9744572D01*
X12480428Y-9773143D01*
X12451857Y-9787429D01*
X12880428Y-9701714D02*
X12823286Y-9701714D01*
X12794714Y-9716000D01*
X12780428Y-9730286D01*
X12751857Y-9773143D01*
X12737571Y-9830286D01*
X12737571Y-9944572D01*
X12751857Y-9973143D01*
X12766143Y-9987429D01*
X12794714Y-10001714D01*
X12851857Y-10001714D01*
X12880428Y-9987429D01*
X12894714Y-9973143D01*
X12909000Y-9944572D01*
X12909000Y-9873143D01*
X12894714Y-9844572D01*
X12880428Y-9830286D01*
X12851857Y-9816000D01*
X12794714Y-9816000D01*
X12766143Y-9830286D01*
X12751857Y-9844572D01*
X12737571Y-9873143D01*
X13023286Y-9701714D02*
X13023286Y-9758857D01*
X13137571Y-9701714D02*
X13137571Y-9758857D01*
X13580428Y-10116000D02*
X13566143Y-10101714D01*
X13537571Y-10058857D01*
X13523286Y-10030286D01*
X13509000Y-9987429D01*
X13494714Y-9916000D01*
X13494714Y-9858857D01*
X13509000Y-9787429D01*
X13523286Y-9744572D01*
X13537571Y-9716000D01*
X13566143Y-9673143D01*
X13580428Y-9658857D01*
X13680428Y-9730286D02*
X13694714Y-9716000D01*
X13723286Y-9701714D01*
X13794714Y-9701714D01*
X13823286Y-9716000D01*
X13837571Y-9730286D01*
X13851857Y-9758857D01*
X13851857Y-9787429D01*
X13837571Y-9830286D01*
X13666143Y-10001714D01*
X13851857Y-10001714D01*
X13951857Y-9701714D02*
X14137571Y-9701714D01*
X14037571Y-9816000D01*
X14080428Y-9816000D01*
X14109000Y-9830286D01*
X14123286Y-9844572D01*
X14137571Y-9873143D01*
X14137571Y-9944572D01*
X14123286Y-9973143D01*
X14109000Y-9987429D01*
X14080428Y-10001714D01*
X13994714Y-10001714D01*
X13966143Y-9987429D01*
X13951857Y-9973143D01*
X14494714Y-10001714D02*
X14494714Y-9701714D01*
X14623286Y-10001714D02*
X14623286Y-9844572D01*
X14609000Y-9816000D01*
X14580428Y-9801714D01*
X14537571Y-9801714D01*
X14509000Y-9816000D01*
X14494714Y-9830286D01*
X14809000Y-10001714D02*
X14780428Y-9987429D01*
X14766143Y-9973143D01*
X14751857Y-9944572D01*
X14751857Y-9858857D01*
X14766143Y-9830286D01*
X14780428Y-9816000D01*
X14809000Y-9801714D01*
X14851857Y-9801714D01*
X14880428Y-9816000D01*
X14894714Y-9830286D01*
X14909000Y-9858857D01*
X14909000Y-9944572D01*
X14894714Y-9973143D01*
X14880428Y-9987429D01*
X14851857Y-10001714D01*
X14809000Y-10001714D01*
X15080428Y-10001714D02*
X15051857Y-9987429D01*
X15037571Y-9958857D01*
X15037571Y-9701714D01*
X15309000Y-9987429D02*
X15280428Y-10001714D01*
X15223286Y-10001714D01*
X15194714Y-9987429D01*
X15180428Y-9958857D01*
X15180428Y-9844572D01*
X15194714Y-9816000D01*
X15223286Y-9801714D01*
X15280428Y-9801714D01*
X15309000Y-9816000D01*
X15323286Y-9844572D01*
X15323286Y-9873143D01*
X15180428Y-9901714D01*
X15437571Y-9987429D02*
X15466143Y-10001714D01*
X15523286Y-10001714D01*
X15551857Y-9987429D01*
X15566143Y-9958857D01*
X15566143Y-9944572D01*
X15551857Y-9916000D01*
X15523286Y-9901714D01*
X15480428Y-9901714D01*
X15451857Y-9887429D01*
X15437571Y-9858857D01*
X15437571Y-9844572D01*
X15451857Y-9816000D01*
X15480428Y-9801714D01*
X15523286Y-9801714D01*
X15551857Y-9816000D01*
X15666143Y-10116000D02*
X15680428Y-10101714D01*
X15709000Y-10058857D01*
X15723286Y-10030286D01*
X15737571Y-9987429D01*
X15751857Y-9916000D01*
X15751857Y-9858857D01*
X15737571Y-9787429D01*
X15723286Y-9744572D01*
X15709000Y-9716000D01*
X15680428Y-9673143D01*
X15666143Y-9658857D01*
X8894000Y-10262000D02*
G75*
G03X8894000Y-10262000I-40000J0D01*
G01*
X9237571Y-10097714D02*
X9266143Y-10097714D01*
X9294714Y-10112000D01*
X9309000Y-10126286D01*
X9323286Y-10154857D01*
X9337571Y-10212000D01*
X9337571Y-10283429D01*
X9323286Y-10340572D01*
X9309000Y-10369143D01*
X9294714Y-10383429D01*
X9266143Y-10397714D01*
X9237571Y-10397714D01*
X9209000Y-10383429D01*
X9194714Y-10369143D01*
X9180428Y-10340572D01*
X9166143Y-10283429D01*
X9166143Y-10212000D01*
X9180428Y-10154857D01*
X9194714Y-10126286D01*
X9209000Y-10112000D01*
X9237571Y-10097714D01*
X9466143Y-10369143D02*
X9480428Y-10383429D01*
X9466143Y-10397714D01*
X9451857Y-10383429D01*
X9466143Y-10369143D01*
X9466143Y-10397714D01*
X9651857Y-10226286D02*
X9623286Y-10212000D01*
X9609000Y-10197714D01*
X9594714Y-10169143D01*
X9594714Y-10154857D01*
X9609000Y-10126286D01*
X9623286Y-10112000D01*
X9651857Y-10097714D01*
X9709000Y-10097714D01*
X9737571Y-10112000D01*
X9751857Y-10126286D01*
X9766143Y-10154857D01*
X9766143Y-10169143D01*
X9751857Y-10197714D01*
X9737571Y-10212000D01*
X9709000Y-10226286D01*
X9651857Y-10226286D01*
X9623286Y-10240572D01*
X9609000Y-10254857D01*
X9594714Y-10283429D01*
X9594714Y-10340572D01*
X9609000Y-10369143D01*
X9623286Y-10383429D01*
X9651857Y-10397714D01*
X9709000Y-10397714D01*
X9737571Y-10383429D01*
X9751857Y-10369143D01*
X9766143Y-10340572D01*
X9766143Y-10283429D01*
X9751857Y-10254857D01*
X9737571Y-10240572D01*
X9709000Y-10226286D01*
X9951857Y-10097714D02*
X9980428Y-10097714D01*
X10009000Y-10112000D01*
X10023286Y-10126286D01*
X10037571Y-10154857D01*
X10051857Y-10212000D01*
X10051857Y-10283429D01*
X10037571Y-10340572D01*
X10023286Y-10369143D01*
X10009000Y-10383429D01*
X9980428Y-10397714D01*
X9951857Y-10397714D01*
X9923286Y-10383429D01*
X9909000Y-10369143D01*
X9894714Y-10340572D01*
X9880428Y-10283429D01*
X9880428Y-10212000D01*
X9894714Y-10154857D01*
X9909000Y-10126286D01*
X9923286Y-10112000D01*
X9951857Y-10097714D01*
X10180428Y-10397714D02*
X10180428Y-10197714D01*
X10180428Y-10226286D02*
X10194714Y-10212000D01*
X10223286Y-10197714D01*
X10266143Y-10197714D01*
X10294714Y-10212000D01*
X10309000Y-10240572D01*
X10309000Y-10397714D01*
X10309000Y-10240572D02*
X10323286Y-10212000D01*
X10351857Y-10197714D01*
X10394714Y-10197714D01*
X10423286Y-10212000D01*
X10437571Y-10240572D01*
X10437571Y-10397714D01*
X10580428Y-10397714D02*
X10580428Y-10197714D01*
X10580428Y-10226286D02*
X10594714Y-10212000D01*
X10623286Y-10197714D01*
X10666143Y-10197714D01*
X10694714Y-10212000D01*
X10709000Y-10240572D01*
X10709000Y-10397714D01*
X10709000Y-10240572D02*
X10723286Y-10212000D01*
X10751857Y-10197714D01*
X10794714Y-10197714D01*
X10823286Y-10212000D01*
X10837571Y-10240572D01*
X10837571Y-10397714D01*
X11423286Y-10083429D02*
X11166143Y-10469143D01*
X11809000Y-10097714D02*
X11837571Y-10097714D01*
X11866143Y-10112000D01*
X11880428Y-10126286D01*
X11894714Y-10154857D01*
X11909000Y-10212000D01*
X11909000Y-10283429D01*
X11894714Y-10340572D01*
X11880428Y-10369143D01*
X11866143Y-10383429D01*
X11837571Y-10397714D01*
X11809000Y-10397714D01*
X11780428Y-10383429D01*
X11766143Y-10369143D01*
X11751857Y-10340572D01*
X11737571Y-10283429D01*
X11737571Y-10212000D01*
X11751857Y-10154857D01*
X11766143Y-10126286D01*
X11780428Y-10112000D01*
X11809000Y-10097714D01*
X12037571Y-10369143D02*
X12051857Y-10383429D01*
X12037571Y-10397714D01*
X12023286Y-10383429D01*
X12037571Y-10369143D01*
X12037571Y-10397714D01*
X12237571Y-10097714D02*
X12266143Y-10097714D01*
X12294714Y-10112000D01*
X12309000Y-10126286D01*
X12323286Y-10154857D01*
X12337571Y-10212000D01*
X12337571Y-10283429D01*
X12323286Y-10340572D01*
X12309000Y-10369143D01*
X12294714Y-10383429D01*
X12266143Y-10397714D01*
X12237571Y-10397714D01*
X12209000Y-10383429D01*
X12194714Y-10369143D01*
X12180428Y-10340572D01*
X12166143Y-10283429D01*
X12166143Y-10212000D01*
X12180428Y-10154857D01*
X12194714Y-10126286D01*
X12209000Y-10112000D01*
X12237571Y-10097714D01*
X12437571Y-10097714D02*
X12623286Y-10097714D01*
X12523286Y-10212000D01*
X12566143Y-10212000D01*
X12594714Y-10226286D01*
X12609000Y-10240572D01*
X12623286Y-10269143D01*
X12623286Y-10340572D01*
X12609000Y-10369143D01*
X12594714Y-10383429D01*
X12566143Y-10397714D01*
X12480428Y-10397714D01*
X12451857Y-10383429D01*
X12437571Y-10369143D01*
X12909000Y-10397714D02*
X12737571Y-10397714D01*
X12823286Y-10397714D02*
X12823286Y-10097714D01*
X12794714Y-10140572D01*
X12766143Y-10169143D01*
X12737571Y-10183429D01*
X13023286Y-10097714D02*
X13023286Y-10154857D01*
X13137571Y-10097714D02*
X13137571Y-10154857D01*
X13580428Y-10512000D02*
X13566143Y-10497714D01*
X13537571Y-10454857D01*
X13523286Y-10426286D01*
X13509000Y-10383429D01*
X13494714Y-10312000D01*
X13494714Y-10254857D01*
X13509000Y-10183429D01*
X13523286Y-10140572D01*
X13537571Y-10112000D01*
X13566143Y-10069143D01*
X13580428Y-10054857D01*
X13823286Y-10097714D02*
X13766143Y-10097714D01*
X13737571Y-10112000D01*
X13723286Y-10126286D01*
X13694714Y-10169143D01*
X13680428Y-10226286D01*
X13680428Y-10340572D01*
X13694714Y-10369143D01*
X13709000Y-10383429D01*
X13737571Y-10397714D01*
X13794714Y-10397714D01*
X13823286Y-10383429D01*
X13837571Y-10369143D01*
X13851857Y-10340572D01*
X13851857Y-10269143D01*
X13837571Y-10240572D01*
X13823286Y-10226286D01*
X13794714Y-10212000D01*
X13737571Y-10212000D01*
X13709000Y-10226286D01*
X13694714Y-10240572D01*
X13680428Y-10269143D01*
X14209000Y-10397714D02*
X14209000Y-10097714D01*
X14337571Y-10397714D02*
X14337571Y-10240572D01*
X14323286Y-10212000D01*
X14294714Y-10197714D01*
X14251857Y-10197714D01*
X14223286Y-10212000D01*
X14209000Y-10226286D01*
X14523286Y-10397714D02*
X14494714Y-10383429D01*
X14480428Y-10369143D01*
X14466143Y-10340572D01*
X14466143Y-10254857D01*
X14480428Y-10226286D01*
X14494714Y-10212000D01*
X14523286Y-10197714D01*
X14566143Y-10197714D01*
X14594714Y-10212000D01*
X14609000Y-10226286D01*
X14623286Y-10254857D01*
X14623286Y-10340572D01*
X14609000Y-10369143D01*
X14594714Y-10383429D01*
X14566143Y-10397714D01*
X14523286Y-10397714D01*
X14794714Y-10397714D02*
X14766143Y-10383429D01*
X14751857Y-10354857D01*
X14751857Y-10097714D01*
X15023286Y-10383429D02*
X14994714Y-10397714D01*
X14937571Y-10397714D01*
X14909000Y-10383429D01*
X14894714Y-10354857D01*
X14894714Y-10240572D01*
X14909000Y-10212000D01*
X14937571Y-10197714D01*
X14994714Y-10197714D01*
X15023286Y-10212000D01*
X15037571Y-10240572D01*
X15037571Y-10269143D01*
X14894714Y-10297714D01*
X15151857Y-10383429D02*
X15180428Y-10397714D01*
X15237571Y-10397714D01*
X15266143Y-10383429D01*
X15280428Y-10354857D01*
X15280428Y-10340572D01*
X15266143Y-10312000D01*
X15237571Y-10297714D01*
X15194714Y-10297714D01*
X15166143Y-10283429D01*
X15151857Y-10254857D01*
X15151857Y-10240572D01*
X15166143Y-10212000D01*
X15194714Y-10197714D01*
X15237571Y-10197714D01*
X15266143Y-10212000D01*
X15380428Y-10512000D02*
X15394714Y-10497714D01*
X15423286Y-10454857D01*
X15437571Y-10426286D01*
X15451857Y-10383429D01*
X15466143Y-10312000D01*
X15466143Y-10254857D01*
X15451857Y-10183429D01*
X15437571Y-10140572D01*
X15423286Y-10112000D01*
X15394714Y-10069143D01*
X15380428Y-10054857D01*
M02*
