G04 #@! TF.GenerationSoftware,KiCad,Pcbnew,5.1.2*
G04 #@! TF.CreationDate,2019-05-24T19:47:36-03:00*
G04 #@! TF.ProjectId,ouroboros,6f75726f-626f-4726-9f73-2e6b69636164,rev?*
G04 #@! TF.SameCoordinates,Original*
G04 #@! TF.FileFunction,Copper,L1,Top*
G04 #@! TF.FilePolarity,Positive*
%FSLAX46Y46*%
G04 Gerber Fmt 4.6, Leading zero omitted, Abs format (unit mm)*
G04 Created by KiCad (PCBNEW 5.1.2) date 2019-05-24 19:47:36*
%MOMM*%
%LPD*%
G04 APERTURE LIST*
%ADD10C,0.120000*%
%ADD11C,0.050000*%
%ADD12C,1.600000*%
%ADD13R,1.600000X1.600000*%
%ADD14C,0.200000*%
%ADD15C,1.150000*%
%ADD16R,1.200000X0.900000*%
%ADD17R,0.900000X1.200000*%
%ADD18C,1.100000*%
%ADD19R,0.900000X0.800000*%
%ADD20C,0.800000*%
%ADD21C,0.250000*%
%ADD22C,0.254000*%
G04 APERTURE END LIST*
D10*
X123000000Y-59000000D02*
G75*
G02X125500000Y-61500000I0J-2500000D01*
G01*
X125500000Y-86500000D02*
G75*
G02X123000000Y-89000000I-2500000J0D01*
G01*
X89000000Y-61500000D02*
G75*
G02X91500000Y-59000000I2500000J0D01*
G01*
D11*
X59666666Y-68000000D02*
G75*
G03X59666666Y-68000000I-1666666J0D01*
G01*
X55500000Y-68000000D02*
X60500000Y-68000000D01*
X58000000Y-65500000D02*
X58000000Y-70500000D01*
D10*
X89000000Y-89000000D02*
X89000000Y-61500000D01*
X123000000Y-89000000D02*
X89000000Y-89000000D01*
X125500000Y-61500000D02*
X125500000Y-86500000D01*
X91500000Y-59000000D02*
X123000000Y-59000000D01*
D12*
X94000000Y-67650000D03*
X94000000Y-70190000D03*
X94000000Y-72730000D03*
X94000000Y-75270000D03*
X94000000Y-77810000D03*
D13*
X94000000Y-80350000D03*
D14*
G36*
X117374505Y-85301204D02*
G01*
X117398773Y-85304804D01*
X117422572Y-85310765D01*
X117445671Y-85319030D01*
X117467850Y-85329520D01*
X117488893Y-85342132D01*
X117508599Y-85356747D01*
X117526777Y-85373223D01*
X117543253Y-85391401D01*
X117557868Y-85411107D01*
X117570480Y-85432150D01*
X117580970Y-85454329D01*
X117589235Y-85477428D01*
X117595196Y-85501227D01*
X117598796Y-85525495D01*
X117600000Y-85549999D01*
X117600000Y-86450001D01*
X117598796Y-86474505D01*
X117595196Y-86498773D01*
X117589235Y-86522572D01*
X117580970Y-86545671D01*
X117570480Y-86567850D01*
X117557868Y-86588893D01*
X117543253Y-86608599D01*
X117526777Y-86626777D01*
X117508599Y-86643253D01*
X117488893Y-86657868D01*
X117467850Y-86670480D01*
X117445671Y-86680970D01*
X117422572Y-86689235D01*
X117398773Y-86695196D01*
X117374505Y-86698796D01*
X117350001Y-86700000D01*
X116699999Y-86700000D01*
X116675495Y-86698796D01*
X116651227Y-86695196D01*
X116627428Y-86689235D01*
X116604329Y-86680970D01*
X116582150Y-86670480D01*
X116561107Y-86657868D01*
X116541401Y-86643253D01*
X116523223Y-86626777D01*
X116506747Y-86608599D01*
X116492132Y-86588893D01*
X116479520Y-86567850D01*
X116469030Y-86545671D01*
X116460765Y-86522572D01*
X116454804Y-86498773D01*
X116451204Y-86474505D01*
X116450000Y-86450001D01*
X116450000Y-85549999D01*
X116451204Y-85525495D01*
X116454804Y-85501227D01*
X116460765Y-85477428D01*
X116469030Y-85454329D01*
X116479520Y-85432150D01*
X116492132Y-85411107D01*
X116506747Y-85391401D01*
X116523223Y-85373223D01*
X116541401Y-85356747D01*
X116561107Y-85342132D01*
X116582150Y-85329520D01*
X116604329Y-85319030D01*
X116627428Y-85310765D01*
X116651227Y-85304804D01*
X116675495Y-85301204D01*
X116699999Y-85300000D01*
X117350001Y-85300000D01*
X117374505Y-85301204D01*
X117374505Y-85301204D01*
G37*
D15*
X117025000Y-86000000D03*
D14*
G36*
X115324505Y-85301204D02*
G01*
X115348773Y-85304804D01*
X115372572Y-85310765D01*
X115395671Y-85319030D01*
X115417850Y-85329520D01*
X115438893Y-85342132D01*
X115458599Y-85356747D01*
X115476777Y-85373223D01*
X115493253Y-85391401D01*
X115507868Y-85411107D01*
X115520480Y-85432150D01*
X115530970Y-85454329D01*
X115539235Y-85477428D01*
X115545196Y-85501227D01*
X115548796Y-85525495D01*
X115550000Y-85549999D01*
X115550000Y-86450001D01*
X115548796Y-86474505D01*
X115545196Y-86498773D01*
X115539235Y-86522572D01*
X115530970Y-86545671D01*
X115520480Y-86567850D01*
X115507868Y-86588893D01*
X115493253Y-86608599D01*
X115476777Y-86626777D01*
X115458599Y-86643253D01*
X115438893Y-86657868D01*
X115417850Y-86670480D01*
X115395671Y-86680970D01*
X115372572Y-86689235D01*
X115348773Y-86695196D01*
X115324505Y-86698796D01*
X115300001Y-86700000D01*
X114649999Y-86700000D01*
X114625495Y-86698796D01*
X114601227Y-86695196D01*
X114577428Y-86689235D01*
X114554329Y-86680970D01*
X114532150Y-86670480D01*
X114511107Y-86657868D01*
X114491401Y-86643253D01*
X114473223Y-86626777D01*
X114456747Y-86608599D01*
X114442132Y-86588893D01*
X114429520Y-86567850D01*
X114419030Y-86545671D01*
X114410765Y-86522572D01*
X114404804Y-86498773D01*
X114401204Y-86474505D01*
X114400000Y-86450001D01*
X114400000Y-85549999D01*
X114401204Y-85525495D01*
X114404804Y-85501227D01*
X114410765Y-85477428D01*
X114419030Y-85454329D01*
X114429520Y-85432150D01*
X114442132Y-85411107D01*
X114456747Y-85391401D01*
X114473223Y-85373223D01*
X114491401Y-85356747D01*
X114511107Y-85342132D01*
X114532150Y-85329520D01*
X114554329Y-85319030D01*
X114577428Y-85310765D01*
X114601227Y-85304804D01*
X114625495Y-85301204D01*
X114649999Y-85300000D01*
X115300001Y-85300000D01*
X115324505Y-85301204D01*
X115324505Y-85301204D01*
G37*
D15*
X114975000Y-86000000D03*
D16*
X114000000Y-80850000D03*
X114000000Y-84150000D03*
D17*
X112150000Y-86000000D03*
X108850000Y-86000000D03*
D14*
G36*
X103100782Y-69150530D02*
G01*
X103111460Y-69152114D01*
X103121931Y-69154737D01*
X103132095Y-69158373D01*
X103141854Y-69162989D01*
X103151113Y-69168538D01*
X103159783Y-69174969D01*
X103167782Y-69182218D01*
X103175031Y-69190217D01*
X103181462Y-69198887D01*
X103187011Y-69208146D01*
X103191627Y-69217905D01*
X103195263Y-69228069D01*
X103197886Y-69238540D01*
X103199470Y-69249218D01*
X103200000Y-69260000D01*
X103200000Y-70640000D01*
X103199470Y-70650782D01*
X103197886Y-70661460D01*
X103195263Y-70671931D01*
X103191627Y-70682095D01*
X103187011Y-70691854D01*
X103181462Y-70701113D01*
X103175031Y-70709783D01*
X103167782Y-70717782D01*
X103159783Y-70725031D01*
X103151113Y-70731462D01*
X103141854Y-70737011D01*
X103132095Y-70741627D01*
X103121931Y-70745263D01*
X103111460Y-70747886D01*
X103100782Y-70749470D01*
X103090000Y-70750000D01*
X102210000Y-70750000D01*
X102199218Y-70749470D01*
X102188540Y-70747886D01*
X102178069Y-70745263D01*
X102167905Y-70741627D01*
X102158146Y-70737011D01*
X102148887Y-70731462D01*
X102140217Y-70725031D01*
X102132218Y-70717782D01*
X102124969Y-70709783D01*
X102118538Y-70701113D01*
X102112989Y-70691854D01*
X102108373Y-70682095D01*
X102104737Y-70671931D01*
X102102114Y-70661460D01*
X102100530Y-70650782D01*
X102100000Y-70640000D01*
X102100000Y-69260000D01*
X102100530Y-69249218D01*
X102102114Y-69238540D01*
X102104737Y-69228069D01*
X102108373Y-69217905D01*
X102112989Y-69208146D01*
X102118538Y-69198887D01*
X102124969Y-69190217D01*
X102132218Y-69182218D01*
X102140217Y-69174969D01*
X102148887Y-69168538D01*
X102158146Y-69162989D01*
X102167905Y-69158373D01*
X102178069Y-69154737D01*
X102188540Y-69152114D01*
X102199218Y-69150530D01*
X102210000Y-69150000D01*
X103090000Y-69150000D01*
X103100782Y-69150530D01*
X103100782Y-69150530D01*
G37*
D18*
X102650000Y-69950000D03*
D14*
G36*
X100800782Y-69150530D02*
G01*
X100811460Y-69152114D01*
X100821931Y-69154737D01*
X100832095Y-69158373D01*
X100841854Y-69162989D01*
X100851113Y-69168538D01*
X100859783Y-69174969D01*
X100867782Y-69182218D01*
X100875031Y-69190217D01*
X100881462Y-69198887D01*
X100887011Y-69208146D01*
X100891627Y-69217905D01*
X100895263Y-69228069D01*
X100897886Y-69238540D01*
X100899470Y-69249218D01*
X100900000Y-69260000D01*
X100900000Y-70640000D01*
X100899470Y-70650782D01*
X100897886Y-70661460D01*
X100895263Y-70671931D01*
X100891627Y-70682095D01*
X100887011Y-70691854D01*
X100881462Y-70701113D01*
X100875031Y-70709783D01*
X100867782Y-70717782D01*
X100859783Y-70725031D01*
X100851113Y-70731462D01*
X100841854Y-70737011D01*
X100832095Y-70741627D01*
X100821931Y-70745263D01*
X100811460Y-70747886D01*
X100800782Y-70749470D01*
X100790000Y-70750000D01*
X99910000Y-70750000D01*
X99899218Y-70749470D01*
X99888540Y-70747886D01*
X99878069Y-70745263D01*
X99867905Y-70741627D01*
X99858146Y-70737011D01*
X99848887Y-70731462D01*
X99840217Y-70725031D01*
X99832218Y-70717782D01*
X99824969Y-70709783D01*
X99818538Y-70701113D01*
X99812989Y-70691854D01*
X99808373Y-70682095D01*
X99804737Y-70671931D01*
X99802114Y-70661460D01*
X99800530Y-70650782D01*
X99800000Y-70640000D01*
X99800000Y-69260000D01*
X99800530Y-69249218D01*
X99802114Y-69238540D01*
X99804737Y-69228069D01*
X99808373Y-69217905D01*
X99812989Y-69208146D01*
X99818538Y-69198887D01*
X99824969Y-69190217D01*
X99832218Y-69182218D01*
X99840217Y-69174969D01*
X99848887Y-69168538D01*
X99858146Y-69162989D01*
X99867905Y-69158373D01*
X99878069Y-69154737D01*
X99888540Y-69152114D01*
X99899218Y-69150530D01*
X99910000Y-69150000D01*
X100790000Y-69150000D01*
X100800782Y-69150530D01*
X100800782Y-69150530D01*
G37*
D18*
X100350000Y-69950000D03*
D14*
G36*
X102155683Y-66250770D02*
G01*
X102171214Y-66253074D01*
X102186446Y-66256890D01*
X102201229Y-66262179D01*
X102215423Y-66268893D01*
X102228891Y-66276965D01*
X102241503Y-66286318D01*
X102253137Y-66296863D01*
X102263682Y-66308497D01*
X102273035Y-66321109D01*
X102281107Y-66334577D01*
X102287821Y-66348771D01*
X102293110Y-66363554D01*
X102296926Y-66378786D01*
X102299230Y-66394317D01*
X102300000Y-66410000D01*
X102300000Y-67690000D01*
X102299230Y-67705683D01*
X102296926Y-67721214D01*
X102293110Y-67736446D01*
X102287821Y-67751229D01*
X102281107Y-67765423D01*
X102273035Y-67778891D01*
X102263682Y-67791503D01*
X102253137Y-67803137D01*
X102241503Y-67813682D01*
X102228891Y-67823035D01*
X102215423Y-67831107D01*
X102201229Y-67837821D01*
X102186446Y-67843110D01*
X102171214Y-67846926D01*
X102155683Y-67849230D01*
X102140000Y-67850000D01*
X100860000Y-67850000D01*
X100844317Y-67849230D01*
X100828786Y-67846926D01*
X100813554Y-67843110D01*
X100798771Y-67837821D01*
X100784577Y-67831107D01*
X100771109Y-67823035D01*
X100758497Y-67813682D01*
X100746863Y-67803137D01*
X100736318Y-67791503D01*
X100726965Y-67778891D01*
X100718893Y-67765423D01*
X100712179Y-67751229D01*
X100706890Y-67736446D01*
X100703074Y-67721214D01*
X100700770Y-67705683D01*
X100700000Y-67690000D01*
X100700000Y-66410000D01*
X100700770Y-66394317D01*
X100703074Y-66378786D01*
X100706890Y-66363554D01*
X100712179Y-66348771D01*
X100718893Y-66334577D01*
X100726965Y-66321109D01*
X100736318Y-66308497D01*
X100746863Y-66296863D01*
X100758497Y-66286318D01*
X100771109Y-66276965D01*
X100784577Y-66268893D01*
X100798771Y-66262179D01*
X100813554Y-66256890D01*
X100828786Y-66253074D01*
X100844317Y-66250770D01*
X100860000Y-66250000D01*
X102140000Y-66250000D01*
X102155683Y-66250770D01*
X102155683Y-66250770D01*
G37*
D12*
X101500000Y-67050000D03*
D19*
X104500000Y-74500000D03*
X102500000Y-75450000D03*
X102500000Y-73550000D03*
X105250000Y-70300000D03*
X105250000Y-72200000D03*
X107250000Y-71250000D03*
X108750000Y-70300000D03*
X108750000Y-72200000D03*
X110750000Y-71250000D03*
X98000000Y-63050000D03*
X98000000Y-64950000D03*
X100000000Y-64000000D03*
X102000000Y-63050000D03*
X102000000Y-64950000D03*
X104000000Y-64000000D03*
X107000000Y-67500000D03*
X105000000Y-68450000D03*
X105000000Y-66550000D03*
X107000000Y-82950000D03*
X107000000Y-81050000D03*
X105000000Y-82000000D03*
X104750000Y-77550000D03*
X104750000Y-79450000D03*
X106750000Y-78500000D03*
X100500000Y-74500000D03*
X98500000Y-75450000D03*
X98500000Y-73550000D03*
X108000000Y-75050000D03*
X108000000Y-76950000D03*
X110000000Y-76000000D03*
X98000000Y-82000000D03*
X100000000Y-81050000D03*
X100000000Y-82950000D03*
X113000000Y-71050000D03*
X113000000Y-72950000D03*
X115000000Y-72000000D03*
X107500000Y-62550000D03*
X107500000Y-64450000D03*
X109500000Y-63500000D03*
X115200000Y-66000000D03*
X113200000Y-66950000D03*
X113200000Y-65050000D03*
X112000000Y-82500000D03*
X110000000Y-83450000D03*
X110000000Y-81550000D03*
X112000000Y-76050000D03*
X112000000Y-77950000D03*
X114000000Y-77000000D03*
X118400000Y-77000000D03*
X116400000Y-77950000D03*
X116400000Y-76050000D03*
D14*
G36*
X111849505Y-67301204D02*
G01*
X111873773Y-67304804D01*
X111897572Y-67310765D01*
X111920671Y-67319030D01*
X111942850Y-67329520D01*
X111963893Y-67342132D01*
X111983599Y-67356747D01*
X112001777Y-67373223D01*
X112018253Y-67391401D01*
X112032868Y-67411107D01*
X112045480Y-67432150D01*
X112055970Y-67454329D01*
X112064235Y-67477428D01*
X112070196Y-67501227D01*
X112073796Y-67525495D01*
X112075000Y-67549999D01*
X112075000Y-68450001D01*
X112073796Y-68474505D01*
X112070196Y-68498773D01*
X112064235Y-68522572D01*
X112055970Y-68545671D01*
X112045480Y-68567850D01*
X112032868Y-68588893D01*
X112018253Y-68608599D01*
X112001777Y-68626777D01*
X111983599Y-68643253D01*
X111963893Y-68657868D01*
X111942850Y-68670480D01*
X111920671Y-68680970D01*
X111897572Y-68689235D01*
X111873773Y-68695196D01*
X111849505Y-68698796D01*
X111825001Y-68700000D01*
X111174999Y-68700000D01*
X111150495Y-68698796D01*
X111126227Y-68695196D01*
X111102428Y-68689235D01*
X111079329Y-68680970D01*
X111057150Y-68670480D01*
X111036107Y-68657868D01*
X111016401Y-68643253D01*
X110998223Y-68626777D01*
X110981747Y-68608599D01*
X110967132Y-68588893D01*
X110954520Y-68567850D01*
X110944030Y-68545671D01*
X110935765Y-68522572D01*
X110929804Y-68498773D01*
X110926204Y-68474505D01*
X110925000Y-68450001D01*
X110925000Y-67549999D01*
X110926204Y-67525495D01*
X110929804Y-67501227D01*
X110935765Y-67477428D01*
X110944030Y-67454329D01*
X110954520Y-67432150D01*
X110967132Y-67411107D01*
X110981747Y-67391401D01*
X110998223Y-67373223D01*
X111016401Y-67356747D01*
X111036107Y-67342132D01*
X111057150Y-67329520D01*
X111079329Y-67319030D01*
X111102428Y-67310765D01*
X111126227Y-67304804D01*
X111150495Y-67301204D01*
X111174999Y-67300000D01*
X111825001Y-67300000D01*
X111849505Y-67301204D01*
X111849505Y-67301204D01*
G37*
D15*
X111500000Y-68000000D03*
D14*
G36*
X109799505Y-67301204D02*
G01*
X109823773Y-67304804D01*
X109847572Y-67310765D01*
X109870671Y-67319030D01*
X109892850Y-67329520D01*
X109913893Y-67342132D01*
X109933599Y-67356747D01*
X109951777Y-67373223D01*
X109968253Y-67391401D01*
X109982868Y-67411107D01*
X109995480Y-67432150D01*
X110005970Y-67454329D01*
X110014235Y-67477428D01*
X110020196Y-67501227D01*
X110023796Y-67525495D01*
X110025000Y-67549999D01*
X110025000Y-68450001D01*
X110023796Y-68474505D01*
X110020196Y-68498773D01*
X110014235Y-68522572D01*
X110005970Y-68545671D01*
X109995480Y-68567850D01*
X109982868Y-68588893D01*
X109968253Y-68608599D01*
X109951777Y-68626777D01*
X109933599Y-68643253D01*
X109913893Y-68657868D01*
X109892850Y-68670480D01*
X109870671Y-68680970D01*
X109847572Y-68689235D01*
X109823773Y-68695196D01*
X109799505Y-68698796D01*
X109775001Y-68700000D01*
X109124999Y-68700000D01*
X109100495Y-68698796D01*
X109076227Y-68695196D01*
X109052428Y-68689235D01*
X109029329Y-68680970D01*
X109007150Y-68670480D01*
X108986107Y-68657868D01*
X108966401Y-68643253D01*
X108948223Y-68626777D01*
X108931747Y-68608599D01*
X108917132Y-68588893D01*
X108904520Y-68567850D01*
X108894030Y-68545671D01*
X108885765Y-68522572D01*
X108879804Y-68498773D01*
X108876204Y-68474505D01*
X108875000Y-68450001D01*
X108875000Y-67549999D01*
X108876204Y-67525495D01*
X108879804Y-67501227D01*
X108885765Y-67477428D01*
X108894030Y-67454329D01*
X108904520Y-67432150D01*
X108917132Y-67411107D01*
X108931747Y-67391401D01*
X108948223Y-67373223D01*
X108966401Y-67356747D01*
X108986107Y-67342132D01*
X109007150Y-67329520D01*
X109029329Y-67319030D01*
X109052428Y-67310765D01*
X109076227Y-67304804D01*
X109100495Y-67301204D01*
X109124999Y-67300000D01*
X109775001Y-67300000D01*
X109799505Y-67301204D01*
X109799505Y-67301204D01*
G37*
D15*
X109450000Y-68000000D03*
D14*
G36*
X100374505Y-76801204D02*
G01*
X100398773Y-76804804D01*
X100422572Y-76810765D01*
X100445671Y-76819030D01*
X100467850Y-76829520D01*
X100488893Y-76842132D01*
X100508599Y-76856747D01*
X100526777Y-76873223D01*
X100543253Y-76891401D01*
X100557868Y-76911107D01*
X100570480Y-76932150D01*
X100580970Y-76954329D01*
X100589235Y-76977428D01*
X100595196Y-77001227D01*
X100598796Y-77025495D01*
X100600000Y-77049999D01*
X100600000Y-77950001D01*
X100598796Y-77974505D01*
X100595196Y-77998773D01*
X100589235Y-78022572D01*
X100580970Y-78045671D01*
X100570480Y-78067850D01*
X100557868Y-78088893D01*
X100543253Y-78108599D01*
X100526777Y-78126777D01*
X100508599Y-78143253D01*
X100488893Y-78157868D01*
X100467850Y-78170480D01*
X100445671Y-78180970D01*
X100422572Y-78189235D01*
X100398773Y-78195196D01*
X100374505Y-78198796D01*
X100350001Y-78200000D01*
X99699999Y-78200000D01*
X99675495Y-78198796D01*
X99651227Y-78195196D01*
X99627428Y-78189235D01*
X99604329Y-78180970D01*
X99582150Y-78170480D01*
X99561107Y-78157868D01*
X99541401Y-78143253D01*
X99523223Y-78126777D01*
X99506747Y-78108599D01*
X99492132Y-78088893D01*
X99479520Y-78067850D01*
X99469030Y-78045671D01*
X99460765Y-78022572D01*
X99454804Y-77998773D01*
X99451204Y-77974505D01*
X99450000Y-77950001D01*
X99450000Y-77049999D01*
X99451204Y-77025495D01*
X99454804Y-77001227D01*
X99460765Y-76977428D01*
X99469030Y-76954329D01*
X99479520Y-76932150D01*
X99492132Y-76911107D01*
X99506747Y-76891401D01*
X99523223Y-76873223D01*
X99541401Y-76856747D01*
X99561107Y-76842132D01*
X99582150Y-76829520D01*
X99604329Y-76819030D01*
X99627428Y-76810765D01*
X99651227Y-76804804D01*
X99675495Y-76801204D01*
X99699999Y-76800000D01*
X100350001Y-76800000D01*
X100374505Y-76801204D01*
X100374505Y-76801204D01*
G37*
D15*
X100025000Y-77500000D03*
D14*
G36*
X98324505Y-76801204D02*
G01*
X98348773Y-76804804D01*
X98372572Y-76810765D01*
X98395671Y-76819030D01*
X98417850Y-76829520D01*
X98438893Y-76842132D01*
X98458599Y-76856747D01*
X98476777Y-76873223D01*
X98493253Y-76891401D01*
X98507868Y-76911107D01*
X98520480Y-76932150D01*
X98530970Y-76954329D01*
X98539235Y-76977428D01*
X98545196Y-77001227D01*
X98548796Y-77025495D01*
X98550000Y-77049999D01*
X98550000Y-77950001D01*
X98548796Y-77974505D01*
X98545196Y-77998773D01*
X98539235Y-78022572D01*
X98530970Y-78045671D01*
X98520480Y-78067850D01*
X98507868Y-78088893D01*
X98493253Y-78108599D01*
X98476777Y-78126777D01*
X98458599Y-78143253D01*
X98438893Y-78157868D01*
X98417850Y-78170480D01*
X98395671Y-78180970D01*
X98372572Y-78189235D01*
X98348773Y-78195196D01*
X98324505Y-78198796D01*
X98300001Y-78200000D01*
X97649999Y-78200000D01*
X97625495Y-78198796D01*
X97601227Y-78195196D01*
X97577428Y-78189235D01*
X97554329Y-78180970D01*
X97532150Y-78170480D01*
X97511107Y-78157868D01*
X97491401Y-78143253D01*
X97473223Y-78126777D01*
X97456747Y-78108599D01*
X97442132Y-78088893D01*
X97429520Y-78067850D01*
X97419030Y-78045671D01*
X97410765Y-78022572D01*
X97404804Y-77998773D01*
X97401204Y-77974505D01*
X97400000Y-77950001D01*
X97400000Y-77049999D01*
X97401204Y-77025495D01*
X97404804Y-77001227D01*
X97410765Y-76977428D01*
X97419030Y-76954329D01*
X97429520Y-76932150D01*
X97442132Y-76911107D01*
X97456747Y-76891401D01*
X97473223Y-76873223D01*
X97491401Y-76856747D01*
X97511107Y-76842132D01*
X97532150Y-76829520D01*
X97554329Y-76819030D01*
X97577428Y-76810765D01*
X97601227Y-76804804D01*
X97625495Y-76801204D01*
X97649999Y-76800000D01*
X98300001Y-76800000D01*
X98324505Y-76801204D01*
X98324505Y-76801204D01*
G37*
D15*
X97975000Y-77500000D03*
D14*
G36*
X111824505Y-62301204D02*
G01*
X111848773Y-62304804D01*
X111872572Y-62310765D01*
X111895671Y-62319030D01*
X111917850Y-62329520D01*
X111938893Y-62342132D01*
X111958599Y-62356747D01*
X111976777Y-62373223D01*
X111993253Y-62391401D01*
X112007868Y-62411107D01*
X112020480Y-62432150D01*
X112030970Y-62454329D01*
X112039235Y-62477428D01*
X112045196Y-62501227D01*
X112048796Y-62525495D01*
X112050000Y-62549999D01*
X112050000Y-63450001D01*
X112048796Y-63474505D01*
X112045196Y-63498773D01*
X112039235Y-63522572D01*
X112030970Y-63545671D01*
X112020480Y-63567850D01*
X112007868Y-63588893D01*
X111993253Y-63608599D01*
X111976777Y-63626777D01*
X111958599Y-63643253D01*
X111938893Y-63657868D01*
X111917850Y-63670480D01*
X111895671Y-63680970D01*
X111872572Y-63689235D01*
X111848773Y-63695196D01*
X111824505Y-63698796D01*
X111800001Y-63700000D01*
X111149999Y-63700000D01*
X111125495Y-63698796D01*
X111101227Y-63695196D01*
X111077428Y-63689235D01*
X111054329Y-63680970D01*
X111032150Y-63670480D01*
X111011107Y-63657868D01*
X110991401Y-63643253D01*
X110973223Y-63626777D01*
X110956747Y-63608599D01*
X110942132Y-63588893D01*
X110929520Y-63567850D01*
X110919030Y-63545671D01*
X110910765Y-63522572D01*
X110904804Y-63498773D01*
X110901204Y-63474505D01*
X110900000Y-63450001D01*
X110900000Y-62549999D01*
X110901204Y-62525495D01*
X110904804Y-62501227D01*
X110910765Y-62477428D01*
X110919030Y-62454329D01*
X110929520Y-62432150D01*
X110942132Y-62411107D01*
X110956747Y-62391401D01*
X110973223Y-62373223D01*
X110991401Y-62356747D01*
X111011107Y-62342132D01*
X111032150Y-62329520D01*
X111054329Y-62319030D01*
X111077428Y-62310765D01*
X111101227Y-62304804D01*
X111125495Y-62301204D01*
X111149999Y-62300000D01*
X111800001Y-62300000D01*
X111824505Y-62301204D01*
X111824505Y-62301204D01*
G37*
D15*
X111475000Y-63000000D03*
D14*
G36*
X113874505Y-62301204D02*
G01*
X113898773Y-62304804D01*
X113922572Y-62310765D01*
X113945671Y-62319030D01*
X113967850Y-62329520D01*
X113988893Y-62342132D01*
X114008599Y-62356747D01*
X114026777Y-62373223D01*
X114043253Y-62391401D01*
X114057868Y-62411107D01*
X114070480Y-62432150D01*
X114080970Y-62454329D01*
X114089235Y-62477428D01*
X114095196Y-62501227D01*
X114098796Y-62525495D01*
X114100000Y-62549999D01*
X114100000Y-63450001D01*
X114098796Y-63474505D01*
X114095196Y-63498773D01*
X114089235Y-63522572D01*
X114080970Y-63545671D01*
X114070480Y-63567850D01*
X114057868Y-63588893D01*
X114043253Y-63608599D01*
X114026777Y-63626777D01*
X114008599Y-63643253D01*
X113988893Y-63657868D01*
X113967850Y-63670480D01*
X113945671Y-63680970D01*
X113922572Y-63689235D01*
X113898773Y-63695196D01*
X113874505Y-63698796D01*
X113850001Y-63700000D01*
X113199999Y-63700000D01*
X113175495Y-63698796D01*
X113151227Y-63695196D01*
X113127428Y-63689235D01*
X113104329Y-63680970D01*
X113082150Y-63670480D01*
X113061107Y-63657868D01*
X113041401Y-63643253D01*
X113023223Y-63626777D01*
X113006747Y-63608599D01*
X112992132Y-63588893D01*
X112979520Y-63567850D01*
X112969030Y-63545671D01*
X112960765Y-63522572D01*
X112954804Y-63498773D01*
X112951204Y-63474505D01*
X112950000Y-63450001D01*
X112950000Y-62549999D01*
X112951204Y-62525495D01*
X112954804Y-62501227D01*
X112960765Y-62477428D01*
X112969030Y-62454329D01*
X112979520Y-62432150D01*
X112992132Y-62411107D01*
X113006747Y-62391401D01*
X113023223Y-62373223D01*
X113041401Y-62356747D01*
X113061107Y-62342132D01*
X113082150Y-62329520D01*
X113104329Y-62319030D01*
X113127428Y-62310765D01*
X113151227Y-62304804D01*
X113175495Y-62301204D01*
X113199999Y-62300000D01*
X113850001Y-62300000D01*
X113874505Y-62301204D01*
X113874505Y-62301204D01*
G37*
D15*
X113525000Y-63000000D03*
D14*
G36*
X110874505Y-59801204D02*
G01*
X110898773Y-59804804D01*
X110922572Y-59810765D01*
X110945671Y-59819030D01*
X110967850Y-59829520D01*
X110988893Y-59842132D01*
X111008599Y-59856747D01*
X111026777Y-59873223D01*
X111043253Y-59891401D01*
X111057868Y-59911107D01*
X111070480Y-59932150D01*
X111080970Y-59954329D01*
X111089235Y-59977428D01*
X111095196Y-60001227D01*
X111098796Y-60025495D01*
X111100000Y-60049999D01*
X111100000Y-60950001D01*
X111098796Y-60974505D01*
X111095196Y-60998773D01*
X111089235Y-61022572D01*
X111080970Y-61045671D01*
X111070480Y-61067850D01*
X111057868Y-61088893D01*
X111043253Y-61108599D01*
X111026777Y-61126777D01*
X111008599Y-61143253D01*
X110988893Y-61157868D01*
X110967850Y-61170480D01*
X110945671Y-61180970D01*
X110922572Y-61189235D01*
X110898773Y-61195196D01*
X110874505Y-61198796D01*
X110850001Y-61200000D01*
X110199999Y-61200000D01*
X110175495Y-61198796D01*
X110151227Y-61195196D01*
X110127428Y-61189235D01*
X110104329Y-61180970D01*
X110082150Y-61170480D01*
X110061107Y-61157868D01*
X110041401Y-61143253D01*
X110023223Y-61126777D01*
X110006747Y-61108599D01*
X109992132Y-61088893D01*
X109979520Y-61067850D01*
X109969030Y-61045671D01*
X109960765Y-61022572D01*
X109954804Y-60998773D01*
X109951204Y-60974505D01*
X109950000Y-60950001D01*
X109950000Y-60049999D01*
X109951204Y-60025495D01*
X109954804Y-60001227D01*
X109960765Y-59977428D01*
X109969030Y-59954329D01*
X109979520Y-59932150D01*
X109992132Y-59911107D01*
X110006747Y-59891401D01*
X110023223Y-59873223D01*
X110041401Y-59856747D01*
X110061107Y-59842132D01*
X110082150Y-59829520D01*
X110104329Y-59819030D01*
X110127428Y-59810765D01*
X110151227Y-59804804D01*
X110175495Y-59801204D01*
X110199999Y-59800000D01*
X110850001Y-59800000D01*
X110874505Y-59801204D01*
X110874505Y-59801204D01*
G37*
D15*
X110525000Y-60500000D03*
D14*
G36*
X108824505Y-59801204D02*
G01*
X108848773Y-59804804D01*
X108872572Y-59810765D01*
X108895671Y-59819030D01*
X108917850Y-59829520D01*
X108938893Y-59842132D01*
X108958599Y-59856747D01*
X108976777Y-59873223D01*
X108993253Y-59891401D01*
X109007868Y-59911107D01*
X109020480Y-59932150D01*
X109030970Y-59954329D01*
X109039235Y-59977428D01*
X109045196Y-60001227D01*
X109048796Y-60025495D01*
X109050000Y-60049999D01*
X109050000Y-60950001D01*
X109048796Y-60974505D01*
X109045196Y-60998773D01*
X109039235Y-61022572D01*
X109030970Y-61045671D01*
X109020480Y-61067850D01*
X109007868Y-61088893D01*
X108993253Y-61108599D01*
X108976777Y-61126777D01*
X108958599Y-61143253D01*
X108938893Y-61157868D01*
X108917850Y-61170480D01*
X108895671Y-61180970D01*
X108872572Y-61189235D01*
X108848773Y-61195196D01*
X108824505Y-61198796D01*
X108800001Y-61200000D01*
X108149999Y-61200000D01*
X108125495Y-61198796D01*
X108101227Y-61195196D01*
X108077428Y-61189235D01*
X108054329Y-61180970D01*
X108032150Y-61170480D01*
X108011107Y-61157868D01*
X107991401Y-61143253D01*
X107973223Y-61126777D01*
X107956747Y-61108599D01*
X107942132Y-61088893D01*
X107929520Y-61067850D01*
X107919030Y-61045671D01*
X107910765Y-61022572D01*
X107904804Y-60998773D01*
X107901204Y-60974505D01*
X107900000Y-60950001D01*
X107900000Y-60049999D01*
X107901204Y-60025495D01*
X107904804Y-60001227D01*
X107910765Y-59977428D01*
X107919030Y-59954329D01*
X107929520Y-59932150D01*
X107942132Y-59911107D01*
X107956747Y-59891401D01*
X107973223Y-59873223D01*
X107991401Y-59856747D01*
X108011107Y-59842132D01*
X108032150Y-59829520D01*
X108054329Y-59819030D01*
X108077428Y-59810765D01*
X108101227Y-59804804D01*
X108125495Y-59801204D01*
X108149999Y-59800000D01*
X108800001Y-59800000D01*
X108824505Y-59801204D01*
X108824505Y-59801204D01*
G37*
D15*
X108475000Y-60500000D03*
D14*
G36*
X105374505Y-85301204D02*
G01*
X105398773Y-85304804D01*
X105422572Y-85310765D01*
X105445671Y-85319030D01*
X105467850Y-85329520D01*
X105488893Y-85342132D01*
X105508599Y-85356747D01*
X105526777Y-85373223D01*
X105543253Y-85391401D01*
X105557868Y-85411107D01*
X105570480Y-85432150D01*
X105580970Y-85454329D01*
X105589235Y-85477428D01*
X105595196Y-85501227D01*
X105598796Y-85525495D01*
X105600000Y-85549999D01*
X105600000Y-86450001D01*
X105598796Y-86474505D01*
X105595196Y-86498773D01*
X105589235Y-86522572D01*
X105580970Y-86545671D01*
X105570480Y-86567850D01*
X105557868Y-86588893D01*
X105543253Y-86608599D01*
X105526777Y-86626777D01*
X105508599Y-86643253D01*
X105488893Y-86657868D01*
X105467850Y-86670480D01*
X105445671Y-86680970D01*
X105422572Y-86689235D01*
X105398773Y-86695196D01*
X105374505Y-86698796D01*
X105350001Y-86700000D01*
X104699999Y-86700000D01*
X104675495Y-86698796D01*
X104651227Y-86695196D01*
X104627428Y-86689235D01*
X104604329Y-86680970D01*
X104582150Y-86670480D01*
X104561107Y-86657868D01*
X104541401Y-86643253D01*
X104523223Y-86626777D01*
X104506747Y-86608599D01*
X104492132Y-86588893D01*
X104479520Y-86567850D01*
X104469030Y-86545671D01*
X104460765Y-86522572D01*
X104454804Y-86498773D01*
X104451204Y-86474505D01*
X104450000Y-86450001D01*
X104450000Y-85549999D01*
X104451204Y-85525495D01*
X104454804Y-85501227D01*
X104460765Y-85477428D01*
X104469030Y-85454329D01*
X104479520Y-85432150D01*
X104492132Y-85411107D01*
X104506747Y-85391401D01*
X104523223Y-85373223D01*
X104541401Y-85356747D01*
X104561107Y-85342132D01*
X104582150Y-85329520D01*
X104604329Y-85319030D01*
X104627428Y-85310765D01*
X104651227Y-85304804D01*
X104675495Y-85301204D01*
X104699999Y-85300000D01*
X105350001Y-85300000D01*
X105374505Y-85301204D01*
X105374505Y-85301204D01*
G37*
D15*
X105025000Y-86000000D03*
D14*
G36*
X103324505Y-85301204D02*
G01*
X103348773Y-85304804D01*
X103372572Y-85310765D01*
X103395671Y-85319030D01*
X103417850Y-85329520D01*
X103438893Y-85342132D01*
X103458599Y-85356747D01*
X103476777Y-85373223D01*
X103493253Y-85391401D01*
X103507868Y-85411107D01*
X103520480Y-85432150D01*
X103530970Y-85454329D01*
X103539235Y-85477428D01*
X103545196Y-85501227D01*
X103548796Y-85525495D01*
X103550000Y-85549999D01*
X103550000Y-86450001D01*
X103548796Y-86474505D01*
X103545196Y-86498773D01*
X103539235Y-86522572D01*
X103530970Y-86545671D01*
X103520480Y-86567850D01*
X103507868Y-86588893D01*
X103493253Y-86608599D01*
X103476777Y-86626777D01*
X103458599Y-86643253D01*
X103438893Y-86657868D01*
X103417850Y-86670480D01*
X103395671Y-86680970D01*
X103372572Y-86689235D01*
X103348773Y-86695196D01*
X103324505Y-86698796D01*
X103300001Y-86700000D01*
X102649999Y-86700000D01*
X102625495Y-86698796D01*
X102601227Y-86695196D01*
X102577428Y-86689235D01*
X102554329Y-86680970D01*
X102532150Y-86670480D01*
X102511107Y-86657868D01*
X102491401Y-86643253D01*
X102473223Y-86626777D01*
X102456747Y-86608599D01*
X102442132Y-86588893D01*
X102429520Y-86567850D01*
X102419030Y-86545671D01*
X102410765Y-86522572D01*
X102404804Y-86498773D01*
X102401204Y-86474505D01*
X102400000Y-86450001D01*
X102400000Y-85549999D01*
X102401204Y-85525495D01*
X102404804Y-85501227D01*
X102410765Y-85477428D01*
X102419030Y-85454329D01*
X102429520Y-85432150D01*
X102442132Y-85411107D01*
X102456747Y-85391401D01*
X102473223Y-85373223D01*
X102491401Y-85356747D01*
X102511107Y-85342132D01*
X102532150Y-85329520D01*
X102554329Y-85319030D01*
X102577428Y-85310765D01*
X102601227Y-85304804D01*
X102625495Y-85301204D01*
X102649999Y-85300000D01*
X103300001Y-85300000D01*
X103324505Y-85301204D01*
X103324505Y-85301204D01*
G37*
D15*
X102975000Y-86000000D03*
D14*
G36*
X118874505Y-67301204D02*
G01*
X118898773Y-67304804D01*
X118922572Y-67310765D01*
X118945671Y-67319030D01*
X118967850Y-67329520D01*
X118988893Y-67342132D01*
X119008599Y-67356747D01*
X119026777Y-67373223D01*
X119043253Y-67391401D01*
X119057868Y-67411107D01*
X119070480Y-67432150D01*
X119080970Y-67454329D01*
X119089235Y-67477428D01*
X119095196Y-67501227D01*
X119098796Y-67525495D01*
X119100000Y-67549999D01*
X119100000Y-68450001D01*
X119098796Y-68474505D01*
X119095196Y-68498773D01*
X119089235Y-68522572D01*
X119080970Y-68545671D01*
X119070480Y-68567850D01*
X119057868Y-68588893D01*
X119043253Y-68608599D01*
X119026777Y-68626777D01*
X119008599Y-68643253D01*
X118988893Y-68657868D01*
X118967850Y-68670480D01*
X118945671Y-68680970D01*
X118922572Y-68689235D01*
X118898773Y-68695196D01*
X118874505Y-68698796D01*
X118850001Y-68700000D01*
X118199999Y-68700000D01*
X118175495Y-68698796D01*
X118151227Y-68695196D01*
X118127428Y-68689235D01*
X118104329Y-68680970D01*
X118082150Y-68670480D01*
X118061107Y-68657868D01*
X118041401Y-68643253D01*
X118023223Y-68626777D01*
X118006747Y-68608599D01*
X117992132Y-68588893D01*
X117979520Y-68567850D01*
X117969030Y-68545671D01*
X117960765Y-68522572D01*
X117954804Y-68498773D01*
X117951204Y-68474505D01*
X117950000Y-68450001D01*
X117950000Y-67549999D01*
X117951204Y-67525495D01*
X117954804Y-67501227D01*
X117960765Y-67477428D01*
X117969030Y-67454329D01*
X117979520Y-67432150D01*
X117992132Y-67411107D01*
X118006747Y-67391401D01*
X118023223Y-67373223D01*
X118041401Y-67356747D01*
X118061107Y-67342132D01*
X118082150Y-67329520D01*
X118104329Y-67319030D01*
X118127428Y-67310765D01*
X118151227Y-67304804D01*
X118175495Y-67301204D01*
X118199999Y-67300000D01*
X118850001Y-67300000D01*
X118874505Y-67301204D01*
X118874505Y-67301204D01*
G37*
D15*
X118525000Y-68000000D03*
D14*
G36*
X116824505Y-67301204D02*
G01*
X116848773Y-67304804D01*
X116872572Y-67310765D01*
X116895671Y-67319030D01*
X116917850Y-67329520D01*
X116938893Y-67342132D01*
X116958599Y-67356747D01*
X116976777Y-67373223D01*
X116993253Y-67391401D01*
X117007868Y-67411107D01*
X117020480Y-67432150D01*
X117030970Y-67454329D01*
X117039235Y-67477428D01*
X117045196Y-67501227D01*
X117048796Y-67525495D01*
X117050000Y-67549999D01*
X117050000Y-68450001D01*
X117048796Y-68474505D01*
X117045196Y-68498773D01*
X117039235Y-68522572D01*
X117030970Y-68545671D01*
X117020480Y-68567850D01*
X117007868Y-68588893D01*
X116993253Y-68608599D01*
X116976777Y-68626777D01*
X116958599Y-68643253D01*
X116938893Y-68657868D01*
X116917850Y-68670480D01*
X116895671Y-68680970D01*
X116872572Y-68689235D01*
X116848773Y-68695196D01*
X116824505Y-68698796D01*
X116800001Y-68700000D01*
X116149999Y-68700000D01*
X116125495Y-68698796D01*
X116101227Y-68695196D01*
X116077428Y-68689235D01*
X116054329Y-68680970D01*
X116032150Y-68670480D01*
X116011107Y-68657868D01*
X115991401Y-68643253D01*
X115973223Y-68626777D01*
X115956747Y-68608599D01*
X115942132Y-68588893D01*
X115929520Y-68567850D01*
X115919030Y-68545671D01*
X115910765Y-68522572D01*
X115904804Y-68498773D01*
X115901204Y-68474505D01*
X115900000Y-68450001D01*
X115900000Y-67549999D01*
X115901204Y-67525495D01*
X115904804Y-67501227D01*
X115910765Y-67477428D01*
X115919030Y-67454329D01*
X115929520Y-67432150D01*
X115942132Y-67411107D01*
X115956747Y-67391401D01*
X115973223Y-67373223D01*
X115991401Y-67356747D01*
X116011107Y-67342132D01*
X116032150Y-67329520D01*
X116054329Y-67319030D01*
X116077428Y-67310765D01*
X116101227Y-67304804D01*
X116125495Y-67301204D01*
X116149999Y-67300000D01*
X116800001Y-67300000D01*
X116824505Y-67301204D01*
X116824505Y-67301204D01*
G37*
D15*
X116475000Y-68000000D03*
D14*
G36*
X117974505Y-71451204D02*
G01*
X117998773Y-71454804D01*
X118022572Y-71460765D01*
X118045671Y-71469030D01*
X118067850Y-71479520D01*
X118088893Y-71492132D01*
X118108599Y-71506747D01*
X118126777Y-71523223D01*
X118143253Y-71541401D01*
X118157868Y-71561107D01*
X118170480Y-71582150D01*
X118180970Y-71604329D01*
X118189235Y-71627428D01*
X118195196Y-71651227D01*
X118198796Y-71675495D01*
X118200000Y-71699999D01*
X118200000Y-72350001D01*
X118198796Y-72374505D01*
X118195196Y-72398773D01*
X118189235Y-72422572D01*
X118180970Y-72445671D01*
X118170480Y-72467850D01*
X118157868Y-72488893D01*
X118143253Y-72508599D01*
X118126777Y-72526777D01*
X118108599Y-72543253D01*
X118088893Y-72557868D01*
X118067850Y-72570480D01*
X118045671Y-72580970D01*
X118022572Y-72589235D01*
X117998773Y-72595196D01*
X117974505Y-72598796D01*
X117950001Y-72600000D01*
X117049999Y-72600000D01*
X117025495Y-72598796D01*
X117001227Y-72595196D01*
X116977428Y-72589235D01*
X116954329Y-72580970D01*
X116932150Y-72570480D01*
X116911107Y-72557868D01*
X116891401Y-72543253D01*
X116873223Y-72526777D01*
X116856747Y-72508599D01*
X116842132Y-72488893D01*
X116829520Y-72467850D01*
X116819030Y-72445671D01*
X116810765Y-72422572D01*
X116804804Y-72398773D01*
X116801204Y-72374505D01*
X116800000Y-72350001D01*
X116800000Y-71699999D01*
X116801204Y-71675495D01*
X116804804Y-71651227D01*
X116810765Y-71627428D01*
X116819030Y-71604329D01*
X116829520Y-71582150D01*
X116842132Y-71561107D01*
X116856747Y-71541401D01*
X116873223Y-71523223D01*
X116891401Y-71506747D01*
X116911107Y-71492132D01*
X116932150Y-71479520D01*
X116954329Y-71469030D01*
X116977428Y-71460765D01*
X117001227Y-71454804D01*
X117025495Y-71451204D01*
X117049999Y-71450000D01*
X117950001Y-71450000D01*
X117974505Y-71451204D01*
X117974505Y-71451204D01*
G37*
D15*
X117500000Y-72025000D03*
D14*
G36*
X117974505Y-69401204D02*
G01*
X117998773Y-69404804D01*
X118022572Y-69410765D01*
X118045671Y-69419030D01*
X118067850Y-69429520D01*
X118088893Y-69442132D01*
X118108599Y-69456747D01*
X118126777Y-69473223D01*
X118143253Y-69491401D01*
X118157868Y-69511107D01*
X118170480Y-69532150D01*
X118180970Y-69554329D01*
X118189235Y-69577428D01*
X118195196Y-69601227D01*
X118198796Y-69625495D01*
X118200000Y-69649999D01*
X118200000Y-70300001D01*
X118198796Y-70324505D01*
X118195196Y-70348773D01*
X118189235Y-70372572D01*
X118180970Y-70395671D01*
X118170480Y-70417850D01*
X118157868Y-70438893D01*
X118143253Y-70458599D01*
X118126777Y-70476777D01*
X118108599Y-70493253D01*
X118088893Y-70507868D01*
X118067850Y-70520480D01*
X118045671Y-70530970D01*
X118022572Y-70539235D01*
X117998773Y-70545196D01*
X117974505Y-70548796D01*
X117950001Y-70550000D01*
X117049999Y-70550000D01*
X117025495Y-70548796D01*
X117001227Y-70545196D01*
X116977428Y-70539235D01*
X116954329Y-70530970D01*
X116932150Y-70520480D01*
X116911107Y-70507868D01*
X116891401Y-70493253D01*
X116873223Y-70476777D01*
X116856747Y-70458599D01*
X116842132Y-70438893D01*
X116829520Y-70417850D01*
X116819030Y-70395671D01*
X116810765Y-70372572D01*
X116804804Y-70348773D01*
X116801204Y-70324505D01*
X116800000Y-70300001D01*
X116800000Y-69649999D01*
X116801204Y-69625495D01*
X116804804Y-69601227D01*
X116810765Y-69577428D01*
X116819030Y-69554329D01*
X116829520Y-69532150D01*
X116842132Y-69511107D01*
X116856747Y-69491401D01*
X116873223Y-69473223D01*
X116891401Y-69456747D01*
X116911107Y-69442132D01*
X116932150Y-69429520D01*
X116954329Y-69419030D01*
X116977428Y-69410765D01*
X117001227Y-69404804D01*
X117025495Y-69401204D01*
X117049999Y-69400000D01*
X117950001Y-69400000D01*
X117974505Y-69401204D01*
X117974505Y-69401204D01*
G37*
D15*
X117500000Y-69975000D03*
D20*
X117500000Y-70000000D03*
X115000000Y-72000000D03*
X107500000Y-73500000D03*
X114000000Y-77000000D03*
X108000000Y-76950000D03*
X114000000Y-80850000D03*
X108850000Y-86000000D03*
X97000000Y-83500000D03*
X103500000Y-83500000D03*
X103000000Y-69500000D03*
X100000000Y-69500000D03*
X105750000Y-64250000D03*
X101500000Y-81000000D03*
X103500000Y-81000000D03*
X98000000Y-65000000D03*
X100000000Y-62000000D03*
X105000000Y-66550000D03*
X107000000Y-81000000D03*
X105000000Y-82000000D03*
X105000000Y-82000000D03*
X112000000Y-82500000D03*
X117000000Y-74500000D03*
X115000000Y-75500000D03*
D21*
X94700000Y-68450000D02*
X94000000Y-67750000D01*
X94000000Y-67750000D02*
X93750000Y-67750000D01*
X98000000Y-63050000D02*
X98050000Y-63050000D01*
X98050000Y-68450000D02*
X94700000Y-68450000D01*
X97950000Y-63050000D02*
X97000000Y-64000000D01*
X98000000Y-63050000D02*
X97950000Y-63050000D01*
X97000000Y-65385002D02*
X97614998Y-66000000D01*
X97000000Y-64000000D02*
X97000000Y-65385002D01*
X100000000Y-66000000D02*
X100374990Y-66374990D01*
X97614998Y-66000000D02*
X100000000Y-66000000D01*
X100374990Y-68374990D02*
X100450000Y-68450000D01*
X100374990Y-66374990D02*
X100374990Y-68374990D01*
X105000000Y-68450000D02*
X100450000Y-68450000D01*
X100450000Y-68450000D02*
X98050000Y-68450000D01*
X107500000Y-61900000D02*
X106100000Y-60500000D01*
X107500000Y-62550000D02*
X107500000Y-61900000D01*
X99790588Y-60500000D02*
X98000000Y-62290588D01*
X106100000Y-60500000D02*
X99790588Y-60500000D01*
X98000000Y-62290588D02*
X98000000Y-63000000D01*
X106100000Y-60500000D02*
X108500000Y-60500000D01*
X117000000Y-70500000D02*
X117000000Y-70500000D01*
X115974990Y-73275010D02*
X115974990Y-71525010D01*
X115974990Y-71525010D02*
X117000000Y-70500000D01*
X117000000Y-70500000D02*
X117000000Y-70500000D01*
X115974990Y-73275010D02*
X115974990Y-75500000D01*
X115974990Y-75500000D02*
X116000000Y-75500000D01*
X116000000Y-75500000D02*
X116500000Y-76000000D01*
X101200000Y-74500000D02*
X102200000Y-75500000D01*
X100500000Y-74500000D02*
X101200000Y-74500000D01*
X102200000Y-75500000D02*
X102500000Y-75500000D01*
X103800000Y-74500000D02*
X102800000Y-75500000D01*
X104500000Y-74500000D02*
X103800000Y-74500000D01*
X102800000Y-75500000D02*
X102500000Y-75500000D01*
X105250000Y-73800000D02*
X104550000Y-74500000D01*
X105250000Y-72200000D02*
X105250000Y-73800000D01*
X105250000Y-73800000D02*
X107200000Y-73800000D01*
X107200000Y-73800000D02*
X107500000Y-73500000D01*
X107500000Y-73500000D02*
X107500000Y-73500000D01*
X106785002Y-76950000D02*
X108000000Y-76950000D01*
X105460001Y-78275001D02*
X106785002Y-76950000D01*
X104048621Y-78275001D02*
X105460001Y-78275001D01*
X103886810Y-78113190D02*
X104048621Y-78275001D01*
X101000000Y-78113190D02*
X103886810Y-78113190D01*
X98500000Y-75450000D02*
X98500000Y-75500000D01*
X98500000Y-75500000D02*
X99000000Y-76000000D01*
X99000000Y-76000000D02*
X99000000Y-78063190D01*
X99000000Y-78063190D02*
X99461820Y-78525010D01*
X99461820Y-78525010D02*
X100588180Y-78525010D01*
X100588180Y-78525010D02*
X101000000Y-78113190D01*
X108000000Y-76950000D02*
X108000000Y-76950000D01*
X114000000Y-77000000D02*
X114000000Y-78500000D01*
X115186401Y-79049991D02*
X116000000Y-79863590D01*
X116000000Y-79863590D02*
X116000000Y-84500000D01*
X116000000Y-84500000D02*
X117000000Y-85500000D01*
X114549991Y-79049991D02*
X114000000Y-78500000D01*
X115186401Y-79049991D02*
X114549991Y-79049991D01*
X112150000Y-86000000D02*
X112150000Y-85150000D01*
X113150000Y-84150000D02*
X112650000Y-84650000D01*
X114000000Y-84150000D02*
X113150000Y-84150000D01*
X112150000Y-85150000D02*
X112650000Y-84650000D01*
X112150000Y-86000000D02*
X115000000Y-86000000D01*
X112000000Y-77950000D02*
X112000000Y-80000000D01*
X114000000Y-80850000D02*
X114000000Y-80850000D01*
X112850000Y-80850000D02*
X112000000Y-80000000D01*
X114000000Y-80850000D02*
X112850000Y-80850000D01*
X110000000Y-83450000D02*
X110000000Y-83500000D01*
X108850000Y-86000000D02*
X108850000Y-86000000D01*
X108850000Y-84650000D02*
X110000000Y-83500000D01*
X108850000Y-86000000D02*
X108850000Y-84650000D01*
X96000000Y-74730000D02*
X96000000Y-82500000D01*
X94000000Y-72730000D02*
X96000000Y-74730000D01*
X96000000Y-82500000D02*
X97000000Y-83500000D01*
X97000000Y-83500000D02*
X97000000Y-83500000D01*
X106300000Y-82950000D02*
X105750000Y-83500000D01*
X107000000Y-82950000D02*
X106300000Y-82950000D01*
X105750000Y-83500000D02*
X103500000Y-83500000D01*
X103500000Y-83500000D02*
X103500000Y-83500000D01*
X100700000Y-86000000D02*
X101500000Y-86000000D01*
X101475000Y-86000000D02*
X97000000Y-86000000D01*
X97000000Y-86000000D02*
X94000000Y-83000000D01*
X94000000Y-83000000D02*
X94000000Y-80000000D01*
X102975000Y-84025000D02*
X103500000Y-83500000D01*
X102975000Y-86000000D02*
X102975000Y-84025000D01*
X101475000Y-86000000D02*
X103000000Y-86000000D01*
X102500000Y-73550000D02*
X102500000Y-70000000D01*
X98500000Y-73550000D02*
X98500000Y-71000000D01*
X98500000Y-71000000D02*
X100000000Y-69500000D01*
X105200010Y-64799990D02*
X103299990Y-64799990D01*
X105750000Y-64250000D02*
X105200010Y-64799990D01*
X101411411Y-64224999D02*
X101000000Y-64636410D01*
X103299990Y-64799990D02*
X102724999Y-64224999D01*
X102724999Y-64224999D02*
X101411411Y-64224999D01*
X101000000Y-64636410D02*
X101000000Y-66750000D01*
X101450000Y-81050000D02*
X101500000Y-81000000D01*
X100000000Y-81050000D02*
X101450000Y-81050000D01*
X111000000Y-69949998D02*
X111000000Y-68500000D01*
X111525001Y-70474999D02*
X111000000Y-69949998D01*
X111000000Y-68500000D02*
X111500000Y-68000000D01*
X111525001Y-71974999D02*
X111525001Y-70474999D01*
X111000000Y-72500000D02*
X111525001Y-71974999D01*
X108443205Y-79943205D02*
X111000000Y-77386410D01*
X111000000Y-77386410D02*
X111000000Y-72500000D01*
X105691797Y-79943205D02*
X108443205Y-79943205D01*
X104635002Y-81000000D02*
X105691797Y-79943205D01*
X103500000Y-81000000D02*
X104635002Y-81000000D01*
X105250000Y-70300000D02*
X105250000Y-70250000D01*
X105250000Y-70250000D02*
X105750000Y-69750000D01*
X105750000Y-69750000D02*
X108250000Y-69750000D01*
X108250000Y-69750000D02*
X108750000Y-70250000D01*
X108750000Y-70300000D02*
X108750000Y-68500000D01*
X108750000Y-68500000D02*
X108750000Y-68250000D01*
X108750000Y-68250000D02*
X109500000Y-67500000D01*
X102000000Y-64950000D02*
X102000000Y-65000000D01*
X102000000Y-65000000D02*
X102250000Y-65250000D01*
X102250000Y-65250000D02*
X106000000Y-65250000D01*
X107000000Y-67500000D02*
X107000000Y-66250000D01*
X108750000Y-72200000D02*
X110050000Y-72200000D01*
X110050000Y-72200000D02*
X110750000Y-71500000D01*
X108750000Y-72200000D02*
X108200000Y-72200000D01*
X108200000Y-72200000D02*
X107250000Y-71250000D01*
X110000000Y-76000000D02*
X110000000Y-72200000D01*
X104750000Y-79450000D02*
X106050000Y-79450000D01*
X106050000Y-79450000D02*
X106750000Y-78750000D01*
X106750000Y-78500000D02*
X107885002Y-78500000D01*
X107885002Y-78500000D02*
X109250000Y-78500000D01*
X109250000Y-78500000D02*
X110000000Y-77750000D01*
X110000000Y-77750000D02*
X110000000Y-75750000D01*
X106875000Y-66125000D02*
X110125000Y-66125000D01*
X106875000Y-66125000D02*
X106000000Y-65250000D01*
X107000000Y-66250000D02*
X106875000Y-66125000D01*
X110125000Y-66125000D02*
X110500000Y-66500000D01*
X110500000Y-66500000D02*
X110500000Y-71000000D01*
X104000000Y-63350000D02*
X101650000Y-61000000D01*
X104000000Y-64000000D02*
X104000000Y-63350000D01*
X98700000Y-64950000D02*
X99000000Y-64650000D01*
X98000000Y-64950000D02*
X98700000Y-64950000D01*
X99926998Y-61000000D02*
X101650000Y-61000000D01*
X99000000Y-61926998D02*
X99926998Y-61000000D01*
X99000000Y-64650000D02*
X99000000Y-61926998D01*
X100000000Y-64000000D02*
X101000000Y-64000000D01*
X101000000Y-64000000D02*
X102000000Y-63000000D01*
X101950000Y-63050000D02*
X100900000Y-62000000D01*
X102000000Y-63050000D02*
X101950000Y-63050000D01*
X100900000Y-62000000D02*
X100000000Y-62000000D01*
X108000000Y-75050000D02*
X106950000Y-75050000D01*
X106950000Y-75050000D02*
X104750000Y-77250000D01*
X104750000Y-77250000D02*
X104750000Y-77500000D01*
X100025000Y-77500000D02*
X104500000Y-77500000D01*
X99000000Y-79136410D02*
X98000000Y-78136410D01*
X99000000Y-81000000D02*
X99000000Y-79136410D01*
X98000000Y-78136410D02*
X98000000Y-77500000D01*
X99000000Y-81000000D02*
X99000000Y-82500000D01*
X99000000Y-82500000D02*
X99500000Y-83000000D01*
X99500000Y-83000000D02*
X100000000Y-83000000D01*
X112950000Y-71050000D02*
X112000000Y-72000000D01*
X113000000Y-71050000D02*
X112950000Y-71050000D01*
X112000000Y-72000000D02*
X112000000Y-76000000D01*
X113000000Y-71050000D02*
X113000000Y-70400000D01*
X113000000Y-70400000D02*
X113000000Y-67000000D01*
X112000000Y-82500000D02*
X115000000Y-82500000D01*
X115000000Y-82500000D02*
X115500000Y-82000000D01*
X115500000Y-82000000D02*
X115500000Y-80000000D01*
X115500000Y-80000000D02*
X115000000Y-79500000D01*
X115000000Y-79500000D02*
X113500000Y-79500000D01*
X113500000Y-79500000D02*
X113000000Y-79000000D01*
X113000000Y-79000000D02*
X113000000Y-73000000D01*
X115200000Y-66000000D02*
X111000000Y-66000000D01*
X111000000Y-66000000D02*
X110500000Y-65500000D01*
X110500000Y-65500000D02*
X108000000Y-65500000D01*
X108000000Y-65500000D02*
X107500000Y-65000000D01*
X107500000Y-65000000D02*
X107500000Y-64500000D01*
X114500000Y-63000000D02*
X113525000Y-63000000D01*
X115200000Y-66000000D02*
X115200000Y-63700000D01*
X115200000Y-63700000D02*
X114500000Y-63000000D01*
X109500000Y-63500000D02*
X109500000Y-64150000D01*
X109500000Y-64150000D02*
X109500000Y-64500000D01*
X110049990Y-65049990D02*
X110686401Y-65049991D01*
X109500000Y-64500000D02*
X110049990Y-65049990D01*
X110686401Y-65049991D02*
X111136410Y-65500000D01*
X111136410Y-65500000D02*
X113000000Y-65500000D01*
X113000000Y-65500000D02*
X113000000Y-65000000D01*
X109500000Y-63500000D02*
X109500000Y-62850000D01*
X109500000Y-62850000D02*
X109500000Y-62000000D01*
X109500000Y-62000000D02*
X110500000Y-61000000D01*
X109300000Y-81550000D02*
X108500000Y-82350000D01*
X110000000Y-81550000D02*
X109300000Y-81550000D01*
X108500000Y-82350000D02*
X108500000Y-83500000D01*
X108500000Y-83500000D02*
X107500000Y-84500000D01*
X106500000Y-84525000D02*
X106500000Y-84500000D01*
X105025000Y-86000000D02*
X106500000Y-84525000D01*
X107500000Y-84500000D02*
X106500000Y-84500000D01*
X117000000Y-74000000D02*
X117000000Y-72500000D01*
X117000000Y-74000000D02*
X117000000Y-73850000D01*
X117000000Y-74500000D02*
X117000000Y-74000000D01*
X118400000Y-75900000D02*
X117000000Y-74500000D01*
X118400000Y-77000000D02*
X118400000Y-75900000D01*
X114300000Y-75450000D02*
X114000000Y-75150000D01*
X115000000Y-75450000D02*
X114300000Y-75450000D01*
X114000000Y-75150000D02*
X114000000Y-70500000D01*
X114000000Y-70500000D02*
X116500000Y-68000000D01*
X115000000Y-77250000D02*
X115000000Y-76150000D01*
X115000000Y-76150000D02*
X115000000Y-75500000D01*
X115700000Y-77950000D02*
X115000000Y-77250000D01*
X116400000Y-77950000D02*
X115700000Y-77950000D01*
X96500000Y-72000000D02*
X95000000Y-70500000D01*
X95000000Y-70500000D02*
X94000000Y-70500000D01*
X96500000Y-81200000D02*
X96500000Y-80000000D01*
X97300000Y-82000000D02*
X96500000Y-81200000D01*
X98000000Y-82000000D02*
X97300000Y-82000000D01*
X96500000Y-80200000D02*
X96500000Y-80000000D01*
X96500000Y-80000000D02*
X96500000Y-72000000D01*
D22*
G36*
X123423719Y-59360066D02*
G01*
X123831300Y-59483122D01*
X124207213Y-59682999D01*
X124537147Y-59952087D01*
X124808527Y-60280130D01*
X125011028Y-60654646D01*
X125136924Y-61061352D01*
X125182997Y-61499709D01*
X125183000Y-61500536D01*
X125183001Y-86484487D01*
X125139934Y-86923720D01*
X125016879Y-87331297D01*
X124817001Y-87707213D01*
X124547913Y-88037147D01*
X124219866Y-88308530D01*
X123845355Y-88511027D01*
X123438647Y-88636924D01*
X123000291Y-88682997D01*
X122999464Y-88683000D01*
X89317000Y-88683000D01*
X89317000Y-79550000D01*
X92871418Y-79550000D01*
X92871418Y-81150000D01*
X92877732Y-81214103D01*
X92896430Y-81275743D01*
X92926794Y-81332550D01*
X92967657Y-81382343D01*
X93017450Y-81423206D01*
X93074257Y-81453570D01*
X93135897Y-81472268D01*
X93200000Y-81478582D01*
X93548001Y-81478582D01*
X93548000Y-82977795D01*
X93545813Y-83000000D01*
X93554540Y-83088607D01*
X93565219Y-83123810D01*
X93580386Y-83173809D01*
X93622357Y-83252332D01*
X93678841Y-83321159D01*
X93696100Y-83335323D01*
X96664681Y-86303905D01*
X96678841Y-86321159D01*
X96747667Y-86377643D01*
X96805167Y-86408377D01*
X96826190Y-86419614D01*
X96911392Y-86445460D01*
X97000000Y-86454187D01*
X97022205Y-86452000D01*
X102071615Y-86452000D01*
X102082535Y-86562877D01*
X102115460Y-86671414D01*
X102168926Y-86771443D01*
X102240880Y-86859120D01*
X102328557Y-86931074D01*
X102428586Y-86984540D01*
X102537123Y-87017465D01*
X102649999Y-87028582D01*
X103300001Y-87028582D01*
X103412877Y-87017465D01*
X103521414Y-86984540D01*
X103621443Y-86931074D01*
X103709120Y-86859120D01*
X103781074Y-86771443D01*
X103834540Y-86671414D01*
X103867465Y-86562877D01*
X103878582Y-86450001D01*
X103878582Y-85549999D01*
X104121418Y-85549999D01*
X104121418Y-86450001D01*
X104132535Y-86562877D01*
X104165460Y-86671414D01*
X104218926Y-86771443D01*
X104290880Y-86859120D01*
X104378557Y-86931074D01*
X104478586Y-86984540D01*
X104587123Y-87017465D01*
X104699999Y-87028582D01*
X105350001Y-87028582D01*
X105462877Y-87017465D01*
X105571414Y-86984540D01*
X105671443Y-86931074D01*
X105759120Y-86859120D01*
X105831074Y-86771443D01*
X105884540Y-86671414D01*
X105917465Y-86562877D01*
X105928582Y-86450001D01*
X105928582Y-85735641D01*
X106264223Y-85400000D01*
X108071418Y-85400000D01*
X108071418Y-86600000D01*
X108077732Y-86664103D01*
X108096430Y-86725743D01*
X108126794Y-86782550D01*
X108167657Y-86832343D01*
X108217450Y-86873206D01*
X108274257Y-86903570D01*
X108335897Y-86922268D01*
X108400000Y-86928582D01*
X109300000Y-86928582D01*
X109364103Y-86922268D01*
X109425743Y-86903570D01*
X109482550Y-86873206D01*
X109532343Y-86832343D01*
X109573206Y-86782550D01*
X109603570Y-86725743D01*
X109622268Y-86664103D01*
X109628582Y-86600000D01*
X109628582Y-85400000D01*
X111371418Y-85400000D01*
X111371418Y-86600000D01*
X111377732Y-86664103D01*
X111396430Y-86725743D01*
X111426794Y-86782550D01*
X111467657Y-86832343D01*
X111517450Y-86873206D01*
X111574257Y-86903570D01*
X111635897Y-86922268D01*
X111700000Y-86928582D01*
X112600000Y-86928582D01*
X112664103Y-86922268D01*
X112725743Y-86903570D01*
X112782550Y-86873206D01*
X112832343Y-86832343D01*
X112873206Y-86782550D01*
X112903570Y-86725743D01*
X112922268Y-86664103D01*
X112928582Y-86600000D01*
X112928582Y-86452000D01*
X114071615Y-86452000D01*
X114082535Y-86562877D01*
X114115460Y-86671414D01*
X114168926Y-86771443D01*
X114240880Y-86859120D01*
X114328557Y-86931074D01*
X114428586Y-86984540D01*
X114537123Y-87017465D01*
X114649999Y-87028582D01*
X115300001Y-87028582D01*
X115412877Y-87017465D01*
X115521414Y-86984540D01*
X115621443Y-86931074D01*
X115709120Y-86859120D01*
X115781074Y-86771443D01*
X115834540Y-86671414D01*
X115867465Y-86562877D01*
X115878582Y-86450001D01*
X115878582Y-85549999D01*
X115867465Y-85437123D01*
X115834540Y-85328586D01*
X115781074Y-85228557D01*
X115709120Y-85140880D01*
X115621443Y-85068926D01*
X115521414Y-85015460D01*
X115412877Y-84982535D01*
X115300001Y-84971418D01*
X114649999Y-84971418D01*
X114537123Y-84982535D01*
X114428586Y-85015460D01*
X114328557Y-85068926D01*
X114240880Y-85140880D01*
X114168926Y-85228557D01*
X114115460Y-85328586D01*
X114082535Y-85437123D01*
X114071615Y-85548000D01*
X112928582Y-85548000D01*
X112928582Y-85400000D01*
X112922268Y-85335897D01*
X112903570Y-85274257D01*
X112873206Y-85217450D01*
X112832343Y-85167657D01*
X112798961Y-85140262D01*
X112985313Y-84953911D01*
X112985317Y-84953906D01*
X113140262Y-84798961D01*
X113167657Y-84832343D01*
X113217450Y-84873206D01*
X113274257Y-84903570D01*
X113335897Y-84922268D01*
X113400000Y-84928582D01*
X114600000Y-84928582D01*
X114664103Y-84922268D01*
X114725743Y-84903570D01*
X114782550Y-84873206D01*
X114832343Y-84832343D01*
X114873206Y-84782550D01*
X114903570Y-84725743D01*
X114922268Y-84664103D01*
X114928582Y-84600000D01*
X114928582Y-83700000D01*
X114922268Y-83635897D01*
X114903570Y-83574257D01*
X114873206Y-83517450D01*
X114832343Y-83467657D01*
X114782550Y-83426794D01*
X114725743Y-83396430D01*
X114664103Y-83377732D01*
X114600000Y-83371418D01*
X113400000Y-83371418D01*
X113335897Y-83377732D01*
X113274257Y-83396430D01*
X113217450Y-83426794D01*
X113167657Y-83467657D01*
X113126794Y-83517450D01*
X113096430Y-83574257D01*
X113077732Y-83635897D01*
X113071418Y-83700000D01*
X113071418Y-83703553D01*
X113061392Y-83704540D01*
X113036609Y-83712058D01*
X112976190Y-83730386D01*
X112897667Y-83772357D01*
X112828841Y-83828841D01*
X112814681Y-83846095D01*
X112346094Y-84314683D01*
X112346089Y-84314687D01*
X111846096Y-84814681D01*
X111828842Y-84828841D01*
X111772358Y-84897667D01*
X111730386Y-84976191D01*
X111704540Y-85061393D01*
X111703553Y-85071418D01*
X111700000Y-85071418D01*
X111635897Y-85077732D01*
X111574257Y-85096430D01*
X111517450Y-85126794D01*
X111467657Y-85167657D01*
X111426794Y-85217450D01*
X111396430Y-85274257D01*
X111377732Y-85335897D01*
X111371418Y-85400000D01*
X109628582Y-85400000D01*
X109622268Y-85335897D01*
X109603570Y-85274257D01*
X109573206Y-85217450D01*
X109532343Y-85167657D01*
X109482550Y-85126794D01*
X109425743Y-85096430D01*
X109364103Y-85077732D01*
X109302000Y-85071615D01*
X109302000Y-84837223D01*
X109960642Y-84178582D01*
X110450000Y-84178582D01*
X110514103Y-84172268D01*
X110575743Y-84153570D01*
X110632550Y-84123206D01*
X110682343Y-84082343D01*
X110723206Y-84032550D01*
X110753570Y-83975743D01*
X110772268Y-83914103D01*
X110778582Y-83850000D01*
X110778582Y-83050000D01*
X110772268Y-82985897D01*
X110753570Y-82924257D01*
X110723206Y-82867450D01*
X110682343Y-82817657D01*
X110632550Y-82776794D01*
X110575743Y-82746430D01*
X110514103Y-82727732D01*
X110450000Y-82721418D01*
X109550000Y-82721418D01*
X109485897Y-82727732D01*
X109424257Y-82746430D01*
X109367450Y-82776794D01*
X109317657Y-82817657D01*
X109276794Y-82867450D01*
X109246430Y-82924257D01*
X109227732Y-82985897D01*
X109221418Y-83050000D01*
X109221418Y-83639358D01*
X108546096Y-84314681D01*
X108528842Y-84328841D01*
X108503014Y-84360313D01*
X108472358Y-84397667D01*
X108430386Y-84476191D01*
X108404540Y-84561393D01*
X108395813Y-84650000D01*
X108398001Y-84672215D01*
X108398001Y-85071615D01*
X108335897Y-85077732D01*
X108274257Y-85096430D01*
X108217450Y-85126794D01*
X108167657Y-85167657D01*
X108126794Y-85217450D01*
X108096430Y-85274257D01*
X108077732Y-85335897D01*
X108071418Y-85400000D01*
X106264223Y-85400000D01*
X106712224Y-84952000D01*
X107477795Y-84952000D01*
X107500000Y-84954187D01*
X107522205Y-84952000D01*
X107588607Y-84945460D01*
X107673810Y-84919614D01*
X107752333Y-84877643D01*
X107821159Y-84821159D01*
X107835323Y-84803900D01*
X108803905Y-83835319D01*
X108821159Y-83821159D01*
X108877643Y-83752333D01*
X108919614Y-83673810D01*
X108925754Y-83653570D01*
X108945460Y-83588608D01*
X108954187Y-83500000D01*
X108952000Y-83477795D01*
X108952000Y-82537223D01*
X109312800Y-82176424D01*
X109317657Y-82182343D01*
X109367450Y-82223206D01*
X109424257Y-82253570D01*
X109485897Y-82272268D01*
X109550000Y-82278582D01*
X110450000Y-82278582D01*
X110514103Y-82272268D01*
X110575743Y-82253570D01*
X110632550Y-82223206D01*
X110682343Y-82182343D01*
X110723206Y-82132550D01*
X110753570Y-82075743D01*
X110772268Y-82014103D01*
X110778582Y-81950000D01*
X110778582Y-81150000D01*
X110772268Y-81085897D01*
X110753570Y-81024257D01*
X110723206Y-80967450D01*
X110682343Y-80917657D01*
X110632550Y-80876794D01*
X110575743Y-80846430D01*
X110514103Y-80827732D01*
X110450000Y-80821418D01*
X109550000Y-80821418D01*
X109485897Y-80827732D01*
X109424257Y-80846430D01*
X109367450Y-80876794D01*
X109317657Y-80917657D01*
X109276794Y-80967450D01*
X109246430Y-81024257D01*
X109227732Y-81085897D01*
X109226038Y-81103098D01*
X109211392Y-81104540D01*
X109126190Y-81130386D01*
X109047667Y-81172357D01*
X108978841Y-81228841D01*
X108964681Y-81246095D01*
X108196100Y-82014677D01*
X108178841Y-82028841D01*
X108122357Y-82097668D01*
X108091373Y-82155636D01*
X108080386Y-82176191D01*
X108054540Y-82261393D01*
X108045813Y-82350000D01*
X108048000Y-82372205D01*
X108048001Y-83312775D01*
X107312777Y-84048000D01*
X106522205Y-84048000D01*
X106500000Y-84045813D01*
X106477795Y-84048000D01*
X106411393Y-84054540D01*
X106326190Y-84080386D01*
X106247667Y-84122357D01*
X106178841Y-84178841D01*
X106122357Y-84247667D01*
X106104270Y-84281506D01*
X105408588Y-84977188D01*
X105350001Y-84971418D01*
X104699999Y-84971418D01*
X104587123Y-84982535D01*
X104478586Y-85015460D01*
X104378557Y-85068926D01*
X104290880Y-85140880D01*
X104218926Y-85228557D01*
X104165460Y-85328586D01*
X104132535Y-85437123D01*
X104121418Y-85549999D01*
X103878582Y-85549999D01*
X103867465Y-85437123D01*
X103834540Y-85328586D01*
X103781074Y-85228557D01*
X103709120Y-85140880D01*
X103621443Y-85068926D01*
X103521414Y-85015460D01*
X103427000Y-84986819D01*
X103427000Y-84226722D01*
X103428397Y-84227000D01*
X103571603Y-84227000D01*
X103712058Y-84199062D01*
X103844364Y-84144259D01*
X103963436Y-84064698D01*
X104064698Y-83963436D01*
X104072339Y-83952000D01*
X105727795Y-83952000D01*
X105750000Y-83954187D01*
X105772205Y-83952000D01*
X105838607Y-83945460D01*
X105923810Y-83919614D01*
X106002333Y-83877643D01*
X106071159Y-83821159D01*
X106085323Y-83803900D01*
X106312800Y-83576424D01*
X106317657Y-83582343D01*
X106367450Y-83623206D01*
X106424257Y-83653570D01*
X106485897Y-83672268D01*
X106550000Y-83678582D01*
X107450000Y-83678582D01*
X107514103Y-83672268D01*
X107575743Y-83653570D01*
X107632550Y-83623206D01*
X107682343Y-83582343D01*
X107723206Y-83532550D01*
X107753570Y-83475743D01*
X107772268Y-83414103D01*
X107778582Y-83350000D01*
X107778582Y-82550000D01*
X107772268Y-82485897D01*
X107753570Y-82424257D01*
X107723206Y-82367450D01*
X107682343Y-82317657D01*
X107632550Y-82276794D01*
X107575743Y-82246430D01*
X107514103Y-82227732D01*
X107450000Y-82221418D01*
X106550000Y-82221418D01*
X106485897Y-82227732D01*
X106424257Y-82246430D01*
X106367450Y-82276794D01*
X106317657Y-82317657D01*
X106276794Y-82367450D01*
X106246430Y-82424257D01*
X106227732Y-82485897D01*
X106226038Y-82503098D01*
X106211393Y-82504540D01*
X106126190Y-82530386D01*
X106047667Y-82572357D01*
X105978841Y-82628841D01*
X105964685Y-82646090D01*
X105562776Y-83048000D01*
X104072339Y-83048000D01*
X104064698Y-83036564D01*
X103963436Y-82935302D01*
X103844364Y-82855741D01*
X103712058Y-82800938D01*
X103571603Y-82773000D01*
X103428397Y-82773000D01*
X103287942Y-82800938D01*
X103155636Y-82855741D01*
X103036564Y-82935302D01*
X102935302Y-83036564D01*
X102855741Y-83155636D01*
X102800938Y-83287942D01*
X102773000Y-83428397D01*
X102773000Y-83571603D01*
X102775683Y-83585093D01*
X102671095Y-83689682D01*
X102653842Y-83703841D01*
X102614046Y-83752333D01*
X102597358Y-83772667D01*
X102555386Y-83851191D01*
X102529540Y-83936393D01*
X102520813Y-84025000D01*
X102523001Y-84047215D01*
X102523001Y-84986819D01*
X102428586Y-85015460D01*
X102328557Y-85068926D01*
X102240880Y-85140880D01*
X102168926Y-85228557D01*
X102115460Y-85328586D01*
X102082535Y-85437123D01*
X102071615Y-85548000D01*
X97187224Y-85548000D01*
X94452000Y-82812777D01*
X94452000Y-81478582D01*
X94800000Y-81478582D01*
X94864103Y-81472268D01*
X94925743Y-81453570D01*
X94982550Y-81423206D01*
X95032343Y-81382343D01*
X95073206Y-81332550D01*
X95103570Y-81275743D01*
X95122268Y-81214103D01*
X95128582Y-81150000D01*
X95128582Y-79550000D01*
X95122268Y-79485897D01*
X95103570Y-79424257D01*
X95073206Y-79367450D01*
X95032343Y-79317657D01*
X94982550Y-79276794D01*
X94925743Y-79246430D01*
X94864103Y-79227732D01*
X94800000Y-79221418D01*
X93200000Y-79221418D01*
X93135897Y-79227732D01*
X93074257Y-79246430D01*
X93017450Y-79276794D01*
X92967657Y-79317657D01*
X92926794Y-79367450D01*
X92896430Y-79424257D01*
X92877732Y-79485897D01*
X92871418Y-79550000D01*
X89317000Y-79550000D01*
X89317000Y-75159000D01*
X92873000Y-75159000D01*
X92873000Y-75381000D01*
X92916310Y-75598734D01*
X93001266Y-75803835D01*
X93124602Y-75988421D01*
X93281579Y-76145398D01*
X93466165Y-76268734D01*
X93671266Y-76353690D01*
X93889000Y-76397000D01*
X94111000Y-76397000D01*
X94328734Y-76353690D01*
X94533835Y-76268734D01*
X94718421Y-76145398D01*
X94875398Y-75988421D01*
X94998734Y-75803835D01*
X95083690Y-75598734D01*
X95127000Y-75381000D01*
X95127000Y-75159000D01*
X95083690Y-74941266D01*
X94998734Y-74736165D01*
X94875398Y-74551579D01*
X94718421Y-74394602D01*
X94533835Y-74271266D01*
X94328734Y-74186310D01*
X94111000Y-74143000D01*
X93889000Y-74143000D01*
X93671266Y-74186310D01*
X93466165Y-74271266D01*
X93281579Y-74394602D01*
X93124602Y-74551579D01*
X93001266Y-74736165D01*
X92916310Y-74941266D01*
X92873000Y-75159000D01*
X89317000Y-75159000D01*
X89317000Y-67539000D01*
X92873000Y-67539000D01*
X92873000Y-67761000D01*
X92916310Y-67978734D01*
X93001266Y-68183835D01*
X93124602Y-68368421D01*
X93281579Y-68525398D01*
X93466165Y-68648734D01*
X93671266Y-68733690D01*
X93889000Y-68777000D01*
X94111000Y-68777000D01*
X94328734Y-68733690D01*
X94339858Y-68729082D01*
X94364685Y-68753910D01*
X94378841Y-68771159D01*
X94447667Y-68827643D01*
X94526190Y-68869614D01*
X94611393Y-68895460D01*
X94677795Y-68902000D01*
X94677796Y-68902000D01*
X94699999Y-68904187D01*
X94722202Y-68902000D01*
X99586404Y-68902000D01*
X99536564Y-68935302D01*
X99435302Y-69036564D01*
X99355741Y-69155636D01*
X99300938Y-69287942D01*
X99273000Y-69428397D01*
X99273000Y-69571603D01*
X99275683Y-69585092D01*
X98196096Y-70664681D01*
X98178842Y-70678841D01*
X98124169Y-70745460D01*
X98122358Y-70747667D01*
X98080386Y-70826191D01*
X98054540Y-70911393D01*
X98045813Y-71000000D01*
X98048001Y-71022215D01*
X98048000Y-72821615D01*
X97985897Y-72827732D01*
X97924257Y-72846430D01*
X97867450Y-72876794D01*
X97817657Y-72917657D01*
X97776794Y-72967450D01*
X97746430Y-73024257D01*
X97727732Y-73085897D01*
X97721418Y-73150000D01*
X97721418Y-73950000D01*
X97727732Y-74014103D01*
X97746430Y-74075743D01*
X97776794Y-74132550D01*
X97817657Y-74182343D01*
X97867450Y-74223206D01*
X97924257Y-74253570D01*
X97985897Y-74272268D01*
X98050000Y-74278582D01*
X98950000Y-74278582D01*
X99014103Y-74272268D01*
X99075743Y-74253570D01*
X99132550Y-74223206D01*
X99182343Y-74182343D01*
X99223206Y-74132550D01*
X99240604Y-74100000D01*
X99721418Y-74100000D01*
X99721418Y-74900000D01*
X99727732Y-74964103D01*
X99746430Y-75025743D01*
X99776794Y-75082550D01*
X99817657Y-75132343D01*
X99867450Y-75173206D01*
X99924257Y-75203570D01*
X99985897Y-75222268D01*
X100050000Y-75228582D01*
X100950000Y-75228582D01*
X101014103Y-75222268D01*
X101075743Y-75203570D01*
X101132550Y-75173206D01*
X101182343Y-75132343D01*
X101187201Y-75126424D01*
X101721418Y-75660642D01*
X101721418Y-75850000D01*
X101727732Y-75914103D01*
X101746430Y-75975743D01*
X101776794Y-76032550D01*
X101817657Y-76082343D01*
X101867450Y-76123206D01*
X101924257Y-76153570D01*
X101985897Y-76172268D01*
X102050000Y-76178582D01*
X102950000Y-76178582D01*
X103014103Y-76172268D01*
X103075743Y-76153570D01*
X103132550Y-76123206D01*
X103182343Y-76082343D01*
X103223206Y-76032550D01*
X103253570Y-75975743D01*
X103272268Y-75914103D01*
X103278582Y-75850000D01*
X103278582Y-75660641D01*
X103812800Y-75126424D01*
X103817657Y-75132343D01*
X103867450Y-75173206D01*
X103924257Y-75203570D01*
X103985897Y-75222268D01*
X104050000Y-75228582D01*
X104950000Y-75228582D01*
X105014103Y-75222268D01*
X105075743Y-75203570D01*
X105132550Y-75173206D01*
X105182343Y-75132343D01*
X105223206Y-75082550D01*
X105253570Y-75025743D01*
X105272268Y-74964103D01*
X105278582Y-74900000D01*
X105278582Y-74410642D01*
X105437225Y-74252000D01*
X107177795Y-74252000D01*
X107200000Y-74254187D01*
X107222205Y-74252000D01*
X107288607Y-74245460D01*
X107373810Y-74219614D01*
X107378544Y-74217084D01*
X107428397Y-74227000D01*
X107571603Y-74227000D01*
X107712058Y-74199062D01*
X107844364Y-74144259D01*
X107963436Y-74064698D01*
X108064698Y-73963436D01*
X108144259Y-73844364D01*
X108199062Y-73712058D01*
X108227000Y-73571603D01*
X108227000Y-73428397D01*
X108199062Y-73287942D01*
X108144259Y-73155636D01*
X108064698Y-73036564D01*
X107963436Y-72935302D01*
X107844364Y-72855741D01*
X107712058Y-72800938D01*
X107571603Y-72773000D01*
X107428397Y-72773000D01*
X107287942Y-72800938D01*
X107155636Y-72855741D01*
X107036564Y-72935302D01*
X106935302Y-73036564D01*
X106855741Y-73155636D01*
X106800938Y-73287942D01*
X106788992Y-73348000D01*
X105702000Y-73348000D01*
X105702000Y-72928385D01*
X105764103Y-72922268D01*
X105825743Y-72903570D01*
X105882550Y-72873206D01*
X105932343Y-72832343D01*
X105973206Y-72782550D01*
X106003570Y-72725743D01*
X106022268Y-72664103D01*
X106028582Y-72600000D01*
X106028582Y-71800000D01*
X106022268Y-71735897D01*
X106003570Y-71674257D01*
X105973206Y-71617450D01*
X105932343Y-71567657D01*
X105882550Y-71526794D01*
X105825743Y-71496430D01*
X105764103Y-71477732D01*
X105700000Y-71471418D01*
X104800000Y-71471418D01*
X104735897Y-71477732D01*
X104674257Y-71496430D01*
X104617450Y-71526794D01*
X104567657Y-71567657D01*
X104526794Y-71617450D01*
X104496430Y-71674257D01*
X104477732Y-71735897D01*
X104471418Y-71800000D01*
X104471418Y-72600000D01*
X104477732Y-72664103D01*
X104496430Y-72725743D01*
X104526794Y-72782550D01*
X104567657Y-72832343D01*
X104617450Y-72873206D01*
X104674257Y-72903570D01*
X104735897Y-72922268D01*
X104798000Y-72928385D01*
X104798001Y-73612775D01*
X104639358Y-73771418D01*
X104050000Y-73771418D01*
X103985897Y-73777732D01*
X103924257Y-73796430D01*
X103867450Y-73826794D01*
X103817657Y-73867657D01*
X103776794Y-73917450D01*
X103746430Y-73974257D01*
X103727732Y-74035897D01*
X103726038Y-74053098D01*
X103711392Y-74054540D01*
X103641496Y-74075743D01*
X103626190Y-74080386D01*
X103547667Y-74122357D01*
X103478841Y-74178841D01*
X103464681Y-74196095D01*
X102939359Y-74721418D01*
X102060642Y-74721418D01*
X101535323Y-74196100D01*
X101521159Y-74178841D01*
X101452333Y-74122357D01*
X101373810Y-74080386D01*
X101288607Y-74054540D01*
X101273962Y-74053098D01*
X101272268Y-74035897D01*
X101253570Y-73974257D01*
X101223206Y-73917450D01*
X101182343Y-73867657D01*
X101132550Y-73826794D01*
X101075743Y-73796430D01*
X101014103Y-73777732D01*
X100950000Y-73771418D01*
X100050000Y-73771418D01*
X99985897Y-73777732D01*
X99924257Y-73796430D01*
X99867450Y-73826794D01*
X99817657Y-73867657D01*
X99776794Y-73917450D01*
X99746430Y-73974257D01*
X99727732Y-74035897D01*
X99721418Y-74100000D01*
X99240604Y-74100000D01*
X99253570Y-74075743D01*
X99272268Y-74014103D01*
X99278582Y-73950000D01*
X99278582Y-73150000D01*
X99272268Y-73085897D01*
X99253570Y-73024257D01*
X99223206Y-72967450D01*
X99182343Y-72917657D01*
X99132550Y-72876794D01*
X99075743Y-72846430D01*
X99014103Y-72827732D01*
X98952000Y-72821615D01*
X98952000Y-71187223D01*
X99473911Y-70665313D01*
X99479845Y-70725563D01*
X99504803Y-70807838D01*
X99545332Y-70883663D01*
X99599876Y-70950124D01*
X99666337Y-71004668D01*
X99742162Y-71045197D01*
X99824437Y-71070155D01*
X99910000Y-71078582D01*
X100790000Y-71078582D01*
X100875563Y-71070155D01*
X100957838Y-71045197D01*
X101033663Y-71004668D01*
X101100124Y-70950124D01*
X101154668Y-70883663D01*
X101195197Y-70807838D01*
X101220155Y-70725563D01*
X101228582Y-70640000D01*
X101228582Y-69260000D01*
X101220155Y-69174437D01*
X101195197Y-69092162D01*
X101154668Y-69016337D01*
X101100124Y-68949876D01*
X101041788Y-68902000D01*
X101958212Y-68902000D01*
X101899876Y-68949876D01*
X101845332Y-69016337D01*
X101804803Y-69092162D01*
X101779845Y-69174437D01*
X101771418Y-69260000D01*
X101771418Y-70640000D01*
X101779845Y-70725563D01*
X101804803Y-70807838D01*
X101845332Y-70883663D01*
X101899876Y-70950124D01*
X101966337Y-71004668D01*
X102042162Y-71045197D01*
X102048001Y-71046968D01*
X102048000Y-72821615D01*
X101985897Y-72827732D01*
X101924257Y-72846430D01*
X101867450Y-72876794D01*
X101817657Y-72917657D01*
X101776794Y-72967450D01*
X101746430Y-73024257D01*
X101727732Y-73085897D01*
X101721418Y-73150000D01*
X101721418Y-73950000D01*
X101727732Y-74014103D01*
X101746430Y-74075743D01*
X101776794Y-74132550D01*
X101817657Y-74182343D01*
X101867450Y-74223206D01*
X101924257Y-74253570D01*
X101985897Y-74272268D01*
X102050000Y-74278582D01*
X102950000Y-74278582D01*
X103014103Y-74272268D01*
X103075743Y-74253570D01*
X103132550Y-74223206D01*
X103182343Y-74182343D01*
X103223206Y-74132550D01*
X103253570Y-74075743D01*
X103272268Y-74014103D01*
X103278582Y-73950000D01*
X103278582Y-73150000D01*
X103272268Y-73085897D01*
X103253570Y-73024257D01*
X103223206Y-72967450D01*
X103182343Y-72917657D01*
X103132550Y-72876794D01*
X103075743Y-72846430D01*
X103014103Y-72827732D01*
X102952000Y-72821615D01*
X102952000Y-71078582D01*
X103090000Y-71078582D01*
X103175563Y-71070155D01*
X103257838Y-71045197D01*
X103333663Y-71004668D01*
X103400124Y-70950124D01*
X103454668Y-70883663D01*
X103495197Y-70807838D01*
X103520155Y-70725563D01*
X103528582Y-70640000D01*
X103528582Y-69999552D01*
X103564698Y-69963436D01*
X103644259Y-69844364D01*
X103699062Y-69712058D01*
X103727000Y-69571603D01*
X103727000Y-69428397D01*
X103699062Y-69287942D01*
X103644259Y-69155636D01*
X103564698Y-69036564D01*
X103463436Y-68935302D01*
X103413596Y-68902000D01*
X104226540Y-68902000D01*
X104227732Y-68914103D01*
X104246430Y-68975743D01*
X104276794Y-69032550D01*
X104317657Y-69082343D01*
X104367450Y-69123206D01*
X104424257Y-69153570D01*
X104485897Y-69172268D01*
X104550000Y-69178582D01*
X105450000Y-69178582D01*
X105514103Y-69172268D01*
X105575743Y-69153570D01*
X105632550Y-69123206D01*
X105682343Y-69082343D01*
X105723206Y-69032550D01*
X105753570Y-68975743D01*
X105772268Y-68914103D01*
X105778582Y-68850000D01*
X105778582Y-68050000D01*
X105772268Y-67985897D01*
X105753570Y-67924257D01*
X105723206Y-67867450D01*
X105682343Y-67817657D01*
X105632550Y-67776794D01*
X105575743Y-67746430D01*
X105514103Y-67727732D01*
X105450000Y-67721418D01*
X104550000Y-67721418D01*
X104485897Y-67727732D01*
X104424257Y-67746430D01*
X104367450Y-67776794D01*
X104317657Y-67817657D01*
X104276794Y-67867450D01*
X104246430Y-67924257D01*
X104227732Y-67985897D01*
X104226540Y-67998000D01*
X102516239Y-67998000D01*
X102546241Y-67961442D01*
X102591391Y-67876972D01*
X102619194Y-67785318D01*
X102628582Y-67690000D01*
X102628582Y-66410000D01*
X102619194Y-66314682D01*
X102591391Y-66223028D01*
X102552357Y-66150000D01*
X104221418Y-66150000D01*
X104221418Y-66950000D01*
X104227732Y-67014103D01*
X104246430Y-67075743D01*
X104276794Y-67132550D01*
X104317657Y-67182343D01*
X104367450Y-67223206D01*
X104424257Y-67253570D01*
X104485897Y-67272268D01*
X104550000Y-67278582D01*
X105450000Y-67278582D01*
X105514103Y-67272268D01*
X105575743Y-67253570D01*
X105632550Y-67223206D01*
X105682343Y-67182343D01*
X105723206Y-67132550D01*
X105753570Y-67075743D01*
X105772268Y-67014103D01*
X105778582Y-66950000D01*
X105778582Y-66150000D01*
X105772268Y-66085897D01*
X105753570Y-66024257D01*
X105723206Y-65967450D01*
X105682343Y-65917657D01*
X105632550Y-65876794D01*
X105575743Y-65846430D01*
X105514103Y-65827732D01*
X105450000Y-65821418D01*
X104550000Y-65821418D01*
X104485897Y-65827732D01*
X104424257Y-65846430D01*
X104367450Y-65876794D01*
X104317657Y-65917657D01*
X104276794Y-65967450D01*
X104246430Y-66024257D01*
X104227732Y-66085897D01*
X104221418Y-66150000D01*
X102552357Y-66150000D01*
X102546241Y-66138558D01*
X102485480Y-66064520D01*
X102411442Y-66003759D01*
X102326972Y-65958609D01*
X102235318Y-65930806D01*
X102140000Y-65921418D01*
X101452000Y-65921418D01*
X101452000Y-65661986D01*
X101485897Y-65672268D01*
X101550000Y-65678582D01*
X102105754Y-65678582D01*
X102139807Y-65688912D01*
X102161392Y-65695460D01*
X102249999Y-65704187D01*
X102272204Y-65702000D01*
X105812777Y-65702000D01*
X106539681Y-66428905D01*
X106548001Y-66439043D01*
X106548001Y-66771615D01*
X106485897Y-66777732D01*
X106424257Y-66796430D01*
X106367450Y-66826794D01*
X106317657Y-66867657D01*
X106276794Y-66917450D01*
X106246430Y-66974257D01*
X106227732Y-67035897D01*
X106221418Y-67100000D01*
X106221418Y-67900000D01*
X106227732Y-67964103D01*
X106246430Y-68025743D01*
X106276794Y-68082550D01*
X106317657Y-68132343D01*
X106367450Y-68173206D01*
X106424257Y-68203570D01*
X106485897Y-68222268D01*
X106550000Y-68228582D01*
X107450000Y-68228582D01*
X107514103Y-68222268D01*
X107575743Y-68203570D01*
X107632550Y-68173206D01*
X107682343Y-68132343D01*
X107723206Y-68082550D01*
X107753570Y-68025743D01*
X107772268Y-67964103D01*
X107778582Y-67900000D01*
X107778582Y-67100000D01*
X107772268Y-67035897D01*
X107753570Y-66974257D01*
X107723206Y-66917450D01*
X107682343Y-66867657D01*
X107632550Y-66826794D01*
X107575743Y-66796430D01*
X107514103Y-66777732D01*
X107452000Y-66771615D01*
X107452000Y-66577000D01*
X109937776Y-66577000D01*
X110048000Y-66687224D01*
X110048000Y-67043033D01*
X109996414Y-67015460D01*
X109887877Y-66982535D01*
X109775001Y-66971418D01*
X109124999Y-66971418D01*
X109012123Y-66982535D01*
X108903586Y-67015460D01*
X108803557Y-67068926D01*
X108715880Y-67140880D01*
X108643926Y-67228557D01*
X108590460Y-67328586D01*
X108557535Y-67437123D01*
X108546418Y-67549999D01*
X108546418Y-67814359D01*
X108446095Y-67914681D01*
X108428842Y-67928841D01*
X108372358Y-67997667D01*
X108330386Y-68076190D01*
X108314778Y-68127643D01*
X108304540Y-68161393D01*
X108295813Y-68250000D01*
X108298000Y-68272205D01*
X108298000Y-68522204D01*
X108298001Y-68522214D01*
X108298001Y-69300541D01*
X108272205Y-69298000D01*
X108250000Y-69295813D01*
X108227795Y-69298000D01*
X105772205Y-69298000D01*
X105750000Y-69295813D01*
X105661392Y-69304540D01*
X105590019Y-69326191D01*
X105576190Y-69330386D01*
X105497667Y-69372357D01*
X105428841Y-69428841D01*
X105414681Y-69446095D01*
X105289358Y-69571418D01*
X104800000Y-69571418D01*
X104735897Y-69577732D01*
X104674257Y-69596430D01*
X104617450Y-69626794D01*
X104567657Y-69667657D01*
X104526794Y-69717450D01*
X104496430Y-69774257D01*
X104477732Y-69835897D01*
X104471418Y-69900000D01*
X104471418Y-70700000D01*
X104477732Y-70764103D01*
X104496430Y-70825743D01*
X104526794Y-70882550D01*
X104567657Y-70932343D01*
X104617450Y-70973206D01*
X104674257Y-71003570D01*
X104735897Y-71022268D01*
X104800000Y-71028582D01*
X105700000Y-71028582D01*
X105764103Y-71022268D01*
X105825743Y-71003570D01*
X105882550Y-70973206D01*
X105932343Y-70932343D01*
X105973206Y-70882550D01*
X106003570Y-70825743D01*
X106022268Y-70764103D01*
X106028582Y-70700000D01*
X106028582Y-70202000D01*
X107971418Y-70202000D01*
X107971418Y-70665271D01*
X107932343Y-70617657D01*
X107882550Y-70576794D01*
X107825743Y-70546430D01*
X107764103Y-70527732D01*
X107700000Y-70521418D01*
X106800000Y-70521418D01*
X106735897Y-70527732D01*
X106674257Y-70546430D01*
X106617450Y-70576794D01*
X106567657Y-70617657D01*
X106526794Y-70667450D01*
X106496430Y-70724257D01*
X106477732Y-70785897D01*
X106471418Y-70850000D01*
X106471418Y-71650000D01*
X106477732Y-71714103D01*
X106496430Y-71775743D01*
X106526794Y-71832550D01*
X106567657Y-71882343D01*
X106617450Y-71923206D01*
X106674257Y-71953570D01*
X106735897Y-71972268D01*
X106800000Y-71978582D01*
X107339359Y-71978582D01*
X107864681Y-72503905D01*
X107878841Y-72521159D01*
X107947667Y-72577643D01*
X107971418Y-72590338D01*
X107971418Y-72600000D01*
X107977732Y-72664103D01*
X107996430Y-72725743D01*
X108026794Y-72782550D01*
X108067657Y-72832343D01*
X108117450Y-72873206D01*
X108174257Y-72903570D01*
X108235897Y-72922268D01*
X108300000Y-72928582D01*
X109200000Y-72928582D01*
X109264103Y-72922268D01*
X109325743Y-72903570D01*
X109382550Y-72873206D01*
X109432343Y-72832343D01*
X109473206Y-72782550D01*
X109503570Y-72725743D01*
X109522268Y-72664103D01*
X109523460Y-72652000D01*
X109548001Y-72652000D01*
X109548000Y-75271615D01*
X109485897Y-75277732D01*
X109424257Y-75296430D01*
X109367450Y-75326794D01*
X109317657Y-75367657D01*
X109276794Y-75417450D01*
X109246430Y-75474257D01*
X109227732Y-75535897D01*
X109221418Y-75600000D01*
X109221418Y-76400000D01*
X109227732Y-76464103D01*
X109246430Y-76525743D01*
X109276794Y-76582550D01*
X109317657Y-76632343D01*
X109367450Y-76673206D01*
X109424257Y-76703570D01*
X109485897Y-76722268D01*
X109548001Y-76728385D01*
X109548000Y-77562775D01*
X109062777Y-78048000D01*
X107523460Y-78048000D01*
X107522268Y-78035897D01*
X107503570Y-77974257D01*
X107473206Y-77917450D01*
X107432343Y-77867657D01*
X107382550Y-77826794D01*
X107325743Y-77796430D01*
X107264103Y-77777732D01*
X107200000Y-77771418D01*
X106602808Y-77771418D01*
X106972227Y-77402000D01*
X107226540Y-77402000D01*
X107227732Y-77414103D01*
X107246430Y-77475743D01*
X107276794Y-77532550D01*
X107317657Y-77582343D01*
X107367450Y-77623206D01*
X107424257Y-77653570D01*
X107485897Y-77672268D01*
X107550000Y-77678582D01*
X108450000Y-77678582D01*
X108514103Y-77672268D01*
X108575743Y-77653570D01*
X108632550Y-77623206D01*
X108682343Y-77582343D01*
X108723206Y-77532550D01*
X108753570Y-77475743D01*
X108772268Y-77414103D01*
X108778582Y-77350000D01*
X108778582Y-76550000D01*
X108772268Y-76485897D01*
X108753570Y-76424257D01*
X108723206Y-76367450D01*
X108682343Y-76317657D01*
X108632550Y-76276794D01*
X108575743Y-76246430D01*
X108514103Y-76227732D01*
X108450000Y-76221418D01*
X107550000Y-76221418D01*
X107485897Y-76227732D01*
X107424257Y-76246430D01*
X107367450Y-76276794D01*
X107317657Y-76317657D01*
X107276794Y-76367450D01*
X107246430Y-76424257D01*
X107227732Y-76485897D01*
X107226540Y-76498000D01*
X106807206Y-76498000D01*
X106785001Y-76495813D01*
X106696394Y-76504540D01*
X106676564Y-76510556D01*
X106611192Y-76530386D01*
X106532669Y-76572357D01*
X106463843Y-76628841D01*
X106449687Y-76646090D01*
X105528582Y-77567196D01*
X105528582Y-77150000D01*
X105525053Y-77114170D01*
X107137224Y-75502000D01*
X107226540Y-75502000D01*
X107227732Y-75514103D01*
X107246430Y-75575743D01*
X107276794Y-75632550D01*
X107317657Y-75682343D01*
X107367450Y-75723206D01*
X107424257Y-75753570D01*
X107485897Y-75772268D01*
X107550000Y-75778582D01*
X108450000Y-75778582D01*
X108514103Y-75772268D01*
X108575743Y-75753570D01*
X108632550Y-75723206D01*
X108682343Y-75682343D01*
X108723206Y-75632550D01*
X108753570Y-75575743D01*
X108772268Y-75514103D01*
X108778582Y-75450000D01*
X108778582Y-74650000D01*
X108772268Y-74585897D01*
X108753570Y-74524257D01*
X108723206Y-74467450D01*
X108682343Y-74417657D01*
X108632550Y-74376794D01*
X108575743Y-74346430D01*
X108514103Y-74327732D01*
X108450000Y-74321418D01*
X107550000Y-74321418D01*
X107485897Y-74327732D01*
X107424257Y-74346430D01*
X107367450Y-74376794D01*
X107317657Y-74417657D01*
X107276794Y-74467450D01*
X107246430Y-74524257D01*
X107227732Y-74585897D01*
X107226540Y-74598000D01*
X106972205Y-74598000D01*
X106950000Y-74595813D01*
X106861392Y-74604540D01*
X106776190Y-74630386D01*
X106697667Y-74672357D01*
X106628841Y-74728841D01*
X106614681Y-74746095D01*
X104539359Y-76821418D01*
X104300000Y-76821418D01*
X104235897Y-76827732D01*
X104174257Y-76846430D01*
X104117450Y-76876794D01*
X104067657Y-76917657D01*
X104026794Y-76967450D01*
X103996430Y-77024257D01*
X103989228Y-77048000D01*
X100928385Y-77048000D01*
X100917465Y-76937123D01*
X100884540Y-76828586D01*
X100831074Y-76728557D01*
X100759120Y-76640880D01*
X100671443Y-76568926D01*
X100571414Y-76515460D01*
X100462877Y-76482535D01*
X100350001Y-76471418D01*
X99699999Y-76471418D01*
X99587123Y-76482535D01*
X99478586Y-76515460D01*
X99452000Y-76529670D01*
X99452000Y-76022204D01*
X99454187Y-76000000D01*
X99445460Y-75911392D01*
X99419614Y-75826190D01*
X99390792Y-75772268D01*
X99377643Y-75747667D01*
X99321159Y-75678841D01*
X99303906Y-75664682D01*
X99278582Y-75639358D01*
X99278582Y-75050000D01*
X99272268Y-74985897D01*
X99253570Y-74924257D01*
X99223206Y-74867450D01*
X99182343Y-74817657D01*
X99132550Y-74776794D01*
X99075743Y-74746430D01*
X99014103Y-74727732D01*
X98950000Y-74721418D01*
X98050000Y-74721418D01*
X97985897Y-74727732D01*
X97924257Y-74746430D01*
X97867450Y-74776794D01*
X97817657Y-74817657D01*
X97776794Y-74867450D01*
X97746430Y-74924257D01*
X97727732Y-74985897D01*
X97721418Y-75050000D01*
X97721418Y-75850000D01*
X97727732Y-75914103D01*
X97746430Y-75975743D01*
X97776794Y-76032550D01*
X97817657Y-76082343D01*
X97867450Y-76123206D01*
X97924257Y-76153570D01*
X97985897Y-76172268D01*
X98050000Y-76178582D01*
X98539358Y-76178582D01*
X98548000Y-76187224D01*
X98548000Y-76529670D01*
X98521414Y-76515460D01*
X98412877Y-76482535D01*
X98300001Y-76471418D01*
X97649999Y-76471418D01*
X97537123Y-76482535D01*
X97428586Y-76515460D01*
X97328557Y-76568926D01*
X97240880Y-76640880D01*
X97168926Y-76728557D01*
X97115460Y-76828586D01*
X97082535Y-76937123D01*
X97071418Y-77049999D01*
X97071418Y-77950001D01*
X97082535Y-78062877D01*
X97115460Y-78171414D01*
X97168926Y-78271443D01*
X97240880Y-78359120D01*
X97328557Y-78431074D01*
X97428586Y-78484540D01*
X97537123Y-78517465D01*
X97649999Y-78528582D01*
X97752949Y-78528582D01*
X98548001Y-79323635D01*
X98548000Y-80977795D01*
X98548000Y-81288014D01*
X98514103Y-81277732D01*
X98450000Y-81271418D01*
X97550000Y-81271418D01*
X97485897Y-81277732D01*
X97424257Y-81296430D01*
X97367450Y-81326794D01*
X97317657Y-81367657D01*
X97312800Y-81373576D01*
X96952000Y-81012777D01*
X96952000Y-72022204D01*
X96954187Y-71999999D01*
X96945460Y-71911392D01*
X96929968Y-71860323D01*
X96919614Y-71826190D01*
X96877643Y-71747667D01*
X96821159Y-71678841D01*
X96803910Y-71664685D01*
X95335323Y-70196100D01*
X95321159Y-70178841D01*
X95252333Y-70122357D01*
X95173810Y-70080386D01*
X95124288Y-70065364D01*
X95083690Y-69861266D01*
X94998734Y-69656165D01*
X94875398Y-69471579D01*
X94718421Y-69314602D01*
X94533835Y-69191266D01*
X94328734Y-69106310D01*
X94111000Y-69063000D01*
X93889000Y-69063000D01*
X93671266Y-69106310D01*
X93466165Y-69191266D01*
X93281579Y-69314602D01*
X93124602Y-69471579D01*
X93001266Y-69656165D01*
X92916310Y-69861266D01*
X92873000Y-70079000D01*
X92873000Y-70301000D01*
X92916310Y-70518734D01*
X93001266Y-70723835D01*
X93124602Y-70908421D01*
X93281579Y-71065398D01*
X93466165Y-71188734D01*
X93671266Y-71273690D01*
X93889000Y-71317000D01*
X94111000Y-71317000D01*
X94328734Y-71273690D01*
X94533835Y-71188734D01*
X94718421Y-71065398D01*
X94822298Y-70961521D01*
X96048001Y-72187226D01*
X96048001Y-74138776D01*
X95049793Y-73140569D01*
X95083690Y-73058734D01*
X95127000Y-72841000D01*
X95127000Y-72619000D01*
X95083690Y-72401266D01*
X94998734Y-72196165D01*
X94875398Y-72011579D01*
X94718421Y-71854602D01*
X94533835Y-71731266D01*
X94328734Y-71646310D01*
X94111000Y-71603000D01*
X93889000Y-71603000D01*
X93671266Y-71646310D01*
X93466165Y-71731266D01*
X93281579Y-71854602D01*
X93124602Y-72011579D01*
X93001266Y-72196165D01*
X92916310Y-72401266D01*
X92873000Y-72619000D01*
X92873000Y-72841000D01*
X92916310Y-73058734D01*
X93001266Y-73263835D01*
X93124602Y-73448421D01*
X93281579Y-73605398D01*
X93466165Y-73728734D01*
X93671266Y-73813690D01*
X93889000Y-73857000D01*
X94111000Y-73857000D01*
X94328734Y-73813690D01*
X94410569Y-73779793D01*
X95548000Y-74917225D01*
X95548001Y-82477785D01*
X95545813Y-82500000D01*
X95554540Y-82588607D01*
X95580386Y-82673809D01*
X95609663Y-82728582D01*
X95622358Y-82752333D01*
X95678842Y-82821159D01*
X95696096Y-82835319D01*
X96275683Y-83414907D01*
X96273000Y-83428397D01*
X96273000Y-83571603D01*
X96300938Y-83712058D01*
X96355741Y-83844364D01*
X96435302Y-83963436D01*
X96536564Y-84064698D01*
X96655636Y-84144259D01*
X96787942Y-84199062D01*
X96928397Y-84227000D01*
X97071603Y-84227000D01*
X97212058Y-84199062D01*
X97344364Y-84144259D01*
X97463436Y-84064698D01*
X97564698Y-83963436D01*
X97644259Y-83844364D01*
X97699062Y-83712058D01*
X97727000Y-83571603D01*
X97727000Y-83428397D01*
X97699062Y-83287942D01*
X97644259Y-83155636D01*
X97564698Y-83036564D01*
X97463436Y-82935302D01*
X97344364Y-82855741D01*
X97212058Y-82800938D01*
X97071603Y-82773000D01*
X96928397Y-82773000D01*
X96914907Y-82775683D01*
X96452000Y-82312777D01*
X96452000Y-81791223D01*
X96964681Y-82303905D01*
X96978841Y-82321159D01*
X97047667Y-82377643D01*
X97126190Y-82419614D01*
X97211392Y-82445460D01*
X97226038Y-82446902D01*
X97227732Y-82464103D01*
X97246430Y-82525743D01*
X97276794Y-82582550D01*
X97317657Y-82632343D01*
X97367450Y-82673206D01*
X97424257Y-82703570D01*
X97485897Y-82722268D01*
X97550000Y-82728582D01*
X98450000Y-82728582D01*
X98514103Y-82722268D01*
X98575743Y-82703570D01*
X98591727Y-82695026D01*
X98609663Y-82728582D01*
X98622358Y-82752333D01*
X98678842Y-82821159D01*
X98696096Y-82835319D01*
X99164681Y-83303905D01*
X99178841Y-83321159D01*
X99222072Y-83356638D01*
X99227732Y-83414103D01*
X99246430Y-83475743D01*
X99276794Y-83532550D01*
X99317657Y-83582343D01*
X99367450Y-83623206D01*
X99424257Y-83653570D01*
X99485897Y-83672268D01*
X99550000Y-83678582D01*
X100450000Y-83678582D01*
X100514103Y-83672268D01*
X100575743Y-83653570D01*
X100632550Y-83623206D01*
X100682343Y-83582343D01*
X100723206Y-83532550D01*
X100753570Y-83475743D01*
X100772268Y-83414103D01*
X100778582Y-83350000D01*
X100778582Y-82550000D01*
X100772268Y-82485897D01*
X100753570Y-82424257D01*
X100723206Y-82367450D01*
X100682343Y-82317657D01*
X100632550Y-82276794D01*
X100575743Y-82246430D01*
X100514103Y-82227732D01*
X100450000Y-82221418D01*
X99550000Y-82221418D01*
X99485897Y-82227732D01*
X99452000Y-82238014D01*
X99452000Y-81761986D01*
X99485897Y-81772268D01*
X99550000Y-81778582D01*
X100450000Y-81778582D01*
X100514103Y-81772268D01*
X100575743Y-81753570D01*
X100632550Y-81723206D01*
X100682343Y-81682343D01*
X100723206Y-81632550D01*
X100753570Y-81575743D01*
X100772268Y-81514103D01*
X100773460Y-81502000D01*
X100973866Y-81502000D01*
X101036564Y-81564698D01*
X101155636Y-81644259D01*
X101287942Y-81699062D01*
X101428397Y-81727000D01*
X101571603Y-81727000D01*
X101712058Y-81699062D01*
X101844364Y-81644259D01*
X101963436Y-81564698D01*
X102064698Y-81463436D01*
X102144259Y-81344364D01*
X102199062Y-81212058D01*
X102227000Y-81071603D01*
X102227000Y-80928397D01*
X102199062Y-80787942D01*
X102144259Y-80655636D01*
X102064698Y-80536564D01*
X101963436Y-80435302D01*
X101844364Y-80355741D01*
X101712058Y-80300938D01*
X101571603Y-80273000D01*
X101428397Y-80273000D01*
X101287942Y-80300938D01*
X101155636Y-80355741D01*
X101036564Y-80435302D01*
X100935302Y-80536564D01*
X100894252Y-80598000D01*
X100773460Y-80598000D01*
X100772268Y-80585897D01*
X100753570Y-80524257D01*
X100723206Y-80467450D01*
X100682343Y-80417657D01*
X100632550Y-80376794D01*
X100575743Y-80346430D01*
X100514103Y-80327732D01*
X100450000Y-80321418D01*
X99550000Y-80321418D01*
X99485897Y-80327732D01*
X99452000Y-80338014D01*
X99452000Y-79158615D01*
X99454187Y-79136410D01*
X99445460Y-79047802D01*
X99423504Y-78975423D01*
X99461819Y-78979197D01*
X99484024Y-78977010D01*
X100565975Y-78977010D01*
X100588180Y-78979197D01*
X100610385Y-78977010D01*
X100676787Y-78970470D01*
X100761990Y-78944624D01*
X100840513Y-78902653D01*
X100909339Y-78846169D01*
X100923503Y-78828910D01*
X101187224Y-78565190D01*
X103699586Y-78565190D01*
X103713301Y-78578905D01*
X103727462Y-78596160D01*
X103796288Y-78652644D01*
X103874811Y-78694615D01*
X103940950Y-78714678D01*
X103960013Y-78720461D01*
X104048620Y-78729188D01*
X104070825Y-78727001D01*
X104243318Y-78727001D01*
X104235897Y-78727732D01*
X104174257Y-78746430D01*
X104117450Y-78776794D01*
X104067657Y-78817657D01*
X104026794Y-78867450D01*
X103996430Y-78924257D01*
X103977732Y-78985897D01*
X103971418Y-79050000D01*
X103971418Y-79850000D01*
X103977732Y-79914103D01*
X103996430Y-79975743D01*
X104026794Y-80032550D01*
X104067657Y-80082343D01*
X104117450Y-80123206D01*
X104174257Y-80153570D01*
X104235897Y-80172268D01*
X104300000Y-80178582D01*
X104817197Y-80178582D01*
X104447779Y-80548000D01*
X104072339Y-80548000D01*
X104064698Y-80536564D01*
X103963436Y-80435302D01*
X103844364Y-80355741D01*
X103712058Y-80300938D01*
X103571603Y-80273000D01*
X103428397Y-80273000D01*
X103287942Y-80300938D01*
X103155636Y-80355741D01*
X103036564Y-80435302D01*
X102935302Y-80536564D01*
X102855741Y-80655636D01*
X102800938Y-80787942D01*
X102773000Y-80928397D01*
X102773000Y-81071603D01*
X102800938Y-81212058D01*
X102855741Y-81344364D01*
X102935302Y-81463436D01*
X103036564Y-81564698D01*
X103155636Y-81644259D01*
X103287942Y-81699062D01*
X103428397Y-81727000D01*
X103571603Y-81727000D01*
X103712058Y-81699062D01*
X103844364Y-81644259D01*
X103963436Y-81564698D01*
X104064698Y-81463436D01*
X104072339Y-81452000D01*
X104258327Y-81452000D01*
X104246430Y-81474257D01*
X104227732Y-81535897D01*
X104221418Y-81600000D01*
X104221418Y-82400000D01*
X104227732Y-82464103D01*
X104246430Y-82525743D01*
X104276794Y-82582550D01*
X104317657Y-82632343D01*
X104367450Y-82673206D01*
X104424257Y-82703570D01*
X104485897Y-82722268D01*
X104550000Y-82728582D01*
X105450000Y-82728582D01*
X105514103Y-82722268D01*
X105575743Y-82703570D01*
X105632550Y-82673206D01*
X105682343Y-82632343D01*
X105723206Y-82582550D01*
X105753570Y-82525743D01*
X105772268Y-82464103D01*
X105778582Y-82400000D01*
X105778582Y-81600000D01*
X105772268Y-81535897D01*
X105753570Y-81474257D01*
X105723206Y-81417450D01*
X105682343Y-81367657D01*
X105632550Y-81326794D01*
X105575743Y-81296430D01*
X105514103Y-81277732D01*
X105450000Y-81271418D01*
X105002807Y-81271418D01*
X105879021Y-80395205D01*
X106345016Y-80395205D01*
X106317657Y-80417657D01*
X106276794Y-80467450D01*
X106246430Y-80524257D01*
X106227732Y-80585897D01*
X106221418Y-80650000D01*
X106221418Y-81450000D01*
X106227732Y-81514103D01*
X106246430Y-81575743D01*
X106276794Y-81632550D01*
X106317657Y-81682343D01*
X106367450Y-81723206D01*
X106424257Y-81753570D01*
X106485897Y-81772268D01*
X106550000Y-81778582D01*
X107450000Y-81778582D01*
X107514103Y-81772268D01*
X107575743Y-81753570D01*
X107632550Y-81723206D01*
X107682343Y-81682343D01*
X107723206Y-81632550D01*
X107753570Y-81575743D01*
X107772268Y-81514103D01*
X107778582Y-81450000D01*
X107778582Y-80650000D01*
X107772268Y-80585897D01*
X107753570Y-80524257D01*
X107723206Y-80467450D01*
X107682343Y-80417657D01*
X107654984Y-80395205D01*
X108421000Y-80395205D01*
X108443205Y-80397392D01*
X108465410Y-80395205D01*
X108531812Y-80388665D01*
X108617015Y-80362819D01*
X108695538Y-80320848D01*
X108764364Y-80264364D01*
X108778528Y-80247105D01*
X111221418Y-77804217D01*
X111221418Y-78350000D01*
X111227732Y-78414103D01*
X111246430Y-78475743D01*
X111276794Y-78532550D01*
X111317657Y-78582343D01*
X111367450Y-78623206D01*
X111424257Y-78653570D01*
X111485897Y-78672268D01*
X111548000Y-78678385D01*
X111548001Y-79977785D01*
X111545813Y-80000000D01*
X111554540Y-80088607D01*
X111580386Y-80173809D01*
X111592001Y-80195539D01*
X111622358Y-80252333D01*
X111678842Y-80321159D01*
X111696096Y-80335319D01*
X112514681Y-81153905D01*
X112528841Y-81171159D01*
X112597667Y-81227643D01*
X112676190Y-81269614D01*
X112761392Y-81295460D01*
X112850000Y-81304187D01*
X112872205Y-81302000D01*
X113071615Y-81302000D01*
X113077732Y-81364103D01*
X113096430Y-81425743D01*
X113126794Y-81482550D01*
X113167657Y-81532343D01*
X113217450Y-81573206D01*
X113274257Y-81603570D01*
X113335897Y-81622268D01*
X113400000Y-81628582D01*
X114600000Y-81628582D01*
X114664103Y-81622268D01*
X114725743Y-81603570D01*
X114782550Y-81573206D01*
X114832343Y-81532343D01*
X114873206Y-81482550D01*
X114903570Y-81425743D01*
X114922268Y-81364103D01*
X114928582Y-81300000D01*
X114928582Y-80400000D01*
X114922268Y-80335897D01*
X114903570Y-80274257D01*
X114873206Y-80217450D01*
X114832343Y-80167657D01*
X114782550Y-80126794D01*
X114725743Y-80096430D01*
X114664103Y-80077732D01*
X114600000Y-80071418D01*
X113400000Y-80071418D01*
X113335897Y-80077732D01*
X113274257Y-80096430D01*
X113217450Y-80126794D01*
X113167657Y-80167657D01*
X113126794Y-80217450D01*
X113096430Y-80274257D01*
X113077732Y-80335897D01*
X113071615Y-80398000D01*
X113037224Y-80398000D01*
X112452000Y-79812777D01*
X112452000Y-78678385D01*
X112514103Y-78672268D01*
X112548000Y-78661986D01*
X112548000Y-78977795D01*
X112545813Y-79000000D01*
X112554540Y-79088607D01*
X112577619Y-79164687D01*
X112580386Y-79173809D01*
X112622357Y-79252332D01*
X112678841Y-79321159D01*
X112696100Y-79335323D01*
X113164681Y-79803905D01*
X113178841Y-79821159D01*
X113247667Y-79877643D01*
X113315880Y-79914103D01*
X113326190Y-79919614D01*
X113411392Y-79945460D01*
X113500000Y-79954187D01*
X113522205Y-79952000D01*
X114812777Y-79952000D01*
X115048001Y-80187225D01*
X115048000Y-81812776D01*
X114812777Y-82048000D01*
X112773460Y-82048000D01*
X112772268Y-82035897D01*
X112753570Y-81974257D01*
X112723206Y-81917450D01*
X112682343Y-81867657D01*
X112632550Y-81826794D01*
X112575743Y-81796430D01*
X112514103Y-81777732D01*
X112450000Y-81771418D01*
X111550000Y-81771418D01*
X111485897Y-81777732D01*
X111424257Y-81796430D01*
X111367450Y-81826794D01*
X111317657Y-81867657D01*
X111276794Y-81917450D01*
X111246430Y-81974257D01*
X111227732Y-82035897D01*
X111221418Y-82100000D01*
X111221418Y-82900000D01*
X111227732Y-82964103D01*
X111246430Y-83025743D01*
X111276794Y-83082550D01*
X111317657Y-83132343D01*
X111367450Y-83173206D01*
X111424257Y-83203570D01*
X111485897Y-83222268D01*
X111550000Y-83228582D01*
X112450000Y-83228582D01*
X112514103Y-83222268D01*
X112575743Y-83203570D01*
X112632550Y-83173206D01*
X112682343Y-83132343D01*
X112723206Y-83082550D01*
X112753570Y-83025743D01*
X112772268Y-82964103D01*
X112773460Y-82952000D01*
X114977795Y-82952000D01*
X115000000Y-82954187D01*
X115022205Y-82952000D01*
X115088607Y-82945460D01*
X115173810Y-82919614D01*
X115252333Y-82877643D01*
X115321159Y-82821159D01*
X115335323Y-82803900D01*
X115548001Y-82591223D01*
X115548001Y-84477785D01*
X115545813Y-84500000D01*
X115554540Y-84588607D01*
X115580386Y-84673809D01*
X115596812Y-84704540D01*
X115622358Y-84752333D01*
X115678842Y-84821159D01*
X115696096Y-84835319D01*
X116173786Y-85313009D01*
X116165460Y-85328586D01*
X116132535Y-85437123D01*
X116121418Y-85549999D01*
X116121418Y-86450001D01*
X116132535Y-86562877D01*
X116165460Y-86671414D01*
X116218926Y-86771443D01*
X116290880Y-86859120D01*
X116378557Y-86931074D01*
X116478586Y-86984540D01*
X116587123Y-87017465D01*
X116699999Y-87028582D01*
X117350001Y-87028582D01*
X117462877Y-87017465D01*
X117571414Y-86984540D01*
X117671443Y-86931074D01*
X117759120Y-86859120D01*
X117831074Y-86771443D01*
X117884540Y-86671414D01*
X117917465Y-86562877D01*
X117928582Y-86450001D01*
X117928582Y-85549999D01*
X117917465Y-85437123D01*
X117884540Y-85328586D01*
X117831074Y-85228557D01*
X117759120Y-85140880D01*
X117671443Y-85068926D01*
X117571414Y-85015460D01*
X117462877Y-84982535D01*
X117350001Y-84971418D01*
X117110642Y-84971418D01*
X116452000Y-84312777D01*
X116452000Y-79885795D01*
X116454187Y-79863590D01*
X116445460Y-79774982D01*
X116419614Y-79689780D01*
X116377643Y-79611257D01*
X116321159Y-79542431D01*
X116303906Y-79528272D01*
X115521724Y-78746091D01*
X115507560Y-78728832D01*
X115438734Y-78672348D01*
X115360211Y-78630377D01*
X115275008Y-78604531D01*
X115208606Y-78597991D01*
X115186401Y-78595804D01*
X115164196Y-78597991D01*
X114737215Y-78597991D01*
X114452000Y-78312777D01*
X114452000Y-77728385D01*
X114514103Y-77722268D01*
X114575743Y-77703570D01*
X114632550Y-77673206D01*
X114682343Y-77632343D01*
X114709738Y-77598961D01*
X115364685Y-78253910D01*
X115378841Y-78271159D01*
X115447667Y-78327643D01*
X115526190Y-78369614D01*
X115611393Y-78395460D01*
X115626038Y-78396902D01*
X115627732Y-78414103D01*
X115646430Y-78475743D01*
X115676794Y-78532550D01*
X115717657Y-78582343D01*
X115767450Y-78623206D01*
X115824257Y-78653570D01*
X115885897Y-78672268D01*
X115950000Y-78678582D01*
X116850000Y-78678582D01*
X116914103Y-78672268D01*
X116975743Y-78653570D01*
X117032550Y-78623206D01*
X117082343Y-78582343D01*
X117123206Y-78532550D01*
X117153570Y-78475743D01*
X117172268Y-78414103D01*
X117178582Y-78350000D01*
X117178582Y-77550000D01*
X117172268Y-77485897D01*
X117153570Y-77424257D01*
X117123206Y-77367450D01*
X117082343Y-77317657D01*
X117032550Y-77276794D01*
X116975743Y-77246430D01*
X116914103Y-77227732D01*
X116850000Y-77221418D01*
X115950000Y-77221418D01*
X115885897Y-77227732D01*
X115824257Y-77246430D01*
X115767450Y-77276794D01*
X115717657Y-77317657D01*
X115712800Y-77323576D01*
X115452000Y-77062777D01*
X115452000Y-76072339D01*
X115463436Y-76064698D01*
X115564698Y-75963436D01*
X115621418Y-75878548D01*
X115621418Y-76450000D01*
X115627732Y-76514103D01*
X115646430Y-76575743D01*
X115676794Y-76632550D01*
X115717657Y-76682343D01*
X115767450Y-76723206D01*
X115824257Y-76753570D01*
X115885897Y-76772268D01*
X115950000Y-76778582D01*
X116850000Y-76778582D01*
X116914103Y-76772268D01*
X116975743Y-76753570D01*
X117032550Y-76723206D01*
X117082343Y-76682343D01*
X117123206Y-76632550D01*
X117153570Y-76575743D01*
X117172268Y-76514103D01*
X117178582Y-76450000D01*
X117178582Y-75650000D01*
X117172268Y-75585897D01*
X117153570Y-75524257D01*
X117123206Y-75467450D01*
X117082343Y-75417657D01*
X117032550Y-75376794D01*
X116975743Y-75346430D01*
X116914103Y-75327732D01*
X116850000Y-75321418D01*
X116460641Y-75321418D01*
X116426990Y-75287767D01*
X116426990Y-74950996D01*
X116435302Y-74963436D01*
X116536564Y-75064698D01*
X116655636Y-75144259D01*
X116787942Y-75199062D01*
X116928397Y-75227000D01*
X117071603Y-75227000D01*
X117085093Y-75224317D01*
X117948001Y-76087225D01*
X117948001Y-76271615D01*
X117885897Y-76277732D01*
X117824257Y-76296430D01*
X117767450Y-76326794D01*
X117717657Y-76367657D01*
X117676794Y-76417450D01*
X117646430Y-76474257D01*
X117627732Y-76535897D01*
X117621418Y-76600000D01*
X117621418Y-77400000D01*
X117627732Y-77464103D01*
X117646430Y-77525743D01*
X117676794Y-77582550D01*
X117717657Y-77632343D01*
X117767450Y-77673206D01*
X117824257Y-77703570D01*
X117885897Y-77722268D01*
X117950000Y-77728582D01*
X118850000Y-77728582D01*
X118914103Y-77722268D01*
X118975743Y-77703570D01*
X119032550Y-77673206D01*
X119082343Y-77632343D01*
X119123206Y-77582550D01*
X119153570Y-77525743D01*
X119172268Y-77464103D01*
X119178582Y-77400000D01*
X119178582Y-76600000D01*
X119172268Y-76535897D01*
X119153570Y-76474257D01*
X119123206Y-76417450D01*
X119082343Y-76367657D01*
X119032550Y-76326794D01*
X118975743Y-76296430D01*
X118914103Y-76277732D01*
X118852000Y-76271615D01*
X118852000Y-75922205D01*
X118854187Y-75900000D01*
X118845460Y-75811392D01*
X118819614Y-75726190D01*
X118803377Y-75695813D01*
X118777643Y-75647667D01*
X118721159Y-75578841D01*
X118703905Y-75564681D01*
X117724317Y-74585093D01*
X117727000Y-74571603D01*
X117727000Y-74428397D01*
X117699062Y-74287942D01*
X117644259Y-74155636D01*
X117564698Y-74036564D01*
X117463436Y-73935302D01*
X117452000Y-73927661D01*
X117452000Y-72928582D01*
X117950001Y-72928582D01*
X118062877Y-72917465D01*
X118171414Y-72884540D01*
X118271443Y-72831074D01*
X118359120Y-72759120D01*
X118431074Y-72671443D01*
X118484540Y-72571414D01*
X118517465Y-72462877D01*
X118528582Y-72350001D01*
X118528582Y-71699999D01*
X118517465Y-71587123D01*
X118484540Y-71478586D01*
X118431074Y-71378557D01*
X118359120Y-71290880D01*
X118271443Y-71218926D01*
X118171414Y-71165460D01*
X118062877Y-71132535D01*
X117950001Y-71121418D01*
X117049999Y-71121418D01*
X117014289Y-71124935D01*
X117260642Y-70878582D01*
X117950001Y-70878582D01*
X118062877Y-70867465D01*
X118171414Y-70834540D01*
X118271443Y-70781074D01*
X118359120Y-70709120D01*
X118431074Y-70621443D01*
X118484540Y-70521414D01*
X118517465Y-70412877D01*
X118528582Y-70300001D01*
X118528582Y-69649999D01*
X118517465Y-69537123D01*
X118484540Y-69428586D01*
X118431074Y-69328557D01*
X118359120Y-69240880D01*
X118271443Y-69168926D01*
X118171414Y-69115460D01*
X118062877Y-69082535D01*
X117950001Y-69071418D01*
X117049999Y-69071418D01*
X116937123Y-69082535D01*
X116828586Y-69115460D01*
X116728557Y-69168926D01*
X116640880Y-69240880D01*
X116568926Y-69328557D01*
X116515460Y-69428586D01*
X116482535Y-69537123D01*
X116471418Y-69649999D01*
X116471418Y-70300001D01*
X116479430Y-70381347D01*
X115671086Y-71189691D01*
X115653832Y-71203851D01*
X115615959Y-71250000D01*
X115597348Y-71272677D01*
X115582672Y-71300134D01*
X115575743Y-71296430D01*
X115514103Y-71277732D01*
X115450000Y-71271418D01*
X114550000Y-71271418D01*
X114485897Y-71277732D01*
X114452000Y-71288014D01*
X114452000Y-70687223D01*
X116114170Y-69025053D01*
X116149999Y-69028582D01*
X116800001Y-69028582D01*
X116912877Y-69017465D01*
X117021414Y-68984540D01*
X117121443Y-68931074D01*
X117209120Y-68859120D01*
X117281074Y-68771443D01*
X117334540Y-68671414D01*
X117367465Y-68562877D01*
X117378582Y-68450001D01*
X117378582Y-67549999D01*
X117367465Y-67437123D01*
X117334540Y-67328586D01*
X117281074Y-67228557D01*
X117209120Y-67140880D01*
X117121443Y-67068926D01*
X117021414Y-67015460D01*
X116912877Y-66982535D01*
X116800001Y-66971418D01*
X116149999Y-66971418D01*
X116037123Y-66982535D01*
X115928586Y-67015460D01*
X115828557Y-67068926D01*
X115740880Y-67140880D01*
X115668926Y-67228557D01*
X115615460Y-67328586D01*
X115582535Y-67437123D01*
X115571418Y-67549999D01*
X115571418Y-68289358D01*
X113696096Y-70164681D01*
X113678842Y-70178841D01*
X113651582Y-70212058D01*
X113622358Y-70247667D01*
X113580386Y-70326191D01*
X113574373Y-70346014D01*
X113514103Y-70327732D01*
X113452000Y-70321615D01*
X113452000Y-67678582D01*
X113650000Y-67678582D01*
X113714103Y-67672268D01*
X113775743Y-67653570D01*
X113832550Y-67623206D01*
X113882343Y-67582343D01*
X113923206Y-67532550D01*
X113953570Y-67475743D01*
X113972268Y-67414103D01*
X113978582Y-67350000D01*
X113978582Y-66550000D01*
X113972268Y-66485897D01*
X113961986Y-66452000D01*
X114426540Y-66452000D01*
X114427732Y-66464103D01*
X114446430Y-66525743D01*
X114476794Y-66582550D01*
X114517657Y-66632343D01*
X114567450Y-66673206D01*
X114624257Y-66703570D01*
X114685897Y-66722268D01*
X114750000Y-66728582D01*
X115650000Y-66728582D01*
X115714103Y-66722268D01*
X115775743Y-66703570D01*
X115832550Y-66673206D01*
X115882343Y-66632343D01*
X115923206Y-66582550D01*
X115953570Y-66525743D01*
X115972268Y-66464103D01*
X115978582Y-66400000D01*
X115978582Y-65600000D01*
X115972268Y-65535897D01*
X115953570Y-65474257D01*
X115923206Y-65417450D01*
X115882343Y-65367657D01*
X115832550Y-65326794D01*
X115775743Y-65296430D01*
X115714103Y-65277732D01*
X115652000Y-65271615D01*
X115652000Y-63722202D01*
X115654187Y-63699999D01*
X115652000Y-63677795D01*
X115645460Y-63611393D01*
X115619614Y-63526190D01*
X115577643Y-63447667D01*
X115521159Y-63378841D01*
X115503910Y-63364685D01*
X114835323Y-62696100D01*
X114821159Y-62678841D01*
X114752333Y-62622357D01*
X114673810Y-62580386D01*
X114588607Y-62554540D01*
X114522205Y-62548000D01*
X114500000Y-62545813D01*
X114477795Y-62548000D01*
X114428385Y-62548000D01*
X114417465Y-62437123D01*
X114384540Y-62328586D01*
X114331074Y-62228557D01*
X114259120Y-62140880D01*
X114171443Y-62068926D01*
X114071414Y-62015460D01*
X113962877Y-61982535D01*
X113850001Y-61971418D01*
X113199999Y-61971418D01*
X113087123Y-61982535D01*
X112978586Y-62015460D01*
X112878557Y-62068926D01*
X112790880Y-62140880D01*
X112718926Y-62228557D01*
X112665460Y-62328586D01*
X112632535Y-62437123D01*
X112621418Y-62549999D01*
X112621418Y-63450001D01*
X112632535Y-63562877D01*
X112665460Y-63671414D01*
X112718926Y-63771443D01*
X112790880Y-63859120D01*
X112878557Y-63931074D01*
X112978586Y-63984540D01*
X113087123Y-64017465D01*
X113199999Y-64028582D01*
X113850001Y-64028582D01*
X113962877Y-64017465D01*
X114071414Y-63984540D01*
X114171443Y-63931074D01*
X114259120Y-63859120D01*
X114331074Y-63771443D01*
X114384540Y-63671414D01*
X114417465Y-63562877D01*
X114418020Y-63557244D01*
X114748001Y-63887226D01*
X114748000Y-65271615D01*
X114685897Y-65277732D01*
X114624257Y-65296430D01*
X114567450Y-65326794D01*
X114517657Y-65367657D01*
X114476794Y-65417450D01*
X114446430Y-65474257D01*
X114427732Y-65535897D01*
X114426540Y-65548000D01*
X113961986Y-65548000D01*
X113972268Y-65514103D01*
X113978582Y-65450000D01*
X113978582Y-64650000D01*
X113972268Y-64585897D01*
X113953570Y-64524257D01*
X113923206Y-64467450D01*
X113882343Y-64417657D01*
X113832550Y-64376794D01*
X113775743Y-64346430D01*
X113714103Y-64327732D01*
X113650000Y-64321418D01*
X112750000Y-64321418D01*
X112685897Y-64327732D01*
X112624257Y-64346430D01*
X112567450Y-64376794D01*
X112517657Y-64417657D01*
X112476794Y-64467450D01*
X112446430Y-64524257D01*
X112427732Y-64585897D01*
X112421418Y-64650000D01*
X112421418Y-65048000D01*
X111323634Y-65048000D01*
X111021720Y-64746087D01*
X111007560Y-64728833D01*
X110938734Y-64672349D01*
X110907466Y-64655636D01*
X110860210Y-64630377D01*
X110775008Y-64604531D01*
X110686401Y-64595804D01*
X110664187Y-64597992D01*
X110237215Y-64597991D01*
X109952000Y-64312776D01*
X109952000Y-64228385D01*
X110014103Y-64222268D01*
X110075743Y-64203570D01*
X110132550Y-64173206D01*
X110182343Y-64132343D01*
X110223206Y-64082550D01*
X110253570Y-64025743D01*
X110272268Y-63964103D01*
X110278582Y-63900000D01*
X110278582Y-63100000D01*
X110272268Y-63035897D01*
X110253570Y-62974257D01*
X110223206Y-62917450D01*
X110182343Y-62867657D01*
X110132550Y-62826794D01*
X110075743Y-62796430D01*
X110014103Y-62777732D01*
X109952000Y-62771615D01*
X109952000Y-62187223D01*
X110610642Y-61528582D01*
X110850001Y-61528582D01*
X110962877Y-61517465D01*
X111071414Y-61484540D01*
X111171443Y-61431074D01*
X111259120Y-61359120D01*
X111331074Y-61271443D01*
X111384540Y-61171414D01*
X111417465Y-61062877D01*
X111428582Y-60950001D01*
X111428582Y-60049999D01*
X111417465Y-59937123D01*
X111384540Y-59828586D01*
X111331074Y-59728557D01*
X111259120Y-59640880D01*
X111171443Y-59568926D01*
X111071414Y-59515460D01*
X110962877Y-59482535D01*
X110850001Y-59471418D01*
X110199999Y-59471418D01*
X110087123Y-59482535D01*
X109978586Y-59515460D01*
X109878557Y-59568926D01*
X109790880Y-59640880D01*
X109718926Y-59728557D01*
X109665460Y-59828586D01*
X109632535Y-59937123D01*
X109621418Y-60049999D01*
X109621418Y-60950001D01*
X109632535Y-61062877D01*
X109665460Y-61171414D01*
X109673786Y-61186991D01*
X109196096Y-61664681D01*
X109178842Y-61678841D01*
X109141655Y-61724154D01*
X109122358Y-61747667D01*
X109080386Y-61826191D01*
X109054540Y-61911393D01*
X109045813Y-62000000D01*
X109048001Y-62022215D01*
X109048000Y-62771615D01*
X108985897Y-62777732D01*
X108924257Y-62796430D01*
X108867450Y-62826794D01*
X108817657Y-62867657D01*
X108776794Y-62917450D01*
X108746430Y-62974257D01*
X108727732Y-63035897D01*
X108721418Y-63100000D01*
X108721418Y-63900000D01*
X108727732Y-63964103D01*
X108746430Y-64025743D01*
X108776794Y-64082550D01*
X108817657Y-64132343D01*
X108867450Y-64173206D01*
X108924257Y-64203570D01*
X108985897Y-64222268D01*
X109048000Y-64228385D01*
X109048000Y-64477795D01*
X109045813Y-64500000D01*
X109054540Y-64588607D01*
X109080386Y-64673809D01*
X109093139Y-64697668D01*
X109122358Y-64752333D01*
X109178842Y-64821159D01*
X109196095Y-64835318D01*
X109408776Y-65048000D01*
X108210527Y-65048000D01*
X108223206Y-65032550D01*
X108253570Y-64975743D01*
X108272268Y-64914103D01*
X108278582Y-64850000D01*
X108278582Y-64050000D01*
X108272268Y-63985897D01*
X108253570Y-63924257D01*
X108223206Y-63867450D01*
X108182343Y-63817657D01*
X108132550Y-63776794D01*
X108075743Y-63746430D01*
X108014103Y-63727732D01*
X107950000Y-63721418D01*
X107050000Y-63721418D01*
X106985897Y-63727732D01*
X106924257Y-63746430D01*
X106867450Y-63776794D01*
X106817657Y-63817657D01*
X106776794Y-63867450D01*
X106746430Y-63924257D01*
X106727732Y-63985897D01*
X106721418Y-64050000D01*
X106721418Y-64850000D01*
X106727732Y-64914103D01*
X106746430Y-64975743D01*
X106776794Y-65032550D01*
X106817657Y-65082343D01*
X106867450Y-65123206D01*
X106924257Y-65153570D01*
X106985897Y-65172268D01*
X107050000Y-65178582D01*
X107082937Y-65178582D01*
X107122357Y-65252332D01*
X107178841Y-65321159D01*
X107196100Y-65335323D01*
X107533776Y-65673000D01*
X107062224Y-65673000D01*
X106335323Y-64946100D01*
X106321159Y-64928841D01*
X106252333Y-64872357D01*
X106182781Y-64835181D01*
X106213436Y-64814698D01*
X106314698Y-64713436D01*
X106394259Y-64594364D01*
X106449062Y-64462058D01*
X106477000Y-64321603D01*
X106477000Y-64178397D01*
X106449062Y-64037942D01*
X106394259Y-63905636D01*
X106314698Y-63786564D01*
X106213436Y-63685302D01*
X106094364Y-63605741D01*
X105962058Y-63550938D01*
X105821603Y-63523000D01*
X105678397Y-63523000D01*
X105537942Y-63550938D01*
X105405636Y-63605741D01*
X105286564Y-63685302D01*
X105185302Y-63786564D01*
X105105741Y-63905636D01*
X105050938Y-64037942D01*
X105023000Y-64178397D01*
X105023000Y-64321603D01*
X105025683Y-64335093D01*
X105012786Y-64347990D01*
X104778582Y-64347990D01*
X104778582Y-63600000D01*
X104772268Y-63535897D01*
X104753570Y-63474257D01*
X104723206Y-63417450D01*
X104682343Y-63367657D01*
X104632550Y-63326794D01*
X104575743Y-63296430D01*
X104514103Y-63277732D01*
X104450000Y-63271418D01*
X104446447Y-63271418D01*
X104445460Y-63261392D01*
X104419614Y-63176190D01*
X104399526Y-63138608D01*
X104377643Y-63097667D01*
X104321159Y-63028841D01*
X104303905Y-63014681D01*
X102241223Y-60952000D01*
X105912777Y-60952000D01*
X106851038Y-61890262D01*
X106817657Y-61917657D01*
X106776794Y-61967450D01*
X106746430Y-62024257D01*
X106727732Y-62085897D01*
X106721418Y-62150000D01*
X106721418Y-62950000D01*
X106727732Y-63014103D01*
X106746430Y-63075743D01*
X106776794Y-63132550D01*
X106817657Y-63182343D01*
X106867450Y-63223206D01*
X106924257Y-63253570D01*
X106985897Y-63272268D01*
X107050000Y-63278582D01*
X107950000Y-63278582D01*
X108014103Y-63272268D01*
X108075743Y-63253570D01*
X108132550Y-63223206D01*
X108182343Y-63182343D01*
X108223206Y-63132550D01*
X108253570Y-63075743D01*
X108272268Y-63014103D01*
X108278582Y-62950000D01*
X108278582Y-62150000D01*
X108272268Y-62085897D01*
X108253570Y-62024257D01*
X108223206Y-61967450D01*
X108182343Y-61917657D01*
X108132550Y-61876794D01*
X108075743Y-61846430D01*
X108014103Y-61827732D01*
X107950000Y-61821418D01*
X107946447Y-61821418D01*
X107945460Y-61811392D01*
X107919614Y-61726190D01*
X107894306Y-61678842D01*
X107877643Y-61647667D01*
X107821159Y-61578841D01*
X107803905Y-61564681D01*
X107191224Y-60952000D01*
X107571615Y-60952000D01*
X107582535Y-61062877D01*
X107615460Y-61171414D01*
X107668926Y-61271443D01*
X107740880Y-61359120D01*
X107828557Y-61431074D01*
X107928586Y-61484540D01*
X108037123Y-61517465D01*
X108149999Y-61528582D01*
X108800001Y-61528582D01*
X108912877Y-61517465D01*
X109021414Y-61484540D01*
X109121443Y-61431074D01*
X109209120Y-61359120D01*
X109281074Y-61271443D01*
X109334540Y-61171414D01*
X109367465Y-61062877D01*
X109378582Y-60950001D01*
X109378582Y-60049999D01*
X109367465Y-59937123D01*
X109334540Y-59828586D01*
X109281074Y-59728557D01*
X109209120Y-59640880D01*
X109121443Y-59568926D01*
X109021414Y-59515460D01*
X108912877Y-59482535D01*
X108800001Y-59471418D01*
X108149999Y-59471418D01*
X108037123Y-59482535D01*
X107928586Y-59515460D01*
X107828557Y-59568926D01*
X107740880Y-59640880D01*
X107668926Y-59728557D01*
X107615460Y-59828586D01*
X107582535Y-59937123D01*
X107571615Y-60048000D01*
X106122205Y-60048000D01*
X106100000Y-60045813D01*
X106077795Y-60048000D01*
X99812793Y-60048000D01*
X99790588Y-60045813D01*
X99701980Y-60054540D01*
X99616778Y-60080386D01*
X99538255Y-60122357D01*
X99469429Y-60178841D01*
X99455269Y-60196095D01*
X97696100Y-61955265D01*
X97678841Y-61969429D01*
X97633846Y-62024257D01*
X97622358Y-62038255D01*
X97580386Y-62116779D01*
X97554540Y-62201981D01*
X97545813Y-62290588D01*
X97548000Y-62312794D01*
X97548000Y-62321615D01*
X97485897Y-62327732D01*
X97424257Y-62346430D01*
X97367450Y-62376794D01*
X97317657Y-62417657D01*
X97276794Y-62467450D01*
X97246430Y-62524257D01*
X97227732Y-62585897D01*
X97221418Y-62650000D01*
X97221418Y-63139358D01*
X96696100Y-63664677D01*
X96678841Y-63678841D01*
X96622357Y-63747668D01*
X96583076Y-63821159D01*
X96580386Y-63826191D01*
X96554540Y-63911393D01*
X96545813Y-64000000D01*
X96548000Y-64022204D01*
X96548001Y-65362787D01*
X96545813Y-65385002D01*
X96554540Y-65473609D01*
X96580386Y-65558811D01*
X96602402Y-65600000D01*
X96622358Y-65637335D01*
X96678842Y-65706161D01*
X96696096Y-65720321D01*
X97279679Y-66303905D01*
X97293839Y-66321159D01*
X97362665Y-66377643D01*
X97441188Y-66419614D01*
X97526390Y-66445460D01*
X97614998Y-66454187D01*
X97637203Y-66452000D01*
X99812777Y-66452000D01*
X99922990Y-66562214D01*
X99922991Y-67998000D01*
X95075710Y-67998000D01*
X95083690Y-67978734D01*
X95127000Y-67761000D01*
X95127000Y-67539000D01*
X95083690Y-67321266D01*
X94998734Y-67116165D01*
X94875398Y-66931579D01*
X94718421Y-66774602D01*
X94533835Y-66651266D01*
X94328734Y-66566310D01*
X94111000Y-66523000D01*
X93889000Y-66523000D01*
X93671266Y-66566310D01*
X93466165Y-66651266D01*
X93281579Y-66774602D01*
X93124602Y-66931579D01*
X93001266Y-67116165D01*
X92916310Y-67321266D01*
X92873000Y-67539000D01*
X89317000Y-67539000D01*
X89317000Y-61515503D01*
X89360066Y-61076281D01*
X89483122Y-60668700D01*
X89682999Y-60292787D01*
X89952087Y-59962853D01*
X90280130Y-59691473D01*
X90654646Y-59488972D01*
X91061352Y-59363076D01*
X91499709Y-59317003D01*
X91500536Y-59317000D01*
X122984497Y-59317000D01*
X123423719Y-59360066D01*
X123423719Y-59360066D01*
G37*
X123423719Y-59360066D02*
X123831300Y-59483122D01*
X124207213Y-59682999D01*
X124537147Y-59952087D01*
X124808527Y-60280130D01*
X125011028Y-60654646D01*
X125136924Y-61061352D01*
X125182997Y-61499709D01*
X125183000Y-61500536D01*
X125183001Y-86484487D01*
X125139934Y-86923720D01*
X125016879Y-87331297D01*
X124817001Y-87707213D01*
X124547913Y-88037147D01*
X124219866Y-88308530D01*
X123845355Y-88511027D01*
X123438647Y-88636924D01*
X123000291Y-88682997D01*
X122999464Y-88683000D01*
X89317000Y-88683000D01*
X89317000Y-79550000D01*
X92871418Y-79550000D01*
X92871418Y-81150000D01*
X92877732Y-81214103D01*
X92896430Y-81275743D01*
X92926794Y-81332550D01*
X92967657Y-81382343D01*
X93017450Y-81423206D01*
X93074257Y-81453570D01*
X93135897Y-81472268D01*
X93200000Y-81478582D01*
X93548001Y-81478582D01*
X93548000Y-82977795D01*
X93545813Y-83000000D01*
X93554540Y-83088607D01*
X93565219Y-83123810D01*
X93580386Y-83173809D01*
X93622357Y-83252332D01*
X93678841Y-83321159D01*
X93696100Y-83335323D01*
X96664681Y-86303905D01*
X96678841Y-86321159D01*
X96747667Y-86377643D01*
X96805167Y-86408377D01*
X96826190Y-86419614D01*
X96911392Y-86445460D01*
X97000000Y-86454187D01*
X97022205Y-86452000D01*
X102071615Y-86452000D01*
X102082535Y-86562877D01*
X102115460Y-86671414D01*
X102168926Y-86771443D01*
X102240880Y-86859120D01*
X102328557Y-86931074D01*
X102428586Y-86984540D01*
X102537123Y-87017465D01*
X102649999Y-87028582D01*
X103300001Y-87028582D01*
X103412877Y-87017465D01*
X103521414Y-86984540D01*
X103621443Y-86931074D01*
X103709120Y-86859120D01*
X103781074Y-86771443D01*
X103834540Y-86671414D01*
X103867465Y-86562877D01*
X103878582Y-86450001D01*
X103878582Y-85549999D01*
X104121418Y-85549999D01*
X104121418Y-86450001D01*
X104132535Y-86562877D01*
X104165460Y-86671414D01*
X104218926Y-86771443D01*
X104290880Y-86859120D01*
X104378557Y-86931074D01*
X104478586Y-86984540D01*
X104587123Y-87017465D01*
X104699999Y-87028582D01*
X105350001Y-87028582D01*
X105462877Y-87017465D01*
X105571414Y-86984540D01*
X105671443Y-86931074D01*
X105759120Y-86859120D01*
X105831074Y-86771443D01*
X105884540Y-86671414D01*
X105917465Y-86562877D01*
X105928582Y-86450001D01*
X105928582Y-85735641D01*
X106264223Y-85400000D01*
X108071418Y-85400000D01*
X108071418Y-86600000D01*
X108077732Y-86664103D01*
X108096430Y-86725743D01*
X108126794Y-86782550D01*
X108167657Y-86832343D01*
X108217450Y-86873206D01*
X108274257Y-86903570D01*
X108335897Y-86922268D01*
X108400000Y-86928582D01*
X109300000Y-86928582D01*
X109364103Y-86922268D01*
X109425743Y-86903570D01*
X109482550Y-86873206D01*
X109532343Y-86832343D01*
X109573206Y-86782550D01*
X109603570Y-86725743D01*
X109622268Y-86664103D01*
X109628582Y-86600000D01*
X109628582Y-85400000D01*
X111371418Y-85400000D01*
X111371418Y-86600000D01*
X111377732Y-86664103D01*
X111396430Y-86725743D01*
X111426794Y-86782550D01*
X111467657Y-86832343D01*
X111517450Y-86873206D01*
X111574257Y-86903570D01*
X111635897Y-86922268D01*
X111700000Y-86928582D01*
X112600000Y-86928582D01*
X112664103Y-86922268D01*
X112725743Y-86903570D01*
X112782550Y-86873206D01*
X112832343Y-86832343D01*
X112873206Y-86782550D01*
X112903570Y-86725743D01*
X112922268Y-86664103D01*
X112928582Y-86600000D01*
X112928582Y-86452000D01*
X114071615Y-86452000D01*
X114082535Y-86562877D01*
X114115460Y-86671414D01*
X114168926Y-86771443D01*
X114240880Y-86859120D01*
X114328557Y-86931074D01*
X114428586Y-86984540D01*
X114537123Y-87017465D01*
X114649999Y-87028582D01*
X115300001Y-87028582D01*
X115412877Y-87017465D01*
X115521414Y-86984540D01*
X115621443Y-86931074D01*
X115709120Y-86859120D01*
X115781074Y-86771443D01*
X115834540Y-86671414D01*
X115867465Y-86562877D01*
X115878582Y-86450001D01*
X115878582Y-85549999D01*
X115867465Y-85437123D01*
X115834540Y-85328586D01*
X115781074Y-85228557D01*
X115709120Y-85140880D01*
X115621443Y-85068926D01*
X115521414Y-85015460D01*
X115412877Y-84982535D01*
X115300001Y-84971418D01*
X114649999Y-84971418D01*
X114537123Y-84982535D01*
X114428586Y-85015460D01*
X114328557Y-85068926D01*
X114240880Y-85140880D01*
X114168926Y-85228557D01*
X114115460Y-85328586D01*
X114082535Y-85437123D01*
X114071615Y-85548000D01*
X112928582Y-85548000D01*
X112928582Y-85400000D01*
X112922268Y-85335897D01*
X112903570Y-85274257D01*
X112873206Y-85217450D01*
X112832343Y-85167657D01*
X112798961Y-85140262D01*
X112985313Y-84953911D01*
X112985317Y-84953906D01*
X113140262Y-84798961D01*
X113167657Y-84832343D01*
X113217450Y-84873206D01*
X113274257Y-84903570D01*
X113335897Y-84922268D01*
X113400000Y-84928582D01*
X114600000Y-84928582D01*
X114664103Y-84922268D01*
X114725743Y-84903570D01*
X114782550Y-84873206D01*
X114832343Y-84832343D01*
X114873206Y-84782550D01*
X114903570Y-84725743D01*
X114922268Y-84664103D01*
X114928582Y-84600000D01*
X114928582Y-83700000D01*
X114922268Y-83635897D01*
X114903570Y-83574257D01*
X114873206Y-83517450D01*
X114832343Y-83467657D01*
X114782550Y-83426794D01*
X114725743Y-83396430D01*
X114664103Y-83377732D01*
X114600000Y-83371418D01*
X113400000Y-83371418D01*
X113335897Y-83377732D01*
X113274257Y-83396430D01*
X113217450Y-83426794D01*
X113167657Y-83467657D01*
X113126794Y-83517450D01*
X113096430Y-83574257D01*
X113077732Y-83635897D01*
X113071418Y-83700000D01*
X113071418Y-83703553D01*
X113061392Y-83704540D01*
X113036609Y-83712058D01*
X112976190Y-83730386D01*
X112897667Y-83772357D01*
X112828841Y-83828841D01*
X112814681Y-83846095D01*
X112346094Y-84314683D01*
X112346089Y-84314687D01*
X111846096Y-84814681D01*
X111828842Y-84828841D01*
X111772358Y-84897667D01*
X111730386Y-84976191D01*
X111704540Y-85061393D01*
X111703553Y-85071418D01*
X111700000Y-85071418D01*
X111635897Y-85077732D01*
X111574257Y-85096430D01*
X111517450Y-85126794D01*
X111467657Y-85167657D01*
X111426794Y-85217450D01*
X111396430Y-85274257D01*
X111377732Y-85335897D01*
X111371418Y-85400000D01*
X109628582Y-85400000D01*
X109622268Y-85335897D01*
X109603570Y-85274257D01*
X109573206Y-85217450D01*
X109532343Y-85167657D01*
X109482550Y-85126794D01*
X109425743Y-85096430D01*
X109364103Y-85077732D01*
X109302000Y-85071615D01*
X109302000Y-84837223D01*
X109960642Y-84178582D01*
X110450000Y-84178582D01*
X110514103Y-84172268D01*
X110575743Y-84153570D01*
X110632550Y-84123206D01*
X110682343Y-84082343D01*
X110723206Y-84032550D01*
X110753570Y-83975743D01*
X110772268Y-83914103D01*
X110778582Y-83850000D01*
X110778582Y-83050000D01*
X110772268Y-82985897D01*
X110753570Y-82924257D01*
X110723206Y-82867450D01*
X110682343Y-82817657D01*
X110632550Y-82776794D01*
X110575743Y-82746430D01*
X110514103Y-82727732D01*
X110450000Y-82721418D01*
X109550000Y-82721418D01*
X109485897Y-82727732D01*
X109424257Y-82746430D01*
X109367450Y-82776794D01*
X109317657Y-82817657D01*
X109276794Y-82867450D01*
X109246430Y-82924257D01*
X109227732Y-82985897D01*
X109221418Y-83050000D01*
X109221418Y-83639358D01*
X108546096Y-84314681D01*
X108528842Y-84328841D01*
X108503014Y-84360313D01*
X108472358Y-84397667D01*
X108430386Y-84476191D01*
X108404540Y-84561393D01*
X108395813Y-84650000D01*
X108398001Y-84672215D01*
X108398001Y-85071615D01*
X108335897Y-85077732D01*
X108274257Y-85096430D01*
X108217450Y-85126794D01*
X108167657Y-85167657D01*
X108126794Y-85217450D01*
X108096430Y-85274257D01*
X108077732Y-85335897D01*
X108071418Y-85400000D01*
X106264223Y-85400000D01*
X106712224Y-84952000D01*
X107477795Y-84952000D01*
X107500000Y-84954187D01*
X107522205Y-84952000D01*
X107588607Y-84945460D01*
X107673810Y-84919614D01*
X107752333Y-84877643D01*
X107821159Y-84821159D01*
X107835323Y-84803900D01*
X108803905Y-83835319D01*
X108821159Y-83821159D01*
X108877643Y-83752333D01*
X108919614Y-83673810D01*
X108925754Y-83653570D01*
X108945460Y-83588608D01*
X108954187Y-83500000D01*
X108952000Y-83477795D01*
X108952000Y-82537223D01*
X109312800Y-82176424D01*
X109317657Y-82182343D01*
X109367450Y-82223206D01*
X109424257Y-82253570D01*
X109485897Y-82272268D01*
X109550000Y-82278582D01*
X110450000Y-82278582D01*
X110514103Y-82272268D01*
X110575743Y-82253570D01*
X110632550Y-82223206D01*
X110682343Y-82182343D01*
X110723206Y-82132550D01*
X110753570Y-82075743D01*
X110772268Y-82014103D01*
X110778582Y-81950000D01*
X110778582Y-81150000D01*
X110772268Y-81085897D01*
X110753570Y-81024257D01*
X110723206Y-80967450D01*
X110682343Y-80917657D01*
X110632550Y-80876794D01*
X110575743Y-80846430D01*
X110514103Y-80827732D01*
X110450000Y-80821418D01*
X109550000Y-80821418D01*
X109485897Y-80827732D01*
X109424257Y-80846430D01*
X109367450Y-80876794D01*
X109317657Y-80917657D01*
X109276794Y-80967450D01*
X109246430Y-81024257D01*
X109227732Y-81085897D01*
X109226038Y-81103098D01*
X109211392Y-81104540D01*
X109126190Y-81130386D01*
X109047667Y-81172357D01*
X108978841Y-81228841D01*
X108964681Y-81246095D01*
X108196100Y-82014677D01*
X108178841Y-82028841D01*
X108122357Y-82097668D01*
X108091373Y-82155636D01*
X108080386Y-82176191D01*
X108054540Y-82261393D01*
X108045813Y-82350000D01*
X108048000Y-82372205D01*
X108048001Y-83312775D01*
X107312777Y-84048000D01*
X106522205Y-84048000D01*
X106500000Y-84045813D01*
X106477795Y-84048000D01*
X106411393Y-84054540D01*
X106326190Y-84080386D01*
X106247667Y-84122357D01*
X106178841Y-84178841D01*
X106122357Y-84247667D01*
X106104270Y-84281506D01*
X105408588Y-84977188D01*
X105350001Y-84971418D01*
X104699999Y-84971418D01*
X104587123Y-84982535D01*
X104478586Y-85015460D01*
X104378557Y-85068926D01*
X104290880Y-85140880D01*
X104218926Y-85228557D01*
X104165460Y-85328586D01*
X104132535Y-85437123D01*
X104121418Y-85549999D01*
X103878582Y-85549999D01*
X103867465Y-85437123D01*
X103834540Y-85328586D01*
X103781074Y-85228557D01*
X103709120Y-85140880D01*
X103621443Y-85068926D01*
X103521414Y-85015460D01*
X103427000Y-84986819D01*
X103427000Y-84226722D01*
X103428397Y-84227000D01*
X103571603Y-84227000D01*
X103712058Y-84199062D01*
X103844364Y-84144259D01*
X103963436Y-84064698D01*
X104064698Y-83963436D01*
X104072339Y-83952000D01*
X105727795Y-83952000D01*
X105750000Y-83954187D01*
X105772205Y-83952000D01*
X105838607Y-83945460D01*
X105923810Y-83919614D01*
X106002333Y-83877643D01*
X106071159Y-83821159D01*
X106085323Y-83803900D01*
X106312800Y-83576424D01*
X106317657Y-83582343D01*
X106367450Y-83623206D01*
X106424257Y-83653570D01*
X106485897Y-83672268D01*
X106550000Y-83678582D01*
X107450000Y-83678582D01*
X107514103Y-83672268D01*
X107575743Y-83653570D01*
X107632550Y-83623206D01*
X107682343Y-83582343D01*
X107723206Y-83532550D01*
X107753570Y-83475743D01*
X107772268Y-83414103D01*
X107778582Y-83350000D01*
X107778582Y-82550000D01*
X107772268Y-82485897D01*
X107753570Y-82424257D01*
X107723206Y-82367450D01*
X107682343Y-82317657D01*
X107632550Y-82276794D01*
X107575743Y-82246430D01*
X107514103Y-82227732D01*
X107450000Y-82221418D01*
X106550000Y-82221418D01*
X106485897Y-82227732D01*
X106424257Y-82246430D01*
X106367450Y-82276794D01*
X106317657Y-82317657D01*
X106276794Y-82367450D01*
X106246430Y-82424257D01*
X106227732Y-82485897D01*
X106226038Y-82503098D01*
X106211393Y-82504540D01*
X106126190Y-82530386D01*
X106047667Y-82572357D01*
X105978841Y-82628841D01*
X105964685Y-82646090D01*
X105562776Y-83048000D01*
X104072339Y-83048000D01*
X104064698Y-83036564D01*
X103963436Y-82935302D01*
X103844364Y-82855741D01*
X103712058Y-82800938D01*
X103571603Y-82773000D01*
X103428397Y-82773000D01*
X103287942Y-82800938D01*
X103155636Y-82855741D01*
X103036564Y-82935302D01*
X102935302Y-83036564D01*
X102855741Y-83155636D01*
X102800938Y-83287942D01*
X102773000Y-83428397D01*
X102773000Y-83571603D01*
X102775683Y-83585093D01*
X102671095Y-83689682D01*
X102653842Y-83703841D01*
X102614046Y-83752333D01*
X102597358Y-83772667D01*
X102555386Y-83851191D01*
X102529540Y-83936393D01*
X102520813Y-84025000D01*
X102523001Y-84047215D01*
X102523001Y-84986819D01*
X102428586Y-85015460D01*
X102328557Y-85068926D01*
X102240880Y-85140880D01*
X102168926Y-85228557D01*
X102115460Y-85328586D01*
X102082535Y-85437123D01*
X102071615Y-85548000D01*
X97187224Y-85548000D01*
X94452000Y-82812777D01*
X94452000Y-81478582D01*
X94800000Y-81478582D01*
X94864103Y-81472268D01*
X94925743Y-81453570D01*
X94982550Y-81423206D01*
X95032343Y-81382343D01*
X95073206Y-81332550D01*
X95103570Y-81275743D01*
X95122268Y-81214103D01*
X95128582Y-81150000D01*
X95128582Y-79550000D01*
X95122268Y-79485897D01*
X95103570Y-79424257D01*
X95073206Y-79367450D01*
X95032343Y-79317657D01*
X94982550Y-79276794D01*
X94925743Y-79246430D01*
X94864103Y-79227732D01*
X94800000Y-79221418D01*
X93200000Y-79221418D01*
X93135897Y-79227732D01*
X93074257Y-79246430D01*
X93017450Y-79276794D01*
X92967657Y-79317657D01*
X92926794Y-79367450D01*
X92896430Y-79424257D01*
X92877732Y-79485897D01*
X92871418Y-79550000D01*
X89317000Y-79550000D01*
X89317000Y-75159000D01*
X92873000Y-75159000D01*
X92873000Y-75381000D01*
X92916310Y-75598734D01*
X93001266Y-75803835D01*
X93124602Y-75988421D01*
X93281579Y-76145398D01*
X93466165Y-76268734D01*
X93671266Y-76353690D01*
X93889000Y-76397000D01*
X94111000Y-76397000D01*
X94328734Y-76353690D01*
X94533835Y-76268734D01*
X94718421Y-76145398D01*
X94875398Y-75988421D01*
X94998734Y-75803835D01*
X95083690Y-75598734D01*
X95127000Y-75381000D01*
X95127000Y-75159000D01*
X95083690Y-74941266D01*
X94998734Y-74736165D01*
X94875398Y-74551579D01*
X94718421Y-74394602D01*
X94533835Y-74271266D01*
X94328734Y-74186310D01*
X94111000Y-74143000D01*
X93889000Y-74143000D01*
X93671266Y-74186310D01*
X93466165Y-74271266D01*
X93281579Y-74394602D01*
X93124602Y-74551579D01*
X93001266Y-74736165D01*
X92916310Y-74941266D01*
X92873000Y-75159000D01*
X89317000Y-75159000D01*
X89317000Y-67539000D01*
X92873000Y-67539000D01*
X92873000Y-67761000D01*
X92916310Y-67978734D01*
X93001266Y-68183835D01*
X93124602Y-68368421D01*
X93281579Y-68525398D01*
X93466165Y-68648734D01*
X93671266Y-68733690D01*
X93889000Y-68777000D01*
X94111000Y-68777000D01*
X94328734Y-68733690D01*
X94339858Y-68729082D01*
X94364685Y-68753910D01*
X94378841Y-68771159D01*
X94447667Y-68827643D01*
X94526190Y-68869614D01*
X94611393Y-68895460D01*
X94677795Y-68902000D01*
X94677796Y-68902000D01*
X94699999Y-68904187D01*
X94722202Y-68902000D01*
X99586404Y-68902000D01*
X99536564Y-68935302D01*
X99435302Y-69036564D01*
X99355741Y-69155636D01*
X99300938Y-69287942D01*
X99273000Y-69428397D01*
X99273000Y-69571603D01*
X99275683Y-69585092D01*
X98196096Y-70664681D01*
X98178842Y-70678841D01*
X98124169Y-70745460D01*
X98122358Y-70747667D01*
X98080386Y-70826191D01*
X98054540Y-70911393D01*
X98045813Y-71000000D01*
X98048001Y-71022215D01*
X98048000Y-72821615D01*
X97985897Y-72827732D01*
X97924257Y-72846430D01*
X97867450Y-72876794D01*
X97817657Y-72917657D01*
X97776794Y-72967450D01*
X97746430Y-73024257D01*
X97727732Y-73085897D01*
X97721418Y-73150000D01*
X97721418Y-73950000D01*
X97727732Y-74014103D01*
X97746430Y-74075743D01*
X97776794Y-74132550D01*
X97817657Y-74182343D01*
X97867450Y-74223206D01*
X97924257Y-74253570D01*
X97985897Y-74272268D01*
X98050000Y-74278582D01*
X98950000Y-74278582D01*
X99014103Y-74272268D01*
X99075743Y-74253570D01*
X99132550Y-74223206D01*
X99182343Y-74182343D01*
X99223206Y-74132550D01*
X99240604Y-74100000D01*
X99721418Y-74100000D01*
X99721418Y-74900000D01*
X99727732Y-74964103D01*
X99746430Y-75025743D01*
X99776794Y-75082550D01*
X99817657Y-75132343D01*
X99867450Y-75173206D01*
X99924257Y-75203570D01*
X99985897Y-75222268D01*
X100050000Y-75228582D01*
X100950000Y-75228582D01*
X101014103Y-75222268D01*
X101075743Y-75203570D01*
X101132550Y-75173206D01*
X101182343Y-75132343D01*
X101187201Y-75126424D01*
X101721418Y-75660642D01*
X101721418Y-75850000D01*
X101727732Y-75914103D01*
X101746430Y-75975743D01*
X101776794Y-76032550D01*
X101817657Y-76082343D01*
X101867450Y-76123206D01*
X101924257Y-76153570D01*
X101985897Y-76172268D01*
X102050000Y-76178582D01*
X102950000Y-76178582D01*
X103014103Y-76172268D01*
X103075743Y-76153570D01*
X103132550Y-76123206D01*
X103182343Y-76082343D01*
X103223206Y-76032550D01*
X103253570Y-75975743D01*
X103272268Y-75914103D01*
X103278582Y-75850000D01*
X103278582Y-75660641D01*
X103812800Y-75126424D01*
X103817657Y-75132343D01*
X103867450Y-75173206D01*
X103924257Y-75203570D01*
X103985897Y-75222268D01*
X104050000Y-75228582D01*
X104950000Y-75228582D01*
X105014103Y-75222268D01*
X105075743Y-75203570D01*
X105132550Y-75173206D01*
X105182343Y-75132343D01*
X105223206Y-75082550D01*
X105253570Y-75025743D01*
X105272268Y-74964103D01*
X105278582Y-74900000D01*
X105278582Y-74410642D01*
X105437225Y-74252000D01*
X107177795Y-74252000D01*
X107200000Y-74254187D01*
X107222205Y-74252000D01*
X107288607Y-74245460D01*
X107373810Y-74219614D01*
X107378544Y-74217084D01*
X107428397Y-74227000D01*
X107571603Y-74227000D01*
X107712058Y-74199062D01*
X107844364Y-74144259D01*
X107963436Y-74064698D01*
X108064698Y-73963436D01*
X108144259Y-73844364D01*
X108199062Y-73712058D01*
X108227000Y-73571603D01*
X108227000Y-73428397D01*
X108199062Y-73287942D01*
X108144259Y-73155636D01*
X108064698Y-73036564D01*
X107963436Y-72935302D01*
X107844364Y-72855741D01*
X107712058Y-72800938D01*
X107571603Y-72773000D01*
X107428397Y-72773000D01*
X107287942Y-72800938D01*
X107155636Y-72855741D01*
X107036564Y-72935302D01*
X106935302Y-73036564D01*
X106855741Y-73155636D01*
X106800938Y-73287942D01*
X106788992Y-73348000D01*
X105702000Y-73348000D01*
X105702000Y-72928385D01*
X105764103Y-72922268D01*
X105825743Y-72903570D01*
X105882550Y-72873206D01*
X105932343Y-72832343D01*
X105973206Y-72782550D01*
X106003570Y-72725743D01*
X106022268Y-72664103D01*
X106028582Y-72600000D01*
X106028582Y-71800000D01*
X106022268Y-71735897D01*
X106003570Y-71674257D01*
X105973206Y-71617450D01*
X105932343Y-71567657D01*
X105882550Y-71526794D01*
X105825743Y-71496430D01*
X105764103Y-71477732D01*
X105700000Y-71471418D01*
X104800000Y-71471418D01*
X104735897Y-71477732D01*
X104674257Y-71496430D01*
X104617450Y-71526794D01*
X104567657Y-71567657D01*
X104526794Y-71617450D01*
X104496430Y-71674257D01*
X104477732Y-71735897D01*
X104471418Y-71800000D01*
X104471418Y-72600000D01*
X104477732Y-72664103D01*
X104496430Y-72725743D01*
X104526794Y-72782550D01*
X104567657Y-72832343D01*
X104617450Y-72873206D01*
X104674257Y-72903570D01*
X104735897Y-72922268D01*
X104798000Y-72928385D01*
X104798001Y-73612775D01*
X104639358Y-73771418D01*
X104050000Y-73771418D01*
X103985897Y-73777732D01*
X103924257Y-73796430D01*
X103867450Y-73826794D01*
X103817657Y-73867657D01*
X103776794Y-73917450D01*
X103746430Y-73974257D01*
X103727732Y-74035897D01*
X103726038Y-74053098D01*
X103711392Y-74054540D01*
X103641496Y-74075743D01*
X103626190Y-74080386D01*
X103547667Y-74122357D01*
X103478841Y-74178841D01*
X103464681Y-74196095D01*
X102939359Y-74721418D01*
X102060642Y-74721418D01*
X101535323Y-74196100D01*
X101521159Y-74178841D01*
X101452333Y-74122357D01*
X101373810Y-74080386D01*
X101288607Y-74054540D01*
X101273962Y-74053098D01*
X101272268Y-74035897D01*
X101253570Y-73974257D01*
X101223206Y-73917450D01*
X101182343Y-73867657D01*
X101132550Y-73826794D01*
X101075743Y-73796430D01*
X101014103Y-73777732D01*
X100950000Y-73771418D01*
X100050000Y-73771418D01*
X99985897Y-73777732D01*
X99924257Y-73796430D01*
X99867450Y-73826794D01*
X99817657Y-73867657D01*
X99776794Y-73917450D01*
X99746430Y-73974257D01*
X99727732Y-74035897D01*
X99721418Y-74100000D01*
X99240604Y-74100000D01*
X99253570Y-74075743D01*
X99272268Y-74014103D01*
X99278582Y-73950000D01*
X99278582Y-73150000D01*
X99272268Y-73085897D01*
X99253570Y-73024257D01*
X99223206Y-72967450D01*
X99182343Y-72917657D01*
X99132550Y-72876794D01*
X99075743Y-72846430D01*
X99014103Y-72827732D01*
X98952000Y-72821615D01*
X98952000Y-71187223D01*
X99473911Y-70665313D01*
X99479845Y-70725563D01*
X99504803Y-70807838D01*
X99545332Y-70883663D01*
X99599876Y-70950124D01*
X99666337Y-71004668D01*
X99742162Y-71045197D01*
X99824437Y-71070155D01*
X99910000Y-71078582D01*
X100790000Y-71078582D01*
X100875563Y-71070155D01*
X100957838Y-71045197D01*
X101033663Y-71004668D01*
X101100124Y-70950124D01*
X101154668Y-70883663D01*
X101195197Y-70807838D01*
X101220155Y-70725563D01*
X101228582Y-70640000D01*
X101228582Y-69260000D01*
X101220155Y-69174437D01*
X101195197Y-69092162D01*
X101154668Y-69016337D01*
X101100124Y-68949876D01*
X101041788Y-68902000D01*
X101958212Y-68902000D01*
X101899876Y-68949876D01*
X101845332Y-69016337D01*
X101804803Y-69092162D01*
X101779845Y-69174437D01*
X101771418Y-69260000D01*
X101771418Y-70640000D01*
X101779845Y-70725563D01*
X101804803Y-70807838D01*
X101845332Y-70883663D01*
X101899876Y-70950124D01*
X101966337Y-71004668D01*
X102042162Y-71045197D01*
X102048001Y-71046968D01*
X102048000Y-72821615D01*
X101985897Y-72827732D01*
X101924257Y-72846430D01*
X101867450Y-72876794D01*
X101817657Y-72917657D01*
X101776794Y-72967450D01*
X101746430Y-73024257D01*
X101727732Y-73085897D01*
X101721418Y-73150000D01*
X101721418Y-73950000D01*
X101727732Y-74014103D01*
X101746430Y-74075743D01*
X101776794Y-74132550D01*
X101817657Y-74182343D01*
X101867450Y-74223206D01*
X101924257Y-74253570D01*
X101985897Y-74272268D01*
X102050000Y-74278582D01*
X102950000Y-74278582D01*
X103014103Y-74272268D01*
X103075743Y-74253570D01*
X103132550Y-74223206D01*
X103182343Y-74182343D01*
X103223206Y-74132550D01*
X103253570Y-74075743D01*
X103272268Y-74014103D01*
X103278582Y-73950000D01*
X103278582Y-73150000D01*
X103272268Y-73085897D01*
X103253570Y-73024257D01*
X103223206Y-72967450D01*
X103182343Y-72917657D01*
X103132550Y-72876794D01*
X103075743Y-72846430D01*
X103014103Y-72827732D01*
X102952000Y-72821615D01*
X102952000Y-71078582D01*
X103090000Y-71078582D01*
X103175563Y-71070155D01*
X103257838Y-71045197D01*
X103333663Y-71004668D01*
X103400124Y-70950124D01*
X103454668Y-70883663D01*
X103495197Y-70807838D01*
X103520155Y-70725563D01*
X103528582Y-70640000D01*
X103528582Y-69999552D01*
X103564698Y-69963436D01*
X103644259Y-69844364D01*
X103699062Y-69712058D01*
X103727000Y-69571603D01*
X103727000Y-69428397D01*
X103699062Y-69287942D01*
X103644259Y-69155636D01*
X103564698Y-69036564D01*
X103463436Y-68935302D01*
X103413596Y-68902000D01*
X104226540Y-68902000D01*
X104227732Y-68914103D01*
X104246430Y-68975743D01*
X104276794Y-69032550D01*
X104317657Y-69082343D01*
X104367450Y-69123206D01*
X104424257Y-69153570D01*
X104485897Y-69172268D01*
X104550000Y-69178582D01*
X105450000Y-69178582D01*
X105514103Y-69172268D01*
X105575743Y-69153570D01*
X105632550Y-69123206D01*
X105682343Y-69082343D01*
X105723206Y-69032550D01*
X105753570Y-68975743D01*
X105772268Y-68914103D01*
X105778582Y-68850000D01*
X105778582Y-68050000D01*
X105772268Y-67985897D01*
X105753570Y-67924257D01*
X105723206Y-67867450D01*
X105682343Y-67817657D01*
X105632550Y-67776794D01*
X105575743Y-67746430D01*
X105514103Y-67727732D01*
X105450000Y-67721418D01*
X104550000Y-67721418D01*
X104485897Y-67727732D01*
X104424257Y-67746430D01*
X104367450Y-67776794D01*
X104317657Y-67817657D01*
X104276794Y-67867450D01*
X104246430Y-67924257D01*
X104227732Y-67985897D01*
X104226540Y-67998000D01*
X102516239Y-67998000D01*
X102546241Y-67961442D01*
X102591391Y-67876972D01*
X102619194Y-67785318D01*
X102628582Y-67690000D01*
X102628582Y-66410000D01*
X102619194Y-66314682D01*
X102591391Y-66223028D01*
X102552357Y-66150000D01*
X104221418Y-66150000D01*
X104221418Y-66950000D01*
X104227732Y-67014103D01*
X104246430Y-67075743D01*
X104276794Y-67132550D01*
X104317657Y-67182343D01*
X104367450Y-67223206D01*
X104424257Y-67253570D01*
X104485897Y-67272268D01*
X104550000Y-67278582D01*
X105450000Y-67278582D01*
X105514103Y-67272268D01*
X105575743Y-67253570D01*
X105632550Y-67223206D01*
X105682343Y-67182343D01*
X105723206Y-67132550D01*
X105753570Y-67075743D01*
X105772268Y-67014103D01*
X105778582Y-66950000D01*
X105778582Y-66150000D01*
X105772268Y-66085897D01*
X105753570Y-66024257D01*
X105723206Y-65967450D01*
X105682343Y-65917657D01*
X105632550Y-65876794D01*
X105575743Y-65846430D01*
X105514103Y-65827732D01*
X105450000Y-65821418D01*
X104550000Y-65821418D01*
X104485897Y-65827732D01*
X104424257Y-65846430D01*
X104367450Y-65876794D01*
X104317657Y-65917657D01*
X104276794Y-65967450D01*
X104246430Y-66024257D01*
X104227732Y-66085897D01*
X104221418Y-66150000D01*
X102552357Y-66150000D01*
X102546241Y-66138558D01*
X102485480Y-66064520D01*
X102411442Y-66003759D01*
X102326972Y-65958609D01*
X102235318Y-65930806D01*
X102140000Y-65921418D01*
X101452000Y-65921418D01*
X101452000Y-65661986D01*
X101485897Y-65672268D01*
X101550000Y-65678582D01*
X102105754Y-65678582D01*
X102139807Y-65688912D01*
X102161392Y-65695460D01*
X102249999Y-65704187D01*
X102272204Y-65702000D01*
X105812777Y-65702000D01*
X106539681Y-66428905D01*
X106548001Y-66439043D01*
X106548001Y-66771615D01*
X106485897Y-66777732D01*
X106424257Y-66796430D01*
X106367450Y-66826794D01*
X106317657Y-66867657D01*
X106276794Y-66917450D01*
X106246430Y-66974257D01*
X106227732Y-67035897D01*
X106221418Y-67100000D01*
X106221418Y-67900000D01*
X106227732Y-67964103D01*
X106246430Y-68025743D01*
X106276794Y-68082550D01*
X106317657Y-68132343D01*
X106367450Y-68173206D01*
X106424257Y-68203570D01*
X106485897Y-68222268D01*
X106550000Y-68228582D01*
X107450000Y-68228582D01*
X107514103Y-68222268D01*
X107575743Y-68203570D01*
X107632550Y-68173206D01*
X107682343Y-68132343D01*
X107723206Y-68082550D01*
X107753570Y-68025743D01*
X107772268Y-67964103D01*
X107778582Y-67900000D01*
X107778582Y-67100000D01*
X107772268Y-67035897D01*
X107753570Y-66974257D01*
X107723206Y-66917450D01*
X107682343Y-66867657D01*
X107632550Y-66826794D01*
X107575743Y-66796430D01*
X107514103Y-66777732D01*
X107452000Y-66771615D01*
X107452000Y-66577000D01*
X109937776Y-66577000D01*
X110048000Y-66687224D01*
X110048000Y-67043033D01*
X109996414Y-67015460D01*
X109887877Y-66982535D01*
X109775001Y-66971418D01*
X109124999Y-66971418D01*
X109012123Y-66982535D01*
X108903586Y-67015460D01*
X108803557Y-67068926D01*
X108715880Y-67140880D01*
X108643926Y-67228557D01*
X108590460Y-67328586D01*
X108557535Y-67437123D01*
X108546418Y-67549999D01*
X108546418Y-67814359D01*
X108446095Y-67914681D01*
X108428842Y-67928841D01*
X108372358Y-67997667D01*
X108330386Y-68076190D01*
X108314778Y-68127643D01*
X108304540Y-68161393D01*
X108295813Y-68250000D01*
X108298000Y-68272205D01*
X108298000Y-68522204D01*
X108298001Y-68522214D01*
X108298001Y-69300541D01*
X108272205Y-69298000D01*
X108250000Y-69295813D01*
X108227795Y-69298000D01*
X105772205Y-69298000D01*
X105750000Y-69295813D01*
X105661392Y-69304540D01*
X105590019Y-69326191D01*
X105576190Y-69330386D01*
X105497667Y-69372357D01*
X105428841Y-69428841D01*
X105414681Y-69446095D01*
X105289358Y-69571418D01*
X104800000Y-69571418D01*
X104735897Y-69577732D01*
X104674257Y-69596430D01*
X104617450Y-69626794D01*
X104567657Y-69667657D01*
X104526794Y-69717450D01*
X104496430Y-69774257D01*
X104477732Y-69835897D01*
X104471418Y-69900000D01*
X104471418Y-70700000D01*
X104477732Y-70764103D01*
X104496430Y-70825743D01*
X104526794Y-70882550D01*
X104567657Y-70932343D01*
X104617450Y-70973206D01*
X104674257Y-71003570D01*
X104735897Y-71022268D01*
X104800000Y-71028582D01*
X105700000Y-71028582D01*
X105764103Y-71022268D01*
X105825743Y-71003570D01*
X105882550Y-70973206D01*
X105932343Y-70932343D01*
X105973206Y-70882550D01*
X106003570Y-70825743D01*
X106022268Y-70764103D01*
X106028582Y-70700000D01*
X106028582Y-70202000D01*
X107971418Y-70202000D01*
X107971418Y-70665271D01*
X107932343Y-70617657D01*
X107882550Y-70576794D01*
X107825743Y-70546430D01*
X107764103Y-70527732D01*
X107700000Y-70521418D01*
X106800000Y-70521418D01*
X106735897Y-70527732D01*
X106674257Y-70546430D01*
X106617450Y-70576794D01*
X106567657Y-70617657D01*
X106526794Y-70667450D01*
X106496430Y-70724257D01*
X106477732Y-70785897D01*
X106471418Y-70850000D01*
X106471418Y-71650000D01*
X106477732Y-71714103D01*
X106496430Y-71775743D01*
X106526794Y-71832550D01*
X106567657Y-71882343D01*
X106617450Y-71923206D01*
X106674257Y-71953570D01*
X106735897Y-71972268D01*
X106800000Y-71978582D01*
X107339359Y-71978582D01*
X107864681Y-72503905D01*
X107878841Y-72521159D01*
X107947667Y-72577643D01*
X107971418Y-72590338D01*
X107971418Y-72600000D01*
X107977732Y-72664103D01*
X107996430Y-72725743D01*
X108026794Y-72782550D01*
X108067657Y-72832343D01*
X108117450Y-72873206D01*
X108174257Y-72903570D01*
X108235897Y-72922268D01*
X108300000Y-72928582D01*
X109200000Y-72928582D01*
X109264103Y-72922268D01*
X109325743Y-72903570D01*
X109382550Y-72873206D01*
X109432343Y-72832343D01*
X109473206Y-72782550D01*
X109503570Y-72725743D01*
X109522268Y-72664103D01*
X109523460Y-72652000D01*
X109548001Y-72652000D01*
X109548000Y-75271615D01*
X109485897Y-75277732D01*
X109424257Y-75296430D01*
X109367450Y-75326794D01*
X109317657Y-75367657D01*
X109276794Y-75417450D01*
X109246430Y-75474257D01*
X109227732Y-75535897D01*
X109221418Y-75600000D01*
X109221418Y-76400000D01*
X109227732Y-76464103D01*
X109246430Y-76525743D01*
X109276794Y-76582550D01*
X109317657Y-76632343D01*
X109367450Y-76673206D01*
X109424257Y-76703570D01*
X109485897Y-76722268D01*
X109548001Y-76728385D01*
X109548000Y-77562775D01*
X109062777Y-78048000D01*
X107523460Y-78048000D01*
X107522268Y-78035897D01*
X107503570Y-77974257D01*
X107473206Y-77917450D01*
X107432343Y-77867657D01*
X107382550Y-77826794D01*
X107325743Y-77796430D01*
X107264103Y-77777732D01*
X107200000Y-77771418D01*
X106602808Y-77771418D01*
X106972227Y-77402000D01*
X107226540Y-77402000D01*
X107227732Y-77414103D01*
X107246430Y-77475743D01*
X107276794Y-77532550D01*
X107317657Y-77582343D01*
X107367450Y-77623206D01*
X107424257Y-77653570D01*
X107485897Y-77672268D01*
X107550000Y-77678582D01*
X108450000Y-77678582D01*
X108514103Y-77672268D01*
X108575743Y-77653570D01*
X108632550Y-77623206D01*
X108682343Y-77582343D01*
X108723206Y-77532550D01*
X108753570Y-77475743D01*
X108772268Y-77414103D01*
X108778582Y-77350000D01*
X108778582Y-76550000D01*
X108772268Y-76485897D01*
X108753570Y-76424257D01*
X108723206Y-76367450D01*
X108682343Y-76317657D01*
X108632550Y-76276794D01*
X108575743Y-76246430D01*
X108514103Y-76227732D01*
X108450000Y-76221418D01*
X107550000Y-76221418D01*
X107485897Y-76227732D01*
X107424257Y-76246430D01*
X107367450Y-76276794D01*
X107317657Y-76317657D01*
X107276794Y-76367450D01*
X107246430Y-76424257D01*
X107227732Y-76485897D01*
X107226540Y-76498000D01*
X106807206Y-76498000D01*
X106785001Y-76495813D01*
X106696394Y-76504540D01*
X106676564Y-76510556D01*
X106611192Y-76530386D01*
X106532669Y-76572357D01*
X106463843Y-76628841D01*
X106449687Y-76646090D01*
X105528582Y-77567196D01*
X105528582Y-77150000D01*
X105525053Y-77114170D01*
X107137224Y-75502000D01*
X107226540Y-75502000D01*
X107227732Y-75514103D01*
X107246430Y-75575743D01*
X107276794Y-75632550D01*
X107317657Y-75682343D01*
X107367450Y-75723206D01*
X107424257Y-75753570D01*
X107485897Y-75772268D01*
X107550000Y-75778582D01*
X108450000Y-75778582D01*
X108514103Y-75772268D01*
X108575743Y-75753570D01*
X108632550Y-75723206D01*
X108682343Y-75682343D01*
X108723206Y-75632550D01*
X108753570Y-75575743D01*
X108772268Y-75514103D01*
X108778582Y-75450000D01*
X108778582Y-74650000D01*
X108772268Y-74585897D01*
X108753570Y-74524257D01*
X108723206Y-74467450D01*
X108682343Y-74417657D01*
X108632550Y-74376794D01*
X108575743Y-74346430D01*
X108514103Y-74327732D01*
X108450000Y-74321418D01*
X107550000Y-74321418D01*
X107485897Y-74327732D01*
X107424257Y-74346430D01*
X107367450Y-74376794D01*
X107317657Y-74417657D01*
X107276794Y-74467450D01*
X107246430Y-74524257D01*
X107227732Y-74585897D01*
X107226540Y-74598000D01*
X106972205Y-74598000D01*
X106950000Y-74595813D01*
X106861392Y-74604540D01*
X106776190Y-74630386D01*
X106697667Y-74672357D01*
X106628841Y-74728841D01*
X106614681Y-74746095D01*
X104539359Y-76821418D01*
X104300000Y-76821418D01*
X104235897Y-76827732D01*
X104174257Y-76846430D01*
X104117450Y-76876794D01*
X104067657Y-76917657D01*
X104026794Y-76967450D01*
X103996430Y-77024257D01*
X103989228Y-77048000D01*
X100928385Y-77048000D01*
X100917465Y-76937123D01*
X100884540Y-76828586D01*
X100831074Y-76728557D01*
X100759120Y-76640880D01*
X100671443Y-76568926D01*
X100571414Y-76515460D01*
X100462877Y-76482535D01*
X100350001Y-76471418D01*
X99699999Y-76471418D01*
X99587123Y-76482535D01*
X99478586Y-76515460D01*
X99452000Y-76529670D01*
X99452000Y-76022204D01*
X99454187Y-76000000D01*
X99445460Y-75911392D01*
X99419614Y-75826190D01*
X99390792Y-75772268D01*
X99377643Y-75747667D01*
X99321159Y-75678841D01*
X99303906Y-75664682D01*
X99278582Y-75639358D01*
X99278582Y-75050000D01*
X99272268Y-74985897D01*
X99253570Y-74924257D01*
X99223206Y-74867450D01*
X99182343Y-74817657D01*
X99132550Y-74776794D01*
X99075743Y-74746430D01*
X99014103Y-74727732D01*
X98950000Y-74721418D01*
X98050000Y-74721418D01*
X97985897Y-74727732D01*
X97924257Y-74746430D01*
X97867450Y-74776794D01*
X97817657Y-74817657D01*
X97776794Y-74867450D01*
X97746430Y-74924257D01*
X97727732Y-74985897D01*
X97721418Y-75050000D01*
X97721418Y-75850000D01*
X97727732Y-75914103D01*
X97746430Y-75975743D01*
X97776794Y-76032550D01*
X97817657Y-76082343D01*
X97867450Y-76123206D01*
X97924257Y-76153570D01*
X97985897Y-76172268D01*
X98050000Y-76178582D01*
X98539358Y-76178582D01*
X98548000Y-76187224D01*
X98548000Y-76529670D01*
X98521414Y-76515460D01*
X98412877Y-76482535D01*
X98300001Y-76471418D01*
X97649999Y-76471418D01*
X97537123Y-76482535D01*
X97428586Y-76515460D01*
X97328557Y-76568926D01*
X97240880Y-76640880D01*
X97168926Y-76728557D01*
X97115460Y-76828586D01*
X97082535Y-76937123D01*
X97071418Y-77049999D01*
X97071418Y-77950001D01*
X97082535Y-78062877D01*
X97115460Y-78171414D01*
X97168926Y-78271443D01*
X97240880Y-78359120D01*
X97328557Y-78431074D01*
X97428586Y-78484540D01*
X97537123Y-78517465D01*
X97649999Y-78528582D01*
X97752949Y-78528582D01*
X98548001Y-79323635D01*
X98548000Y-80977795D01*
X98548000Y-81288014D01*
X98514103Y-81277732D01*
X98450000Y-81271418D01*
X97550000Y-81271418D01*
X97485897Y-81277732D01*
X97424257Y-81296430D01*
X97367450Y-81326794D01*
X97317657Y-81367657D01*
X97312800Y-81373576D01*
X96952000Y-81012777D01*
X96952000Y-72022204D01*
X96954187Y-71999999D01*
X96945460Y-71911392D01*
X96929968Y-71860323D01*
X96919614Y-71826190D01*
X96877643Y-71747667D01*
X96821159Y-71678841D01*
X96803910Y-71664685D01*
X95335323Y-70196100D01*
X95321159Y-70178841D01*
X95252333Y-70122357D01*
X95173810Y-70080386D01*
X95124288Y-70065364D01*
X95083690Y-69861266D01*
X94998734Y-69656165D01*
X94875398Y-69471579D01*
X94718421Y-69314602D01*
X94533835Y-69191266D01*
X94328734Y-69106310D01*
X94111000Y-69063000D01*
X93889000Y-69063000D01*
X93671266Y-69106310D01*
X93466165Y-69191266D01*
X93281579Y-69314602D01*
X93124602Y-69471579D01*
X93001266Y-69656165D01*
X92916310Y-69861266D01*
X92873000Y-70079000D01*
X92873000Y-70301000D01*
X92916310Y-70518734D01*
X93001266Y-70723835D01*
X93124602Y-70908421D01*
X93281579Y-71065398D01*
X93466165Y-71188734D01*
X93671266Y-71273690D01*
X93889000Y-71317000D01*
X94111000Y-71317000D01*
X94328734Y-71273690D01*
X94533835Y-71188734D01*
X94718421Y-71065398D01*
X94822298Y-70961521D01*
X96048001Y-72187226D01*
X96048001Y-74138776D01*
X95049793Y-73140569D01*
X95083690Y-73058734D01*
X95127000Y-72841000D01*
X95127000Y-72619000D01*
X95083690Y-72401266D01*
X94998734Y-72196165D01*
X94875398Y-72011579D01*
X94718421Y-71854602D01*
X94533835Y-71731266D01*
X94328734Y-71646310D01*
X94111000Y-71603000D01*
X93889000Y-71603000D01*
X93671266Y-71646310D01*
X93466165Y-71731266D01*
X93281579Y-71854602D01*
X93124602Y-72011579D01*
X93001266Y-72196165D01*
X92916310Y-72401266D01*
X92873000Y-72619000D01*
X92873000Y-72841000D01*
X92916310Y-73058734D01*
X93001266Y-73263835D01*
X93124602Y-73448421D01*
X93281579Y-73605398D01*
X93466165Y-73728734D01*
X93671266Y-73813690D01*
X93889000Y-73857000D01*
X94111000Y-73857000D01*
X94328734Y-73813690D01*
X94410569Y-73779793D01*
X95548000Y-74917225D01*
X95548001Y-82477785D01*
X95545813Y-82500000D01*
X95554540Y-82588607D01*
X95580386Y-82673809D01*
X95609663Y-82728582D01*
X95622358Y-82752333D01*
X95678842Y-82821159D01*
X95696096Y-82835319D01*
X96275683Y-83414907D01*
X96273000Y-83428397D01*
X96273000Y-83571603D01*
X96300938Y-83712058D01*
X96355741Y-83844364D01*
X96435302Y-83963436D01*
X96536564Y-84064698D01*
X96655636Y-84144259D01*
X96787942Y-84199062D01*
X96928397Y-84227000D01*
X97071603Y-84227000D01*
X97212058Y-84199062D01*
X97344364Y-84144259D01*
X97463436Y-84064698D01*
X97564698Y-83963436D01*
X97644259Y-83844364D01*
X97699062Y-83712058D01*
X97727000Y-83571603D01*
X97727000Y-83428397D01*
X97699062Y-83287942D01*
X97644259Y-83155636D01*
X97564698Y-83036564D01*
X97463436Y-82935302D01*
X97344364Y-82855741D01*
X97212058Y-82800938D01*
X97071603Y-82773000D01*
X96928397Y-82773000D01*
X96914907Y-82775683D01*
X96452000Y-82312777D01*
X96452000Y-81791223D01*
X96964681Y-82303905D01*
X96978841Y-82321159D01*
X97047667Y-82377643D01*
X97126190Y-82419614D01*
X97211392Y-82445460D01*
X97226038Y-82446902D01*
X97227732Y-82464103D01*
X97246430Y-82525743D01*
X97276794Y-82582550D01*
X97317657Y-82632343D01*
X97367450Y-82673206D01*
X97424257Y-82703570D01*
X97485897Y-82722268D01*
X97550000Y-82728582D01*
X98450000Y-82728582D01*
X98514103Y-82722268D01*
X98575743Y-82703570D01*
X98591727Y-82695026D01*
X98609663Y-82728582D01*
X98622358Y-82752333D01*
X98678842Y-82821159D01*
X98696096Y-82835319D01*
X99164681Y-83303905D01*
X99178841Y-83321159D01*
X99222072Y-83356638D01*
X99227732Y-83414103D01*
X99246430Y-83475743D01*
X99276794Y-83532550D01*
X99317657Y-83582343D01*
X99367450Y-83623206D01*
X99424257Y-83653570D01*
X99485897Y-83672268D01*
X99550000Y-83678582D01*
X100450000Y-83678582D01*
X100514103Y-83672268D01*
X100575743Y-83653570D01*
X100632550Y-83623206D01*
X100682343Y-83582343D01*
X100723206Y-83532550D01*
X100753570Y-83475743D01*
X100772268Y-83414103D01*
X100778582Y-83350000D01*
X100778582Y-82550000D01*
X100772268Y-82485897D01*
X100753570Y-82424257D01*
X100723206Y-82367450D01*
X100682343Y-82317657D01*
X100632550Y-82276794D01*
X100575743Y-82246430D01*
X100514103Y-82227732D01*
X100450000Y-82221418D01*
X99550000Y-82221418D01*
X99485897Y-82227732D01*
X99452000Y-82238014D01*
X99452000Y-81761986D01*
X99485897Y-81772268D01*
X99550000Y-81778582D01*
X100450000Y-81778582D01*
X100514103Y-81772268D01*
X100575743Y-81753570D01*
X100632550Y-81723206D01*
X100682343Y-81682343D01*
X100723206Y-81632550D01*
X100753570Y-81575743D01*
X100772268Y-81514103D01*
X100773460Y-81502000D01*
X100973866Y-81502000D01*
X101036564Y-81564698D01*
X101155636Y-81644259D01*
X101287942Y-81699062D01*
X101428397Y-81727000D01*
X101571603Y-81727000D01*
X101712058Y-81699062D01*
X101844364Y-81644259D01*
X101963436Y-81564698D01*
X102064698Y-81463436D01*
X102144259Y-81344364D01*
X102199062Y-81212058D01*
X102227000Y-81071603D01*
X102227000Y-80928397D01*
X102199062Y-80787942D01*
X102144259Y-80655636D01*
X102064698Y-80536564D01*
X101963436Y-80435302D01*
X101844364Y-80355741D01*
X101712058Y-80300938D01*
X101571603Y-80273000D01*
X101428397Y-80273000D01*
X101287942Y-80300938D01*
X101155636Y-80355741D01*
X101036564Y-80435302D01*
X100935302Y-80536564D01*
X100894252Y-80598000D01*
X100773460Y-80598000D01*
X100772268Y-80585897D01*
X100753570Y-80524257D01*
X100723206Y-80467450D01*
X100682343Y-80417657D01*
X100632550Y-80376794D01*
X100575743Y-80346430D01*
X100514103Y-80327732D01*
X100450000Y-80321418D01*
X99550000Y-80321418D01*
X99485897Y-80327732D01*
X99452000Y-80338014D01*
X99452000Y-79158615D01*
X99454187Y-79136410D01*
X99445460Y-79047802D01*
X99423504Y-78975423D01*
X99461819Y-78979197D01*
X99484024Y-78977010D01*
X100565975Y-78977010D01*
X100588180Y-78979197D01*
X100610385Y-78977010D01*
X100676787Y-78970470D01*
X100761990Y-78944624D01*
X100840513Y-78902653D01*
X100909339Y-78846169D01*
X100923503Y-78828910D01*
X101187224Y-78565190D01*
X103699586Y-78565190D01*
X103713301Y-78578905D01*
X103727462Y-78596160D01*
X103796288Y-78652644D01*
X103874811Y-78694615D01*
X103940950Y-78714678D01*
X103960013Y-78720461D01*
X104048620Y-78729188D01*
X104070825Y-78727001D01*
X104243318Y-78727001D01*
X104235897Y-78727732D01*
X104174257Y-78746430D01*
X104117450Y-78776794D01*
X104067657Y-78817657D01*
X104026794Y-78867450D01*
X103996430Y-78924257D01*
X103977732Y-78985897D01*
X103971418Y-79050000D01*
X103971418Y-79850000D01*
X103977732Y-79914103D01*
X103996430Y-79975743D01*
X104026794Y-80032550D01*
X104067657Y-80082343D01*
X104117450Y-80123206D01*
X104174257Y-80153570D01*
X104235897Y-80172268D01*
X104300000Y-80178582D01*
X104817197Y-80178582D01*
X104447779Y-80548000D01*
X104072339Y-80548000D01*
X104064698Y-80536564D01*
X103963436Y-80435302D01*
X103844364Y-80355741D01*
X103712058Y-80300938D01*
X103571603Y-80273000D01*
X103428397Y-80273000D01*
X103287942Y-80300938D01*
X103155636Y-80355741D01*
X103036564Y-80435302D01*
X102935302Y-80536564D01*
X102855741Y-80655636D01*
X102800938Y-80787942D01*
X102773000Y-80928397D01*
X102773000Y-81071603D01*
X102800938Y-81212058D01*
X102855741Y-81344364D01*
X102935302Y-81463436D01*
X103036564Y-81564698D01*
X103155636Y-81644259D01*
X103287942Y-81699062D01*
X103428397Y-81727000D01*
X103571603Y-81727000D01*
X103712058Y-81699062D01*
X103844364Y-81644259D01*
X103963436Y-81564698D01*
X104064698Y-81463436D01*
X104072339Y-81452000D01*
X104258327Y-81452000D01*
X104246430Y-81474257D01*
X104227732Y-81535897D01*
X104221418Y-81600000D01*
X104221418Y-82400000D01*
X104227732Y-82464103D01*
X104246430Y-82525743D01*
X104276794Y-82582550D01*
X104317657Y-82632343D01*
X104367450Y-82673206D01*
X104424257Y-82703570D01*
X104485897Y-82722268D01*
X104550000Y-82728582D01*
X105450000Y-82728582D01*
X105514103Y-82722268D01*
X105575743Y-82703570D01*
X105632550Y-82673206D01*
X105682343Y-82632343D01*
X105723206Y-82582550D01*
X105753570Y-82525743D01*
X105772268Y-82464103D01*
X105778582Y-82400000D01*
X105778582Y-81600000D01*
X105772268Y-81535897D01*
X105753570Y-81474257D01*
X105723206Y-81417450D01*
X105682343Y-81367657D01*
X105632550Y-81326794D01*
X105575743Y-81296430D01*
X105514103Y-81277732D01*
X105450000Y-81271418D01*
X105002807Y-81271418D01*
X105879021Y-80395205D01*
X106345016Y-80395205D01*
X106317657Y-80417657D01*
X106276794Y-80467450D01*
X106246430Y-80524257D01*
X106227732Y-80585897D01*
X106221418Y-80650000D01*
X106221418Y-81450000D01*
X106227732Y-81514103D01*
X106246430Y-81575743D01*
X106276794Y-81632550D01*
X106317657Y-81682343D01*
X106367450Y-81723206D01*
X106424257Y-81753570D01*
X106485897Y-81772268D01*
X106550000Y-81778582D01*
X107450000Y-81778582D01*
X107514103Y-81772268D01*
X107575743Y-81753570D01*
X107632550Y-81723206D01*
X107682343Y-81682343D01*
X107723206Y-81632550D01*
X107753570Y-81575743D01*
X107772268Y-81514103D01*
X107778582Y-81450000D01*
X107778582Y-80650000D01*
X107772268Y-80585897D01*
X107753570Y-80524257D01*
X107723206Y-80467450D01*
X107682343Y-80417657D01*
X107654984Y-80395205D01*
X108421000Y-80395205D01*
X108443205Y-80397392D01*
X108465410Y-80395205D01*
X108531812Y-80388665D01*
X108617015Y-80362819D01*
X108695538Y-80320848D01*
X108764364Y-80264364D01*
X108778528Y-80247105D01*
X111221418Y-77804217D01*
X111221418Y-78350000D01*
X111227732Y-78414103D01*
X111246430Y-78475743D01*
X111276794Y-78532550D01*
X111317657Y-78582343D01*
X111367450Y-78623206D01*
X111424257Y-78653570D01*
X111485897Y-78672268D01*
X111548000Y-78678385D01*
X111548001Y-79977785D01*
X111545813Y-80000000D01*
X111554540Y-80088607D01*
X111580386Y-80173809D01*
X111592001Y-80195539D01*
X111622358Y-80252333D01*
X111678842Y-80321159D01*
X111696096Y-80335319D01*
X112514681Y-81153905D01*
X112528841Y-81171159D01*
X112597667Y-81227643D01*
X112676190Y-81269614D01*
X112761392Y-81295460D01*
X112850000Y-81304187D01*
X112872205Y-81302000D01*
X113071615Y-81302000D01*
X113077732Y-81364103D01*
X113096430Y-81425743D01*
X113126794Y-81482550D01*
X113167657Y-81532343D01*
X113217450Y-81573206D01*
X113274257Y-81603570D01*
X113335897Y-81622268D01*
X113400000Y-81628582D01*
X114600000Y-81628582D01*
X114664103Y-81622268D01*
X114725743Y-81603570D01*
X114782550Y-81573206D01*
X114832343Y-81532343D01*
X114873206Y-81482550D01*
X114903570Y-81425743D01*
X114922268Y-81364103D01*
X114928582Y-81300000D01*
X114928582Y-80400000D01*
X114922268Y-80335897D01*
X114903570Y-80274257D01*
X114873206Y-80217450D01*
X114832343Y-80167657D01*
X114782550Y-80126794D01*
X114725743Y-80096430D01*
X114664103Y-80077732D01*
X114600000Y-80071418D01*
X113400000Y-80071418D01*
X113335897Y-80077732D01*
X113274257Y-80096430D01*
X113217450Y-80126794D01*
X113167657Y-80167657D01*
X113126794Y-80217450D01*
X113096430Y-80274257D01*
X113077732Y-80335897D01*
X113071615Y-80398000D01*
X113037224Y-80398000D01*
X112452000Y-79812777D01*
X112452000Y-78678385D01*
X112514103Y-78672268D01*
X112548000Y-78661986D01*
X112548000Y-78977795D01*
X112545813Y-79000000D01*
X112554540Y-79088607D01*
X112577619Y-79164687D01*
X112580386Y-79173809D01*
X112622357Y-79252332D01*
X112678841Y-79321159D01*
X112696100Y-79335323D01*
X113164681Y-79803905D01*
X113178841Y-79821159D01*
X113247667Y-79877643D01*
X113315880Y-79914103D01*
X113326190Y-79919614D01*
X113411392Y-79945460D01*
X113500000Y-79954187D01*
X113522205Y-79952000D01*
X114812777Y-79952000D01*
X115048001Y-80187225D01*
X115048000Y-81812776D01*
X114812777Y-82048000D01*
X112773460Y-82048000D01*
X112772268Y-82035897D01*
X112753570Y-81974257D01*
X112723206Y-81917450D01*
X112682343Y-81867657D01*
X112632550Y-81826794D01*
X112575743Y-81796430D01*
X112514103Y-81777732D01*
X112450000Y-81771418D01*
X111550000Y-81771418D01*
X111485897Y-81777732D01*
X111424257Y-81796430D01*
X111367450Y-81826794D01*
X111317657Y-81867657D01*
X111276794Y-81917450D01*
X111246430Y-81974257D01*
X111227732Y-82035897D01*
X111221418Y-82100000D01*
X111221418Y-82900000D01*
X111227732Y-82964103D01*
X111246430Y-83025743D01*
X111276794Y-83082550D01*
X111317657Y-83132343D01*
X111367450Y-83173206D01*
X111424257Y-83203570D01*
X111485897Y-83222268D01*
X111550000Y-83228582D01*
X112450000Y-83228582D01*
X112514103Y-83222268D01*
X112575743Y-83203570D01*
X112632550Y-83173206D01*
X112682343Y-83132343D01*
X112723206Y-83082550D01*
X112753570Y-83025743D01*
X112772268Y-82964103D01*
X112773460Y-82952000D01*
X114977795Y-82952000D01*
X115000000Y-82954187D01*
X115022205Y-82952000D01*
X115088607Y-82945460D01*
X115173810Y-82919614D01*
X115252333Y-82877643D01*
X115321159Y-82821159D01*
X115335323Y-82803900D01*
X115548001Y-82591223D01*
X115548001Y-84477785D01*
X115545813Y-84500000D01*
X115554540Y-84588607D01*
X115580386Y-84673809D01*
X115596812Y-84704540D01*
X115622358Y-84752333D01*
X115678842Y-84821159D01*
X115696096Y-84835319D01*
X116173786Y-85313009D01*
X116165460Y-85328586D01*
X116132535Y-85437123D01*
X116121418Y-85549999D01*
X116121418Y-86450001D01*
X116132535Y-86562877D01*
X116165460Y-86671414D01*
X116218926Y-86771443D01*
X116290880Y-86859120D01*
X116378557Y-86931074D01*
X116478586Y-86984540D01*
X116587123Y-87017465D01*
X116699999Y-87028582D01*
X117350001Y-87028582D01*
X117462877Y-87017465D01*
X117571414Y-86984540D01*
X117671443Y-86931074D01*
X117759120Y-86859120D01*
X117831074Y-86771443D01*
X117884540Y-86671414D01*
X117917465Y-86562877D01*
X117928582Y-86450001D01*
X117928582Y-85549999D01*
X117917465Y-85437123D01*
X117884540Y-85328586D01*
X117831074Y-85228557D01*
X117759120Y-85140880D01*
X117671443Y-85068926D01*
X117571414Y-85015460D01*
X117462877Y-84982535D01*
X117350001Y-84971418D01*
X117110642Y-84971418D01*
X116452000Y-84312777D01*
X116452000Y-79885795D01*
X116454187Y-79863590D01*
X116445460Y-79774982D01*
X116419614Y-79689780D01*
X116377643Y-79611257D01*
X116321159Y-79542431D01*
X116303906Y-79528272D01*
X115521724Y-78746091D01*
X115507560Y-78728832D01*
X115438734Y-78672348D01*
X115360211Y-78630377D01*
X115275008Y-78604531D01*
X115208606Y-78597991D01*
X115186401Y-78595804D01*
X115164196Y-78597991D01*
X114737215Y-78597991D01*
X114452000Y-78312777D01*
X114452000Y-77728385D01*
X114514103Y-77722268D01*
X114575743Y-77703570D01*
X114632550Y-77673206D01*
X114682343Y-77632343D01*
X114709738Y-77598961D01*
X115364685Y-78253910D01*
X115378841Y-78271159D01*
X115447667Y-78327643D01*
X115526190Y-78369614D01*
X115611393Y-78395460D01*
X115626038Y-78396902D01*
X115627732Y-78414103D01*
X115646430Y-78475743D01*
X115676794Y-78532550D01*
X115717657Y-78582343D01*
X115767450Y-78623206D01*
X115824257Y-78653570D01*
X115885897Y-78672268D01*
X115950000Y-78678582D01*
X116850000Y-78678582D01*
X116914103Y-78672268D01*
X116975743Y-78653570D01*
X117032550Y-78623206D01*
X117082343Y-78582343D01*
X117123206Y-78532550D01*
X117153570Y-78475743D01*
X117172268Y-78414103D01*
X117178582Y-78350000D01*
X117178582Y-77550000D01*
X117172268Y-77485897D01*
X117153570Y-77424257D01*
X117123206Y-77367450D01*
X117082343Y-77317657D01*
X117032550Y-77276794D01*
X116975743Y-77246430D01*
X116914103Y-77227732D01*
X116850000Y-77221418D01*
X115950000Y-77221418D01*
X115885897Y-77227732D01*
X115824257Y-77246430D01*
X115767450Y-77276794D01*
X115717657Y-77317657D01*
X115712800Y-77323576D01*
X115452000Y-77062777D01*
X115452000Y-76072339D01*
X115463436Y-76064698D01*
X115564698Y-75963436D01*
X115621418Y-75878548D01*
X115621418Y-76450000D01*
X115627732Y-76514103D01*
X115646430Y-76575743D01*
X115676794Y-76632550D01*
X115717657Y-76682343D01*
X115767450Y-76723206D01*
X115824257Y-76753570D01*
X115885897Y-76772268D01*
X115950000Y-76778582D01*
X116850000Y-76778582D01*
X116914103Y-76772268D01*
X116975743Y-76753570D01*
X117032550Y-76723206D01*
X117082343Y-76682343D01*
X117123206Y-76632550D01*
X117153570Y-76575743D01*
X117172268Y-76514103D01*
X117178582Y-76450000D01*
X117178582Y-75650000D01*
X117172268Y-75585897D01*
X117153570Y-75524257D01*
X117123206Y-75467450D01*
X117082343Y-75417657D01*
X117032550Y-75376794D01*
X116975743Y-75346430D01*
X116914103Y-75327732D01*
X116850000Y-75321418D01*
X116460641Y-75321418D01*
X116426990Y-75287767D01*
X116426990Y-74950996D01*
X116435302Y-74963436D01*
X116536564Y-75064698D01*
X116655636Y-75144259D01*
X116787942Y-75199062D01*
X116928397Y-75227000D01*
X117071603Y-75227000D01*
X117085093Y-75224317D01*
X117948001Y-76087225D01*
X117948001Y-76271615D01*
X117885897Y-76277732D01*
X117824257Y-76296430D01*
X117767450Y-76326794D01*
X117717657Y-76367657D01*
X117676794Y-76417450D01*
X117646430Y-76474257D01*
X117627732Y-76535897D01*
X117621418Y-76600000D01*
X117621418Y-77400000D01*
X117627732Y-77464103D01*
X117646430Y-77525743D01*
X117676794Y-77582550D01*
X117717657Y-77632343D01*
X117767450Y-77673206D01*
X117824257Y-77703570D01*
X117885897Y-77722268D01*
X117950000Y-77728582D01*
X118850000Y-77728582D01*
X118914103Y-77722268D01*
X118975743Y-77703570D01*
X119032550Y-77673206D01*
X119082343Y-77632343D01*
X119123206Y-77582550D01*
X119153570Y-77525743D01*
X119172268Y-77464103D01*
X119178582Y-77400000D01*
X119178582Y-76600000D01*
X119172268Y-76535897D01*
X119153570Y-76474257D01*
X119123206Y-76417450D01*
X119082343Y-76367657D01*
X119032550Y-76326794D01*
X118975743Y-76296430D01*
X118914103Y-76277732D01*
X118852000Y-76271615D01*
X118852000Y-75922205D01*
X118854187Y-75900000D01*
X118845460Y-75811392D01*
X118819614Y-75726190D01*
X118803377Y-75695813D01*
X118777643Y-75647667D01*
X118721159Y-75578841D01*
X118703905Y-75564681D01*
X117724317Y-74585093D01*
X117727000Y-74571603D01*
X117727000Y-74428397D01*
X117699062Y-74287942D01*
X117644259Y-74155636D01*
X117564698Y-74036564D01*
X117463436Y-73935302D01*
X117452000Y-73927661D01*
X117452000Y-72928582D01*
X117950001Y-72928582D01*
X118062877Y-72917465D01*
X118171414Y-72884540D01*
X118271443Y-72831074D01*
X118359120Y-72759120D01*
X118431074Y-72671443D01*
X118484540Y-72571414D01*
X118517465Y-72462877D01*
X118528582Y-72350001D01*
X118528582Y-71699999D01*
X118517465Y-71587123D01*
X118484540Y-71478586D01*
X118431074Y-71378557D01*
X118359120Y-71290880D01*
X118271443Y-71218926D01*
X118171414Y-71165460D01*
X118062877Y-71132535D01*
X117950001Y-71121418D01*
X117049999Y-71121418D01*
X117014289Y-71124935D01*
X117260642Y-70878582D01*
X117950001Y-70878582D01*
X118062877Y-70867465D01*
X118171414Y-70834540D01*
X118271443Y-70781074D01*
X118359120Y-70709120D01*
X118431074Y-70621443D01*
X118484540Y-70521414D01*
X118517465Y-70412877D01*
X118528582Y-70300001D01*
X118528582Y-69649999D01*
X118517465Y-69537123D01*
X118484540Y-69428586D01*
X118431074Y-69328557D01*
X118359120Y-69240880D01*
X118271443Y-69168926D01*
X118171414Y-69115460D01*
X118062877Y-69082535D01*
X117950001Y-69071418D01*
X117049999Y-69071418D01*
X116937123Y-69082535D01*
X116828586Y-69115460D01*
X116728557Y-69168926D01*
X116640880Y-69240880D01*
X116568926Y-69328557D01*
X116515460Y-69428586D01*
X116482535Y-69537123D01*
X116471418Y-69649999D01*
X116471418Y-70300001D01*
X116479430Y-70381347D01*
X115671086Y-71189691D01*
X115653832Y-71203851D01*
X115615959Y-71250000D01*
X115597348Y-71272677D01*
X115582672Y-71300134D01*
X115575743Y-71296430D01*
X115514103Y-71277732D01*
X115450000Y-71271418D01*
X114550000Y-71271418D01*
X114485897Y-71277732D01*
X114452000Y-71288014D01*
X114452000Y-70687223D01*
X116114170Y-69025053D01*
X116149999Y-69028582D01*
X116800001Y-69028582D01*
X116912877Y-69017465D01*
X117021414Y-68984540D01*
X117121443Y-68931074D01*
X117209120Y-68859120D01*
X117281074Y-68771443D01*
X117334540Y-68671414D01*
X117367465Y-68562877D01*
X117378582Y-68450001D01*
X117378582Y-67549999D01*
X117367465Y-67437123D01*
X117334540Y-67328586D01*
X117281074Y-67228557D01*
X117209120Y-67140880D01*
X117121443Y-67068926D01*
X117021414Y-67015460D01*
X116912877Y-66982535D01*
X116800001Y-66971418D01*
X116149999Y-66971418D01*
X116037123Y-66982535D01*
X115928586Y-67015460D01*
X115828557Y-67068926D01*
X115740880Y-67140880D01*
X115668926Y-67228557D01*
X115615460Y-67328586D01*
X115582535Y-67437123D01*
X115571418Y-67549999D01*
X115571418Y-68289358D01*
X113696096Y-70164681D01*
X113678842Y-70178841D01*
X113651582Y-70212058D01*
X113622358Y-70247667D01*
X113580386Y-70326191D01*
X113574373Y-70346014D01*
X113514103Y-70327732D01*
X113452000Y-70321615D01*
X113452000Y-67678582D01*
X113650000Y-67678582D01*
X113714103Y-67672268D01*
X113775743Y-67653570D01*
X113832550Y-67623206D01*
X113882343Y-67582343D01*
X113923206Y-67532550D01*
X113953570Y-67475743D01*
X113972268Y-67414103D01*
X113978582Y-67350000D01*
X113978582Y-66550000D01*
X113972268Y-66485897D01*
X113961986Y-66452000D01*
X114426540Y-66452000D01*
X114427732Y-66464103D01*
X114446430Y-66525743D01*
X114476794Y-66582550D01*
X114517657Y-66632343D01*
X114567450Y-66673206D01*
X114624257Y-66703570D01*
X114685897Y-66722268D01*
X114750000Y-66728582D01*
X115650000Y-66728582D01*
X115714103Y-66722268D01*
X115775743Y-66703570D01*
X115832550Y-66673206D01*
X115882343Y-66632343D01*
X115923206Y-66582550D01*
X115953570Y-66525743D01*
X115972268Y-66464103D01*
X115978582Y-66400000D01*
X115978582Y-65600000D01*
X115972268Y-65535897D01*
X115953570Y-65474257D01*
X115923206Y-65417450D01*
X115882343Y-65367657D01*
X115832550Y-65326794D01*
X115775743Y-65296430D01*
X115714103Y-65277732D01*
X115652000Y-65271615D01*
X115652000Y-63722202D01*
X115654187Y-63699999D01*
X115652000Y-63677795D01*
X115645460Y-63611393D01*
X115619614Y-63526190D01*
X115577643Y-63447667D01*
X115521159Y-63378841D01*
X115503910Y-63364685D01*
X114835323Y-62696100D01*
X114821159Y-62678841D01*
X114752333Y-62622357D01*
X114673810Y-62580386D01*
X114588607Y-62554540D01*
X114522205Y-62548000D01*
X114500000Y-62545813D01*
X114477795Y-62548000D01*
X114428385Y-62548000D01*
X114417465Y-62437123D01*
X114384540Y-62328586D01*
X114331074Y-62228557D01*
X114259120Y-62140880D01*
X114171443Y-62068926D01*
X114071414Y-62015460D01*
X113962877Y-61982535D01*
X113850001Y-61971418D01*
X113199999Y-61971418D01*
X113087123Y-61982535D01*
X112978586Y-62015460D01*
X112878557Y-62068926D01*
X112790880Y-62140880D01*
X112718926Y-62228557D01*
X112665460Y-62328586D01*
X112632535Y-62437123D01*
X112621418Y-62549999D01*
X112621418Y-63450001D01*
X112632535Y-63562877D01*
X112665460Y-63671414D01*
X112718926Y-63771443D01*
X112790880Y-63859120D01*
X112878557Y-63931074D01*
X112978586Y-63984540D01*
X113087123Y-64017465D01*
X113199999Y-64028582D01*
X113850001Y-64028582D01*
X113962877Y-64017465D01*
X114071414Y-63984540D01*
X114171443Y-63931074D01*
X114259120Y-63859120D01*
X114331074Y-63771443D01*
X114384540Y-63671414D01*
X114417465Y-63562877D01*
X114418020Y-63557244D01*
X114748001Y-63887226D01*
X114748000Y-65271615D01*
X114685897Y-65277732D01*
X114624257Y-65296430D01*
X114567450Y-65326794D01*
X114517657Y-65367657D01*
X114476794Y-65417450D01*
X114446430Y-65474257D01*
X114427732Y-65535897D01*
X114426540Y-65548000D01*
X113961986Y-65548000D01*
X113972268Y-65514103D01*
X113978582Y-65450000D01*
X113978582Y-64650000D01*
X113972268Y-64585897D01*
X113953570Y-64524257D01*
X113923206Y-64467450D01*
X113882343Y-64417657D01*
X113832550Y-64376794D01*
X113775743Y-64346430D01*
X113714103Y-64327732D01*
X113650000Y-64321418D01*
X112750000Y-64321418D01*
X112685897Y-64327732D01*
X112624257Y-64346430D01*
X112567450Y-64376794D01*
X112517657Y-64417657D01*
X112476794Y-64467450D01*
X112446430Y-64524257D01*
X112427732Y-64585897D01*
X112421418Y-64650000D01*
X112421418Y-65048000D01*
X111323634Y-65048000D01*
X111021720Y-64746087D01*
X111007560Y-64728833D01*
X110938734Y-64672349D01*
X110907466Y-64655636D01*
X110860210Y-64630377D01*
X110775008Y-64604531D01*
X110686401Y-64595804D01*
X110664187Y-64597992D01*
X110237215Y-64597991D01*
X109952000Y-64312776D01*
X109952000Y-64228385D01*
X110014103Y-64222268D01*
X110075743Y-64203570D01*
X110132550Y-64173206D01*
X110182343Y-64132343D01*
X110223206Y-64082550D01*
X110253570Y-64025743D01*
X110272268Y-63964103D01*
X110278582Y-63900000D01*
X110278582Y-63100000D01*
X110272268Y-63035897D01*
X110253570Y-62974257D01*
X110223206Y-62917450D01*
X110182343Y-62867657D01*
X110132550Y-62826794D01*
X110075743Y-62796430D01*
X110014103Y-62777732D01*
X109952000Y-62771615D01*
X109952000Y-62187223D01*
X110610642Y-61528582D01*
X110850001Y-61528582D01*
X110962877Y-61517465D01*
X111071414Y-61484540D01*
X111171443Y-61431074D01*
X111259120Y-61359120D01*
X111331074Y-61271443D01*
X111384540Y-61171414D01*
X111417465Y-61062877D01*
X111428582Y-60950001D01*
X111428582Y-60049999D01*
X111417465Y-59937123D01*
X111384540Y-59828586D01*
X111331074Y-59728557D01*
X111259120Y-59640880D01*
X111171443Y-59568926D01*
X111071414Y-59515460D01*
X110962877Y-59482535D01*
X110850001Y-59471418D01*
X110199999Y-59471418D01*
X110087123Y-59482535D01*
X109978586Y-59515460D01*
X109878557Y-59568926D01*
X109790880Y-59640880D01*
X109718926Y-59728557D01*
X109665460Y-59828586D01*
X109632535Y-59937123D01*
X109621418Y-60049999D01*
X109621418Y-60950001D01*
X109632535Y-61062877D01*
X109665460Y-61171414D01*
X109673786Y-61186991D01*
X109196096Y-61664681D01*
X109178842Y-61678841D01*
X109141655Y-61724154D01*
X109122358Y-61747667D01*
X109080386Y-61826191D01*
X109054540Y-61911393D01*
X109045813Y-62000000D01*
X109048001Y-62022215D01*
X109048000Y-62771615D01*
X108985897Y-62777732D01*
X108924257Y-62796430D01*
X108867450Y-62826794D01*
X108817657Y-62867657D01*
X108776794Y-62917450D01*
X108746430Y-62974257D01*
X108727732Y-63035897D01*
X108721418Y-63100000D01*
X108721418Y-63900000D01*
X108727732Y-63964103D01*
X108746430Y-64025743D01*
X108776794Y-64082550D01*
X108817657Y-64132343D01*
X108867450Y-64173206D01*
X108924257Y-64203570D01*
X108985897Y-64222268D01*
X109048000Y-64228385D01*
X109048000Y-64477795D01*
X109045813Y-64500000D01*
X109054540Y-64588607D01*
X109080386Y-64673809D01*
X109093139Y-64697668D01*
X109122358Y-64752333D01*
X109178842Y-64821159D01*
X109196095Y-64835318D01*
X109408776Y-65048000D01*
X108210527Y-65048000D01*
X108223206Y-65032550D01*
X108253570Y-64975743D01*
X108272268Y-64914103D01*
X108278582Y-64850000D01*
X108278582Y-64050000D01*
X108272268Y-63985897D01*
X108253570Y-63924257D01*
X108223206Y-63867450D01*
X108182343Y-63817657D01*
X108132550Y-63776794D01*
X108075743Y-63746430D01*
X108014103Y-63727732D01*
X107950000Y-63721418D01*
X107050000Y-63721418D01*
X106985897Y-63727732D01*
X106924257Y-63746430D01*
X106867450Y-63776794D01*
X106817657Y-63817657D01*
X106776794Y-63867450D01*
X106746430Y-63924257D01*
X106727732Y-63985897D01*
X106721418Y-64050000D01*
X106721418Y-64850000D01*
X106727732Y-64914103D01*
X106746430Y-64975743D01*
X106776794Y-65032550D01*
X106817657Y-65082343D01*
X106867450Y-65123206D01*
X106924257Y-65153570D01*
X106985897Y-65172268D01*
X107050000Y-65178582D01*
X107082937Y-65178582D01*
X107122357Y-65252332D01*
X107178841Y-65321159D01*
X107196100Y-65335323D01*
X107533776Y-65673000D01*
X107062224Y-65673000D01*
X106335323Y-64946100D01*
X106321159Y-64928841D01*
X106252333Y-64872357D01*
X106182781Y-64835181D01*
X106213436Y-64814698D01*
X106314698Y-64713436D01*
X106394259Y-64594364D01*
X106449062Y-64462058D01*
X106477000Y-64321603D01*
X106477000Y-64178397D01*
X106449062Y-64037942D01*
X106394259Y-63905636D01*
X106314698Y-63786564D01*
X106213436Y-63685302D01*
X106094364Y-63605741D01*
X105962058Y-63550938D01*
X105821603Y-63523000D01*
X105678397Y-63523000D01*
X105537942Y-63550938D01*
X105405636Y-63605741D01*
X105286564Y-63685302D01*
X105185302Y-63786564D01*
X105105741Y-63905636D01*
X105050938Y-64037942D01*
X105023000Y-64178397D01*
X105023000Y-64321603D01*
X105025683Y-64335093D01*
X105012786Y-64347990D01*
X104778582Y-64347990D01*
X104778582Y-63600000D01*
X104772268Y-63535897D01*
X104753570Y-63474257D01*
X104723206Y-63417450D01*
X104682343Y-63367657D01*
X104632550Y-63326794D01*
X104575743Y-63296430D01*
X104514103Y-63277732D01*
X104450000Y-63271418D01*
X104446447Y-63271418D01*
X104445460Y-63261392D01*
X104419614Y-63176190D01*
X104399526Y-63138608D01*
X104377643Y-63097667D01*
X104321159Y-63028841D01*
X104303905Y-63014681D01*
X102241223Y-60952000D01*
X105912777Y-60952000D01*
X106851038Y-61890262D01*
X106817657Y-61917657D01*
X106776794Y-61967450D01*
X106746430Y-62024257D01*
X106727732Y-62085897D01*
X106721418Y-62150000D01*
X106721418Y-62950000D01*
X106727732Y-63014103D01*
X106746430Y-63075743D01*
X106776794Y-63132550D01*
X106817657Y-63182343D01*
X106867450Y-63223206D01*
X106924257Y-63253570D01*
X106985897Y-63272268D01*
X107050000Y-63278582D01*
X107950000Y-63278582D01*
X108014103Y-63272268D01*
X108075743Y-63253570D01*
X108132550Y-63223206D01*
X108182343Y-63182343D01*
X108223206Y-63132550D01*
X108253570Y-63075743D01*
X108272268Y-63014103D01*
X108278582Y-62950000D01*
X108278582Y-62150000D01*
X108272268Y-62085897D01*
X108253570Y-62024257D01*
X108223206Y-61967450D01*
X108182343Y-61917657D01*
X108132550Y-61876794D01*
X108075743Y-61846430D01*
X108014103Y-61827732D01*
X107950000Y-61821418D01*
X107946447Y-61821418D01*
X107945460Y-61811392D01*
X107919614Y-61726190D01*
X107894306Y-61678842D01*
X107877643Y-61647667D01*
X107821159Y-61578841D01*
X107803905Y-61564681D01*
X107191224Y-60952000D01*
X107571615Y-60952000D01*
X107582535Y-61062877D01*
X107615460Y-61171414D01*
X107668926Y-61271443D01*
X107740880Y-61359120D01*
X107828557Y-61431074D01*
X107928586Y-61484540D01*
X108037123Y-61517465D01*
X108149999Y-61528582D01*
X108800001Y-61528582D01*
X108912877Y-61517465D01*
X109021414Y-61484540D01*
X109121443Y-61431074D01*
X109209120Y-61359120D01*
X109281074Y-61271443D01*
X109334540Y-61171414D01*
X109367465Y-61062877D01*
X109378582Y-60950001D01*
X109378582Y-60049999D01*
X109367465Y-59937123D01*
X109334540Y-59828586D01*
X109281074Y-59728557D01*
X109209120Y-59640880D01*
X109121443Y-59568926D01*
X109021414Y-59515460D01*
X108912877Y-59482535D01*
X108800001Y-59471418D01*
X108149999Y-59471418D01*
X108037123Y-59482535D01*
X107928586Y-59515460D01*
X107828557Y-59568926D01*
X107740880Y-59640880D01*
X107668926Y-59728557D01*
X107615460Y-59828586D01*
X107582535Y-59937123D01*
X107571615Y-60048000D01*
X106122205Y-60048000D01*
X106100000Y-60045813D01*
X106077795Y-60048000D01*
X99812793Y-60048000D01*
X99790588Y-60045813D01*
X99701980Y-60054540D01*
X99616778Y-60080386D01*
X99538255Y-60122357D01*
X99469429Y-60178841D01*
X99455269Y-60196095D01*
X97696100Y-61955265D01*
X97678841Y-61969429D01*
X97633846Y-62024257D01*
X97622358Y-62038255D01*
X97580386Y-62116779D01*
X97554540Y-62201981D01*
X97545813Y-62290588D01*
X97548000Y-62312794D01*
X97548000Y-62321615D01*
X97485897Y-62327732D01*
X97424257Y-62346430D01*
X97367450Y-62376794D01*
X97317657Y-62417657D01*
X97276794Y-62467450D01*
X97246430Y-62524257D01*
X97227732Y-62585897D01*
X97221418Y-62650000D01*
X97221418Y-63139358D01*
X96696100Y-63664677D01*
X96678841Y-63678841D01*
X96622357Y-63747668D01*
X96583076Y-63821159D01*
X96580386Y-63826191D01*
X96554540Y-63911393D01*
X96545813Y-64000000D01*
X96548000Y-64022204D01*
X96548001Y-65362787D01*
X96545813Y-65385002D01*
X96554540Y-65473609D01*
X96580386Y-65558811D01*
X96602402Y-65600000D01*
X96622358Y-65637335D01*
X96678842Y-65706161D01*
X96696096Y-65720321D01*
X97279679Y-66303905D01*
X97293839Y-66321159D01*
X97362665Y-66377643D01*
X97441188Y-66419614D01*
X97526390Y-66445460D01*
X97614998Y-66454187D01*
X97637203Y-66452000D01*
X99812777Y-66452000D01*
X99922990Y-66562214D01*
X99922991Y-67998000D01*
X95075710Y-67998000D01*
X95083690Y-67978734D01*
X95127000Y-67761000D01*
X95127000Y-67539000D01*
X95083690Y-67321266D01*
X94998734Y-67116165D01*
X94875398Y-66931579D01*
X94718421Y-66774602D01*
X94533835Y-66651266D01*
X94328734Y-66566310D01*
X94111000Y-66523000D01*
X93889000Y-66523000D01*
X93671266Y-66566310D01*
X93466165Y-66651266D01*
X93281579Y-66774602D01*
X93124602Y-66931579D01*
X93001266Y-67116165D01*
X92916310Y-67321266D01*
X92873000Y-67539000D01*
X89317000Y-67539000D01*
X89317000Y-61515503D01*
X89360066Y-61076281D01*
X89483122Y-60668700D01*
X89682999Y-60292787D01*
X89952087Y-59962853D01*
X90280130Y-59691473D01*
X90654646Y-59488972D01*
X91061352Y-59363076D01*
X91499709Y-59317003D01*
X91500536Y-59317000D01*
X122984497Y-59317000D01*
X123423719Y-59360066D01*
M02*
