G04 #@! TF.GenerationSoftware,KiCad,Pcbnew,5.1.2*
G04 #@! TF.CreationDate,2019-05-24T19:47:36-03:00*
G04 #@! TF.ProjectId,ouroboros,6f75726f-626f-4726-9f73-2e6b69636164,rev?*
G04 #@! TF.SameCoordinates,Original*
G04 #@! TF.FileFunction,Copper,L2,Bot*
G04 #@! TF.FilePolarity,Positive*
%FSLAX46Y46*%
G04 Gerber Fmt 4.6, Leading zero omitted, Abs format (unit mm)*
G04 Created by KiCad (PCBNEW 5.1.2) date 2019-05-24 19:47:36*
%MOMM*%
%LPD*%
G04 APERTURE LIST*
%ADD10C,0.120000*%
%ADD11C,0.050000*%
%ADD12C,1.600000*%
%ADD13R,1.600000X1.600000*%
%ADD14C,0.200000*%
%ADD15C,1.150000*%
%ADD16R,1.200000X0.900000*%
%ADD17R,0.900000X0.800000*%
%ADD18R,1.060000X0.650000*%
%ADD19C,0.800000*%
%ADD20C,0.250000*%
%ADD21C,0.254000*%
G04 APERTURE END LIST*
D10*
X123000000Y-59000000D02*
G75*
G02X125500000Y-61500000I0J-2500000D01*
G01*
X125500000Y-86500000D02*
G75*
G02X123000000Y-89000000I-2500000J0D01*
G01*
X89000000Y-61500000D02*
G75*
G02X91500000Y-59000000I2500000J0D01*
G01*
D11*
X59666666Y-68000000D02*
G75*
G03X59666666Y-68000000I-1666666J0D01*
G01*
X55500000Y-68000000D02*
X60500000Y-68000000D01*
X58000000Y-65500000D02*
X58000000Y-70500000D01*
D10*
X89000000Y-89000000D02*
X89000000Y-61500000D01*
X123000000Y-89000000D02*
X89000000Y-89000000D01*
X125500000Y-61500000D02*
X125500000Y-86500000D01*
X91500000Y-59000000D02*
X123000000Y-59000000D01*
D12*
X94000000Y-67650000D03*
X94000000Y-70190000D03*
X94000000Y-72730000D03*
X94000000Y-75270000D03*
X94000000Y-77810000D03*
D13*
X94000000Y-80350000D03*
D14*
G36*
X107974505Y-68401204D02*
G01*
X107998773Y-68404804D01*
X108022572Y-68410765D01*
X108045671Y-68419030D01*
X108067850Y-68429520D01*
X108088893Y-68442132D01*
X108108599Y-68456747D01*
X108126777Y-68473223D01*
X108143253Y-68491401D01*
X108157868Y-68511107D01*
X108170480Y-68532150D01*
X108180970Y-68554329D01*
X108189235Y-68577428D01*
X108195196Y-68601227D01*
X108198796Y-68625495D01*
X108200000Y-68649999D01*
X108200000Y-69300001D01*
X108198796Y-69324505D01*
X108195196Y-69348773D01*
X108189235Y-69372572D01*
X108180970Y-69395671D01*
X108170480Y-69417850D01*
X108157868Y-69438893D01*
X108143253Y-69458599D01*
X108126777Y-69476777D01*
X108108599Y-69493253D01*
X108088893Y-69507868D01*
X108067850Y-69520480D01*
X108045671Y-69530970D01*
X108022572Y-69539235D01*
X107998773Y-69545196D01*
X107974505Y-69548796D01*
X107950001Y-69550000D01*
X107049999Y-69550000D01*
X107025495Y-69548796D01*
X107001227Y-69545196D01*
X106977428Y-69539235D01*
X106954329Y-69530970D01*
X106932150Y-69520480D01*
X106911107Y-69507868D01*
X106891401Y-69493253D01*
X106873223Y-69476777D01*
X106856747Y-69458599D01*
X106842132Y-69438893D01*
X106829520Y-69417850D01*
X106819030Y-69395671D01*
X106810765Y-69372572D01*
X106804804Y-69348773D01*
X106801204Y-69324505D01*
X106800000Y-69300001D01*
X106800000Y-68649999D01*
X106801204Y-68625495D01*
X106804804Y-68601227D01*
X106810765Y-68577428D01*
X106819030Y-68554329D01*
X106829520Y-68532150D01*
X106842132Y-68511107D01*
X106856747Y-68491401D01*
X106873223Y-68473223D01*
X106891401Y-68456747D01*
X106911107Y-68442132D01*
X106932150Y-68429520D01*
X106954329Y-68419030D01*
X106977428Y-68410765D01*
X107001227Y-68404804D01*
X107025495Y-68401204D01*
X107049999Y-68400000D01*
X107950001Y-68400000D01*
X107974505Y-68401204D01*
X107974505Y-68401204D01*
G37*
D15*
X107500000Y-68975000D03*
D14*
G36*
X107974505Y-70451204D02*
G01*
X107998773Y-70454804D01*
X108022572Y-70460765D01*
X108045671Y-70469030D01*
X108067850Y-70479520D01*
X108088893Y-70492132D01*
X108108599Y-70506747D01*
X108126777Y-70523223D01*
X108143253Y-70541401D01*
X108157868Y-70561107D01*
X108170480Y-70582150D01*
X108180970Y-70604329D01*
X108189235Y-70627428D01*
X108195196Y-70651227D01*
X108198796Y-70675495D01*
X108200000Y-70699999D01*
X108200000Y-71350001D01*
X108198796Y-71374505D01*
X108195196Y-71398773D01*
X108189235Y-71422572D01*
X108180970Y-71445671D01*
X108170480Y-71467850D01*
X108157868Y-71488893D01*
X108143253Y-71508599D01*
X108126777Y-71526777D01*
X108108599Y-71543253D01*
X108088893Y-71557868D01*
X108067850Y-71570480D01*
X108045671Y-71580970D01*
X108022572Y-71589235D01*
X107998773Y-71595196D01*
X107974505Y-71598796D01*
X107950001Y-71600000D01*
X107049999Y-71600000D01*
X107025495Y-71598796D01*
X107001227Y-71595196D01*
X106977428Y-71589235D01*
X106954329Y-71580970D01*
X106932150Y-71570480D01*
X106911107Y-71557868D01*
X106891401Y-71543253D01*
X106873223Y-71526777D01*
X106856747Y-71508599D01*
X106842132Y-71488893D01*
X106829520Y-71467850D01*
X106819030Y-71445671D01*
X106810765Y-71422572D01*
X106804804Y-71398773D01*
X106801204Y-71374505D01*
X106800000Y-71350001D01*
X106800000Y-70699999D01*
X106801204Y-70675495D01*
X106804804Y-70651227D01*
X106810765Y-70627428D01*
X106819030Y-70604329D01*
X106829520Y-70582150D01*
X106842132Y-70561107D01*
X106856747Y-70541401D01*
X106873223Y-70523223D01*
X106891401Y-70506747D01*
X106911107Y-70492132D01*
X106932150Y-70479520D01*
X106954329Y-70469030D01*
X106977428Y-70460765D01*
X107001227Y-70454804D01*
X107025495Y-70451204D01*
X107049999Y-70450000D01*
X107950001Y-70450000D01*
X107974505Y-70451204D01*
X107974505Y-70451204D01*
G37*
D15*
X107500000Y-71025000D03*
D16*
X119500000Y-76350000D03*
X119500000Y-79650000D03*
X119500000Y-70350000D03*
X119500000Y-73650000D03*
D17*
X98000000Y-81000000D03*
X100000000Y-81950000D03*
X100000000Y-80050000D03*
X102000000Y-78950000D03*
X102000000Y-77050000D03*
X104000000Y-78000000D03*
X107000000Y-81000000D03*
X105000000Y-80050000D03*
X105000000Y-81950000D03*
X112000000Y-82500000D03*
X110000000Y-81550000D03*
X110000000Y-83450000D03*
X115000000Y-75500000D03*
X117000000Y-76450000D03*
X117000000Y-74550000D03*
X116000000Y-79900000D03*
X116000000Y-81800000D03*
X114000000Y-80850000D03*
X112500000Y-85000000D03*
X114500000Y-85950000D03*
X114500000Y-84050000D03*
X112000000Y-69950000D03*
X112000000Y-68050000D03*
X114000000Y-69000000D03*
X116000000Y-86000000D03*
X118000000Y-86950000D03*
X118000000Y-85050000D03*
D14*
G36*
X103474505Y-68451204D02*
G01*
X103498773Y-68454804D01*
X103522572Y-68460765D01*
X103545671Y-68469030D01*
X103567850Y-68479520D01*
X103588893Y-68492132D01*
X103608599Y-68506747D01*
X103626777Y-68523223D01*
X103643253Y-68541401D01*
X103657868Y-68561107D01*
X103670480Y-68582150D01*
X103680970Y-68604329D01*
X103689235Y-68627428D01*
X103695196Y-68651227D01*
X103698796Y-68675495D01*
X103700000Y-68699999D01*
X103700000Y-69350001D01*
X103698796Y-69374505D01*
X103695196Y-69398773D01*
X103689235Y-69422572D01*
X103680970Y-69445671D01*
X103670480Y-69467850D01*
X103657868Y-69488893D01*
X103643253Y-69508599D01*
X103626777Y-69526777D01*
X103608599Y-69543253D01*
X103588893Y-69557868D01*
X103567850Y-69570480D01*
X103545671Y-69580970D01*
X103522572Y-69589235D01*
X103498773Y-69595196D01*
X103474505Y-69598796D01*
X103450001Y-69600000D01*
X102549999Y-69600000D01*
X102525495Y-69598796D01*
X102501227Y-69595196D01*
X102477428Y-69589235D01*
X102454329Y-69580970D01*
X102432150Y-69570480D01*
X102411107Y-69557868D01*
X102391401Y-69543253D01*
X102373223Y-69526777D01*
X102356747Y-69508599D01*
X102342132Y-69488893D01*
X102329520Y-69467850D01*
X102319030Y-69445671D01*
X102310765Y-69422572D01*
X102304804Y-69398773D01*
X102301204Y-69374505D01*
X102300000Y-69350001D01*
X102300000Y-68699999D01*
X102301204Y-68675495D01*
X102304804Y-68651227D01*
X102310765Y-68627428D01*
X102319030Y-68604329D01*
X102329520Y-68582150D01*
X102342132Y-68561107D01*
X102356747Y-68541401D01*
X102373223Y-68523223D01*
X102391401Y-68506747D01*
X102411107Y-68492132D01*
X102432150Y-68479520D01*
X102454329Y-68469030D01*
X102477428Y-68460765D01*
X102501227Y-68454804D01*
X102525495Y-68451204D01*
X102549999Y-68450000D01*
X103450001Y-68450000D01*
X103474505Y-68451204D01*
X103474505Y-68451204D01*
G37*
D15*
X103000000Y-69025000D03*
D14*
G36*
X103474505Y-66401204D02*
G01*
X103498773Y-66404804D01*
X103522572Y-66410765D01*
X103545671Y-66419030D01*
X103567850Y-66429520D01*
X103588893Y-66442132D01*
X103608599Y-66456747D01*
X103626777Y-66473223D01*
X103643253Y-66491401D01*
X103657868Y-66511107D01*
X103670480Y-66532150D01*
X103680970Y-66554329D01*
X103689235Y-66577428D01*
X103695196Y-66601227D01*
X103698796Y-66625495D01*
X103700000Y-66649999D01*
X103700000Y-67300001D01*
X103698796Y-67324505D01*
X103695196Y-67348773D01*
X103689235Y-67372572D01*
X103680970Y-67395671D01*
X103670480Y-67417850D01*
X103657868Y-67438893D01*
X103643253Y-67458599D01*
X103626777Y-67476777D01*
X103608599Y-67493253D01*
X103588893Y-67507868D01*
X103567850Y-67520480D01*
X103545671Y-67530970D01*
X103522572Y-67539235D01*
X103498773Y-67545196D01*
X103474505Y-67548796D01*
X103450001Y-67550000D01*
X102549999Y-67550000D01*
X102525495Y-67548796D01*
X102501227Y-67545196D01*
X102477428Y-67539235D01*
X102454329Y-67530970D01*
X102432150Y-67520480D01*
X102411107Y-67507868D01*
X102391401Y-67493253D01*
X102373223Y-67476777D01*
X102356747Y-67458599D01*
X102342132Y-67438893D01*
X102329520Y-67417850D01*
X102319030Y-67395671D01*
X102310765Y-67372572D01*
X102304804Y-67348773D01*
X102301204Y-67324505D01*
X102300000Y-67300001D01*
X102300000Y-66649999D01*
X102301204Y-66625495D01*
X102304804Y-66601227D01*
X102310765Y-66577428D01*
X102319030Y-66554329D01*
X102329520Y-66532150D01*
X102342132Y-66511107D01*
X102356747Y-66491401D01*
X102373223Y-66473223D01*
X102391401Y-66456747D01*
X102411107Y-66442132D01*
X102432150Y-66429520D01*
X102454329Y-66419030D01*
X102477428Y-66410765D01*
X102501227Y-66404804D01*
X102525495Y-66401204D01*
X102549999Y-66400000D01*
X103450001Y-66400000D01*
X103474505Y-66401204D01*
X103474505Y-66401204D01*
G37*
D15*
X103000000Y-66975000D03*
D14*
G36*
X98474505Y-62401204D02*
G01*
X98498773Y-62404804D01*
X98522572Y-62410765D01*
X98545671Y-62419030D01*
X98567850Y-62429520D01*
X98588893Y-62442132D01*
X98608599Y-62456747D01*
X98626777Y-62473223D01*
X98643253Y-62491401D01*
X98657868Y-62511107D01*
X98670480Y-62532150D01*
X98680970Y-62554329D01*
X98689235Y-62577428D01*
X98695196Y-62601227D01*
X98698796Y-62625495D01*
X98700000Y-62649999D01*
X98700000Y-63300001D01*
X98698796Y-63324505D01*
X98695196Y-63348773D01*
X98689235Y-63372572D01*
X98680970Y-63395671D01*
X98670480Y-63417850D01*
X98657868Y-63438893D01*
X98643253Y-63458599D01*
X98626777Y-63476777D01*
X98608599Y-63493253D01*
X98588893Y-63507868D01*
X98567850Y-63520480D01*
X98545671Y-63530970D01*
X98522572Y-63539235D01*
X98498773Y-63545196D01*
X98474505Y-63548796D01*
X98450001Y-63550000D01*
X97549999Y-63550000D01*
X97525495Y-63548796D01*
X97501227Y-63545196D01*
X97477428Y-63539235D01*
X97454329Y-63530970D01*
X97432150Y-63520480D01*
X97411107Y-63507868D01*
X97391401Y-63493253D01*
X97373223Y-63476777D01*
X97356747Y-63458599D01*
X97342132Y-63438893D01*
X97329520Y-63417850D01*
X97319030Y-63395671D01*
X97310765Y-63372572D01*
X97304804Y-63348773D01*
X97301204Y-63324505D01*
X97300000Y-63300001D01*
X97300000Y-62649999D01*
X97301204Y-62625495D01*
X97304804Y-62601227D01*
X97310765Y-62577428D01*
X97319030Y-62554329D01*
X97329520Y-62532150D01*
X97342132Y-62511107D01*
X97356747Y-62491401D01*
X97373223Y-62473223D01*
X97391401Y-62456747D01*
X97411107Y-62442132D01*
X97432150Y-62429520D01*
X97454329Y-62419030D01*
X97477428Y-62410765D01*
X97501227Y-62404804D01*
X97525495Y-62401204D01*
X97549999Y-62400000D01*
X98450001Y-62400000D01*
X98474505Y-62401204D01*
X98474505Y-62401204D01*
G37*
D15*
X98000000Y-62975000D03*
D14*
G36*
X98474505Y-64451204D02*
G01*
X98498773Y-64454804D01*
X98522572Y-64460765D01*
X98545671Y-64469030D01*
X98567850Y-64479520D01*
X98588893Y-64492132D01*
X98608599Y-64506747D01*
X98626777Y-64523223D01*
X98643253Y-64541401D01*
X98657868Y-64561107D01*
X98670480Y-64582150D01*
X98680970Y-64604329D01*
X98689235Y-64627428D01*
X98695196Y-64651227D01*
X98698796Y-64675495D01*
X98700000Y-64699999D01*
X98700000Y-65350001D01*
X98698796Y-65374505D01*
X98695196Y-65398773D01*
X98689235Y-65422572D01*
X98680970Y-65445671D01*
X98670480Y-65467850D01*
X98657868Y-65488893D01*
X98643253Y-65508599D01*
X98626777Y-65526777D01*
X98608599Y-65543253D01*
X98588893Y-65557868D01*
X98567850Y-65570480D01*
X98545671Y-65580970D01*
X98522572Y-65589235D01*
X98498773Y-65595196D01*
X98474505Y-65598796D01*
X98450001Y-65600000D01*
X97549999Y-65600000D01*
X97525495Y-65598796D01*
X97501227Y-65595196D01*
X97477428Y-65589235D01*
X97454329Y-65580970D01*
X97432150Y-65570480D01*
X97411107Y-65557868D01*
X97391401Y-65543253D01*
X97373223Y-65526777D01*
X97356747Y-65508599D01*
X97342132Y-65488893D01*
X97329520Y-65467850D01*
X97319030Y-65445671D01*
X97310765Y-65422572D01*
X97304804Y-65398773D01*
X97301204Y-65374505D01*
X97300000Y-65350001D01*
X97300000Y-64699999D01*
X97301204Y-64675495D01*
X97304804Y-64651227D01*
X97310765Y-64627428D01*
X97319030Y-64604329D01*
X97329520Y-64582150D01*
X97342132Y-64561107D01*
X97356747Y-64541401D01*
X97373223Y-64523223D01*
X97391401Y-64506747D01*
X97411107Y-64492132D01*
X97432150Y-64479520D01*
X97454329Y-64469030D01*
X97477428Y-64460765D01*
X97501227Y-64454804D01*
X97525495Y-64451204D01*
X97549999Y-64450000D01*
X98450001Y-64450000D01*
X98474505Y-64451204D01*
X98474505Y-64451204D01*
G37*
D15*
X98000000Y-65025000D03*
D14*
G36*
X100474505Y-63451204D02*
G01*
X100498773Y-63454804D01*
X100522572Y-63460765D01*
X100545671Y-63469030D01*
X100567850Y-63479520D01*
X100588893Y-63492132D01*
X100608599Y-63506747D01*
X100626777Y-63523223D01*
X100643253Y-63541401D01*
X100657868Y-63561107D01*
X100670480Y-63582150D01*
X100680970Y-63604329D01*
X100689235Y-63627428D01*
X100695196Y-63651227D01*
X100698796Y-63675495D01*
X100700000Y-63699999D01*
X100700000Y-64350001D01*
X100698796Y-64374505D01*
X100695196Y-64398773D01*
X100689235Y-64422572D01*
X100680970Y-64445671D01*
X100670480Y-64467850D01*
X100657868Y-64488893D01*
X100643253Y-64508599D01*
X100626777Y-64526777D01*
X100608599Y-64543253D01*
X100588893Y-64557868D01*
X100567850Y-64570480D01*
X100545671Y-64580970D01*
X100522572Y-64589235D01*
X100498773Y-64595196D01*
X100474505Y-64598796D01*
X100450001Y-64600000D01*
X99549999Y-64600000D01*
X99525495Y-64598796D01*
X99501227Y-64595196D01*
X99477428Y-64589235D01*
X99454329Y-64580970D01*
X99432150Y-64570480D01*
X99411107Y-64557868D01*
X99391401Y-64543253D01*
X99373223Y-64526777D01*
X99356747Y-64508599D01*
X99342132Y-64488893D01*
X99329520Y-64467850D01*
X99319030Y-64445671D01*
X99310765Y-64422572D01*
X99304804Y-64398773D01*
X99301204Y-64374505D01*
X99300000Y-64350001D01*
X99300000Y-63699999D01*
X99301204Y-63675495D01*
X99304804Y-63651227D01*
X99310765Y-63627428D01*
X99319030Y-63604329D01*
X99329520Y-63582150D01*
X99342132Y-63561107D01*
X99356747Y-63541401D01*
X99373223Y-63523223D01*
X99391401Y-63506747D01*
X99411107Y-63492132D01*
X99432150Y-63479520D01*
X99454329Y-63469030D01*
X99477428Y-63460765D01*
X99501227Y-63454804D01*
X99525495Y-63451204D01*
X99549999Y-63450000D01*
X100450001Y-63450000D01*
X100474505Y-63451204D01*
X100474505Y-63451204D01*
G37*
D15*
X100000000Y-64025000D03*
D14*
G36*
X100474505Y-61401204D02*
G01*
X100498773Y-61404804D01*
X100522572Y-61410765D01*
X100545671Y-61419030D01*
X100567850Y-61429520D01*
X100588893Y-61442132D01*
X100608599Y-61456747D01*
X100626777Y-61473223D01*
X100643253Y-61491401D01*
X100657868Y-61511107D01*
X100670480Y-61532150D01*
X100680970Y-61554329D01*
X100689235Y-61577428D01*
X100695196Y-61601227D01*
X100698796Y-61625495D01*
X100700000Y-61649999D01*
X100700000Y-62300001D01*
X100698796Y-62324505D01*
X100695196Y-62348773D01*
X100689235Y-62372572D01*
X100680970Y-62395671D01*
X100670480Y-62417850D01*
X100657868Y-62438893D01*
X100643253Y-62458599D01*
X100626777Y-62476777D01*
X100608599Y-62493253D01*
X100588893Y-62507868D01*
X100567850Y-62520480D01*
X100545671Y-62530970D01*
X100522572Y-62539235D01*
X100498773Y-62545196D01*
X100474505Y-62548796D01*
X100450001Y-62550000D01*
X99549999Y-62550000D01*
X99525495Y-62548796D01*
X99501227Y-62545196D01*
X99477428Y-62539235D01*
X99454329Y-62530970D01*
X99432150Y-62520480D01*
X99411107Y-62507868D01*
X99391401Y-62493253D01*
X99373223Y-62476777D01*
X99356747Y-62458599D01*
X99342132Y-62438893D01*
X99329520Y-62417850D01*
X99319030Y-62395671D01*
X99310765Y-62372572D01*
X99304804Y-62348773D01*
X99301204Y-62324505D01*
X99300000Y-62300001D01*
X99300000Y-61649999D01*
X99301204Y-61625495D01*
X99304804Y-61601227D01*
X99310765Y-61577428D01*
X99319030Y-61554329D01*
X99329520Y-61532150D01*
X99342132Y-61511107D01*
X99356747Y-61491401D01*
X99373223Y-61473223D01*
X99391401Y-61456747D01*
X99411107Y-61442132D01*
X99432150Y-61429520D01*
X99454329Y-61419030D01*
X99477428Y-61410765D01*
X99501227Y-61404804D01*
X99525495Y-61401204D01*
X99549999Y-61400000D01*
X100450001Y-61400000D01*
X100474505Y-61401204D01*
X100474505Y-61401204D01*
G37*
D15*
X100000000Y-61975000D03*
D14*
G36*
X100574505Y-70551204D02*
G01*
X100598773Y-70554804D01*
X100622572Y-70560765D01*
X100645671Y-70569030D01*
X100667850Y-70579520D01*
X100688893Y-70592132D01*
X100708599Y-70606747D01*
X100726777Y-70623223D01*
X100743253Y-70641401D01*
X100757868Y-70661107D01*
X100770480Y-70682150D01*
X100780970Y-70704329D01*
X100789235Y-70727428D01*
X100795196Y-70751227D01*
X100798796Y-70775495D01*
X100800000Y-70799999D01*
X100800000Y-71700001D01*
X100798796Y-71724505D01*
X100795196Y-71748773D01*
X100789235Y-71772572D01*
X100780970Y-71795671D01*
X100770480Y-71817850D01*
X100757868Y-71838893D01*
X100743253Y-71858599D01*
X100726777Y-71876777D01*
X100708599Y-71893253D01*
X100688893Y-71907868D01*
X100667850Y-71920480D01*
X100645671Y-71930970D01*
X100622572Y-71939235D01*
X100598773Y-71945196D01*
X100574505Y-71948796D01*
X100550001Y-71950000D01*
X99899999Y-71950000D01*
X99875495Y-71948796D01*
X99851227Y-71945196D01*
X99827428Y-71939235D01*
X99804329Y-71930970D01*
X99782150Y-71920480D01*
X99761107Y-71907868D01*
X99741401Y-71893253D01*
X99723223Y-71876777D01*
X99706747Y-71858599D01*
X99692132Y-71838893D01*
X99679520Y-71817850D01*
X99669030Y-71795671D01*
X99660765Y-71772572D01*
X99654804Y-71748773D01*
X99651204Y-71724505D01*
X99650000Y-71700001D01*
X99650000Y-70799999D01*
X99651204Y-70775495D01*
X99654804Y-70751227D01*
X99660765Y-70727428D01*
X99669030Y-70704329D01*
X99679520Y-70682150D01*
X99692132Y-70661107D01*
X99706747Y-70641401D01*
X99723223Y-70623223D01*
X99741401Y-70606747D01*
X99761107Y-70592132D01*
X99782150Y-70579520D01*
X99804329Y-70569030D01*
X99827428Y-70560765D01*
X99851227Y-70554804D01*
X99875495Y-70551204D01*
X99899999Y-70550000D01*
X100550001Y-70550000D01*
X100574505Y-70551204D01*
X100574505Y-70551204D01*
G37*
D15*
X100225000Y-71250000D03*
D14*
G36*
X102624505Y-70551204D02*
G01*
X102648773Y-70554804D01*
X102672572Y-70560765D01*
X102695671Y-70569030D01*
X102717850Y-70579520D01*
X102738893Y-70592132D01*
X102758599Y-70606747D01*
X102776777Y-70623223D01*
X102793253Y-70641401D01*
X102807868Y-70661107D01*
X102820480Y-70682150D01*
X102830970Y-70704329D01*
X102839235Y-70727428D01*
X102845196Y-70751227D01*
X102848796Y-70775495D01*
X102850000Y-70799999D01*
X102850000Y-71700001D01*
X102848796Y-71724505D01*
X102845196Y-71748773D01*
X102839235Y-71772572D01*
X102830970Y-71795671D01*
X102820480Y-71817850D01*
X102807868Y-71838893D01*
X102793253Y-71858599D01*
X102776777Y-71876777D01*
X102758599Y-71893253D01*
X102738893Y-71907868D01*
X102717850Y-71920480D01*
X102695671Y-71930970D01*
X102672572Y-71939235D01*
X102648773Y-71945196D01*
X102624505Y-71948796D01*
X102600001Y-71950000D01*
X101949999Y-71950000D01*
X101925495Y-71948796D01*
X101901227Y-71945196D01*
X101877428Y-71939235D01*
X101854329Y-71930970D01*
X101832150Y-71920480D01*
X101811107Y-71907868D01*
X101791401Y-71893253D01*
X101773223Y-71876777D01*
X101756747Y-71858599D01*
X101742132Y-71838893D01*
X101729520Y-71817850D01*
X101719030Y-71795671D01*
X101710765Y-71772572D01*
X101704804Y-71748773D01*
X101701204Y-71724505D01*
X101700000Y-71700001D01*
X101700000Y-70799999D01*
X101701204Y-70775495D01*
X101704804Y-70751227D01*
X101710765Y-70727428D01*
X101719030Y-70704329D01*
X101729520Y-70682150D01*
X101742132Y-70661107D01*
X101756747Y-70641401D01*
X101773223Y-70623223D01*
X101791401Y-70606747D01*
X101811107Y-70592132D01*
X101832150Y-70579520D01*
X101854329Y-70569030D01*
X101877428Y-70560765D01*
X101901227Y-70554804D01*
X101925495Y-70551204D01*
X101949999Y-70550000D01*
X102600001Y-70550000D01*
X102624505Y-70551204D01*
X102624505Y-70551204D01*
G37*
D15*
X102275000Y-71250000D03*
D14*
G36*
X105474505Y-72651204D02*
G01*
X105498773Y-72654804D01*
X105522572Y-72660765D01*
X105545671Y-72669030D01*
X105567850Y-72679520D01*
X105588893Y-72692132D01*
X105608599Y-72706747D01*
X105626777Y-72723223D01*
X105643253Y-72741401D01*
X105657868Y-72761107D01*
X105670480Y-72782150D01*
X105680970Y-72804329D01*
X105689235Y-72827428D01*
X105695196Y-72851227D01*
X105698796Y-72875495D01*
X105700000Y-72899999D01*
X105700000Y-73550001D01*
X105698796Y-73574505D01*
X105695196Y-73598773D01*
X105689235Y-73622572D01*
X105680970Y-73645671D01*
X105670480Y-73667850D01*
X105657868Y-73688893D01*
X105643253Y-73708599D01*
X105626777Y-73726777D01*
X105608599Y-73743253D01*
X105588893Y-73757868D01*
X105567850Y-73770480D01*
X105545671Y-73780970D01*
X105522572Y-73789235D01*
X105498773Y-73795196D01*
X105474505Y-73798796D01*
X105450001Y-73800000D01*
X104549999Y-73800000D01*
X104525495Y-73798796D01*
X104501227Y-73795196D01*
X104477428Y-73789235D01*
X104454329Y-73780970D01*
X104432150Y-73770480D01*
X104411107Y-73757868D01*
X104391401Y-73743253D01*
X104373223Y-73726777D01*
X104356747Y-73708599D01*
X104342132Y-73688893D01*
X104329520Y-73667850D01*
X104319030Y-73645671D01*
X104310765Y-73622572D01*
X104304804Y-73598773D01*
X104301204Y-73574505D01*
X104300000Y-73550001D01*
X104300000Y-72899999D01*
X104301204Y-72875495D01*
X104304804Y-72851227D01*
X104310765Y-72827428D01*
X104319030Y-72804329D01*
X104329520Y-72782150D01*
X104342132Y-72761107D01*
X104356747Y-72741401D01*
X104373223Y-72723223D01*
X104391401Y-72706747D01*
X104411107Y-72692132D01*
X104432150Y-72679520D01*
X104454329Y-72669030D01*
X104477428Y-72660765D01*
X104501227Y-72654804D01*
X104525495Y-72651204D01*
X104549999Y-72650000D01*
X105450001Y-72650000D01*
X105474505Y-72651204D01*
X105474505Y-72651204D01*
G37*
D15*
X105000000Y-73225000D03*
D14*
G36*
X105474505Y-74701204D02*
G01*
X105498773Y-74704804D01*
X105522572Y-74710765D01*
X105545671Y-74719030D01*
X105567850Y-74729520D01*
X105588893Y-74742132D01*
X105608599Y-74756747D01*
X105626777Y-74773223D01*
X105643253Y-74791401D01*
X105657868Y-74811107D01*
X105670480Y-74832150D01*
X105680970Y-74854329D01*
X105689235Y-74877428D01*
X105695196Y-74901227D01*
X105698796Y-74925495D01*
X105700000Y-74949999D01*
X105700000Y-75600001D01*
X105698796Y-75624505D01*
X105695196Y-75648773D01*
X105689235Y-75672572D01*
X105680970Y-75695671D01*
X105670480Y-75717850D01*
X105657868Y-75738893D01*
X105643253Y-75758599D01*
X105626777Y-75776777D01*
X105608599Y-75793253D01*
X105588893Y-75807868D01*
X105567850Y-75820480D01*
X105545671Y-75830970D01*
X105522572Y-75839235D01*
X105498773Y-75845196D01*
X105474505Y-75848796D01*
X105450001Y-75850000D01*
X104549999Y-75850000D01*
X104525495Y-75848796D01*
X104501227Y-75845196D01*
X104477428Y-75839235D01*
X104454329Y-75830970D01*
X104432150Y-75820480D01*
X104411107Y-75807868D01*
X104391401Y-75793253D01*
X104373223Y-75776777D01*
X104356747Y-75758599D01*
X104342132Y-75738893D01*
X104329520Y-75717850D01*
X104319030Y-75695671D01*
X104310765Y-75672572D01*
X104304804Y-75648773D01*
X104301204Y-75624505D01*
X104300000Y-75600001D01*
X104300000Y-74949999D01*
X104301204Y-74925495D01*
X104304804Y-74901227D01*
X104310765Y-74877428D01*
X104319030Y-74854329D01*
X104329520Y-74832150D01*
X104342132Y-74811107D01*
X104356747Y-74791401D01*
X104373223Y-74773223D01*
X104391401Y-74756747D01*
X104411107Y-74742132D01*
X104432150Y-74729520D01*
X104454329Y-74719030D01*
X104477428Y-74710765D01*
X104501227Y-74704804D01*
X104525495Y-74701204D01*
X104549999Y-74700000D01*
X105450001Y-74700000D01*
X105474505Y-74701204D01*
X105474505Y-74701204D01*
G37*
D15*
X105000000Y-75275000D03*
D14*
G36*
X103874505Y-82801204D02*
G01*
X103898773Y-82804804D01*
X103922572Y-82810765D01*
X103945671Y-82819030D01*
X103967850Y-82829520D01*
X103988893Y-82842132D01*
X104008599Y-82856747D01*
X104026777Y-82873223D01*
X104043253Y-82891401D01*
X104057868Y-82911107D01*
X104070480Y-82932150D01*
X104080970Y-82954329D01*
X104089235Y-82977428D01*
X104095196Y-83001227D01*
X104098796Y-83025495D01*
X104100000Y-83049999D01*
X104100000Y-83950001D01*
X104098796Y-83974505D01*
X104095196Y-83998773D01*
X104089235Y-84022572D01*
X104080970Y-84045671D01*
X104070480Y-84067850D01*
X104057868Y-84088893D01*
X104043253Y-84108599D01*
X104026777Y-84126777D01*
X104008599Y-84143253D01*
X103988893Y-84157868D01*
X103967850Y-84170480D01*
X103945671Y-84180970D01*
X103922572Y-84189235D01*
X103898773Y-84195196D01*
X103874505Y-84198796D01*
X103850001Y-84200000D01*
X103199999Y-84200000D01*
X103175495Y-84198796D01*
X103151227Y-84195196D01*
X103127428Y-84189235D01*
X103104329Y-84180970D01*
X103082150Y-84170480D01*
X103061107Y-84157868D01*
X103041401Y-84143253D01*
X103023223Y-84126777D01*
X103006747Y-84108599D01*
X102992132Y-84088893D01*
X102979520Y-84067850D01*
X102969030Y-84045671D01*
X102960765Y-84022572D01*
X102954804Y-83998773D01*
X102951204Y-83974505D01*
X102950000Y-83950001D01*
X102950000Y-83049999D01*
X102951204Y-83025495D01*
X102954804Y-83001227D01*
X102960765Y-82977428D01*
X102969030Y-82954329D01*
X102979520Y-82932150D01*
X102992132Y-82911107D01*
X103006747Y-82891401D01*
X103023223Y-82873223D01*
X103041401Y-82856747D01*
X103061107Y-82842132D01*
X103082150Y-82829520D01*
X103104329Y-82819030D01*
X103127428Y-82810765D01*
X103151227Y-82804804D01*
X103175495Y-82801204D01*
X103199999Y-82800000D01*
X103850001Y-82800000D01*
X103874505Y-82801204D01*
X103874505Y-82801204D01*
G37*
D15*
X103525000Y-83500000D03*
D14*
G36*
X101824505Y-82801204D02*
G01*
X101848773Y-82804804D01*
X101872572Y-82810765D01*
X101895671Y-82819030D01*
X101917850Y-82829520D01*
X101938893Y-82842132D01*
X101958599Y-82856747D01*
X101976777Y-82873223D01*
X101993253Y-82891401D01*
X102007868Y-82911107D01*
X102020480Y-82932150D01*
X102030970Y-82954329D01*
X102039235Y-82977428D01*
X102045196Y-83001227D01*
X102048796Y-83025495D01*
X102050000Y-83049999D01*
X102050000Y-83950001D01*
X102048796Y-83974505D01*
X102045196Y-83998773D01*
X102039235Y-84022572D01*
X102030970Y-84045671D01*
X102020480Y-84067850D01*
X102007868Y-84088893D01*
X101993253Y-84108599D01*
X101976777Y-84126777D01*
X101958599Y-84143253D01*
X101938893Y-84157868D01*
X101917850Y-84170480D01*
X101895671Y-84180970D01*
X101872572Y-84189235D01*
X101848773Y-84195196D01*
X101824505Y-84198796D01*
X101800001Y-84200000D01*
X101149999Y-84200000D01*
X101125495Y-84198796D01*
X101101227Y-84195196D01*
X101077428Y-84189235D01*
X101054329Y-84180970D01*
X101032150Y-84170480D01*
X101011107Y-84157868D01*
X100991401Y-84143253D01*
X100973223Y-84126777D01*
X100956747Y-84108599D01*
X100942132Y-84088893D01*
X100929520Y-84067850D01*
X100919030Y-84045671D01*
X100910765Y-84022572D01*
X100904804Y-83998773D01*
X100901204Y-83974505D01*
X100900000Y-83950001D01*
X100900000Y-83049999D01*
X100901204Y-83025495D01*
X100904804Y-83001227D01*
X100910765Y-82977428D01*
X100919030Y-82954329D01*
X100929520Y-82932150D01*
X100942132Y-82911107D01*
X100956747Y-82891401D01*
X100973223Y-82873223D01*
X100991401Y-82856747D01*
X101011107Y-82842132D01*
X101032150Y-82829520D01*
X101054329Y-82819030D01*
X101077428Y-82810765D01*
X101101227Y-82804804D01*
X101125495Y-82801204D01*
X101149999Y-82800000D01*
X101800001Y-82800000D01*
X101824505Y-82801204D01*
X101824505Y-82801204D01*
G37*
D15*
X101475000Y-83500000D03*
D14*
G36*
X103474505Y-64451204D02*
G01*
X103498773Y-64454804D01*
X103522572Y-64460765D01*
X103545671Y-64469030D01*
X103567850Y-64479520D01*
X103588893Y-64492132D01*
X103608599Y-64506747D01*
X103626777Y-64523223D01*
X103643253Y-64541401D01*
X103657868Y-64561107D01*
X103670480Y-64582150D01*
X103680970Y-64604329D01*
X103689235Y-64627428D01*
X103695196Y-64651227D01*
X103698796Y-64675495D01*
X103700000Y-64699999D01*
X103700000Y-65350001D01*
X103698796Y-65374505D01*
X103695196Y-65398773D01*
X103689235Y-65422572D01*
X103680970Y-65445671D01*
X103670480Y-65467850D01*
X103657868Y-65488893D01*
X103643253Y-65508599D01*
X103626777Y-65526777D01*
X103608599Y-65543253D01*
X103588893Y-65557868D01*
X103567850Y-65570480D01*
X103545671Y-65580970D01*
X103522572Y-65589235D01*
X103498773Y-65595196D01*
X103474505Y-65598796D01*
X103450001Y-65600000D01*
X102549999Y-65600000D01*
X102525495Y-65598796D01*
X102501227Y-65595196D01*
X102477428Y-65589235D01*
X102454329Y-65580970D01*
X102432150Y-65570480D01*
X102411107Y-65557868D01*
X102391401Y-65543253D01*
X102373223Y-65526777D01*
X102356747Y-65508599D01*
X102342132Y-65488893D01*
X102329520Y-65467850D01*
X102319030Y-65445671D01*
X102310765Y-65422572D01*
X102304804Y-65398773D01*
X102301204Y-65374505D01*
X102300000Y-65350001D01*
X102300000Y-64699999D01*
X102301204Y-64675495D01*
X102304804Y-64651227D01*
X102310765Y-64627428D01*
X102319030Y-64604329D01*
X102329520Y-64582150D01*
X102342132Y-64561107D01*
X102356747Y-64541401D01*
X102373223Y-64523223D01*
X102391401Y-64506747D01*
X102411107Y-64492132D01*
X102432150Y-64479520D01*
X102454329Y-64469030D01*
X102477428Y-64460765D01*
X102501227Y-64454804D01*
X102525495Y-64451204D01*
X102549999Y-64450000D01*
X103450001Y-64450000D01*
X103474505Y-64451204D01*
X103474505Y-64451204D01*
G37*
D15*
X103000000Y-65025000D03*
D14*
G36*
X103474505Y-62401204D02*
G01*
X103498773Y-62404804D01*
X103522572Y-62410765D01*
X103545671Y-62419030D01*
X103567850Y-62429520D01*
X103588893Y-62442132D01*
X103608599Y-62456747D01*
X103626777Y-62473223D01*
X103643253Y-62491401D01*
X103657868Y-62511107D01*
X103670480Y-62532150D01*
X103680970Y-62554329D01*
X103689235Y-62577428D01*
X103695196Y-62601227D01*
X103698796Y-62625495D01*
X103700000Y-62649999D01*
X103700000Y-63300001D01*
X103698796Y-63324505D01*
X103695196Y-63348773D01*
X103689235Y-63372572D01*
X103680970Y-63395671D01*
X103670480Y-63417850D01*
X103657868Y-63438893D01*
X103643253Y-63458599D01*
X103626777Y-63476777D01*
X103608599Y-63493253D01*
X103588893Y-63507868D01*
X103567850Y-63520480D01*
X103545671Y-63530970D01*
X103522572Y-63539235D01*
X103498773Y-63545196D01*
X103474505Y-63548796D01*
X103450001Y-63550000D01*
X102549999Y-63550000D01*
X102525495Y-63548796D01*
X102501227Y-63545196D01*
X102477428Y-63539235D01*
X102454329Y-63530970D01*
X102432150Y-63520480D01*
X102411107Y-63507868D01*
X102391401Y-63493253D01*
X102373223Y-63476777D01*
X102356747Y-63458599D01*
X102342132Y-63438893D01*
X102329520Y-63417850D01*
X102319030Y-63395671D01*
X102310765Y-63372572D01*
X102304804Y-63348773D01*
X102301204Y-63324505D01*
X102300000Y-63300001D01*
X102300000Y-62649999D01*
X102301204Y-62625495D01*
X102304804Y-62601227D01*
X102310765Y-62577428D01*
X102319030Y-62554329D01*
X102329520Y-62532150D01*
X102342132Y-62511107D01*
X102356747Y-62491401D01*
X102373223Y-62473223D01*
X102391401Y-62456747D01*
X102411107Y-62442132D01*
X102432150Y-62429520D01*
X102454329Y-62419030D01*
X102477428Y-62410765D01*
X102501227Y-62404804D01*
X102525495Y-62401204D01*
X102549999Y-62400000D01*
X103450001Y-62400000D01*
X103474505Y-62401204D01*
X103474505Y-62401204D01*
G37*
D15*
X103000000Y-62975000D03*
D14*
G36*
X105824505Y-83301204D02*
G01*
X105848773Y-83304804D01*
X105872572Y-83310765D01*
X105895671Y-83319030D01*
X105917850Y-83329520D01*
X105938893Y-83342132D01*
X105958599Y-83356747D01*
X105976777Y-83373223D01*
X105993253Y-83391401D01*
X106007868Y-83411107D01*
X106020480Y-83432150D01*
X106030970Y-83454329D01*
X106039235Y-83477428D01*
X106045196Y-83501227D01*
X106048796Y-83525495D01*
X106050000Y-83549999D01*
X106050000Y-84450001D01*
X106048796Y-84474505D01*
X106045196Y-84498773D01*
X106039235Y-84522572D01*
X106030970Y-84545671D01*
X106020480Y-84567850D01*
X106007868Y-84588893D01*
X105993253Y-84608599D01*
X105976777Y-84626777D01*
X105958599Y-84643253D01*
X105938893Y-84657868D01*
X105917850Y-84670480D01*
X105895671Y-84680970D01*
X105872572Y-84689235D01*
X105848773Y-84695196D01*
X105824505Y-84698796D01*
X105800001Y-84700000D01*
X105149999Y-84700000D01*
X105125495Y-84698796D01*
X105101227Y-84695196D01*
X105077428Y-84689235D01*
X105054329Y-84680970D01*
X105032150Y-84670480D01*
X105011107Y-84657868D01*
X104991401Y-84643253D01*
X104973223Y-84626777D01*
X104956747Y-84608599D01*
X104942132Y-84588893D01*
X104929520Y-84567850D01*
X104919030Y-84545671D01*
X104910765Y-84522572D01*
X104904804Y-84498773D01*
X104901204Y-84474505D01*
X104900000Y-84450001D01*
X104900000Y-83549999D01*
X104901204Y-83525495D01*
X104904804Y-83501227D01*
X104910765Y-83477428D01*
X104919030Y-83454329D01*
X104929520Y-83432150D01*
X104942132Y-83411107D01*
X104956747Y-83391401D01*
X104973223Y-83373223D01*
X104991401Y-83356747D01*
X105011107Y-83342132D01*
X105032150Y-83329520D01*
X105054329Y-83319030D01*
X105077428Y-83310765D01*
X105101227Y-83304804D01*
X105125495Y-83301204D01*
X105149999Y-83300000D01*
X105800001Y-83300000D01*
X105824505Y-83301204D01*
X105824505Y-83301204D01*
G37*
D15*
X105475000Y-84000000D03*
D14*
G36*
X107874505Y-83301204D02*
G01*
X107898773Y-83304804D01*
X107922572Y-83310765D01*
X107945671Y-83319030D01*
X107967850Y-83329520D01*
X107988893Y-83342132D01*
X108008599Y-83356747D01*
X108026777Y-83373223D01*
X108043253Y-83391401D01*
X108057868Y-83411107D01*
X108070480Y-83432150D01*
X108080970Y-83454329D01*
X108089235Y-83477428D01*
X108095196Y-83501227D01*
X108098796Y-83525495D01*
X108100000Y-83549999D01*
X108100000Y-84450001D01*
X108098796Y-84474505D01*
X108095196Y-84498773D01*
X108089235Y-84522572D01*
X108080970Y-84545671D01*
X108070480Y-84567850D01*
X108057868Y-84588893D01*
X108043253Y-84608599D01*
X108026777Y-84626777D01*
X108008599Y-84643253D01*
X107988893Y-84657868D01*
X107967850Y-84670480D01*
X107945671Y-84680970D01*
X107922572Y-84689235D01*
X107898773Y-84695196D01*
X107874505Y-84698796D01*
X107850001Y-84700000D01*
X107199999Y-84700000D01*
X107175495Y-84698796D01*
X107151227Y-84695196D01*
X107127428Y-84689235D01*
X107104329Y-84680970D01*
X107082150Y-84670480D01*
X107061107Y-84657868D01*
X107041401Y-84643253D01*
X107023223Y-84626777D01*
X107006747Y-84608599D01*
X106992132Y-84588893D01*
X106979520Y-84567850D01*
X106969030Y-84545671D01*
X106960765Y-84522572D01*
X106954804Y-84498773D01*
X106951204Y-84474505D01*
X106950000Y-84450001D01*
X106950000Y-83549999D01*
X106951204Y-83525495D01*
X106954804Y-83501227D01*
X106960765Y-83477428D01*
X106969030Y-83454329D01*
X106979520Y-83432150D01*
X106992132Y-83411107D01*
X107006747Y-83391401D01*
X107023223Y-83373223D01*
X107041401Y-83356747D01*
X107061107Y-83342132D01*
X107082150Y-83329520D01*
X107104329Y-83319030D01*
X107127428Y-83310765D01*
X107151227Y-83304804D01*
X107175495Y-83301204D01*
X107199999Y-83300000D01*
X107850001Y-83300000D01*
X107874505Y-83301204D01*
X107874505Y-83301204D01*
G37*
D15*
X107525000Y-84000000D03*
D14*
G36*
X100474505Y-66401204D02*
G01*
X100498773Y-66404804D01*
X100522572Y-66410765D01*
X100545671Y-66419030D01*
X100567850Y-66429520D01*
X100588893Y-66442132D01*
X100608599Y-66456747D01*
X100626777Y-66473223D01*
X100643253Y-66491401D01*
X100657868Y-66511107D01*
X100670480Y-66532150D01*
X100680970Y-66554329D01*
X100689235Y-66577428D01*
X100695196Y-66601227D01*
X100698796Y-66625495D01*
X100700000Y-66649999D01*
X100700000Y-67300001D01*
X100698796Y-67324505D01*
X100695196Y-67348773D01*
X100689235Y-67372572D01*
X100680970Y-67395671D01*
X100670480Y-67417850D01*
X100657868Y-67438893D01*
X100643253Y-67458599D01*
X100626777Y-67476777D01*
X100608599Y-67493253D01*
X100588893Y-67507868D01*
X100567850Y-67520480D01*
X100545671Y-67530970D01*
X100522572Y-67539235D01*
X100498773Y-67545196D01*
X100474505Y-67548796D01*
X100450001Y-67550000D01*
X99549999Y-67550000D01*
X99525495Y-67548796D01*
X99501227Y-67545196D01*
X99477428Y-67539235D01*
X99454329Y-67530970D01*
X99432150Y-67520480D01*
X99411107Y-67507868D01*
X99391401Y-67493253D01*
X99373223Y-67476777D01*
X99356747Y-67458599D01*
X99342132Y-67438893D01*
X99329520Y-67417850D01*
X99319030Y-67395671D01*
X99310765Y-67372572D01*
X99304804Y-67348773D01*
X99301204Y-67324505D01*
X99300000Y-67300001D01*
X99300000Y-66649999D01*
X99301204Y-66625495D01*
X99304804Y-66601227D01*
X99310765Y-66577428D01*
X99319030Y-66554329D01*
X99329520Y-66532150D01*
X99342132Y-66511107D01*
X99356747Y-66491401D01*
X99373223Y-66473223D01*
X99391401Y-66456747D01*
X99411107Y-66442132D01*
X99432150Y-66429520D01*
X99454329Y-66419030D01*
X99477428Y-66410765D01*
X99501227Y-66404804D01*
X99525495Y-66401204D01*
X99549999Y-66400000D01*
X100450001Y-66400000D01*
X100474505Y-66401204D01*
X100474505Y-66401204D01*
G37*
D15*
X100000000Y-66975000D03*
D14*
G36*
X100474505Y-68451204D02*
G01*
X100498773Y-68454804D01*
X100522572Y-68460765D01*
X100545671Y-68469030D01*
X100567850Y-68479520D01*
X100588893Y-68492132D01*
X100608599Y-68506747D01*
X100626777Y-68523223D01*
X100643253Y-68541401D01*
X100657868Y-68561107D01*
X100670480Y-68582150D01*
X100680970Y-68604329D01*
X100689235Y-68627428D01*
X100695196Y-68651227D01*
X100698796Y-68675495D01*
X100700000Y-68699999D01*
X100700000Y-69350001D01*
X100698796Y-69374505D01*
X100695196Y-69398773D01*
X100689235Y-69422572D01*
X100680970Y-69445671D01*
X100670480Y-69467850D01*
X100657868Y-69488893D01*
X100643253Y-69508599D01*
X100626777Y-69526777D01*
X100608599Y-69543253D01*
X100588893Y-69557868D01*
X100567850Y-69570480D01*
X100545671Y-69580970D01*
X100522572Y-69589235D01*
X100498773Y-69595196D01*
X100474505Y-69598796D01*
X100450001Y-69600000D01*
X99549999Y-69600000D01*
X99525495Y-69598796D01*
X99501227Y-69595196D01*
X99477428Y-69589235D01*
X99454329Y-69580970D01*
X99432150Y-69570480D01*
X99411107Y-69557868D01*
X99391401Y-69543253D01*
X99373223Y-69526777D01*
X99356747Y-69508599D01*
X99342132Y-69488893D01*
X99329520Y-69467850D01*
X99319030Y-69445671D01*
X99310765Y-69422572D01*
X99304804Y-69398773D01*
X99301204Y-69374505D01*
X99300000Y-69350001D01*
X99300000Y-68699999D01*
X99301204Y-68675495D01*
X99304804Y-68651227D01*
X99310765Y-68627428D01*
X99319030Y-68604329D01*
X99329520Y-68582150D01*
X99342132Y-68561107D01*
X99356747Y-68541401D01*
X99373223Y-68523223D01*
X99391401Y-68506747D01*
X99411107Y-68492132D01*
X99432150Y-68479520D01*
X99454329Y-68469030D01*
X99477428Y-68460765D01*
X99501227Y-68454804D01*
X99525495Y-68451204D01*
X99549999Y-68450000D01*
X100450001Y-68450000D01*
X100474505Y-68451204D01*
X100474505Y-68451204D01*
G37*
D15*
X100000000Y-69025000D03*
D14*
G36*
X101824505Y-85301204D02*
G01*
X101848773Y-85304804D01*
X101872572Y-85310765D01*
X101895671Y-85319030D01*
X101917850Y-85329520D01*
X101938893Y-85342132D01*
X101958599Y-85356747D01*
X101976777Y-85373223D01*
X101993253Y-85391401D01*
X102007868Y-85411107D01*
X102020480Y-85432150D01*
X102030970Y-85454329D01*
X102039235Y-85477428D01*
X102045196Y-85501227D01*
X102048796Y-85525495D01*
X102050000Y-85549999D01*
X102050000Y-86450001D01*
X102048796Y-86474505D01*
X102045196Y-86498773D01*
X102039235Y-86522572D01*
X102030970Y-86545671D01*
X102020480Y-86567850D01*
X102007868Y-86588893D01*
X101993253Y-86608599D01*
X101976777Y-86626777D01*
X101958599Y-86643253D01*
X101938893Y-86657868D01*
X101917850Y-86670480D01*
X101895671Y-86680970D01*
X101872572Y-86689235D01*
X101848773Y-86695196D01*
X101824505Y-86698796D01*
X101800001Y-86700000D01*
X101149999Y-86700000D01*
X101125495Y-86698796D01*
X101101227Y-86695196D01*
X101077428Y-86689235D01*
X101054329Y-86680970D01*
X101032150Y-86670480D01*
X101011107Y-86657868D01*
X100991401Y-86643253D01*
X100973223Y-86626777D01*
X100956747Y-86608599D01*
X100942132Y-86588893D01*
X100929520Y-86567850D01*
X100919030Y-86545671D01*
X100910765Y-86522572D01*
X100904804Y-86498773D01*
X100901204Y-86474505D01*
X100900000Y-86450001D01*
X100900000Y-85549999D01*
X100901204Y-85525495D01*
X100904804Y-85501227D01*
X100910765Y-85477428D01*
X100919030Y-85454329D01*
X100929520Y-85432150D01*
X100942132Y-85411107D01*
X100956747Y-85391401D01*
X100973223Y-85373223D01*
X100991401Y-85356747D01*
X101011107Y-85342132D01*
X101032150Y-85329520D01*
X101054329Y-85319030D01*
X101077428Y-85310765D01*
X101101227Y-85304804D01*
X101125495Y-85301204D01*
X101149999Y-85300000D01*
X101800001Y-85300000D01*
X101824505Y-85301204D01*
X101824505Y-85301204D01*
G37*
D15*
X101475000Y-86000000D03*
D14*
G36*
X103874505Y-85301204D02*
G01*
X103898773Y-85304804D01*
X103922572Y-85310765D01*
X103945671Y-85319030D01*
X103967850Y-85329520D01*
X103988893Y-85342132D01*
X104008599Y-85356747D01*
X104026777Y-85373223D01*
X104043253Y-85391401D01*
X104057868Y-85411107D01*
X104070480Y-85432150D01*
X104080970Y-85454329D01*
X104089235Y-85477428D01*
X104095196Y-85501227D01*
X104098796Y-85525495D01*
X104100000Y-85549999D01*
X104100000Y-86450001D01*
X104098796Y-86474505D01*
X104095196Y-86498773D01*
X104089235Y-86522572D01*
X104080970Y-86545671D01*
X104070480Y-86567850D01*
X104057868Y-86588893D01*
X104043253Y-86608599D01*
X104026777Y-86626777D01*
X104008599Y-86643253D01*
X103988893Y-86657868D01*
X103967850Y-86670480D01*
X103945671Y-86680970D01*
X103922572Y-86689235D01*
X103898773Y-86695196D01*
X103874505Y-86698796D01*
X103850001Y-86700000D01*
X103199999Y-86700000D01*
X103175495Y-86698796D01*
X103151227Y-86695196D01*
X103127428Y-86689235D01*
X103104329Y-86680970D01*
X103082150Y-86670480D01*
X103061107Y-86657868D01*
X103041401Y-86643253D01*
X103023223Y-86626777D01*
X103006747Y-86608599D01*
X102992132Y-86588893D01*
X102979520Y-86567850D01*
X102969030Y-86545671D01*
X102960765Y-86522572D01*
X102954804Y-86498773D01*
X102951204Y-86474505D01*
X102950000Y-86450001D01*
X102950000Y-85549999D01*
X102951204Y-85525495D01*
X102954804Y-85501227D01*
X102960765Y-85477428D01*
X102969030Y-85454329D01*
X102979520Y-85432150D01*
X102992132Y-85411107D01*
X103006747Y-85391401D01*
X103023223Y-85373223D01*
X103041401Y-85356747D01*
X103061107Y-85342132D01*
X103082150Y-85329520D01*
X103104329Y-85319030D01*
X103127428Y-85310765D01*
X103151227Y-85304804D01*
X103175495Y-85301204D01*
X103199999Y-85300000D01*
X103850001Y-85300000D01*
X103874505Y-85301204D01*
X103874505Y-85301204D01*
G37*
D15*
X103525000Y-86000000D03*
D14*
G36*
X110474505Y-66401204D02*
G01*
X110498773Y-66404804D01*
X110522572Y-66410765D01*
X110545671Y-66419030D01*
X110567850Y-66429520D01*
X110588893Y-66442132D01*
X110608599Y-66456747D01*
X110626777Y-66473223D01*
X110643253Y-66491401D01*
X110657868Y-66511107D01*
X110670480Y-66532150D01*
X110680970Y-66554329D01*
X110689235Y-66577428D01*
X110695196Y-66601227D01*
X110698796Y-66625495D01*
X110700000Y-66649999D01*
X110700000Y-67300001D01*
X110698796Y-67324505D01*
X110695196Y-67348773D01*
X110689235Y-67372572D01*
X110680970Y-67395671D01*
X110670480Y-67417850D01*
X110657868Y-67438893D01*
X110643253Y-67458599D01*
X110626777Y-67476777D01*
X110608599Y-67493253D01*
X110588893Y-67507868D01*
X110567850Y-67520480D01*
X110545671Y-67530970D01*
X110522572Y-67539235D01*
X110498773Y-67545196D01*
X110474505Y-67548796D01*
X110450001Y-67550000D01*
X109549999Y-67550000D01*
X109525495Y-67548796D01*
X109501227Y-67545196D01*
X109477428Y-67539235D01*
X109454329Y-67530970D01*
X109432150Y-67520480D01*
X109411107Y-67507868D01*
X109391401Y-67493253D01*
X109373223Y-67476777D01*
X109356747Y-67458599D01*
X109342132Y-67438893D01*
X109329520Y-67417850D01*
X109319030Y-67395671D01*
X109310765Y-67372572D01*
X109304804Y-67348773D01*
X109301204Y-67324505D01*
X109300000Y-67300001D01*
X109300000Y-66649999D01*
X109301204Y-66625495D01*
X109304804Y-66601227D01*
X109310765Y-66577428D01*
X109319030Y-66554329D01*
X109329520Y-66532150D01*
X109342132Y-66511107D01*
X109356747Y-66491401D01*
X109373223Y-66473223D01*
X109391401Y-66456747D01*
X109411107Y-66442132D01*
X109432150Y-66429520D01*
X109454329Y-66419030D01*
X109477428Y-66410765D01*
X109501227Y-66404804D01*
X109525495Y-66401204D01*
X109549999Y-66400000D01*
X110450001Y-66400000D01*
X110474505Y-66401204D01*
X110474505Y-66401204D01*
G37*
D15*
X110000000Y-66975000D03*
D14*
G36*
X110474505Y-68451204D02*
G01*
X110498773Y-68454804D01*
X110522572Y-68460765D01*
X110545671Y-68469030D01*
X110567850Y-68479520D01*
X110588893Y-68492132D01*
X110608599Y-68506747D01*
X110626777Y-68523223D01*
X110643253Y-68541401D01*
X110657868Y-68561107D01*
X110670480Y-68582150D01*
X110680970Y-68604329D01*
X110689235Y-68627428D01*
X110695196Y-68651227D01*
X110698796Y-68675495D01*
X110700000Y-68699999D01*
X110700000Y-69350001D01*
X110698796Y-69374505D01*
X110695196Y-69398773D01*
X110689235Y-69422572D01*
X110680970Y-69445671D01*
X110670480Y-69467850D01*
X110657868Y-69488893D01*
X110643253Y-69508599D01*
X110626777Y-69526777D01*
X110608599Y-69543253D01*
X110588893Y-69557868D01*
X110567850Y-69570480D01*
X110545671Y-69580970D01*
X110522572Y-69589235D01*
X110498773Y-69595196D01*
X110474505Y-69598796D01*
X110450001Y-69600000D01*
X109549999Y-69600000D01*
X109525495Y-69598796D01*
X109501227Y-69595196D01*
X109477428Y-69589235D01*
X109454329Y-69580970D01*
X109432150Y-69570480D01*
X109411107Y-69557868D01*
X109391401Y-69543253D01*
X109373223Y-69526777D01*
X109356747Y-69508599D01*
X109342132Y-69488893D01*
X109329520Y-69467850D01*
X109319030Y-69445671D01*
X109310765Y-69422572D01*
X109304804Y-69398773D01*
X109301204Y-69374505D01*
X109300000Y-69350001D01*
X109300000Y-68699999D01*
X109301204Y-68675495D01*
X109304804Y-68651227D01*
X109310765Y-68627428D01*
X109319030Y-68604329D01*
X109329520Y-68582150D01*
X109342132Y-68561107D01*
X109356747Y-68541401D01*
X109373223Y-68523223D01*
X109391401Y-68506747D01*
X109411107Y-68492132D01*
X109432150Y-68479520D01*
X109454329Y-68469030D01*
X109477428Y-68460765D01*
X109501227Y-68454804D01*
X109525495Y-68451204D01*
X109549999Y-68450000D01*
X110450001Y-68450000D01*
X110474505Y-68451204D01*
X110474505Y-68451204D01*
G37*
D15*
X110000000Y-69025000D03*
D14*
G36*
X119974505Y-80901204D02*
G01*
X119998773Y-80904804D01*
X120022572Y-80910765D01*
X120045671Y-80919030D01*
X120067850Y-80929520D01*
X120088893Y-80942132D01*
X120108599Y-80956747D01*
X120126777Y-80973223D01*
X120143253Y-80991401D01*
X120157868Y-81011107D01*
X120170480Y-81032150D01*
X120180970Y-81054329D01*
X120189235Y-81077428D01*
X120195196Y-81101227D01*
X120198796Y-81125495D01*
X120200000Y-81149999D01*
X120200000Y-81800001D01*
X120198796Y-81824505D01*
X120195196Y-81848773D01*
X120189235Y-81872572D01*
X120180970Y-81895671D01*
X120170480Y-81917850D01*
X120157868Y-81938893D01*
X120143253Y-81958599D01*
X120126777Y-81976777D01*
X120108599Y-81993253D01*
X120088893Y-82007868D01*
X120067850Y-82020480D01*
X120045671Y-82030970D01*
X120022572Y-82039235D01*
X119998773Y-82045196D01*
X119974505Y-82048796D01*
X119950001Y-82050000D01*
X119049999Y-82050000D01*
X119025495Y-82048796D01*
X119001227Y-82045196D01*
X118977428Y-82039235D01*
X118954329Y-82030970D01*
X118932150Y-82020480D01*
X118911107Y-82007868D01*
X118891401Y-81993253D01*
X118873223Y-81976777D01*
X118856747Y-81958599D01*
X118842132Y-81938893D01*
X118829520Y-81917850D01*
X118819030Y-81895671D01*
X118810765Y-81872572D01*
X118804804Y-81848773D01*
X118801204Y-81824505D01*
X118800000Y-81800001D01*
X118800000Y-81149999D01*
X118801204Y-81125495D01*
X118804804Y-81101227D01*
X118810765Y-81077428D01*
X118819030Y-81054329D01*
X118829520Y-81032150D01*
X118842132Y-81011107D01*
X118856747Y-80991401D01*
X118873223Y-80973223D01*
X118891401Y-80956747D01*
X118911107Y-80942132D01*
X118932150Y-80929520D01*
X118954329Y-80919030D01*
X118977428Y-80910765D01*
X119001227Y-80904804D01*
X119025495Y-80901204D01*
X119049999Y-80900000D01*
X119950001Y-80900000D01*
X119974505Y-80901204D01*
X119974505Y-80901204D01*
G37*
D15*
X119500000Y-81475000D03*
D14*
G36*
X119974505Y-82951204D02*
G01*
X119998773Y-82954804D01*
X120022572Y-82960765D01*
X120045671Y-82969030D01*
X120067850Y-82979520D01*
X120088893Y-82992132D01*
X120108599Y-83006747D01*
X120126777Y-83023223D01*
X120143253Y-83041401D01*
X120157868Y-83061107D01*
X120170480Y-83082150D01*
X120180970Y-83104329D01*
X120189235Y-83127428D01*
X120195196Y-83151227D01*
X120198796Y-83175495D01*
X120200000Y-83199999D01*
X120200000Y-83850001D01*
X120198796Y-83874505D01*
X120195196Y-83898773D01*
X120189235Y-83922572D01*
X120180970Y-83945671D01*
X120170480Y-83967850D01*
X120157868Y-83988893D01*
X120143253Y-84008599D01*
X120126777Y-84026777D01*
X120108599Y-84043253D01*
X120088893Y-84057868D01*
X120067850Y-84070480D01*
X120045671Y-84080970D01*
X120022572Y-84089235D01*
X119998773Y-84095196D01*
X119974505Y-84098796D01*
X119950001Y-84100000D01*
X119049999Y-84100000D01*
X119025495Y-84098796D01*
X119001227Y-84095196D01*
X118977428Y-84089235D01*
X118954329Y-84080970D01*
X118932150Y-84070480D01*
X118911107Y-84057868D01*
X118891401Y-84043253D01*
X118873223Y-84026777D01*
X118856747Y-84008599D01*
X118842132Y-83988893D01*
X118829520Y-83967850D01*
X118819030Y-83945671D01*
X118810765Y-83922572D01*
X118804804Y-83898773D01*
X118801204Y-83874505D01*
X118800000Y-83850001D01*
X118800000Y-83199999D01*
X118801204Y-83175495D01*
X118804804Y-83151227D01*
X118810765Y-83127428D01*
X118819030Y-83104329D01*
X118829520Y-83082150D01*
X118842132Y-83061107D01*
X118856747Y-83041401D01*
X118873223Y-83023223D01*
X118891401Y-83006747D01*
X118911107Y-82992132D01*
X118932150Y-82979520D01*
X118954329Y-82969030D01*
X118977428Y-82960765D01*
X119001227Y-82954804D01*
X119025495Y-82951204D01*
X119049999Y-82950000D01*
X119950001Y-82950000D01*
X119974505Y-82951204D01*
X119974505Y-82951204D01*
G37*
D15*
X119500000Y-83525000D03*
D18*
X100150000Y-75200000D03*
X100150000Y-74250000D03*
X100150000Y-73300000D03*
X102350000Y-73300000D03*
X102350000Y-75200000D03*
D19*
X117500000Y-70000000D03*
X115000000Y-72000000D03*
X107500000Y-73500000D03*
X114000000Y-77000000D03*
X108000000Y-76950000D03*
X114000000Y-80850000D03*
X108850000Y-86000000D03*
X97000000Y-83500000D03*
X103500000Y-83500000D03*
X103000000Y-69500000D03*
X100000000Y-69500000D03*
X105750000Y-64250000D03*
X101500000Y-81000000D03*
X103500000Y-81000000D03*
X98000000Y-65000000D03*
X100000000Y-62000000D03*
X105000000Y-66550000D03*
X107000000Y-81000000D03*
X105000000Y-82000000D03*
X105000000Y-82000000D03*
X112000000Y-82500000D03*
X117000000Y-74500000D03*
X115000000Y-75500000D03*
D20*
X100150000Y-75200000D02*
X100150000Y-74250000D01*
X103000000Y-62975000D02*
X101025000Y-62975000D01*
X101025000Y-62975000D02*
X100000000Y-64000000D01*
X100000000Y-64025000D02*
X100000000Y-67000000D01*
X100000000Y-66975000D02*
X102975000Y-66975000D01*
X102975000Y-66975000D02*
X103000000Y-67000000D01*
X103000000Y-62975000D02*
X103000000Y-62000000D01*
X107500000Y-68975000D02*
X107500000Y-67976998D01*
X107500000Y-64000000D02*
X106500000Y-63000000D01*
X106500000Y-63000000D02*
X103000000Y-63000000D01*
X117000000Y-70400000D02*
X118500000Y-68900000D01*
X118500000Y-68900000D02*
X118500000Y-67000000D01*
X118500000Y-67000000D02*
X118000000Y-66500000D01*
X107500000Y-67500000D02*
X108000000Y-68000000D01*
X107500000Y-67500000D02*
X107500000Y-64000000D01*
X107500000Y-67976998D02*
X107500000Y-67500000D01*
X108000000Y-68000000D02*
X112000000Y-68000000D01*
X113600000Y-66500000D02*
X114000000Y-66500000D01*
X112050000Y-68050000D02*
X113600000Y-66500000D01*
X112000000Y-68050000D02*
X112050000Y-68050000D01*
X118000000Y-66500000D02*
X114000000Y-66500000D01*
X97750000Y-60750000D02*
X94000000Y-64500000D01*
X94000000Y-64500000D02*
X94000000Y-68000000D01*
X101750000Y-60750000D02*
X97750000Y-60750000D01*
X103000000Y-62000000D02*
X101750000Y-60750000D01*
X114150000Y-73500000D02*
X115000000Y-72650000D01*
X115000000Y-72650000D02*
X115000000Y-72000000D01*
X107500000Y-73500000D02*
X114150000Y-73500000D01*
X107500000Y-73500000D02*
X107500000Y-71000000D01*
X113950000Y-76950000D02*
X114000000Y-77000000D01*
X108000000Y-76950000D02*
X113950000Y-76950000D01*
X119500000Y-79650000D02*
X118650000Y-79650000D01*
X118000000Y-79000000D02*
X118000000Y-71500000D01*
X118000000Y-71500000D02*
X119000000Y-70500000D01*
X119000000Y-70500000D02*
X119500000Y-70500000D01*
X117150000Y-80850000D02*
X118500000Y-79500000D01*
X114000000Y-80850000D02*
X117150000Y-80850000D01*
X118650000Y-79650000D02*
X118500000Y-79500000D01*
X118500000Y-79500000D02*
X118000000Y-79000000D01*
X112500000Y-85000000D02*
X110000000Y-85000000D01*
X110000000Y-85000000D02*
X109000000Y-86000000D01*
X119500000Y-76350000D02*
X119500000Y-73500000D01*
X119500000Y-81475000D02*
X119975000Y-81475000D01*
X119975000Y-81475000D02*
X121000000Y-80450000D01*
X121000000Y-78000000D02*
X119500000Y-76500000D01*
X121000000Y-67500000D02*
X121000000Y-78500000D01*
X118500000Y-65000000D02*
X121000000Y-67500000D01*
X111975000Y-65000000D02*
X118500000Y-65000000D01*
X110000000Y-66975000D02*
X111975000Y-65000000D01*
X121000000Y-80450000D02*
X121000000Y-78500000D01*
X121000000Y-78500000D02*
X121000000Y-78000000D01*
X110000000Y-66975000D02*
X108475000Y-66975000D01*
X107950010Y-66450010D02*
X107950009Y-63813599D01*
X108475000Y-66975000D02*
X107950010Y-66450010D01*
X97563599Y-60299991D02*
X92500000Y-65363590D01*
X107950009Y-63813599D02*
X104436399Y-60299990D01*
X104436399Y-60299990D02*
X97563599Y-60299991D01*
X92500000Y-65363590D02*
X92500000Y-71500000D01*
X92500000Y-71500000D02*
X92500000Y-74500000D01*
X92500000Y-74500000D02*
X93500000Y-75500000D01*
X97000000Y-83500000D02*
X98000000Y-82500000D01*
X98000000Y-82500000D02*
X98000000Y-81000000D01*
X94021412Y-79978588D02*
X94000000Y-80000000D01*
X103500000Y-84000000D02*
X103500000Y-83500000D01*
X105775001Y-82610001D02*
X105775001Y-81289999D01*
X104348003Y-80775001D02*
X103000000Y-79426998D01*
X105260003Y-80775001D02*
X104348003Y-80775001D01*
X104025010Y-82974990D02*
X105410012Y-82974990D01*
X103500000Y-83500000D02*
X104025010Y-82974990D01*
X105410012Y-82974990D02*
X105775001Y-82610001D01*
X105775001Y-81289999D02*
X105260003Y-80775001D01*
X103000000Y-79426998D02*
X103000000Y-78000000D01*
X103000000Y-78000000D02*
X102000000Y-77000000D01*
X103500000Y-83975000D02*
X103500000Y-83500000D01*
X114450000Y-85950000D02*
X112900000Y-87500000D01*
X114500000Y-85950000D02*
X114450000Y-85950000D01*
X112900000Y-87500000D02*
X102000000Y-87500000D01*
X102000000Y-87500000D02*
X101500000Y-87000000D01*
X101500000Y-87000000D02*
X101500000Y-86000000D01*
X103500000Y-83500000D02*
X101500000Y-85500000D01*
X112900000Y-87500000D02*
X117500000Y-87500000D01*
X117500000Y-87500000D02*
X118000000Y-87000000D01*
X103623372Y-64401628D02*
X105598372Y-64401628D01*
X103000000Y-65025000D02*
X103623372Y-64401628D01*
X105598372Y-64401628D02*
X105750000Y-64250000D01*
X105750000Y-64250000D02*
X105750000Y-64250000D01*
X101500000Y-81000000D02*
X100500000Y-82000000D01*
X100500000Y-82000000D02*
X100000000Y-82000000D01*
X99514998Y-81000000D02*
X99000000Y-80485002D01*
X101500000Y-81000000D02*
X99514998Y-81000000D01*
X99000000Y-79614998D02*
X99614998Y-79000000D01*
X99000000Y-80485002D02*
X99000000Y-79614998D01*
X99614998Y-79000000D02*
X102000000Y-79000000D01*
X102550000Y-80050000D02*
X103500000Y-81000000D01*
X100000000Y-80050000D02*
X102550000Y-80050000D01*
X102350000Y-75200000D02*
X105000000Y-75200000D01*
X104000000Y-77350000D02*
X105000000Y-76350000D01*
X104000000Y-78000000D02*
X104000000Y-77350000D01*
X105000000Y-76350000D02*
X105000000Y-75500000D01*
X104000000Y-78650000D02*
X105000000Y-79650000D01*
X104000000Y-78000000D02*
X104000000Y-78650000D01*
X105000000Y-79650000D02*
X105000000Y-80000000D01*
X100225000Y-71250000D02*
X100225000Y-73250000D01*
X105000000Y-66750000D02*
X105000000Y-66750000D01*
X101468405Y-70006595D02*
X100225000Y-71250000D01*
X101468405Y-68531595D02*
X101468405Y-70006595D01*
X105000000Y-66750000D02*
X105000000Y-67000000D01*
X105000000Y-67000000D02*
X104031595Y-67968405D01*
X102031595Y-67968405D02*
X104031595Y-67968405D01*
X101468405Y-68531595D02*
X102031595Y-67968405D01*
X107525000Y-84000000D02*
X107525000Y-81525000D01*
X107525000Y-81525000D02*
X107000000Y-81000000D01*
X105000000Y-81950000D02*
X102550000Y-81950000D01*
X102550000Y-81950000D02*
X101500000Y-83000000D01*
X111700000Y-81550000D02*
X112000000Y-81850000D01*
X110000000Y-81550000D02*
X111700000Y-81550000D01*
X112000000Y-81850000D02*
X112000000Y-82500000D01*
X109950000Y-83450000D02*
X107900000Y-85500000D01*
X110000000Y-83450000D02*
X109950000Y-83450000D01*
X107900000Y-85500000D02*
X104000000Y-85500000D01*
X104000000Y-85500000D02*
X103500000Y-86000000D01*
X116000000Y-79900000D02*
X116000000Y-77500000D01*
X116000000Y-77500000D02*
X117000000Y-76500000D01*
X114050000Y-69000000D02*
X116000000Y-70950000D01*
X114000000Y-69000000D02*
X114050000Y-69000000D01*
X116000000Y-70950000D02*
X116000000Y-77500000D01*
X116000000Y-82450000D02*
X114500000Y-83950000D01*
X116000000Y-81800000D02*
X116000000Y-82450000D01*
X114500000Y-83950000D02*
X114500000Y-84000000D01*
X116000000Y-86000000D02*
X116000000Y-82000000D01*
X112000000Y-69950000D02*
X112050000Y-69950000D01*
X112000000Y-69950000D02*
X110500000Y-69950000D01*
X110500000Y-69950000D02*
X110450000Y-69950000D01*
X110450000Y-69950000D02*
X110000000Y-69500000D01*
X118000000Y-84400000D02*
X118900000Y-83500000D01*
X118000000Y-85050000D02*
X118000000Y-84400000D01*
X118900000Y-83500000D02*
X119500000Y-83500000D01*
X102275000Y-71250000D02*
X102275000Y-73250000D01*
X102350000Y-73300000D02*
X105000000Y-73300000D01*
D21*
G36*
X123423719Y-59360066D02*
G01*
X123831300Y-59483122D01*
X124207213Y-59682999D01*
X124537147Y-59952087D01*
X124808527Y-60280130D01*
X125011028Y-60654646D01*
X125136924Y-61061352D01*
X125182997Y-61499709D01*
X125183000Y-61500536D01*
X125183001Y-86484487D01*
X125139934Y-86923720D01*
X125016879Y-87331297D01*
X124817001Y-87707213D01*
X124547913Y-88037147D01*
X124219866Y-88308530D01*
X123845355Y-88511027D01*
X123438647Y-88636924D01*
X123000291Y-88682997D01*
X122999464Y-88683000D01*
X89317000Y-88683000D01*
X89317000Y-83428397D01*
X96273000Y-83428397D01*
X96273000Y-83571603D01*
X96300938Y-83712058D01*
X96355741Y-83844364D01*
X96435302Y-83963436D01*
X96536564Y-84064698D01*
X96655636Y-84144259D01*
X96787942Y-84199062D01*
X96928397Y-84227000D01*
X97071603Y-84227000D01*
X97212058Y-84199062D01*
X97344364Y-84144259D01*
X97463436Y-84064698D01*
X97564698Y-83963436D01*
X97644259Y-83844364D01*
X97699062Y-83712058D01*
X97727000Y-83571603D01*
X97727000Y-83428397D01*
X97724317Y-83414907D01*
X98303906Y-82835318D01*
X98321159Y-82821159D01*
X98377643Y-82752333D01*
X98419614Y-82673810D01*
X98432135Y-82632535D01*
X98445460Y-82588608D01*
X98454187Y-82500000D01*
X98452000Y-82477795D01*
X98452000Y-81728385D01*
X98514103Y-81722268D01*
X98575743Y-81703570D01*
X98632550Y-81673206D01*
X98682343Y-81632343D01*
X98723206Y-81582550D01*
X98753570Y-81525743D01*
X98772268Y-81464103D01*
X98778582Y-81400000D01*
X98778582Y-80902807D01*
X99179683Y-81303910D01*
X99193839Y-81321159D01*
X99262665Y-81377643D01*
X99269417Y-81381252D01*
X99246430Y-81424257D01*
X99227732Y-81485897D01*
X99221418Y-81550000D01*
X99221418Y-82350000D01*
X99227732Y-82414103D01*
X99246430Y-82475743D01*
X99276794Y-82532550D01*
X99317657Y-82582343D01*
X99367450Y-82623206D01*
X99424257Y-82653570D01*
X99485897Y-82672268D01*
X99550000Y-82678582D01*
X100450000Y-82678582D01*
X100514103Y-82672268D01*
X100575743Y-82653570D01*
X100632550Y-82623206D01*
X100682343Y-82582343D01*
X100723206Y-82532550D01*
X100753570Y-82475743D01*
X100772268Y-82414103D01*
X100777928Y-82356638D01*
X100821159Y-82321159D01*
X100835323Y-82303900D01*
X101414907Y-81724317D01*
X101428397Y-81727000D01*
X101571603Y-81727000D01*
X101712058Y-81699062D01*
X101844364Y-81644259D01*
X101963436Y-81564698D01*
X102064698Y-81463436D01*
X102144259Y-81344364D01*
X102199062Y-81212058D01*
X102227000Y-81071603D01*
X102227000Y-80928397D01*
X102199062Y-80787942D01*
X102144259Y-80655636D01*
X102064698Y-80536564D01*
X102030134Y-80502000D01*
X102362777Y-80502000D01*
X102775683Y-80914907D01*
X102773000Y-80928397D01*
X102773000Y-81071603D01*
X102800938Y-81212058D01*
X102855741Y-81344364D01*
X102935302Y-81463436D01*
X102969866Y-81498000D01*
X102572204Y-81498000D01*
X102549999Y-81495813D01*
X102461392Y-81504540D01*
X102441562Y-81510556D01*
X102376190Y-81530386D01*
X102297667Y-81572357D01*
X102228841Y-81628841D01*
X102214685Y-81646090D01*
X101389359Y-82471418D01*
X101149999Y-82471418D01*
X101037123Y-82482535D01*
X100928586Y-82515460D01*
X100828557Y-82568926D01*
X100740880Y-82640880D01*
X100668926Y-82728557D01*
X100615460Y-82828586D01*
X100582535Y-82937123D01*
X100571418Y-83049999D01*
X100571418Y-83950001D01*
X100582535Y-84062877D01*
X100615460Y-84171414D01*
X100668926Y-84271443D01*
X100740880Y-84359120D01*
X100828557Y-84431074D01*
X100928586Y-84484540D01*
X101037123Y-84517465D01*
X101149999Y-84528582D01*
X101800001Y-84528582D01*
X101835711Y-84525065D01*
X101389359Y-84971418D01*
X101149999Y-84971418D01*
X101037123Y-84982535D01*
X100928586Y-85015460D01*
X100828557Y-85068926D01*
X100740880Y-85140880D01*
X100668926Y-85228557D01*
X100615460Y-85328586D01*
X100582535Y-85437123D01*
X100571418Y-85549999D01*
X100571418Y-86450001D01*
X100582535Y-86562877D01*
X100615460Y-86671414D01*
X100668926Y-86771443D01*
X100740880Y-86859120D01*
X100828557Y-86931074D01*
X100928586Y-86984540D01*
X101037123Y-87017465D01*
X101047635Y-87018500D01*
X101054540Y-87088607D01*
X101064778Y-87122357D01*
X101080386Y-87173809D01*
X101122357Y-87252332D01*
X101178841Y-87321159D01*
X101196100Y-87335323D01*
X101664681Y-87803905D01*
X101678841Y-87821159D01*
X101747667Y-87877643D01*
X101816458Y-87914412D01*
X101826190Y-87919614D01*
X101911392Y-87945460D01*
X102000000Y-87954187D01*
X102022205Y-87952000D01*
X112877795Y-87952000D01*
X112900000Y-87954187D01*
X112922205Y-87952000D01*
X117477795Y-87952000D01*
X117500000Y-87954187D01*
X117522205Y-87952000D01*
X117588607Y-87945460D01*
X117673810Y-87919614D01*
X117752333Y-87877643D01*
X117821159Y-87821159D01*
X117835323Y-87803900D01*
X117960641Y-87678582D01*
X118450000Y-87678582D01*
X118514103Y-87672268D01*
X118575743Y-87653570D01*
X118632550Y-87623206D01*
X118682343Y-87582343D01*
X118723206Y-87532550D01*
X118753570Y-87475743D01*
X118772268Y-87414103D01*
X118778582Y-87350000D01*
X118778582Y-86550000D01*
X118772268Y-86485897D01*
X118753570Y-86424257D01*
X118723206Y-86367450D01*
X118682343Y-86317657D01*
X118632550Y-86276794D01*
X118575743Y-86246430D01*
X118514103Y-86227732D01*
X118450000Y-86221418D01*
X117550000Y-86221418D01*
X117485897Y-86227732D01*
X117424257Y-86246430D01*
X117367450Y-86276794D01*
X117317657Y-86317657D01*
X117276794Y-86367450D01*
X117246430Y-86424257D01*
X117227732Y-86485897D01*
X117221418Y-86550000D01*
X117221418Y-87048000D01*
X113991223Y-87048000D01*
X114360642Y-86678582D01*
X114950000Y-86678582D01*
X115014103Y-86672268D01*
X115075743Y-86653570D01*
X115132550Y-86623206D01*
X115182343Y-86582343D01*
X115223206Y-86532550D01*
X115239339Y-86502367D01*
X115246430Y-86525743D01*
X115276794Y-86582550D01*
X115317657Y-86632343D01*
X115367450Y-86673206D01*
X115424257Y-86703570D01*
X115485897Y-86722268D01*
X115550000Y-86728582D01*
X116450000Y-86728582D01*
X116514103Y-86722268D01*
X116575743Y-86703570D01*
X116632550Y-86673206D01*
X116682343Y-86632343D01*
X116723206Y-86582550D01*
X116753570Y-86525743D01*
X116772268Y-86464103D01*
X116778582Y-86400000D01*
X116778582Y-85600000D01*
X116772268Y-85535897D01*
X116753570Y-85474257D01*
X116723206Y-85417450D01*
X116682343Y-85367657D01*
X116632550Y-85326794D01*
X116575743Y-85296430D01*
X116514103Y-85277732D01*
X116452000Y-85271615D01*
X116452000Y-84650000D01*
X117221418Y-84650000D01*
X117221418Y-85450000D01*
X117227732Y-85514103D01*
X117246430Y-85575743D01*
X117276794Y-85632550D01*
X117317657Y-85682343D01*
X117367450Y-85723206D01*
X117424257Y-85753570D01*
X117485897Y-85772268D01*
X117550000Y-85778582D01*
X118450000Y-85778582D01*
X118514103Y-85772268D01*
X118575743Y-85753570D01*
X118632550Y-85723206D01*
X118682343Y-85682343D01*
X118723206Y-85632550D01*
X118753570Y-85575743D01*
X118772268Y-85514103D01*
X118778582Y-85450000D01*
X118778582Y-84650000D01*
X118772268Y-84585897D01*
X118753570Y-84524257D01*
X118723206Y-84467450D01*
X118682343Y-84417657D01*
X118648962Y-84390262D01*
X118717348Y-84321875D01*
X118728557Y-84331074D01*
X118828586Y-84384540D01*
X118937123Y-84417465D01*
X119049999Y-84428582D01*
X119950001Y-84428582D01*
X120062877Y-84417465D01*
X120171414Y-84384540D01*
X120271443Y-84331074D01*
X120359120Y-84259120D01*
X120431074Y-84171443D01*
X120484540Y-84071414D01*
X120517465Y-83962877D01*
X120528582Y-83850001D01*
X120528582Y-83199999D01*
X120517465Y-83087123D01*
X120484540Y-82978586D01*
X120431074Y-82878557D01*
X120359120Y-82790880D01*
X120271443Y-82718926D01*
X120171414Y-82665460D01*
X120062877Y-82632535D01*
X119950001Y-82621418D01*
X119049999Y-82621418D01*
X118937123Y-82632535D01*
X118828586Y-82665460D01*
X118728557Y-82718926D01*
X118640880Y-82790880D01*
X118568926Y-82878557D01*
X118515460Y-82978586D01*
X118482535Y-83087123D01*
X118471418Y-83199999D01*
X118471418Y-83289357D01*
X117696096Y-84064681D01*
X117678842Y-84078841D01*
X117642433Y-84123206D01*
X117622358Y-84147667D01*
X117580386Y-84226191D01*
X117554540Y-84311393D01*
X117553553Y-84321418D01*
X117550000Y-84321418D01*
X117485897Y-84327732D01*
X117424257Y-84346430D01*
X117367450Y-84376794D01*
X117317657Y-84417657D01*
X117276794Y-84467450D01*
X117246430Y-84524257D01*
X117227732Y-84585897D01*
X117221418Y-84650000D01*
X116452000Y-84650000D01*
X116452000Y-82528385D01*
X116514103Y-82522268D01*
X116575743Y-82503570D01*
X116632550Y-82473206D01*
X116682343Y-82432343D01*
X116723206Y-82382550D01*
X116753570Y-82325743D01*
X116772268Y-82264103D01*
X116778582Y-82200000D01*
X116778582Y-81400000D01*
X116772268Y-81335897D01*
X116761986Y-81302000D01*
X117127795Y-81302000D01*
X117150000Y-81304187D01*
X117172205Y-81302000D01*
X117238607Y-81295460D01*
X117323810Y-81269614D01*
X117402333Y-81227643D01*
X117471159Y-81171159D01*
X117485323Y-81153900D01*
X118547867Y-80091357D01*
X118561392Y-80095460D01*
X118571418Y-80096447D01*
X118571418Y-80100000D01*
X118577732Y-80164103D01*
X118596430Y-80225743D01*
X118626794Y-80282550D01*
X118667657Y-80332343D01*
X118717450Y-80373206D01*
X118774257Y-80403570D01*
X118835897Y-80422268D01*
X118900000Y-80428582D01*
X120100000Y-80428582D01*
X120164103Y-80422268D01*
X120225743Y-80403570D01*
X120282550Y-80373206D01*
X120332343Y-80332343D01*
X120373206Y-80282550D01*
X120403570Y-80225743D01*
X120422268Y-80164103D01*
X120428582Y-80100000D01*
X120428582Y-79200000D01*
X120422268Y-79135897D01*
X120403570Y-79074257D01*
X120373206Y-79017450D01*
X120332343Y-78967657D01*
X120282550Y-78926794D01*
X120225743Y-78896430D01*
X120164103Y-78877732D01*
X120100000Y-78871418D01*
X118900000Y-78871418D01*
X118835897Y-78877732D01*
X118774257Y-78896430D01*
X118717450Y-78926794D01*
X118667657Y-78967657D01*
X118640262Y-79001039D01*
X118452000Y-78812777D01*
X118452000Y-71687223D01*
X119010642Y-71128582D01*
X120100000Y-71128582D01*
X120164103Y-71122268D01*
X120225743Y-71103570D01*
X120282550Y-71073206D01*
X120332343Y-71032343D01*
X120373206Y-70982550D01*
X120403570Y-70925743D01*
X120422268Y-70864103D01*
X120428582Y-70800000D01*
X120428582Y-69900000D01*
X120422268Y-69835897D01*
X120403570Y-69774257D01*
X120373206Y-69717450D01*
X120332343Y-69667657D01*
X120282550Y-69626794D01*
X120225743Y-69596430D01*
X120164103Y-69577732D01*
X120100000Y-69571418D01*
X118900000Y-69571418D01*
X118835897Y-69577732D01*
X118774257Y-69596430D01*
X118717450Y-69626794D01*
X118667657Y-69667657D01*
X118626794Y-69717450D01*
X118596430Y-69774257D01*
X118577732Y-69835897D01*
X118571418Y-69900000D01*
X118571418Y-70289358D01*
X117696096Y-71164681D01*
X117678842Y-71178841D01*
X117638667Y-71227795D01*
X117622358Y-71247667D01*
X117580386Y-71326191D01*
X117554540Y-71411393D01*
X117545813Y-71500000D01*
X117548001Y-71522215D01*
X117548001Y-73838015D01*
X117514103Y-73827732D01*
X117450000Y-73821418D01*
X117261501Y-73821418D01*
X117212058Y-73800938D01*
X117071603Y-73773000D01*
X116928397Y-73773000D01*
X116787942Y-73800938D01*
X116738499Y-73821418D01*
X116550000Y-73821418D01*
X116485897Y-73827732D01*
X116452000Y-73838014D01*
X116452000Y-70972202D01*
X116454187Y-70949999D01*
X116451194Y-70919614D01*
X116445460Y-70861393D01*
X116419614Y-70776190D01*
X116377643Y-70697667D01*
X116321159Y-70628841D01*
X116303912Y-70614687D01*
X114778582Y-69089359D01*
X114778582Y-68600000D01*
X114772268Y-68535897D01*
X114753570Y-68474257D01*
X114723206Y-68417450D01*
X114682343Y-68367657D01*
X114632550Y-68326794D01*
X114575743Y-68296430D01*
X114514103Y-68277732D01*
X114450000Y-68271418D01*
X113550000Y-68271418D01*
X113485897Y-68277732D01*
X113424257Y-68296430D01*
X113367450Y-68326794D01*
X113317657Y-68367657D01*
X113276794Y-68417450D01*
X113246430Y-68474257D01*
X113227732Y-68535897D01*
X113221418Y-68600000D01*
X113221418Y-69400000D01*
X113227732Y-69464103D01*
X113246430Y-69525743D01*
X113276794Y-69582550D01*
X113317657Y-69632343D01*
X113367450Y-69673206D01*
X113424257Y-69703570D01*
X113485897Y-69722268D01*
X113550000Y-69728582D01*
X114139359Y-69728582D01*
X115548000Y-71137225D01*
X115548000Y-71519866D01*
X115463436Y-71435302D01*
X115344364Y-71355741D01*
X115212058Y-71300938D01*
X115071603Y-71273000D01*
X114928397Y-71273000D01*
X114787942Y-71300938D01*
X114655636Y-71355741D01*
X114536564Y-71435302D01*
X114435302Y-71536564D01*
X114355741Y-71655636D01*
X114300938Y-71787942D01*
X114273000Y-71928397D01*
X114273000Y-72071603D01*
X114300938Y-72212058D01*
X114355741Y-72344364D01*
X114435302Y-72463436D01*
X114491321Y-72519455D01*
X113962777Y-73048000D01*
X108072339Y-73048000D01*
X108064698Y-73036564D01*
X107963436Y-72935302D01*
X107952000Y-72927661D01*
X107952000Y-71928385D01*
X108062877Y-71917465D01*
X108171414Y-71884540D01*
X108271443Y-71831074D01*
X108359120Y-71759120D01*
X108431074Y-71671443D01*
X108484540Y-71571414D01*
X108517465Y-71462877D01*
X108528582Y-71350001D01*
X108528582Y-70699999D01*
X108517465Y-70587123D01*
X108484540Y-70478586D01*
X108431074Y-70378557D01*
X108359120Y-70290880D01*
X108271443Y-70218926D01*
X108171414Y-70165460D01*
X108062877Y-70132535D01*
X107950001Y-70121418D01*
X107049999Y-70121418D01*
X106937123Y-70132535D01*
X106828586Y-70165460D01*
X106728557Y-70218926D01*
X106640880Y-70290880D01*
X106568926Y-70378557D01*
X106515460Y-70478586D01*
X106482535Y-70587123D01*
X106471418Y-70699999D01*
X106471418Y-71350001D01*
X106482535Y-71462877D01*
X106515460Y-71571414D01*
X106568926Y-71671443D01*
X106640880Y-71759120D01*
X106728557Y-71831074D01*
X106828586Y-71884540D01*
X106937123Y-71917465D01*
X107048001Y-71928385D01*
X107048000Y-72927661D01*
X107036564Y-72935302D01*
X106935302Y-73036564D01*
X106855741Y-73155636D01*
X106800938Y-73287942D01*
X106773000Y-73428397D01*
X106773000Y-73571603D01*
X106800938Y-73712058D01*
X106855741Y-73844364D01*
X106935302Y-73963436D01*
X107036564Y-74064698D01*
X107155636Y-74144259D01*
X107287942Y-74199062D01*
X107428397Y-74227000D01*
X107571603Y-74227000D01*
X107712058Y-74199062D01*
X107844364Y-74144259D01*
X107963436Y-74064698D01*
X108064698Y-73963436D01*
X108072339Y-73952000D01*
X114127795Y-73952000D01*
X114150000Y-73954187D01*
X114172205Y-73952000D01*
X114238607Y-73945460D01*
X114323810Y-73919614D01*
X114402333Y-73877643D01*
X114471159Y-73821159D01*
X114485323Y-73803900D01*
X115303906Y-72985318D01*
X115321159Y-72971159D01*
X115377643Y-72902333D01*
X115419614Y-72823810D01*
X115435027Y-72773000D01*
X115445460Y-72738608D01*
X115454187Y-72650000D01*
X115452000Y-72627795D01*
X115452000Y-72572339D01*
X115463436Y-72564698D01*
X115548000Y-72480134D01*
X115548001Y-74788015D01*
X115514103Y-74777732D01*
X115450000Y-74771418D01*
X114550000Y-74771418D01*
X114485897Y-74777732D01*
X114424257Y-74796430D01*
X114367450Y-74826794D01*
X114317657Y-74867657D01*
X114276794Y-74917450D01*
X114246430Y-74974257D01*
X114227732Y-75035897D01*
X114221418Y-75100000D01*
X114221418Y-75900000D01*
X114227732Y-75964103D01*
X114246430Y-76025743D01*
X114276794Y-76082550D01*
X114317657Y-76132343D01*
X114367450Y-76173206D01*
X114424257Y-76203570D01*
X114485897Y-76222268D01*
X114550000Y-76228582D01*
X115450000Y-76228582D01*
X115514103Y-76222268D01*
X115548001Y-76211985D01*
X115548001Y-77477785D01*
X115545813Y-77500000D01*
X115548001Y-77522215D01*
X115548000Y-79171615D01*
X115485897Y-79177732D01*
X115424257Y-79196430D01*
X115367450Y-79226794D01*
X115317657Y-79267657D01*
X115276794Y-79317450D01*
X115246430Y-79374257D01*
X115227732Y-79435897D01*
X115221418Y-79500000D01*
X115221418Y-80300000D01*
X115227732Y-80364103D01*
X115238014Y-80398000D01*
X114773460Y-80398000D01*
X114772268Y-80385897D01*
X114753570Y-80324257D01*
X114723206Y-80267450D01*
X114682343Y-80217657D01*
X114632550Y-80176794D01*
X114575743Y-80146430D01*
X114514103Y-80127732D01*
X114450000Y-80121418D01*
X113550000Y-80121418D01*
X113485897Y-80127732D01*
X113424257Y-80146430D01*
X113367450Y-80176794D01*
X113317657Y-80217657D01*
X113276794Y-80267450D01*
X113246430Y-80324257D01*
X113227732Y-80385897D01*
X113221418Y-80450000D01*
X113221418Y-81250000D01*
X113227732Y-81314103D01*
X113246430Y-81375743D01*
X113276794Y-81432550D01*
X113317657Y-81482343D01*
X113367450Y-81523206D01*
X113424257Y-81553570D01*
X113485897Y-81572268D01*
X113550000Y-81578582D01*
X114450000Y-81578582D01*
X114514103Y-81572268D01*
X114575743Y-81553570D01*
X114632550Y-81523206D01*
X114682343Y-81482343D01*
X114723206Y-81432550D01*
X114753570Y-81375743D01*
X114772268Y-81314103D01*
X114773460Y-81302000D01*
X115238014Y-81302000D01*
X115227732Y-81335897D01*
X115221418Y-81400000D01*
X115221418Y-82200000D01*
X115227732Y-82264103D01*
X115246430Y-82325743D01*
X115276794Y-82382550D01*
X115317657Y-82432343D01*
X115351038Y-82459737D01*
X114489359Y-83321418D01*
X114050000Y-83321418D01*
X113985897Y-83327732D01*
X113924257Y-83346430D01*
X113867450Y-83376794D01*
X113817657Y-83417657D01*
X113776794Y-83467450D01*
X113746430Y-83524257D01*
X113727732Y-83585897D01*
X113721418Y-83650000D01*
X113721418Y-84450000D01*
X113727732Y-84514103D01*
X113746430Y-84575743D01*
X113776794Y-84632550D01*
X113817657Y-84682343D01*
X113867450Y-84723206D01*
X113924257Y-84753570D01*
X113985897Y-84772268D01*
X114050000Y-84778582D01*
X114950000Y-84778582D01*
X115014103Y-84772268D01*
X115075743Y-84753570D01*
X115132550Y-84723206D01*
X115182343Y-84682343D01*
X115223206Y-84632550D01*
X115253570Y-84575743D01*
X115272268Y-84514103D01*
X115278582Y-84450000D01*
X115278582Y-83810642D01*
X115548001Y-83541223D01*
X115548000Y-85271615D01*
X115485897Y-85277732D01*
X115424257Y-85296430D01*
X115367450Y-85326794D01*
X115317657Y-85367657D01*
X115276794Y-85417450D01*
X115260661Y-85447633D01*
X115253570Y-85424257D01*
X115223206Y-85367450D01*
X115182343Y-85317657D01*
X115132550Y-85276794D01*
X115075743Y-85246430D01*
X115014103Y-85227732D01*
X114950000Y-85221418D01*
X114050000Y-85221418D01*
X113985897Y-85227732D01*
X113924257Y-85246430D01*
X113867450Y-85276794D01*
X113817657Y-85317657D01*
X113776794Y-85367450D01*
X113746430Y-85424257D01*
X113727732Y-85485897D01*
X113721418Y-85550000D01*
X113721418Y-86039358D01*
X112712777Y-87048000D01*
X102187224Y-87048000D01*
X102088113Y-86948889D01*
X102121443Y-86931074D01*
X102209120Y-86859120D01*
X102281074Y-86771443D01*
X102334540Y-86671414D01*
X102367465Y-86562877D01*
X102378582Y-86450001D01*
X102378582Y-85549999D01*
X102367465Y-85437123D01*
X102334540Y-85328586D01*
X102326214Y-85313009D01*
X103118654Y-84520570D01*
X103199999Y-84528582D01*
X103850001Y-84528582D01*
X103962877Y-84517465D01*
X104071414Y-84484540D01*
X104171443Y-84431074D01*
X104259120Y-84359120D01*
X104331074Y-84271443D01*
X104384540Y-84171414D01*
X104417465Y-84062877D01*
X104428582Y-83950001D01*
X104428582Y-83426990D01*
X105387807Y-83426990D01*
X105410012Y-83429177D01*
X105432217Y-83426990D01*
X105498619Y-83420450D01*
X105583822Y-83394604D01*
X105662345Y-83352633D01*
X105731171Y-83296149D01*
X105745335Y-83278890D01*
X106078912Y-82945315D01*
X106096160Y-82931160D01*
X106152644Y-82862334D01*
X106194615Y-82783811D01*
X106219331Y-82702333D01*
X106220461Y-82698609D01*
X106229188Y-82610002D01*
X106227001Y-82587797D01*
X106227001Y-81456682D01*
X106227732Y-81464103D01*
X106246430Y-81525743D01*
X106276794Y-81582550D01*
X106317657Y-81632343D01*
X106367450Y-81673206D01*
X106424257Y-81703570D01*
X106485897Y-81722268D01*
X106550000Y-81728582D01*
X107073001Y-81728582D01*
X107073000Y-82986819D01*
X106978586Y-83015460D01*
X106878557Y-83068926D01*
X106790880Y-83140880D01*
X106718926Y-83228557D01*
X106665460Y-83328586D01*
X106632535Y-83437123D01*
X106621418Y-83549999D01*
X106621418Y-84450001D01*
X106632535Y-84562877D01*
X106665460Y-84671414D01*
X106718926Y-84771443D01*
X106790880Y-84859120D01*
X106878557Y-84931074D01*
X106978586Y-84984540D01*
X107087123Y-85017465D01*
X107199999Y-85028582D01*
X107732195Y-85028582D01*
X107712777Y-85048000D01*
X104132293Y-85048000D01*
X104071414Y-85015460D01*
X103962877Y-84982535D01*
X103850001Y-84971418D01*
X103199999Y-84971418D01*
X103087123Y-84982535D01*
X102978586Y-85015460D01*
X102878557Y-85068926D01*
X102790880Y-85140880D01*
X102718926Y-85228557D01*
X102665460Y-85328586D01*
X102632535Y-85437123D01*
X102621418Y-85549999D01*
X102621418Y-86450001D01*
X102632535Y-86562877D01*
X102665460Y-86671414D01*
X102718926Y-86771443D01*
X102790880Y-86859120D01*
X102878557Y-86931074D01*
X102978586Y-86984540D01*
X103087123Y-87017465D01*
X103199999Y-87028582D01*
X103850001Y-87028582D01*
X103962877Y-87017465D01*
X104071414Y-86984540D01*
X104171443Y-86931074D01*
X104259120Y-86859120D01*
X104331074Y-86771443D01*
X104384540Y-86671414D01*
X104417465Y-86562877D01*
X104428582Y-86450001D01*
X104428582Y-85952000D01*
X107877795Y-85952000D01*
X107900000Y-85954187D01*
X107922205Y-85952000D01*
X107988607Y-85945460D01*
X108073810Y-85919614D01*
X108130807Y-85889149D01*
X108123000Y-85928397D01*
X108123000Y-86071603D01*
X108150938Y-86212058D01*
X108205741Y-86344364D01*
X108285302Y-86463436D01*
X108386564Y-86564698D01*
X108505636Y-86644259D01*
X108637942Y-86699062D01*
X108778397Y-86727000D01*
X108921603Y-86727000D01*
X109062058Y-86699062D01*
X109194364Y-86644259D01*
X109313436Y-86564698D01*
X109414698Y-86463436D01*
X109494259Y-86344364D01*
X109549062Y-86212058D01*
X109577000Y-86071603D01*
X109577000Y-86062223D01*
X110187224Y-85452000D01*
X111726540Y-85452000D01*
X111727732Y-85464103D01*
X111746430Y-85525743D01*
X111776794Y-85582550D01*
X111817657Y-85632343D01*
X111867450Y-85673206D01*
X111924257Y-85703570D01*
X111985897Y-85722268D01*
X112050000Y-85728582D01*
X112950000Y-85728582D01*
X113014103Y-85722268D01*
X113075743Y-85703570D01*
X113132550Y-85673206D01*
X113182343Y-85632343D01*
X113223206Y-85582550D01*
X113253570Y-85525743D01*
X113272268Y-85464103D01*
X113278582Y-85400000D01*
X113278582Y-84600000D01*
X113272268Y-84535897D01*
X113253570Y-84474257D01*
X113223206Y-84417450D01*
X113182343Y-84367657D01*
X113132550Y-84326794D01*
X113075743Y-84296430D01*
X113014103Y-84277732D01*
X112950000Y-84271418D01*
X112050000Y-84271418D01*
X111985897Y-84277732D01*
X111924257Y-84296430D01*
X111867450Y-84326794D01*
X111817657Y-84367657D01*
X111776794Y-84417450D01*
X111746430Y-84474257D01*
X111727732Y-84535897D01*
X111726540Y-84548000D01*
X110022205Y-84548000D01*
X110000000Y-84545813D01*
X109911392Y-84554540D01*
X109841496Y-84575743D01*
X109826190Y-84580386D01*
X109747667Y-84622357D01*
X109678841Y-84678841D01*
X109664681Y-84696095D01*
X109060207Y-85300570D01*
X108921603Y-85273000D01*
X108778397Y-85273000D01*
X108763201Y-85276023D01*
X109860642Y-84178582D01*
X110450000Y-84178582D01*
X110514103Y-84172268D01*
X110575743Y-84153570D01*
X110632550Y-84123206D01*
X110682343Y-84082343D01*
X110723206Y-84032550D01*
X110753570Y-83975743D01*
X110772268Y-83914103D01*
X110778582Y-83850000D01*
X110778582Y-83050000D01*
X110772268Y-82985897D01*
X110753570Y-82924257D01*
X110723206Y-82867450D01*
X110682343Y-82817657D01*
X110632550Y-82776794D01*
X110575743Y-82746430D01*
X110514103Y-82727732D01*
X110450000Y-82721418D01*
X109550000Y-82721418D01*
X109485897Y-82727732D01*
X109424257Y-82746430D01*
X109367450Y-82776794D01*
X109317657Y-82817657D01*
X109276794Y-82867450D01*
X109246430Y-82924257D01*
X109227732Y-82985897D01*
X109221418Y-83050000D01*
X109221418Y-83539358D01*
X108428582Y-84332195D01*
X108428582Y-83549999D01*
X108417465Y-83437123D01*
X108384540Y-83328586D01*
X108331074Y-83228557D01*
X108259120Y-83140880D01*
X108171443Y-83068926D01*
X108071414Y-83015460D01*
X107977000Y-82986819D01*
X107977000Y-81547204D01*
X107979187Y-81524999D01*
X107970460Y-81436392D01*
X107944614Y-81351190D01*
X107924434Y-81313436D01*
X107902643Y-81272667D01*
X107846159Y-81203841D01*
X107828910Y-81189685D01*
X107789225Y-81150000D01*
X109221418Y-81150000D01*
X109221418Y-81950000D01*
X109227732Y-82014103D01*
X109246430Y-82075743D01*
X109276794Y-82132550D01*
X109317657Y-82182343D01*
X109367450Y-82223206D01*
X109424257Y-82253570D01*
X109485897Y-82272268D01*
X109550000Y-82278582D01*
X110450000Y-82278582D01*
X110514103Y-82272268D01*
X110575743Y-82253570D01*
X110632550Y-82223206D01*
X110682343Y-82182343D01*
X110723206Y-82132550D01*
X110753570Y-82075743D01*
X110772268Y-82014103D01*
X110773460Y-82002000D01*
X111238014Y-82002000D01*
X111227732Y-82035897D01*
X111221418Y-82100000D01*
X111221418Y-82900000D01*
X111227732Y-82964103D01*
X111246430Y-83025743D01*
X111276794Y-83082550D01*
X111317657Y-83132343D01*
X111367450Y-83173206D01*
X111424257Y-83203570D01*
X111485897Y-83222268D01*
X111550000Y-83228582D01*
X112450000Y-83228582D01*
X112514103Y-83222268D01*
X112575743Y-83203570D01*
X112632550Y-83173206D01*
X112682343Y-83132343D01*
X112723206Y-83082550D01*
X112753570Y-83025743D01*
X112772268Y-82964103D01*
X112778582Y-82900000D01*
X112778582Y-82100000D01*
X112772268Y-82035897D01*
X112753570Y-81974257D01*
X112723206Y-81917450D01*
X112682343Y-81867657D01*
X112632550Y-81826794D01*
X112575743Y-81796430D01*
X112514103Y-81777732D01*
X112450000Y-81771418D01*
X112446447Y-81771418D01*
X112445460Y-81761392D01*
X112419614Y-81676190D01*
X112418019Y-81673206D01*
X112377643Y-81597667D01*
X112321159Y-81528841D01*
X112303906Y-81514682D01*
X112035323Y-81246100D01*
X112021159Y-81228841D01*
X111952333Y-81172357D01*
X111873810Y-81130386D01*
X111788607Y-81104540D01*
X111722205Y-81098000D01*
X111700000Y-81095813D01*
X111677795Y-81098000D01*
X110773460Y-81098000D01*
X110772268Y-81085897D01*
X110753570Y-81024257D01*
X110723206Y-80967450D01*
X110682343Y-80917657D01*
X110632550Y-80876794D01*
X110575743Y-80846430D01*
X110514103Y-80827732D01*
X110450000Y-80821418D01*
X109550000Y-80821418D01*
X109485897Y-80827732D01*
X109424257Y-80846430D01*
X109367450Y-80876794D01*
X109317657Y-80917657D01*
X109276794Y-80967450D01*
X109246430Y-81024257D01*
X109227732Y-81085897D01*
X109221418Y-81150000D01*
X107789225Y-81150000D01*
X107778582Y-81139357D01*
X107778582Y-80600000D01*
X107772268Y-80535897D01*
X107753570Y-80474257D01*
X107723206Y-80417450D01*
X107682343Y-80367657D01*
X107632550Y-80326794D01*
X107575743Y-80296430D01*
X107514103Y-80277732D01*
X107450000Y-80271418D01*
X106550000Y-80271418D01*
X106485897Y-80277732D01*
X106424257Y-80296430D01*
X106367450Y-80326794D01*
X106317657Y-80367657D01*
X106276794Y-80417450D01*
X106246430Y-80474257D01*
X106227732Y-80535897D01*
X106221418Y-80600000D01*
X106221418Y-81211108D01*
X106220461Y-81201391D01*
X106194615Y-81116189D01*
X106188841Y-81105386D01*
X106152644Y-81037666D01*
X106096160Y-80968840D01*
X106078911Y-80954684D01*
X105734899Y-80610674D01*
X105753570Y-80575743D01*
X105772268Y-80514103D01*
X105778582Y-80450000D01*
X105778582Y-79650000D01*
X105772268Y-79585897D01*
X105753570Y-79524257D01*
X105723206Y-79467450D01*
X105682343Y-79417657D01*
X105632550Y-79376794D01*
X105575743Y-79346430D01*
X105514103Y-79327732D01*
X105450000Y-79321418D01*
X105312114Y-79321418D01*
X105303906Y-79314682D01*
X104648961Y-78659738D01*
X104682343Y-78632343D01*
X104723206Y-78582550D01*
X104753570Y-78525743D01*
X104772268Y-78464103D01*
X104778582Y-78400000D01*
X104778582Y-77600000D01*
X104772268Y-77535897D01*
X104753570Y-77474257D01*
X104723206Y-77417450D01*
X104682343Y-77367657D01*
X104648961Y-77340262D01*
X105110826Y-76878397D01*
X107273000Y-76878397D01*
X107273000Y-77021603D01*
X107300938Y-77162058D01*
X107355741Y-77294364D01*
X107435302Y-77413436D01*
X107536564Y-77514698D01*
X107655636Y-77594259D01*
X107787942Y-77649062D01*
X107928397Y-77677000D01*
X108071603Y-77677000D01*
X108212058Y-77649062D01*
X108344364Y-77594259D01*
X108463436Y-77514698D01*
X108564698Y-77413436D01*
X108572339Y-77402000D01*
X113394252Y-77402000D01*
X113435302Y-77463436D01*
X113536564Y-77564698D01*
X113655636Y-77644259D01*
X113787942Y-77699062D01*
X113928397Y-77727000D01*
X114071603Y-77727000D01*
X114212058Y-77699062D01*
X114344364Y-77644259D01*
X114463436Y-77564698D01*
X114564698Y-77463436D01*
X114644259Y-77344364D01*
X114699062Y-77212058D01*
X114727000Y-77071603D01*
X114727000Y-76928397D01*
X114699062Y-76787942D01*
X114644259Y-76655636D01*
X114564698Y-76536564D01*
X114463436Y-76435302D01*
X114344364Y-76355741D01*
X114212058Y-76300938D01*
X114071603Y-76273000D01*
X113928397Y-76273000D01*
X113787942Y-76300938D01*
X113655636Y-76355741D01*
X113536564Y-76435302D01*
X113473866Y-76498000D01*
X108572339Y-76498000D01*
X108564698Y-76486564D01*
X108463436Y-76385302D01*
X108344364Y-76305741D01*
X108212058Y-76250938D01*
X108071603Y-76223000D01*
X107928397Y-76223000D01*
X107787942Y-76250938D01*
X107655636Y-76305741D01*
X107536564Y-76385302D01*
X107435302Y-76486564D01*
X107355741Y-76605636D01*
X107300938Y-76737942D01*
X107273000Y-76878397D01*
X105110826Y-76878397D01*
X105303906Y-76685318D01*
X105321159Y-76671159D01*
X105377643Y-76602333D01*
X105419614Y-76523810D01*
X105419614Y-76523809D01*
X105445460Y-76438608D01*
X105454187Y-76350000D01*
X105452000Y-76327795D01*
X105452000Y-76178385D01*
X105562877Y-76167465D01*
X105671414Y-76134540D01*
X105771443Y-76081074D01*
X105859120Y-76009120D01*
X105931074Y-75921443D01*
X105984540Y-75821414D01*
X106017465Y-75712877D01*
X106028582Y-75600001D01*
X106028582Y-74949999D01*
X106017465Y-74837123D01*
X105984540Y-74728586D01*
X105931074Y-74628557D01*
X105859120Y-74540880D01*
X105771443Y-74468926D01*
X105671414Y-74415460D01*
X105562877Y-74382535D01*
X105450001Y-74371418D01*
X104549999Y-74371418D01*
X104437123Y-74382535D01*
X104328586Y-74415460D01*
X104228557Y-74468926D01*
X104140880Y-74540880D01*
X104068926Y-74628557D01*
X104015460Y-74728586D01*
X104009571Y-74748000D01*
X103182898Y-74748000D01*
X103153206Y-74692450D01*
X103112343Y-74642657D01*
X103062550Y-74601794D01*
X103005743Y-74571430D01*
X102944103Y-74552732D01*
X102880000Y-74546418D01*
X101820000Y-74546418D01*
X101755897Y-74552732D01*
X101694257Y-74571430D01*
X101637450Y-74601794D01*
X101587657Y-74642657D01*
X101546794Y-74692450D01*
X101516430Y-74749257D01*
X101497732Y-74810897D01*
X101491418Y-74875000D01*
X101491418Y-75525000D01*
X101497732Y-75589103D01*
X101516430Y-75650743D01*
X101546794Y-75707550D01*
X101587657Y-75757343D01*
X101637450Y-75798206D01*
X101694257Y-75828570D01*
X101755897Y-75847268D01*
X101820000Y-75853582D01*
X102880000Y-75853582D01*
X102944103Y-75847268D01*
X103005743Y-75828570D01*
X103062550Y-75798206D01*
X103112343Y-75757343D01*
X103153206Y-75707550D01*
X103182898Y-75652000D01*
X103976539Y-75652000D01*
X103982535Y-75712877D01*
X104015460Y-75821414D01*
X104068926Y-75921443D01*
X104140880Y-76009120D01*
X104228557Y-76081074D01*
X104328586Y-76134540D01*
X104437123Y-76167465D01*
X104533791Y-76176986D01*
X103696096Y-77014681D01*
X103678842Y-77028841D01*
X103642433Y-77073206D01*
X103622358Y-77097667D01*
X103580386Y-77176191D01*
X103554540Y-77261393D01*
X103553553Y-77271418D01*
X103550000Y-77271418D01*
X103485897Y-77277732D01*
X103424257Y-77296430D01*
X103367450Y-77326794D01*
X103317657Y-77367657D01*
X103276794Y-77417450D01*
X103246430Y-77474257D01*
X103227732Y-77535897D01*
X103223015Y-77583791D01*
X102778582Y-77139359D01*
X102778582Y-76650000D01*
X102772268Y-76585897D01*
X102753570Y-76524257D01*
X102723206Y-76467450D01*
X102682343Y-76417657D01*
X102632550Y-76376794D01*
X102575743Y-76346430D01*
X102514103Y-76327732D01*
X102450000Y-76321418D01*
X101550000Y-76321418D01*
X101485897Y-76327732D01*
X101424257Y-76346430D01*
X101367450Y-76376794D01*
X101317657Y-76417657D01*
X101276794Y-76467450D01*
X101246430Y-76524257D01*
X101227732Y-76585897D01*
X101221418Y-76650000D01*
X101221418Y-77450000D01*
X101227732Y-77514103D01*
X101246430Y-77575743D01*
X101276794Y-77632550D01*
X101317657Y-77682343D01*
X101367450Y-77723206D01*
X101424257Y-77753570D01*
X101485897Y-77772268D01*
X101550000Y-77778582D01*
X102139359Y-77778582D01*
X102548001Y-78187225D01*
X102548001Y-78238015D01*
X102514103Y-78227732D01*
X102450000Y-78221418D01*
X101550000Y-78221418D01*
X101485897Y-78227732D01*
X101424257Y-78246430D01*
X101367450Y-78276794D01*
X101317657Y-78317657D01*
X101276794Y-78367450D01*
X101246430Y-78424257D01*
X101227732Y-78485897D01*
X101221615Y-78548000D01*
X99637203Y-78548000D01*
X99614998Y-78545813D01*
X99526390Y-78554540D01*
X99441188Y-78580386D01*
X99362665Y-78622357D01*
X99293839Y-78678841D01*
X99279679Y-78696095D01*
X98696096Y-79279679D01*
X98678842Y-79293839D01*
X98635962Y-79346089D01*
X98622358Y-79362665D01*
X98580386Y-79441189D01*
X98554540Y-79526391D01*
X98545813Y-79614998D01*
X98548001Y-79637213D01*
X98548000Y-80288014D01*
X98514103Y-80277732D01*
X98450000Y-80271418D01*
X97550000Y-80271418D01*
X97485897Y-80277732D01*
X97424257Y-80296430D01*
X97367450Y-80326794D01*
X97317657Y-80367657D01*
X97276794Y-80417450D01*
X97246430Y-80474257D01*
X97227732Y-80535897D01*
X97221418Y-80600000D01*
X97221418Y-81400000D01*
X97227732Y-81464103D01*
X97246430Y-81525743D01*
X97276794Y-81582550D01*
X97317657Y-81632343D01*
X97367450Y-81673206D01*
X97424257Y-81703570D01*
X97485897Y-81722268D01*
X97548001Y-81728385D01*
X97548000Y-82312776D01*
X97085093Y-82775683D01*
X97071603Y-82773000D01*
X96928397Y-82773000D01*
X96787942Y-82800938D01*
X96655636Y-82855741D01*
X96536564Y-82935302D01*
X96435302Y-83036564D01*
X96355741Y-83155636D01*
X96300938Y-83287942D01*
X96273000Y-83428397D01*
X89317000Y-83428397D01*
X89317000Y-79550000D01*
X92871418Y-79550000D01*
X92871418Y-81150000D01*
X92877732Y-81214103D01*
X92896430Y-81275743D01*
X92926794Y-81332550D01*
X92967657Y-81382343D01*
X93017450Y-81423206D01*
X93074257Y-81453570D01*
X93135897Y-81472268D01*
X93200000Y-81478582D01*
X94800000Y-81478582D01*
X94864103Y-81472268D01*
X94925743Y-81453570D01*
X94982550Y-81423206D01*
X95032343Y-81382343D01*
X95073206Y-81332550D01*
X95103570Y-81275743D01*
X95122268Y-81214103D01*
X95128582Y-81150000D01*
X95128582Y-79550000D01*
X95122268Y-79485897D01*
X95103570Y-79424257D01*
X95073206Y-79367450D01*
X95032343Y-79317657D01*
X94982550Y-79276794D01*
X94925743Y-79246430D01*
X94864103Y-79227732D01*
X94800000Y-79221418D01*
X93200000Y-79221418D01*
X93135897Y-79227732D01*
X93074257Y-79246430D01*
X93017450Y-79276794D01*
X92967657Y-79317657D01*
X92926794Y-79367450D01*
X92896430Y-79424257D01*
X92877732Y-79485897D01*
X92871418Y-79550000D01*
X89317000Y-79550000D01*
X89317000Y-65363590D01*
X92045813Y-65363590D01*
X92048000Y-65385795D01*
X92048001Y-71477786D01*
X92048000Y-71477796D01*
X92048001Y-74477785D01*
X92045813Y-74500000D01*
X92054540Y-74588607D01*
X92080386Y-74673809D01*
X92080387Y-74673810D01*
X92122358Y-74752333D01*
X92178842Y-74821159D01*
X92196096Y-74835319D01*
X92905583Y-75544807D01*
X92916310Y-75598734D01*
X93001266Y-75803835D01*
X93124602Y-75988421D01*
X93281579Y-76145398D01*
X93466165Y-76268734D01*
X93671266Y-76353690D01*
X93889000Y-76397000D01*
X94111000Y-76397000D01*
X94328734Y-76353690D01*
X94533835Y-76268734D01*
X94718421Y-76145398D01*
X94875398Y-75988421D01*
X94998734Y-75803835D01*
X95083690Y-75598734D01*
X95127000Y-75381000D01*
X95127000Y-75159000D01*
X95083690Y-74941266D01*
X94998734Y-74736165D01*
X94875398Y-74551579D01*
X94718421Y-74394602D01*
X94533835Y-74271266D01*
X94328734Y-74186310D01*
X94111000Y-74143000D01*
X93889000Y-74143000D01*
X93671266Y-74186310D01*
X93466165Y-74271266D01*
X93281579Y-74394602D01*
X93157702Y-74518479D01*
X92952000Y-74312777D01*
X92952000Y-73144897D01*
X93001266Y-73263835D01*
X93124602Y-73448421D01*
X93281579Y-73605398D01*
X93466165Y-73728734D01*
X93671266Y-73813690D01*
X93889000Y-73857000D01*
X94111000Y-73857000D01*
X94328734Y-73813690D01*
X94533835Y-73728734D01*
X94718421Y-73605398D01*
X94875398Y-73448421D01*
X94998734Y-73263835D01*
X95083690Y-73058734D01*
X95127000Y-72841000D01*
X95127000Y-72619000D01*
X95083690Y-72401266D01*
X94998734Y-72196165D01*
X94875398Y-72011579D01*
X94718421Y-71854602D01*
X94533835Y-71731266D01*
X94328734Y-71646310D01*
X94111000Y-71603000D01*
X93889000Y-71603000D01*
X93671266Y-71646310D01*
X93466165Y-71731266D01*
X93281579Y-71854602D01*
X93124602Y-72011579D01*
X93001266Y-72196165D01*
X92952000Y-72315103D01*
X92952000Y-70604897D01*
X93001266Y-70723835D01*
X93124602Y-70908421D01*
X93281579Y-71065398D01*
X93466165Y-71188734D01*
X93671266Y-71273690D01*
X93889000Y-71317000D01*
X94111000Y-71317000D01*
X94328734Y-71273690D01*
X94533835Y-71188734D01*
X94718421Y-71065398D01*
X94875398Y-70908421D01*
X94998734Y-70723835D01*
X95083690Y-70518734D01*
X95127000Y-70301000D01*
X95127000Y-70079000D01*
X95083690Y-69861266D01*
X94998734Y-69656165D01*
X94875398Y-69471579D01*
X94718421Y-69314602D01*
X94533835Y-69191266D01*
X94328734Y-69106310D01*
X94111000Y-69063000D01*
X93889000Y-69063000D01*
X93671266Y-69106310D01*
X93466165Y-69191266D01*
X93281579Y-69314602D01*
X93124602Y-69471579D01*
X93001266Y-69656165D01*
X92952000Y-69775103D01*
X92952000Y-68064897D01*
X93001266Y-68183835D01*
X93124602Y-68368421D01*
X93281579Y-68525398D01*
X93466165Y-68648734D01*
X93671266Y-68733690D01*
X93889000Y-68777000D01*
X94111000Y-68777000D01*
X94328734Y-68733690D01*
X94533835Y-68648734D01*
X94718421Y-68525398D01*
X94875398Y-68368421D01*
X94998734Y-68183835D01*
X95083690Y-67978734D01*
X95127000Y-67761000D01*
X95127000Y-67539000D01*
X95083690Y-67321266D01*
X94998734Y-67116165D01*
X94875398Y-66931579D01*
X94718421Y-66774602D01*
X94533835Y-66651266D01*
X94452000Y-66617369D01*
X94452000Y-64699999D01*
X96971418Y-64699999D01*
X96971418Y-65350001D01*
X96982535Y-65462877D01*
X97015460Y-65571414D01*
X97068926Y-65671443D01*
X97140880Y-65759120D01*
X97228557Y-65831074D01*
X97328586Y-65884540D01*
X97437123Y-65917465D01*
X97549999Y-65928582D01*
X98450001Y-65928582D01*
X98562877Y-65917465D01*
X98671414Y-65884540D01*
X98771443Y-65831074D01*
X98859120Y-65759120D01*
X98931074Y-65671443D01*
X98984540Y-65571414D01*
X99017465Y-65462877D01*
X99028582Y-65350001D01*
X99028582Y-64699999D01*
X99017465Y-64587123D01*
X98984540Y-64478586D01*
X98931074Y-64378557D01*
X98859120Y-64290880D01*
X98771443Y-64218926D01*
X98671414Y-64165460D01*
X98562877Y-64132535D01*
X98450001Y-64121418D01*
X97549999Y-64121418D01*
X97437123Y-64132535D01*
X97328586Y-64165460D01*
X97228557Y-64218926D01*
X97140880Y-64290880D01*
X97068926Y-64378557D01*
X97015460Y-64478586D01*
X96982535Y-64587123D01*
X96971418Y-64699999D01*
X94452000Y-64699999D01*
X94452000Y-64687223D01*
X97937224Y-61202000D01*
X99188256Y-61202000D01*
X99140880Y-61240880D01*
X99068926Y-61328557D01*
X99015460Y-61428586D01*
X98982535Y-61537123D01*
X98971418Y-61649999D01*
X98971418Y-62300001D01*
X98982535Y-62412877D01*
X99015460Y-62521414D01*
X99068926Y-62621443D01*
X99140880Y-62709120D01*
X99228557Y-62781074D01*
X99328586Y-62834540D01*
X99437123Y-62867465D01*
X99549999Y-62878582D01*
X100450001Y-62878582D01*
X100485711Y-62875065D01*
X100239358Y-63121418D01*
X99549999Y-63121418D01*
X99437123Y-63132535D01*
X99328586Y-63165460D01*
X99228557Y-63218926D01*
X99140880Y-63290880D01*
X99068926Y-63378557D01*
X99015460Y-63478586D01*
X98982535Y-63587123D01*
X98971418Y-63699999D01*
X98971418Y-64350001D01*
X98982535Y-64462877D01*
X99015460Y-64571414D01*
X99068926Y-64671443D01*
X99140880Y-64759120D01*
X99228557Y-64831074D01*
X99328586Y-64884540D01*
X99437123Y-64917465D01*
X99548000Y-64928385D01*
X99548001Y-66071615D01*
X99437123Y-66082535D01*
X99328586Y-66115460D01*
X99228557Y-66168926D01*
X99140880Y-66240880D01*
X99068926Y-66328557D01*
X99015460Y-66428586D01*
X98982535Y-66537123D01*
X98971418Y-66649999D01*
X98971418Y-67300001D01*
X98982535Y-67412877D01*
X99015460Y-67521414D01*
X99068926Y-67621443D01*
X99140880Y-67709120D01*
X99228557Y-67781074D01*
X99328586Y-67834540D01*
X99437123Y-67867465D01*
X99549999Y-67878582D01*
X100450001Y-67878582D01*
X100562877Y-67867465D01*
X100671414Y-67834540D01*
X100771443Y-67781074D01*
X100859120Y-67709120D01*
X100931074Y-67621443D01*
X100984540Y-67521414D01*
X101013181Y-67427000D01*
X101986819Y-67427000D01*
X102013808Y-67515970D01*
X101942987Y-67522945D01*
X101860393Y-67548000D01*
X101857785Y-67548791D01*
X101779262Y-67590762D01*
X101710436Y-67647246D01*
X101696276Y-67664500D01*
X101164505Y-68196272D01*
X101147246Y-68210436D01*
X101090762Y-68279263D01*
X101064414Y-68328557D01*
X101048791Y-68357786D01*
X101022945Y-68442988D01*
X101014218Y-68531595D01*
X101016405Y-68553800D01*
X101016405Y-68583629D01*
X100984540Y-68478586D01*
X100931074Y-68378557D01*
X100859120Y-68290880D01*
X100771443Y-68218926D01*
X100671414Y-68165460D01*
X100562877Y-68132535D01*
X100450001Y-68121418D01*
X99549999Y-68121418D01*
X99437123Y-68132535D01*
X99328586Y-68165460D01*
X99228557Y-68218926D01*
X99140880Y-68290880D01*
X99068926Y-68378557D01*
X99015460Y-68478586D01*
X98982535Y-68587123D01*
X98971418Y-68699999D01*
X98971418Y-69350001D01*
X98982535Y-69462877D01*
X99015460Y-69571414D01*
X99068926Y-69671443D01*
X99140880Y-69759120D01*
X99228557Y-69831074D01*
X99328586Y-69884540D01*
X99396314Y-69905085D01*
X99435302Y-69963436D01*
X99536564Y-70064698D01*
X99655636Y-70144259D01*
X99787942Y-70199062D01*
X99900334Y-70221418D01*
X99899999Y-70221418D01*
X99787123Y-70232535D01*
X99678586Y-70265460D01*
X99578557Y-70318926D01*
X99490880Y-70390880D01*
X99418926Y-70478557D01*
X99365460Y-70578586D01*
X99332535Y-70687123D01*
X99321418Y-70799999D01*
X99321418Y-71700001D01*
X99332535Y-71812877D01*
X99365460Y-71921414D01*
X99418926Y-72021443D01*
X99490880Y-72109120D01*
X99578557Y-72181074D01*
X99678586Y-72234540D01*
X99773001Y-72263181D01*
X99773001Y-72646418D01*
X99620000Y-72646418D01*
X99555897Y-72652732D01*
X99494257Y-72671430D01*
X99437450Y-72701794D01*
X99387657Y-72742657D01*
X99346794Y-72792450D01*
X99316430Y-72849257D01*
X99297732Y-72910897D01*
X99291418Y-72975000D01*
X99291418Y-73625000D01*
X99297732Y-73689103D01*
X99316430Y-73750743D01*
X99329396Y-73775000D01*
X99316430Y-73799257D01*
X99297732Y-73860897D01*
X99291418Y-73925000D01*
X99291418Y-74575000D01*
X99297732Y-74639103D01*
X99316430Y-74700743D01*
X99329396Y-74725000D01*
X99316430Y-74749257D01*
X99297732Y-74810897D01*
X99291418Y-74875000D01*
X99291418Y-75525000D01*
X99297732Y-75589103D01*
X99316430Y-75650743D01*
X99346794Y-75707550D01*
X99387657Y-75757343D01*
X99437450Y-75798206D01*
X99494257Y-75828570D01*
X99555897Y-75847268D01*
X99620000Y-75853582D01*
X100680000Y-75853582D01*
X100744103Y-75847268D01*
X100805743Y-75828570D01*
X100862550Y-75798206D01*
X100912343Y-75757343D01*
X100953206Y-75707550D01*
X100983570Y-75650743D01*
X101002268Y-75589103D01*
X101008582Y-75525000D01*
X101008582Y-74875000D01*
X101002268Y-74810897D01*
X100983570Y-74749257D01*
X100970604Y-74725000D01*
X100983570Y-74700743D01*
X101002268Y-74639103D01*
X101008582Y-74575000D01*
X101008582Y-73925000D01*
X101002268Y-73860897D01*
X100983570Y-73799257D01*
X100970604Y-73775000D01*
X100983570Y-73750743D01*
X101002268Y-73689103D01*
X101008582Y-73625000D01*
X101008582Y-72975000D01*
X101002268Y-72910897D01*
X100983570Y-72849257D01*
X100953206Y-72792450D01*
X100912343Y-72742657D01*
X100862550Y-72701794D01*
X100805743Y-72671430D01*
X100744103Y-72652732D01*
X100680000Y-72646418D01*
X100677000Y-72646418D01*
X100677000Y-72263181D01*
X100771414Y-72234540D01*
X100871443Y-72181074D01*
X100959120Y-72109120D01*
X101031074Y-72021443D01*
X101084540Y-71921414D01*
X101117465Y-71812877D01*
X101128582Y-71700001D01*
X101128582Y-70985642D01*
X101377666Y-70736558D01*
X101371418Y-70799999D01*
X101371418Y-71700001D01*
X101382535Y-71812877D01*
X101415460Y-71921414D01*
X101468926Y-72021443D01*
X101540880Y-72109120D01*
X101628557Y-72181074D01*
X101728586Y-72234540D01*
X101823001Y-72263181D01*
X101823001Y-72646418D01*
X101820000Y-72646418D01*
X101755897Y-72652732D01*
X101694257Y-72671430D01*
X101637450Y-72701794D01*
X101587657Y-72742657D01*
X101546794Y-72792450D01*
X101516430Y-72849257D01*
X101497732Y-72910897D01*
X101491418Y-72975000D01*
X101491418Y-73625000D01*
X101497732Y-73689103D01*
X101516430Y-73750743D01*
X101546794Y-73807550D01*
X101587657Y-73857343D01*
X101637450Y-73898206D01*
X101694257Y-73928570D01*
X101755897Y-73947268D01*
X101820000Y-73953582D01*
X102880000Y-73953582D01*
X102944103Y-73947268D01*
X103005743Y-73928570D01*
X103062550Y-73898206D01*
X103112343Y-73857343D01*
X103153206Y-73807550D01*
X103182898Y-73752000D01*
X104009571Y-73752000D01*
X104015460Y-73771414D01*
X104068926Y-73871443D01*
X104140880Y-73959120D01*
X104228557Y-74031074D01*
X104328586Y-74084540D01*
X104437123Y-74117465D01*
X104549999Y-74128582D01*
X105450001Y-74128582D01*
X105562877Y-74117465D01*
X105671414Y-74084540D01*
X105771443Y-74031074D01*
X105859120Y-73959120D01*
X105931074Y-73871443D01*
X105984540Y-73771414D01*
X106017465Y-73662877D01*
X106028582Y-73550001D01*
X106028582Y-72899999D01*
X106017465Y-72787123D01*
X105984540Y-72678586D01*
X105931074Y-72578557D01*
X105859120Y-72490880D01*
X105771443Y-72418926D01*
X105671414Y-72365460D01*
X105562877Y-72332535D01*
X105450001Y-72321418D01*
X104549999Y-72321418D01*
X104437123Y-72332535D01*
X104328586Y-72365460D01*
X104228557Y-72418926D01*
X104140880Y-72490880D01*
X104068926Y-72578557D01*
X104015460Y-72678586D01*
X103982535Y-72787123D01*
X103976539Y-72848000D01*
X103182898Y-72848000D01*
X103153206Y-72792450D01*
X103112343Y-72742657D01*
X103062550Y-72701794D01*
X103005743Y-72671430D01*
X102944103Y-72652732D01*
X102880000Y-72646418D01*
X102727000Y-72646418D01*
X102727000Y-72263181D01*
X102821414Y-72234540D01*
X102921443Y-72181074D01*
X103009120Y-72109120D01*
X103081074Y-72021443D01*
X103134540Y-71921414D01*
X103167465Y-71812877D01*
X103178582Y-71700001D01*
X103178582Y-70799999D01*
X103167465Y-70687123D01*
X103134540Y-70578586D01*
X103081074Y-70478557D01*
X103009120Y-70390880D01*
X102921443Y-70318926D01*
X102821414Y-70265460D01*
X102712877Y-70232535D01*
X102600001Y-70221418D01*
X101949999Y-70221418D01*
X101861435Y-70230141D01*
X101888019Y-70180405D01*
X101913865Y-70095202D01*
X101920405Y-70028800D01*
X101922592Y-70006596D01*
X101920405Y-69984391D01*
X101920405Y-68718818D01*
X101974935Y-68664288D01*
X101971418Y-68699999D01*
X101971418Y-69350001D01*
X101982535Y-69462877D01*
X102015460Y-69571414D01*
X102068926Y-69671443D01*
X102140880Y-69759120D01*
X102228557Y-69831074D01*
X102328586Y-69884540D01*
X102396314Y-69905085D01*
X102435302Y-69963436D01*
X102536564Y-70064698D01*
X102655636Y-70144259D01*
X102787942Y-70199062D01*
X102928397Y-70227000D01*
X103071603Y-70227000D01*
X103212058Y-70199062D01*
X103344364Y-70144259D01*
X103463436Y-70064698D01*
X103564698Y-69963436D01*
X103603686Y-69905085D01*
X103671414Y-69884540D01*
X103771443Y-69831074D01*
X103859120Y-69759120D01*
X103931074Y-69671443D01*
X103984540Y-69571414D01*
X104017465Y-69462877D01*
X104028582Y-69350001D01*
X104028582Y-68699999D01*
X104017465Y-68587123D01*
X103984540Y-68478586D01*
X103953442Y-68420405D01*
X104009390Y-68420405D01*
X104031595Y-68422592D01*
X104053800Y-68420405D01*
X104120202Y-68413865D01*
X104205405Y-68388019D01*
X104283928Y-68346048D01*
X104352754Y-68289564D01*
X104366918Y-68272305D01*
X105303912Y-67335313D01*
X105321159Y-67321159D01*
X105377643Y-67252333D01*
X105419614Y-67173810D01*
X105430964Y-67136395D01*
X105463436Y-67114698D01*
X105564698Y-67013436D01*
X105644259Y-66894364D01*
X105699062Y-66762058D01*
X105727000Y-66621603D01*
X105727000Y-66478397D01*
X105699062Y-66337942D01*
X105644259Y-66205636D01*
X105564698Y-66086564D01*
X105463436Y-65985302D01*
X105344364Y-65905741D01*
X105212058Y-65850938D01*
X105071603Y-65823000D01*
X104928397Y-65823000D01*
X104787942Y-65850938D01*
X104655636Y-65905741D01*
X104536564Y-65985302D01*
X104435302Y-66086564D01*
X104355741Y-66205636D01*
X104300938Y-66337942D01*
X104273000Y-66478397D01*
X104273000Y-66621603D01*
X104300938Y-66762058D01*
X104355741Y-66894364D01*
X104400069Y-66960706D01*
X104025065Y-67335711D01*
X104028582Y-67300001D01*
X104028582Y-66649999D01*
X104017465Y-66537123D01*
X103984540Y-66428586D01*
X103931074Y-66328557D01*
X103859120Y-66240880D01*
X103771443Y-66168926D01*
X103671414Y-66115460D01*
X103562877Y-66082535D01*
X103450001Y-66071418D01*
X102549999Y-66071418D01*
X102437123Y-66082535D01*
X102328586Y-66115460D01*
X102228557Y-66168926D01*
X102140880Y-66240880D01*
X102068926Y-66328557D01*
X102015460Y-66428586D01*
X101986819Y-66523000D01*
X101013181Y-66523000D01*
X100984540Y-66428586D01*
X100931074Y-66328557D01*
X100859120Y-66240880D01*
X100771443Y-66168926D01*
X100671414Y-66115460D01*
X100562877Y-66082535D01*
X100452000Y-66071615D01*
X100452000Y-64928385D01*
X100562877Y-64917465D01*
X100671414Y-64884540D01*
X100771443Y-64831074D01*
X100859120Y-64759120D01*
X100907638Y-64699999D01*
X101971418Y-64699999D01*
X101971418Y-65350001D01*
X101982535Y-65462877D01*
X102015460Y-65571414D01*
X102068926Y-65671443D01*
X102140880Y-65759120D01*
X102228557Y-65831074D01*
X102328586Y-65884540D01*
X102437123Y-65917465D01*
X102549999Y-65928582D01*
X103450001Y-65928582D01*
X103562877Y-65917465D01*
X103671414Y-65884540D01*
X103771443Y-65831074D01*
X103859120Y-65759120D01*
X103931074Y-65671443D01*
X103984540Y-65571414D01*
X104017465Y-65462877D01*
X104028582Y-65350001D01*
X104028582Y-64853628D01*
X105344827Y-64853628D01*
X105405636Y-64894259D01*
X105537942Y-64949062D01*
X105678397Y-64977000D01*
X105821603Y-64977000D01*
X105962058Y-64949062D01*
X106094364Y-64894259D01*
X106213436Y-64814698D01*
X106314698Y-64713436D01*
X106394259Y-64594364D01*
X106449062Y-64462058D01*
X106477000Y-64321603D01*
X106477000Y-64178397D01*
X106449062Y-64037942D01*
X106394259Y-63905636D01*
X106314698Y-63786564D01*
X106213436Y-63685302D01*
X106094364Y-63605741D01*
X105962058Y-63550938D01*
X105821603Y-63523000D01*
X105678397Y-63523000D01*
X105537942Y-63550938D01*
X105405636Y-63605741D01*
X105286564Y-63685302D01*
X105185302Y-63786564D01*
X105105741Y-63905636D01*
X105087519Y-63949628D01*
X103645576Y-63949628D01*
X103623371Y-63947441D01*
X103534764Y-63956168D01*
X103463470Y-63977795D01*
X103449562Y-63982014D01*
X103371039Y-64023985D01*
X103302213Y-64080469D01*
X103288057Y-64097718D01*
X103264357Y-64121418D01*
X102549999Y-64121418D01*
X102437123Y-64132535D01*
X102328586Y-64165460D01*
X102228557Y-64218926D01*
X102140880Y-64290880D01*
X102068926Y-64378557D01*
X102015460Y-64478586D01*
X101982535Y-64587123D01*
X101971418Y-64699999D01*
X100907638Y-64699999D01*
X100931074Y-64671443D01*
X100984540Y-64571414D01*
X101017465Y-64462877D01*
X101028582Y-64350001D01*
X101028582Y-63699999D01*
X101020570Y-63618653D01*
X101212224Y-63427000D01*
X101986819Y-63427000D01*
X102015460Y-63521414D01*
X102068926Y-63621443D01*
X102140880Y-63709120D01*
X102228557Y-63781074D01*
X102328586Y-63834540D01*
X102437123Y-63867465D01*
X102549999Y-63878582D01*
X103450001Y-63878582D01*
X103562877Y-63867465D01*
X103671414Y-63834540D01*
X103771443Y-63781074D01*
X103859120Y-63709120D01*
X103931074Y-63621443D01*
X103984540Y-63521414D01*
X104005597Y-63452000D01*
X106312777Y-63452000D01*
X107048001Y-64187225D01*
X107048000Y-67477795D01*
X107045813Y-67500000D01*
X107048001Y-67522214D01*
X107048000Y-67999202D01*
X107048001Y-67999212D01*
X107048001Y-68071615D01*
X106937123Y-68082535D01*
X106828586Y-68115460D01*
X106728557Y-68168926D01*
X106640880Y-68240880D01*
X106568926Y-68328557D01*
X106515460Y-68428586D01*
X106482535Y-68537123D01*
X106471418Y-68649999D01*
X106471418Y-69300001D01*
X106482535Y-69412877D01*
X106515460Y-69521414D01*
X106568926Y-69621443D01*
X106640880Y-69709120D01*
X106728557Y-69781074D01*
X106828586Y-69834540D01*
X106937123Y-69867465D01*
X107049999Y-69878582D01*
X107950001Y-69878582D01*
X108062877Y-69867465D01*
X108171414Y-69834540D01*
X108271443Y-69781074D01*
X108359120Y-69709120D01*
X108431074Y-69621443D01*
X108484540Y-69521414D01*
X108517465Y-69412877D01*
X108528582Y-69300001D01*
X108528582Y-68649999D01*
X108517465Y-68537123D01*
X108491643Y-68452000D01*
X109029670Y-68452000D01*
X109015460Y-68478586D01*
X108982535Y-68587123D01*
X108971418Y-68699999D01*
X108971418Y-69350001D01*
X108982535Y-69462877D01*
X109015460Y-69571414D01*
X109068926Y-69671443D01*
X109140880Y-69759120D01*
X109228557Y-69831074D01*
X109328586Y-69884540D01*
X109437123Y-69917465D01*
X109549999Y-69928582D01*
X109789358Y-69928582D01*
X110114685Y-70253910D01*
X110128841Y-70271159D01*
X110197667Y-70327643D01*
X110276190Y-70369614D01*
X110361392Y-70395460D01*
X110449999Y-70404187D01*
X110472204Y-70402000D01*
X111226540Y-70402000D01*
X111227732Y-70414103D01*
X111246430Y-70475743D01*
X111276794Y-70532550D01*
X111317657Y-70582343D01*
X111367450Y-70623206D01*
X111424257Y-70653570D01*
X111485897Y-70672268D01*
X111550000Y-70678582D01*
X112450000Y-70678582D01*
X112514103Y-70672268D01*
X112575743Y-70653570D01*
X112632550Y-70623206D01*
X112682343Y-70582343D01*
X112723206Y-70532550D01*
X112753570Y-70475743D01*
X112772268Y-70414103D01*
X112778582Y-70350000D01*
X112778582Y-69550000D01*
X112772268Y-69485897D01*
X112753570Y-69424257D01*
X112723206Y-69367450D01*
X112682343Y-69317657D01*
X112632550Y-69276794D01*
X112575743Y-69246430D01*
X112514103Y-69227732D01*
X112450000Y-69221418D01*
X111550000Y-69221418D01*
X111485897Y-69227732D01*
X111424257Y-69246430D01*
X111367450Y-69276794D01*
X111317657Y-69317657D01*
X111276794Y-69367450D01*
X111246430Y-69424257D01*
X111227732Y-69485897D01*
X111226540Y-69498000D01*
X111006810Y-69498000D01*
X111017465Y-69462877D01*
X111028582Y-69350001D01*
X111028582Y-68699999D01*
X111017465Y-68587123D01*
X110984540Y-68478586D01*
X110970330Y-68452000D01*
X111221615Y-68452000D01*
X111227732Y-68514103D01*
X111246430Y-68575743D01*
X111276794Y-68632550D01*
X111317657Y-68682343D01*
X111367450Y-68723206D01*
X111424257Y-68753570D01*
X111485897Y-68772268D01*
X111550000Y-68778582D01*
X112450000Y-68778582D01*
X112514103Y-68772268D01*
X112575743Y-68753570D01*
X112632550Y-68723206D01*
X112682343Y-68682343D01*
X112723206Y-68632550D01*
X112753570Y-68575743D01*
X112772268Y-68514103D01*
X112778582Y-68450000D01*
X112778582Y-67960641D01*
X113787224Y-66952000D01*
X117812777Y-66952000D01*
X118048001Y-67187225D01*
X118048000Y-68712775D01*
X117487776Y-69273000D01*
X117428397Y-69273000D01*
X117287942Y-69300938D01*
X117155636Y-69355741D01*
X117036564Y-69435302D01*
X116935302Y-69536564D01*
X116855741Y-69655636D01*
X116800938Y-69787942D01*
X116773000Y-69928397D01*
X116773000Y-69987777D01*
X116664687Y-70096090D01*
X116622358Y-70147667D01*
X116580386Y-70226191D01*
X116554540Y-70311393D01*
X116545813Y-70400000D01*
X116554540Y-70488607D01*
X116580386Y-70573809D01*
X116622358Y-70652333D01*
X116678842Y-70721158D01*
X116747667Y-70777642D01*
X116826191Y-70819614D01*
X116911393Y-70845460D01*
X117000000Y-70854187D01*
X117088607Y-70845460D01*
X117173809Y-70819614D01*
X117252333Y-70777642D01*
X117303910Y-70735313D01*
X117331497Y-70707726D01*
X117428397Y-70727000D01*
X117571603Y-70727000D01*
X117712058Y-70699062D01*
X117844364Y-70644259D01*
X117963436Y-70564698D01*
X118064698Y-70463436D01*
X118144259Y-70344364D01*
X118199062Y-70212058D01*
X118227000Y-70071603D01*
X118227000Y-69928397D01*
X118207726Y-69831498D01*
X118803912Y-69235313D01*
X118821159Y-69221159D01*
X118877643Y-69152333D01*
X118919614Y-69073810D01*
X118945460Y-68988607D01*
X118952000Y-68922205D01*
X118952000Y-68922204D01*
X118954187Y-68900001D01*
X118952000Y-68877796D01*
X118952000Y-67022205D01*
X118954187Y-67000000D01*
X118945460Y-66911392D01*
X118919614Y-66826190D01*
X118880985Y-66753920D01*
X118877643Y-66747667D01*
X118821159Y-66678841D01*
X118803905Y-66664681D01*
X118335323Y-66196100D01*
X118321159Y-66178841D01*
X118252333Y-66122357D01*
X118173810Y-66080386D01*
X118088607Y-66054540D01*
X118022205Y-66048000D01*
X118000000Y-66045813D01*
X117977795Y-66048000D01*
X113622204Y-66048000D01*
X113599999Y-66045813D01*
X113511392Y-66054540D01*
X113452622Y-66072368D01*
X113426190Y-66080386D01*
X113347667Y-66122357D01*
X113278841Y-66178841D01*
X113264681Y-66196095D01*
X112139359Y-67321418D01*
X111550000Y-67321418D01*
X111485897Y-67327732D01*
X111424257Y-67346430D01*
X111367450Y-67376794D01*
X111317657Y-67417657D01*
X111276794Y-67467450D01*
X111246430Y-67524257D01*
X111239228Y-67548000D01*
X110970330Y-67548000D01*
X110984540Y-67521414D01*
X111017465Y-67412877D01*
X111028582Y-67300001D01*
X111028582Y-66649999D01*
X111022812Y-66591412D01*
X112162224Y-65452000D01*
X118312777Y-65452000D01*
X120548000Y-67687224D01*
X120548001Y-76908777D01*
X120428582Y-76789358D01*
X120428582Y-75900000D01*
X120422268Y-75835897D01*
X120403570Y-75774257D01*
X120373206Y-75717450D01*
X120332343Y-75667657D01*
X120282550Y-75626794D01*
X120225743Y-75596430D01*
X120164103Y-75577732D01*
X120100000Y-75571418D01*
X119952000Y-75571418D01*
X119952000Y-74428582D01*
X120100000Y-74428582D01*
X120164103Y-74422268D01*
X120225743Y-74403570D01*
X120282550Y-74373206D01*
X120332343Y-74332343D01*
X120373206Y-74282550D01*
X120403570Y-74225743D01*
X120422268Y-74164103D01*
X120428582Y-74100000D01*
X120428582Y-73200000D01*
X120422268Y-73135897D01*
X120403570Y-73074257D01*
X120373206Y-73017450D01*
X120332343Y-72967657D01*
X120282550Y-72926794D01*
X120225743Y-72896430D01*
X120164103Y-72877732D01*
X120100000Y-72871418D01*
X118900000Y-72871418D01*
X118835897Y-72877732D01*
X118774257Y-72896430D01*
X118717450Y-72926794D01*
X118667657Y-72967657D01*
X118626794Y-73017450D01*
X118596430Y-73074257D01*
X118577732Y-73135897D01*
X118571418Y-73200000D01*
X118571418Y-74100000D01*
X118577732Y-74164103D01*
X118596430Y-74225743D01*
X118626794Y-74282550D01*
X118667657Y-74332343D01*
X118717450Y-74373206D01*
X118774257Y-74403570D01*
X118835897Y-74422268D01*
X118900000Y-74428582D01*
X119048001Y-74428582D01*
X119048000Y-75571418D01*
X118900000Y-75571418D01*
X118835897Y-75577732D01*
X118774257Y-75596430D01*
X118717450Y-75626794D01*
X118667657Y-75667657D01*
X118626794Y-75717450D01*
X118596430Y-75774257D01*
X118577732Y-75835897D01*
X118571418Y-75900000D01*
X118571418Y-76800000D01*
X118577732Y-76864103D01*
X118596430Y-76925743D01*
X118626794Y-76982550D01*
X118667657Y-77032343D01*
X118717450Y-77073206D01*
X118774257Y-77103570D01*
X118835897Y-77122268D01*
X118900000Y-77128582D01*
X119489359Y-77128582D01*
X120548001Y-78187225D01*
X120548000Y-78522204D01*
X120548001Y-78522214D01*
X120548000Y-80262776D01*
X120186991Y-80623786D01*
X120171414Y-80615460D01*
X120062877Y-80582535D01*
X119950001Y-80571418D01*
X119049999Y-80571418D01*
X118937123Y-80582535D01*
X118828586Y-80615460D01*
X118728557Y-80668926D01*
X118640880Y-80740880D01*
X118568926Y-80828557D01*
X118515460Y-80928586D01*
X118482535Y-81037123D01*
X118471418Y-81149999D01*
X118471418Y-81800001D01*
X118482535Y-81912877D01*
X118515460Y-82021414D01*
X118568926Y-82121443D01*
X118640880Y-82209120D01*
X118728557Y-82281074D01*
X118828586Y-82334540D01*
X118937123Y-82367465D01*
X119049999Y-82378582D01*
X119950001Y-82378582D01*
X120062877Y-82367465D01*
X120171414Y-82334540D01*
X120271443Y-82281074D01*
X120359120Y-82209120D01*
X120431074Y-82121443D01*
X120484540Y-82021414D01*
X120517465Y-81912877D01*
X120528582Y-81800001D01*
X120528582Y-81560641D01*
X121303906Y-80785318D01*
X121321159Y-80771159D01*
X121377643Y-80702333D01*
X121419614Y-80623810D01*
X121445460Y-80538607D01*
X121449066Y-80502000D01*
X121454187Y-80450000D01*
X121452000Y-80427795D01*
X121452000Y-78022204D01*
X121454187Y-77999999D01*
X121452000Y-77977794D01*
X121452000Y-67522204D01*
X121454187Y-67500000D01*
X121445460Y-67411392D01*
X121419614Y-67326190D01*
X121403562Y-67296158D01*
X121377643Y-67247667D01*
X121321159Y-67178841D01*
X121303906Y-67164682D01*
X118835323Y-64696100D01*
X118821159Y-64678841D01*
X118752333Y-64622357D01*
X118673810Y-64580386D01*
X118588607Y-64554540D01*
X118522205Y-64548000D01*
X118500000Y-64545813D01*
X118477795Y-64548000D01*
X111997205Y-64548000D01*
X111975000Y-64545813D01*
X111886392Y-64554540D01*
X111817505Y-64575437D01*
X111801190Y-64580386D01*
X111722667Y-64622357D01*
X111653841Y-64678841D01*
X111639681Y-64696095D01*
X110264359Y-66071418D01*
X109549999Y-66071418D01*
X109437123Y-66082535D01*
X109328586Y-66115460D01*
X109228557Y-66168926D01*
X109140880Y-66240880D01*
X109068926Y-66328557D01*
X109015460Y-66428586D01*
X108986819Y-66523000D01*
X108662224Y-66523000D01*
X108402010Y-66262787D01*
X108402008Y-63835813D01*
X108404196Y-63813598D01*
X108395469Y-63724991D01*
X108369622Y-63639789D01*
X108327651Y-63561265D01*
X108285322Y-63509687D01*
X108285318Y-63509683D01*
X108271167Y-63492440D01*
X108253924Y-63478289D01*
X104771717Y-59996085D01*
X104757557Y-59978831D01*
X104688731Y-59922347D01*
X104610208Y-59880376D01*
X104585688Y-59872938D01*
X104525006Y-59854530D01*
X104436399Y-59845803D01*
X104414194Y-59847990D01*
X97585813Y-59847992D01*
X97563598Y-59845804D01*
X97474991Y-59854531D01*
X97389789Y-59880378D01*
X97311265Y-59922349D01*
X97259687Y-59964678D01*
X97259683Y-59964682D01*
X97242440Y-59978833D01*
X97228289Y-59996076D01*
X92196100Y-65028267D01*
X92178841Y-65042431D01*
X92122357Y-65111258D01*
X92088923Y-65173809D01*
X92080386Y-65189781D01*
X92054540Y-65274983D01*
X92045813Y-65363590D01*
X89317000Y-65363590D01*
X89317000Y-61515503D01*
X89360066Y-61076281D01*
X89483122Y-60668700D01*
X89682999Y-60292787D01*
X89952087Y-59962853D01*
X90280130Y-59691473D01*
X90654646Y-59488972D01*
X91061352Y-59363076D01*
X91499709Y-59317003D01*
X91500536Y-59317000D01*
X122984497Y-59317000D01*
X123423719Y-59360066D01*
X123423719Y-59360066D01*
G37*
X123423719Y-59360066D02*
X123831300Y-59483122D01*
X124207213Y-59682999D01*
X124537147Y-59952087D01*
X124808527Y-60280130D01*
X125011028Y-60654646D01*
X125136924Y-61061352D01*
X125182997Y-61499709D01*
X125183000Y-61500536D01*
X125183001Y-86484487D01*
X125139934Y-86923720D01*
X125016879Y-87331297D01*
X124817001Y-87707213D01*
X124547913Y-88037147D01*
X124219866Y-88308530D01*
X123845355Y-88511027D01*
X123438647Y-88636924D01*
X123000291Y-88682997D01*
X122999464Y-88683000D01*
X89317000Y-88683000D01*
X89317000Y-83428397D01*
X96273000Y-83428397D01*
X96273000Y-83571603D01*
X96300938Y-83712058D01*
X96355741Y-83844364D01*
X96435302Y-83963436D01*
X96536564Y-84064698D01*
X96655636Y-84144259D01*
X96787942Y-84199062D01*
X96928397Y-84227000D01*
X97071603Y-84227000D01*
X97212058Y-84199062D01*
X97344364Y-84144259D01*
X97463436Y-84064698D01*
X97564698Y-83963436D01*
X97644259Y-83844364D01*
X97699062Y-83712058D01*
X97727000Y-83571603D01*
X97727000Y-83428397D01*
X97724317Y-83414907D01*
X98303906Y-82835318D01*
X98321159Y-82821159D01*
X98377643Y-82752333D01*
X98419614Y-82673810D01*
X98432135Y-82632535D01*
X98445460Y-82588608D01*
X98454187Y-82500000D01*
X98452000Y-82477795D01*
X98452000Y-81728385D01*
X98514103Y-81722268D01*
X98575743Y-81703570D01*
X98632550Y-81673206D01*
X98682343Y-81632343D01*
X98723206Y-81582550D01*
X98753570Y-81525743D01*
X98772268Y-81464103D01*
X98778582Y-81400000D01*
X98778582Y-80902807D01*
X99179683Y-81303910D01*
X99193839Y-81321159D01*
X99262665Y-81377643D01*
X99269417Y-81381252D01*
X99246430Y-81424257D01*
X99227732Y-81485897D01*
X99221418Y-81550000D01*
X99221418Y-82350000D01*
X99227732Y-82414103D01*
X99246430Y-82475743D01*
X99276794Y-82532550D01*
X99317657Y-82582343D01*
X99367450Y-82623206D01*
X99424257Y-82653570D01*
X99485897Y-82672268D01*
X99550000Y-82678582D01*
X100450000Y-82678582D01*
X100514103Y-82672268D01*
X100575743Y-82653570D01*
X100632550Y-82623206D01*
X100682343Y-82582343D01*
X100723206Y-82532550D01*
X100753570Y-82475743D01*
X100772268Y-82414103D01*
X100777928Y-82356638D01*
X100821159Y-82321159D01*
X100835323Y-82303900D01*
X101414907Y-81724317D01*
X101428397Y-81727000D01*
X101571603Y-81727000D01*
X101712058Y-81699062D01*
X101844364Y-81644259D01*
X101963436Y-81564698D01*
X102064698Y-81463436D01*
X102144259Y-81344364D01*
X102199062Y-81212058D01*
X102227000Y-81071603D01*
X102227000Y-80928397D01*
X102199062Y-80787942D01*
X102144259Y-80655636D01*
X102064698Y-80536564D01*
X102030134Y-80502000D01*
X102362777Y-80502000D01*
X102775683Y-80914907D01*
X102773000Y-80928397D01*
X102773000Y-81071603D01*
X102800938Y-81212058D01*
X102855741Y-81344364D01*
X102935302Y-81463436D01*
X102969866Y-81498000D01*
X102572204Y-81498000D01*
X102549999Y-81495813D01*
X102461392Y-81504540D01*
X102441562Y-81510556D01*
X102376190Y-81530386D01*
X102297667Y-81572357D01*
X102228841Y-81628841D01*
X102214685Y-81646090D01*
X101389359Y-82471418D01*
X101149999Y-82471418D01*
X101037123Y-82482535D01*
X100928586Y-82515460D01*
X100828557Y-82568926D01*
X100740880Y-82640880D01*
X100668926Y-82728557D01*
X100615460Y-82828586D01*
X100582535Y-82937123D01*
X100571418Y-83049999D01*
X100571418Y-83950001D01*
X100582535Y-84062877D01*
X100615460Y-84171414D01*
X100668926Y-84271443D01*
X100740880Y-84359120D01*
X100828557Y-84431074D01*
X100928586Y-84484540D01*
X101037123Y-84517465D01*
X101149999Y-84528582D01*
X101800001Y-84528582D01*
X101835711Y-84525065D01*
X101389359Y-84971418D01*
X101149999Y-84971418D01*
X101037123Y-84982535D01*
X100928586Y-85015460D01*
X100828557Y-85068926D01*
X100740880Y-85140880D01*
X100668926Y-85228557D01*
X100615460Y-85328586D01*
X100582535Y-85437123D01*
X100571418Y-85549999D01*
X100571418Y-86450001D01*
X100582535Y-86562877D01*
X100615460Y-86671414D01*
X100668926Y-86771443D01*
X100740880Y-86859120D01*
X100828557Y-86931074D01*
X100928586Y-86984540D01*
X101037123Y-87017465D01*
X101047635Y-87018500D01*
X101054540Y-87088607D01*
X101064778Y-87122357D01*
X101080386Y-87173809D01*
X101122357Y-87252332D01*
X101178841Y-87321159D01*
X101196100Y-87335323D01*
X101664681Y-87803905D01*
X101678841Y-87821159D01*
X101747667Y-87877643D01*
X101816458Y-87914412D01*
X101826190Y-87919614D01*
X101911392Y-87945460D01*
X102000000Y-87954187D01*
X102022205Y-87952000D01*
X112877795Y-87952000D01*
X112900000Y-87954187D01*
X112922205Y-87952000D01*
X117477795Y-87952000D01*
X117500000Y-87954187D01*
X117522205Y-87952000D01*
X117588607Y-87945460D01*
X117673810Y-87919614D01*
X117752333Y-87877643D01*
X117821159Y-87821159D01*
X117835323Y-87803900D01*
X117960641Y-87678582D01*
X118450000Y-87678582D01*
X118514103Y-87672268D01*
X118575743Y-87653570D01*
X118632550Y-87623206D01*
X118682343Y-87582343D01*
X118723206Y-87532550D01*
X118753570Y-87475743D01*
X118772268Y-87414103D01*
X118778582Y-87350000D01*
X118778582Y-86550000D01*
X118772268Y-86485897D01*
X118753570Y-86424257D01*
X118723206Y-86367450D01*
X118682343Y-86317657D01*
X118632550Y-86276794D01*
X118575743Y-86246430D01*
X118514103Y-86227732D01*
X118450000Y-86221418D01*
X117550000Y-86221418D01*
X117485897Y-86227732D01*
X117424257Y-86246430D01*
X117367450Y-86276794D01*
X117317657Y-86317657D01*
X117276794Y-86367450D01*
X117246430Y-86424257D01*
X117227732Y-86485897D01*
X117221418Y-86550000D01*
X117221418Y-87048000D01*
X113991223Y-87048000D01*
X114360642Y-86678582D01*
X114950000Y-86678582D01*
X115014103Y-86672268D01*
X115075743Y-86653570D01*
X115132550Y-86623206D01*
X115182343Y-86582343D01*
X115223206Y-86532550D01*
X115239339Y-86502367D01*
X115246430Y-86525743D01*
X115276794Y-86582550D01*
X115317657Y-86632343D01*
X115367450Y-86673206D01*
X115424257Y-86703570D01*
X115485897Y-86722268D01*
X115550000Y-86728582D01*
X116450000Y-86728582D01*
X116514103Y-86722268D01*
X116575743Y-86703570D01*
X116632550Y-86673206D01*
X116682343Y-86632343D01*
X116723206Y-86582550D01*
X116753570Y-86525743D01*
X116772268Y-86464103D01*
X116778582Y-86400000D01*
X116778582Y-85600000D01*
X116772268Y-85535897D01*
X116753570Y-85474257D01*
X116723206Y-85417450D01*
X116682343Y-85367657D01*
X116632550Y-85326794D01*
X116575743Y-85296430D01*
X116514103Y-85277732D01*
X116452000Y-85271615D01*
X116452000Y-84650000D01*
X117221418Y-84650000D01*
X117221418Y-85450000D01*
X117227732Y-85514103D01*
X117246430Y-85575743D01*
X117276794Y-85632550D01*
X117317657Y-85682343D01*
X117367450Y-85723206D01*
X117424257Y-85753570D01*
X117485897Y-85772268D01*
X117550000Y-85778582D01*
X118450000Y-85778582D01*
X118514103Y-85772268D01*
X118575743Y-85753570D01*
X118632550Y-85723206D01*
X118682343Y-85682343D01*
X118723206Y-85632550D01*
X118753570Y-85575743D01*
X118772268Y-85514103D01*
X118778582Y-85450000D01*
X118778582Y-84650000D01*
X118772268Y-84585897D01*
X118753570Y-84524257D01*
X118723206Y-84467450D01*
X118682343Y-84417657D01*
X118648962Y-84390262D01*
X118717348Y-84321875D01*
X118728557Y-84331074D01*
X118828586Y-84384540D01*
X118937123Y-84417465D01*
X119049999Y-84428582D01*
X119950001Y-84428582D01*
X120062877Y-84417465D01*
X120171414Y-84384540D01*
X120271443Y-84331074D01*
X120359120Y-84259120D01*
X120431074Y-84171443D01*
X120484540Y-84071414D01*
X120517465Y-83962877D01*
X120528582Y-83850001D01*
X120528582Y-83199999D01*
X120517465Y-83087123D01*
X120484540Y-82978586D01*
X120431074Y-82878557D01*
X120359120Y-82790880D01*
X120271443Y-82718926D01*
X120171414Y-82665460D01*
X120062877Y-82632535D01*
X119950001Y-82621418D01*
X119049999Y-82621418D01*
X118937123Y-82632535D01*
X118828586Y-82665460D01*
X118728557Y-82718926D01*
X118640880Y-82790880D01*
X118568926Y-82878557D01*
X118515460Y-82978586D01*
X118482535Y-83087123D01*
X118471418Y-83199999D01*
X118471418Y-83289357D01*
X117696096Y-84064681D01*
X117678842Y-84078841D01*
X117642433Y-84123206D01*
X117622358Y-84147667D01*
X117580386Y-84226191D01*
X117554540Y-84311393D01*
X117553553Y-84321418D01*
X117550000Y-84321418D01*
X117485897Y-84327732D01*
X117424257Y-84346430D01*
X117367450Y-84376794D01*
X117317657Y-84417657D01*
X117276794Y-84467450D01*
X117246430Y-84524257D01*
X117227732Y-84585897D01*
X117221418Y-84650000D01*
X116452000Y-84650000D01*
X116452000Y-82528385D01*
X116514103Y-82522268D01*
X116575743Y-82503570D01*
X116632550Y-82473206D01*
X116682343Y-82432343D01*
X116723206Y-82382550D01*
X116753570Y-82325743D01*
X116772268Y-82264103D01*
X116778582Y-82200000D01*
X116778582Y-81400000D01*
X116772268Y-81335897D01*
X116761986Y-81302000D01*
X117127795Y-81302000D01*
X117150000Y-81304187D01*
X117172205Y-81302000D01*
X117238607Y-81295460D01*
X117323810Y-81269614D01*
X117402333Y-81227643D01*
X117471159Y-81171159D01*
X117485323Y-81153900D01*
X118547867Y-80091357D01*
X118561392Y-80095460D01*
X118571418Y-80096447D01*
X118571418Y-80100000D01*
X118577732Y-80164103D01*
X118596430Y-80225743D01*
X118626794Y-80282550D01*
X118667657Y-80332343D01*
X118717450Y-80373206D01*
X118774257Y-80403570D01*
X118835897Y-80422268D01*
X118900000Y-80428582D01*
X120100000Y-80428582D01*
X120164103Y-80422268D01*
X120225743Y-80403570D01*
X120282550Y-80373206D01*
X120332343Y-80332343D01*
X120373206Y-80282550D01*
X120403570Y-80225743D01*
X120422268Y-80164103D01*
X120428582Y-80100000D01*
X120428582Y-79200000D01*
X120422268Y-79135897D01*
X120403570Y-79074257D01*
X120373206Y-79017450D01*
X120332343Y-78967657D01*
X120282550Y-78926794D01*
X120225743Y-78896430D01*
X120164103Y-78877732D01*
X120100000Y-78871418D01*
X118900000Y-78871418D01*
X118835897Y-78877732D01*
X118774257Y-78896430D01*
X118717450Y-78926794D01*
X118667657Y-78967657D01*
X118640262Y-79001039D01*
X118452000Y-78812777D01*
X118452000Y-71687223D01*
X119010642Y-71128582D01*
X120100000Y-71128582D01*
X120164103Y-71122268D01*
X120225743Y-71103570D01*
X120282550Y-71073206D01*
X120332343Y-71032343D01*
X120373206Y-70982550D01*
X120403570Y-70925743D01*
X120422268Y-70864103D01*
X120428582Y-70800000D01*
X120428582Y-69900000D01*
X120422268Y-69835897D01*
X120403570Y-69774257D01*
X120373206Y-69717450D01*
X120332343Y-69667657D01*
X120282550Y-69626794D01*
X120225743Y-69596430D01*
X120164103Y-69577732D01*
X120100000Y-69571418D01*
X118900000Y-69571418D01*
X118835897Y-69577732D01*
X118774257Y-69596430D01*
X118717450Y-69626794D01*
X118667657Y-69667657D01*
X118626794Y-69717450D01*
X118596430Y-69774257D01*
X118577732Y-69835897D01*
X118571418Y-69900000D01*
X118571418Y-70289358D01*
X117696096Y-71164681D01*
X117678842Y-71178841D01*
X117638667Y-71227795D01*
X117622358Y-71247667D01*
X117580386Y-71326191D01*
X117554540Y-71411393D01*
X117545813Y-71500000D01*
X117548001Y-71522215D01*
X117548001Y-73838015D01*
X117514103Y-73827732D01*
X117450000Y-73821418D01*
X117261501Y-73821418D01*
X117212058Y-73800938D01*
X117071603Y-73773000D01*
X116928397Y-73773000D01*
X116787942Y-73800938D01*
X116738499Y-73821418D01*
X116550000Y-73821418D01*
X116485897Y-73827732D01*
X116452000Y-73838014D01*
X116452000Y-70972202D01*
X116454187Y-70949999D01*
X116451194Y-70919614D01*
X116445460Y-70861393D01*
X116419614Y-70776190D01*
X116377643Y-70697667D01*
X116321159Y-70628841D01*
X116303912Y-70614687D01*
X114778582Y-69089359D01*
X114778582Y-68600000D01*
X114772268Y-68535897D01*
X114753570Y-68474257D01*
X114723206Y-68417450D01*
X114682343Y-68367657D01*
X114632550Y-68326794D01*
X114575743Y-68296430D01*
X114514103Y-68277732D01*
X114450000Y-68271418D01*
X113550000Y-68271418D01*
X113485897Y-68277732D01*
X113424257Y-68296430D01*
X113367450Y-68326794D01*
X113317657Y-68367657D01*
X113276794Y-68417450D01*
X113246430Y-68474257D01*
X113227732Y-68535897D01*
X113221418Y-68600000D01*
X113221418Y-69400000D01*
X113227732Y-69464103D01*
X113246430Y-69525743D01*
X113276794Y-69582550D01*
X113317657Y-69632343D01*
X113367450Y-69673206D01*
X113424257Y-69703570D01*
X113485897Y-69722268D01*
X113550000Y-69728582D01*
X114139359Y-69728582D01*
X115548000Y-71137225D01*
X115548000Y-71519866D01*
X115463436Y-71435302D01*
X115344364Y-71355741D01*
X115212058Y-71300938D01*
X115071603Y-71273000D01*
X114928397Y-71273000D01*
X114787942Y-71300938D01*
X114655636Y-71355741D01*
X114536564Y-71435302D01*
X114435302Y-71536564D01*
X114355741Y-71655636D01*
X114300938Y-71787942D01*
X114273000Y-71928397D01*
X114273000Y-72071603D01*
X114300938Y-72212058D01*
X114355741Y-72344364D01*
X114435302Y-72463436D01*
X114491321Y-72519455D01*
X113962777Y-73048000D01*
X108072339Y-73048000D01*
X108064698Y-73036564D01*
X107963436Y-72935302D01*
X107952000Y-72927661D01*
X107952000Y-71928385D01*
X108062877Y-71917465D01*
X108171414Y-71884540D01*
X108271443Y-71831074D01*
X108359120Y-71759120D01*
X108431074Y-71671443D01*
X108484540Y-71571414D01*
X108517465Y-71462877D01*
X108528582Y-71350001D01*
X108528582Y-70699999D01*
X108517465Y-70587123D01*
X108484540Y-70478586D01*
X108431074Y-70378557D01*
X108359120Y-70290880D01*
X108271443Y-70218926D01*
X108171414Y-70165460D01*
X108062877Y-70132535D01*
X107950001Y-70121418D01*
X107049999Y-70121418D01*
X106937123Y-70132535D01*
X106828586Y-70165460D01*
X106728557Y-70218926D01*
X106640880Y-70290880D01*
X106568926Y-70378557D01*
X106515460Y-70478586D01*
X106482535Y-70587123D01*
X106471418Y-70699999D01*
X106471418Y-71350001D01*
X106482535Y-71462877D01*
X106515460Y-71571414D01*
X106568926Y-71671443D01*
X106640880Y-71759120D01*
X106728557Y-71831074D01*
X106828586Y-71884540D01*
X106937123Y-71917465D01*
X107048001Y-71928385D01*
X107048000Y-72927661D01*
X107036564Y-72935302D01*
X106935302Y-73036564D01*
X106855741Y-73155636D01*
X106800938Y-73287942D01*
X106773000Y-73428397D01*
X106773000Y-73571603D01*
X106800938Y-73712058D01*
X106855741Y-73844364D01*
X106935302Y-73963436D01*
X107036564Y-74064698D01*
X107155636Y-74144259D01*
X107287942Y-74199062D01*
X107428397Y-74227000D01*
X107571603Y-74227000D01*
X107712058Y-74199062D01*
X107844364Y-74144259D01*
X107963436Y-74064698D01*
X108064698Y-73963436D01*
X108072339Y-73952000D01*
X114127795Y-73952000D01*
X114150000Y-73954187D01*
X114172205Y-73952000D01*
X114238607Y-73945460D01*
X114323810Y-73919614D01*
X114402333Y-73877643D01*
X114471159Y-73821159D01*
X114485323Y-73803900D01*
X115303906Y-72985318D01*
X115321159Y-72971159D01*
X115377643Y-72902333D01*
X115419614Y-72823810D01*
X115435027Y-72773000D01*
X115445460Y-72738608D01*
X115454187Y-72650000D01*
X115452000Y-72627795D01*
X115452000Y-72572339D01*
X115463436Y-72564698D01*
X115548000Y-72480134D01*
X115548001Y-74788015D01*
X115514103Y-74777732D01*
X115450000Y-74771418D01*
X114550000Y-74771418D01*
X114485897Y-74777732D01*
X114424257Y-74796430D01*
X114367450Y-74826794D01*
X114317657Y-74867657D01*
X114276794Y-74917450D01*
X114246430Y-74974257D01*
X114227732Y-75035897D01*
X114221418Y-75100000D01*
X114221418Y-75900000D01*
X114227732Y-75964103D01*
X114246430Y-76025743D01*
X114276794Y-76082550D01*
X114317657Y-76132343D01*
X114367450Y-76173206D01*
X114424257Y-76203570D01*
X114485897Y-76222268D01*
X114550000Y-76228582D01*
X115450000Y-76228582D01*
X115514103Y-76222268D01*
X115548001Y-76211985D01*
X115548001Y-77477785D01*
X115545813Y-77500000D01*
X115548001Y-77522215D01*
X115548000Y-79171615D01*
X115485897Y-79177732D01*
X115424257Y-79196430D01*
X115367450Y-79226794D01*
X115317657Y-79267657D01*
X115276794Y-79317450D01*
X115246430Y-79374257D01*
X115227732Y-79435897D01*
X115221418Y-79500000D01*
X115221418Y-80300000D01*
X115227732Y-80364103D01*
X115238014Y-80398000D01*
X114773460Y-80398000D01*
X114772268Y-80385897D01*
X114753570Y-80324257D01*
X114723206Y-80267450D01*
X114682343Y-80217657D01*
X114632550Y-80176794D01*
X114575743Y-80146430D01*
X114514103Y-80127732D01*
X114450000Y-80121418D01*
X113550000Y-80121418D01*
X113485897Y-80127732D01*
X113424257Y-80146430D01*
X113367450Y-80176794D01*
X113317657Y-80217657D01*
X113276794Y-80267450D01*
X113246430Y-80324257D01*
X113227732Y-80385897D01*
X113221418Y-80450000D01*
X113221418Y-81250000D01*
X113227732Y-81314103D01*
X113246430Y-81375743D01*
X113276794Y-81432550D01*
X113317657Y-81482343D01*
X113367450Y-81523206D01*
X113424257Y-81553570D01*
X113485897Y-81572268D01*
X113550000Y-81578582D01*
X114450000Y-81578582D01*
X114514103Y-81572268D01*
X114575743Y-81553570D01*
X114632550Y-81523206D01*
X114682343Y-81482343D01*
X114723206Y-81432550D01*
X114753570Y-81375743D01*
X114772268Y-81314103D01*
X114773460Y-81302000D01*
X115238014Y-81302000D01*
X115227732Y-81335897D01*
X115221418Y-81400000D01*
X115221418Y-82200000D01*
X115227732Y-82264103D01*
X115246430Y-82325743D01*
X115276794Y-82382550D01*
X115317657Y-82432343D01*
X115351038Y-82459737D01*
X114489359Y-83321418D01*
X114050000Y-83321418D01*
X113985897Y-83327732D01*
X113924257Y-83346430D01*
X113867450Y-83376794D01*
X113817657Y-83417657D01*
X113776794Y-83467450D01*
X113746430Y-83524257D01*
X113727732Y-83585897D01*
X113721418Y-83650000D01*
X113721418Y-84450000D01*
X113727732Y-84514103D01*
X113746430Y-84575743D01*
X113776794Y-84632550D01*
X113817657Y-84682343D01*
X113867450Y-84723206D01*
X113924257Y-84753570D01*
X113985897Y-84772268D01*
X114050000Y-84778582D01*
X114950000Y-84778582D01*
X115014103Y-84772268D01*
X115075743Y-84753570D01*
X115132550Y-84723206D01*
X115182343Y-84682343D01*
X115223206Y-84632550D01*
X115253570Y-84575743D01*
X115272268Y-84514103D01*
X115278582Y-84450000D01*
X115278582Y-83810642D01*
X115548001Y-83541223D01*
X115548000Y-85271615D01*
X115485897Y-85277732D01*
X115424257Y-85296430D01*
X115367450Y-85326794D01*
X115317657Y-85367657D01*
X115276794Y-85417450D01*
X115260661Y-85447633D01*
X115253570Y-85424257D01*
X115223206Y-85367450D01*
X115182343Y-85317657D01*
X115132550Y-85276794D01*
X115075743Y-85246430D01*
X115014103Y-85227732D01*
X114950000Y-85221418D01*
X114050000Y-85221418D01*
X113985897Y-85227732D01*
X113924257Y-85246430D01*
X113867450Y-85276794D01*
X113817657Y-85317657D01*
X113776794Y-85367450D01*
X113746430Y-85424257D01*
X113727732Y-85485897D01*
X113721418Y-85550000D01*
X113721418Y-86039358D01*
X112712777Y-87048000D01*
X102187224Y-87048000D01*
X102088113Y-86948889D01*
X102121443Y-86931074D01*
X102209120Y-86859120D01*
X102281074Y-86771443D01*
X102334540Y-86671414D01*
X102367465Y-86562877D01*
X102378582Y-86450001D01*
X102378582Y-85549999D01*
X102367465Y-85437123D01*
X102334540Y-85328586D01*
X102326214Y-85313009D01*
X103118654Y-84520570D01*
X103199999Y-84528582D01*
X103850001Y-84528582D01*
X103962877Y-84517465D01*
X104071414Y-84484540D01*
X104171443Y-84431074D01*
X104259120Y-84359120D01*
X104331074Y-84271443D01*
X104384540Y-84171414D01*
X104417465Y-84062877D01*
X104428582Y-83950001D01*
X104428582Y-83426990D01*
X105387807Y-83426990D01*
X105410012Y-83429177D01*
X105432217Y-83426990D01*
X105498619Y-83420450D01*
X105583822Y-83394604D01*
X105662345Y-83352633D01*
X105731171Y-83296149D01*
X105745335Y-83278890D01*
X106078912Y-82945315D01*
X106096160Y-82931160D01*
X106152644Y-82862334D01*
X106194615Y-82783811D01*
X106219331Y-82702333D01*
X106220461Y-82698609D01*
X106229188Y-82610002D01*
X106227001Y-82587797D01*
X106227001Y-81456682D01*
X106227732Y-81464103D01*
X106246430Y-81525743D01*
X106276794Y-81582550D01*
X106317657Y-81632343D01*
X106367450Y-81673206D01*
X106424257Y-81703570D01*
X106485897Y-81722268D01*
X106550000Y-81728582D01*
X107073001Y-81728582D01*
X107073000Y-82986819D01*
X106978586Y-83015460D01*
X106878557Y-83068926D01*
X106790880Y-83140880D01*
X106718926Y-83228557D01*
X106665460Y-83328586D01*
X106632535Y-83437123D01*
X106621418Y-83549999D01*
X106621418Y-84450001D01*
X106632535Y-84562877D01*
X106665460Y-84671414D01*
X106718926Y-84771443D01*
X106790880Y-84859120D01*
X106878557Y-84931074D01*
X106978586Y-84984540D01*
X107087123Y-85017465D01*
X107199999Y-85028582D01*
X107732195Y-85028582D01*
X107712777Y-85048000D01*
X104132293Y-85048000D01*
X104071414Y-85015460D01*
X103962877Y-84982535D01*
X103850001Y-84971418D01*
X103199999Y-84971418D01*
X103087123Y-84982535D01*
X102978586Y-85015460D01*
X102878557Y-85068926D01*
X102790880Y-85140880D01*
X102718926Y-85228557D01*
X102665460Y-85328586D01*
X102632535Y-85437123D01*
X102621418Y-85549999D01*
X102621418Y-86450001D01*
X102632535Y-86562877D01*
X102665460Y-86671414D01*
X102718926Y-86771443D01*
X102790880Y-86859120D01*
X102878557Y-86931074D01*
X102978586Y-86984540D01*
X103087123Y-87017465D01*
X103199999Y-87028582D01*
X103850001Y-87028582D01*
X103962877Y-87017465D01*
X104071414Y-86984540D01*
X104171443Y-86931074D01*
X104259120Y-86859120D01*
X104331074Y-86771443D01*
X104384540Y-86671414D01*
X104417465Y-86562877D01*
X104428582Y-86450001D01*
X104428582Y-85952000D01*
X107877795Y-85952000D01*
X107900000Y-85954187D01*
X107922205Y-85952000D01*
X107988607Y-85945460D01*
X108073810Y-85919614D01*
X108130807Y-85889149D01*
X108123000Y-85928397D01*
X108123000Y-86071603D01*
X108150938Y-86212058D01*
X108205741Y-86344364D01*
X108285302Y-86463436D01*
X108386564Y-86564698D01*
X108505636Y-86644259D01*
X108637942Y-86699062D01*
X108778397Y-86727000D01*
X108921603Y-86727000D01*
X109062058Y-86699062D01*
X109194364Y-86644259D01*
X109313436Y-86564698D01*
X109414698Y-86463436D01*
X109494259Y-86344364D01*
X109549062Y-86212058D01*
X109577000Y-86071603D01*
X109577000Y-86062223D01*
X110187224Y-85452000D01*
X111726540Y-85452000D01*
X111727732Y-85464103D01*
X111746430Y-85525743D01*
X111776794Y-85582550D01*
X111817657Y-85632343D01*
X111867450Y-85673206D01*
X111924257Y-85703570D01*
X111985897Y-85722268D01*
X112050000Y-85728582D01*
X112950000Y-85728582D01*
X113014103Y-85722268D01*
X113075743Y-85703570D01*
X113132550Y-85673206D01*
X113182343Y-85632343D01*
X113223206Y-85582550D01*
X113253570Y-85525743D01*
X113272268Y-85464103D01*
X113278582Y-85400000D01*
X113278582Y-84600000D01*
X113272268Y-84535897D01*
X113253570Y-84474257D01*
X113223206Y-84417450D01*
X113182343Y-84367657D01*
X113132550Y-84326794D01*
X113075743Y-84296430D01*
X113014103Y-84277732D01*
X112950000Y-84271418D01*
X112050000Y-84271418D01*
X111985897Y-84277732D01*
X111924257Y-84296430D01*
X111867450Y-84326794D01*
X111817657Y-84367657D01*
X111776794Y-84417450D01*
X111746430Y-84474257D01*
X111727732Y-84535897D01*
X111726540Y-84548000D01*
X110022205Y-84548000D01*
X110000000Y-84545813D01*
X109911392Y-84554540D01*
X109841496Y-84575743D01*
X109826190Y-84580386D01*
X109747667Y-84622357D01*
X109678841Y-84678841D01*
X109664681Y-84696095D01*
X109060207Y-85300570D01*
X108921603Y-85273000D01*
X108778397Y-85273000D01*
X108763201Y-85276023D01*
X109860642Y-84178582D01*
X110450000Y-84178582D01*
X110514103Y-84172268D01*
X110575743Y-84153570D01*
X110632550Y-84123206D01*
X110682343Y-84082343D01*
X110723206Y-84032550D01*
X110753570Y-83975743D01*
X110772268Y-83914103D01*
X110778582Y-83850000D01*
X110778582Y-83050000D01*
X110772268Y-82985897D01*
X110753570Y-82924257D01*
X110723206Y-82867450D01*
X110682343Y-82817657D01*
X110632550Y-82776794D01*
X110575743Y-82746430D01*
X110514103Y-82727732D01*
X110450000Y-82721418D01*
X109550000Y-82721418D01*
X109485897Y-82727732D01*
X109424257Y-82746430D01*
X109367450Y-82776794D01*
X109317657Y-82817657D01*
X109276794Y-82867450D01*
X109246430Y-82924257D01*
X109227732Y-82985897D01*
X109221418Y-83050000D01*
X109221418Y-83539358D01*
X108428582Y-84332195D01*
X108428582Y-83549999D01*
X108417465Y-83437123D01*
X108384540Y-83328586D01*
X108331074Y-83228557D01*
X108259120Y-83140880D01*
X108171443Y-83068926D01*
X108071414Y-83015460D01*
X107977000Y-82986819D01*
X107977000Y-81547204D01*
X107979187Y-81524999D01*
X107970460Y-81436392D01*
X107944614Y-81351190D01*
X107924434Y-81313436D01*
X107902643Y-81272667D01*
X107846159Y-81203841D01*
X107828910Y-81189685D01*
X107789225Y-81150000D01*
X109221418Y-81150000D01*
X109221418Y-81950000D01*
X109227732Y-82014103D01*
X109246430Y-82075743D01*
X109276794Y-82132550D01*
X109317657Y-82182343D01*
X109367450Y-82223206D01*
X109424257Y-82253570D01*
X109485897Y-82272268D01*
X109550000Y-82278582D01*
X110450000Y-82278582D01*
X110514103Y-82272268D01*
X110575743Y-82253570D01*
X110632550Y-82223206D01*
X110682343Y-82182343D01*
X110723206Y-82132550D01*
X110753570Y-82075743D01*
X110772268Y-82014103D01*
X110773460Y-82002000D01*
X111238014Y-82002000D01*
X111227732Y-82035897D01*
X111221418Y-82100000D01*
X111221418Y-82900000D01*
X111227732Y-82964103D01*
X111246430Y-83025743D01*
X111276794Y-83082550D01*
X111317657Y-83132343D01*
X111367450Y-83173206D01*
X111424257Y-83203570D01*
X111485897Y-83222268D01*
X111550000Y-83228582D01*
X112450000Y-83228582D01*
X112514103Y-83222268D01*
X112575743Y-83203570D01*
X112632550Y-83173206D01*
X112682343Y-83132343D01*
X112723206Y-83082550D01*
X112753570Y-83025743D01*
X112772268Y-82964103D01*
X112778582Y-82900000D01*
X112778582Y-82100000D01*
X112772268Y-82035897D01*
X112753570Y-81974257D01*
X112723206Y-81917450D01*
X112682343Y-81867657D01*
X112632550Y-81826794D01*
X112575743Y-81796430D01*
X112514103Y-81777732D01*
X112450000Y-81771418D01*
X112446447Y-81771418D01*
X112445460Y-81761392D01*
X112419614Y-81676190D01*
X112418019Y-81673206D01*
X112377643Y-81597667D01*
X112321159Y-81528841D01*
X112303906Y-81514682D01*
X112035323Y-81246100D01*
X112021159Y-81228841D01*
X111952333Y-81172357D01*
X111873810Y-81130386D01*
X111788607Y-81104540D01*
X111722205Y-81098000D01*
X111700000Y-81095813D01*
X111677795Y-81098000D01*
X110773460Y-81098000D01*
X110772268Y-81085897D01*
X110753570Y-81024257D01*
X110723206Y-80967450D01*
X110682343Y-80917657D01*
X110632550Y-80876794D01*
X110575743Y-80846430D01*
X110514103Y-80827732D01*
X110450000Y-80821418D01*
X109550000Y-80821418D01*
X109485897Y-80827732D01*
X109424257Y-80846430D01*
X109367450Y-80876794D01*
X109317657Y-80917657D01*
X109276794Y-80967450D01*
X109246430Y-81024257D01*
X109227732Y-81085897D01*
X109221418Y-81150000D01*
X107789225Y-81150000D01*
X107778582Y-81139357D01*
X107778582Y-80600000D01*
X107772268Y-80535897D01*
X107753570Y-80474257D01*
X107723206Y-80417450D01*
X107682343Y-80367657D01*
X107632550Y-80326794D01*
X107575743Y-80296430D01*
X107514103Y-80277732D01*
X107450000Y-80271418D01*
X106550000Y-80271418D01*
X106485897Y-80277732D01*
X106424257Y-80296430D01*
X106367450Y-80326794D01*
X106317657Y-80367657D01*
X106276794Y-80417450D01*
X106246430Y-80474257D01*
X106227732Y-80535897D01*
X106221418Y-80600000D01*
X106221418Y-81211108D01*
X106220461Y-81201391D01*
X106194615Y-81116189D01*
X106188841Y-81105386D01*
X106152644Y-81037666D01*
X106096160Y-80968840D01*
X106078911Y-80954684D01*
X105734899Y-80610674D01*
X105753570Y-80575743D01*
X105772268Y-80514103D01*
X105778582Y-80450000D01*
X105778582Y-79650000D01*
X105772268Y-79585897D01*
X105753570Y-79524257D01*
X105723206Y-79467450D01*
X105682343Y-79417657D01*
X105632550Y-79376794D01*
X105575743Y-79346430D01*
X105514103Y-79327732D01*
X105450000Y-79321418D01*
X105312114Y-79321418D01*
X105303906Y-79314682D01*
X104648961Y-78659738D01*
X104682343Y-78632343D01*
X104723206Y-78582550D01*
X104753570Y-78525743D01*
X104772268Y-78464103D01*
X104778582Y-78400000D01*
X104778582Y-77600000D01*
X104772268Y-77535897D01*
X104753570Y-77474257D01*
X104723206Y-77417450D01*
X104682343Y-77367657D01*
X104648961Y-77340262D01*
X105110826Y-76878397D01*
X107273000Y-76878397D01*
X107273000Y-77021603D01*
X107300938Y-77162058D01*
X107355741Y-77294364D01*
X107435302Y-77413436D01*
X107536564Y-77514698D01*
X107655636Y-77594259D01*
X107787942Y-77649062D01*
X107928397Y-77677000D01*
X108071603Y-77677000D01*
X108212058Y-77649062D01*
X108344364Y-77594259D01*
X108463436Y-77514698D01*
X108564698Y-77413436D01*
X108572339Y-77402000D01*
X113394252Y-77402000D01*
X113435302Y-77463436D01*
X113536564Y-77564698D01*
X113655636Y-77644259D01*
X113787942Y-77699062D01*
X113928397Y-77727000D01*
X114071603Y-77727000D01*
X114212058Y-77699062D01*
X114344364Y-77644259D01*
X114463436Y-77564698D01*
X114564698Y-77463436D01*
X114644259Y-77344364D01*
X114699062Y-77212058D01*
X114727000Y-77071603D01*
X114727000Y-76928397D01*
X114699062Y-76787942D01*
X114644259Y-76655636D01*
X114564698Y-76536564D01*
X114463436Y-76435302D01*
X114344364Y-76355741D01*
X114212058Y-76300938D01*
X114071603Y-76273000D01*
X113928397Y-76273000D01*
X113787942Y-76300938D01*
X113655636Y-76355741D01*
X113536564Y-76435302D01*
X113473866Y-76498000D01*
X108572339Y-76498000D01*
X108564698Y-76486564D01*
X108463436Y-76385302D01*
X108344364Y-76305741D01*
X108212058Y-76250938D01*
X108071603Y-76223000D01*
X107928397Y-76223000D01*
X107787942Y-76250938D01*
X107655636Y-76305741D01*
X107536564Y-76385302D01*
X107435302Y-76486564D01*
X107355741Y-76605636D01*
X107300938Y-76737942D01*
X107273000Y-76878397D01*
X105110826Y-76878397D01*
X105303906Y-76685318D01*
X105321159Y-76671159D01*
X105377643Y-76602333D01*
X105419614Y-76523810D01*
X105419614Y-76523809D01*
X105445460Y-76438608D01*
X105454187Y-76350000D01*
X105452000Y-76327795D01*
X105452000Y-76178385D01*
X105562877Y-76167465D01*
X105671414Y-76134540D01*
X105771443Y-76081074D01*
X105859120Y-76009120D01*
X105931074Y-75921443D01*
X105984540Y-75821414D01*
X106017465Y-75712877D01*
X106028582Y-75600001D01*
X106028582Y-74949999D01*
X106017465Y-74837123D01*
X105984540Y-74728586D01*
X105931074Y-74628557D01*
X105859120Y-74540880D01*
X105771443Y-74468926D01*
X105671414Y-74415460D01*
X105562877Y-74382535D01*
X105450001Y-74371418D01*
X104549999Y-74371418D01*
X104437123Y-74382535D01*
X104328586Y-74415460D01*
X104228557Y-74468926D01*
X104140880Y-74540880D01*
X104068926Y-74628557D01*
X104015460Y-74728586D01*
X104009571Y-74748000D01*
X103182898Y-74748000D01*
X103153206Y-74692450D01*
X103112343Y-74642657D01*
X103062550Y-74601794D01*
X103005743Y-74571430D01*
X102944103Y-74552732D01*
X102880000Y-74546418D01*
X101820000Y-74546418D01*
X101755897Y-74552732D01*
X101694257Y-74571430D01*
X101637450Y-74601794D01*
X101587657Y-74642657D01*
X101546794Y-74692450D01*
X101516430Y-74749257D01*
X101497732Y-74810897D01*
X101491418Y-74875000D01*
X101491418Y-75525000D01*
X101497732Y-75589103D01*
X101516430Y-75650743D01*
X101546794Y-75707550D01*
X101587657Y-75757343D01*
X101637450Y-75798206D01*
X101694257Y-75828570D01*
X101755897Y-75847268D01*
X101820000Y-75853582D01*
X102880000Y-75853582D01*
X102944103Y-75847268D01*
X103005743Y-75828570D01*
X103062550Y-75798206D01*
X103112343Y-75757343D01*
X103153206Y-75707550D01*
X103182898Y-75652000D01*
X103976539Y-75652000D01*
X103982535Y-75712877D01*
X104015460Y-75821414D01*
X104068926Y-75921443D01*
X104140880Y-76009120D01*
X104228557Y-76081074D01*
X104328586Y-76134540D01*
X104437123Y-76167465D01*
X104533791Y-76176986D01*
X103696096Y-77014681D01*
X103678842Y-77028841D01*
X103642433Y-77073206D01*
X103622358Y-77097667D01*
X103580386Y-77176191D01*
X103554540Y-77261393D01*
X103553553Y-77271418D01*
X103550000Y-77271418D01*
X103485897Y-77277732D01*
X103424257Y-77296430D01*
X103367450Y-77326794D01*
X103317657Y-77367657D01*
X103276794Y-77417450D01*
X103246430Y-77474257D01*
X103227732Y-77535897D01*
X103223015Y-77583791D01*
X102778582Y-77139359D01*
X102778582Y-76650000D01*
X102772268Y-76585897D01*
X102753570Y-76524257D01*
X102723206Y-76467450D01*
X102682343Y-76417657D01*
X102632550Y-76376794D01*
X102575743Y-76346430D01*
X102514103Y-76327732D01*
X102450000Y-76321418D01*
X101550000Y-76321418D01*
X101485897Y-76327732D01*
X101424257Y-76346430D01*
X101367450Y-76376794D01*
X101317657Y-76417657D01*
X101276794Y-76467450D01*
X101246430Y-76524257D01*
X101227732Y-76585897D01*
X101221418Y-76650000D01*
X101221418Y-77450000D01*
X101227732Y-77514103D01*
X101246430Y-77575743D01*
X101276794Y-77632550D01*
X101317657Y-77682343D01*
X101367450Y-77723206D01*
X101424257Y-77753570D01*
X101485897Y-77772268D01*
X101550000Y-77778582D01*
X102139359Y-77778582D01*
X102548001Y-78187225D01*
X102548001Y-78238015D01*
X102514103Y-78227732D01*
X102450000Y-78221418D01*
X101550000Y-78221418D01*
X101485897Y-78227732D01*
X101424257Y-78246430D01*
X101367450Y-78276794D01*
X101317657Y-78317657D01*
X101276794Y-78367450D01*
X101246430Y-78424257D01*
X101227732Y-78485897D01*
X101221615Y-78548000D01*
X99637203Y-78548000D01*
X99614998Y-78545813D01*
X99526390Y-78554540D01*
X99441188Y-78580386D01*
X99362665Y-78622357D01*
X99293839Y-78678841D01*
X99279679Y-78696095D01*
X98696096Y-79279679D01*
X98678842Y-79293839D01*
X98635962Y-79346089D01*
X98622358Y-79362665D01*
X98580386Y-79441189D01*
X98554540Y-79526391D01*
X98545813Y-79614998D01*
X98548001Y-79637213D01*
X98548000Y-80288014D01*
X98514103Y-80277732D01*
X98450000Y-80271418D01*
X97550000Y-80271418D01*
X97485897Y-80277732D01*
X97424257Y-80296430D01*
X97367450Y-80326794D01*
X97317657Y-80367657D01*
X97276794Y-80417450D01*
X97246430Y-80474257D01*
X97227732Y-80535897D01*
X97221418Y-80600000D01*
X97221418Y-81400000D01*
X97227732Y-81464103D01*
X97246430Y-81525743D01*
X97276794Y-81582550D01*
X97317657Y-81632343D01*
X97367450Y-81673206D01*
X97424257Y-81703570D01*
X97485897Y-81722268D01*
X97548001Y-81728385D01*
X97548000Y-82312776D01*
X97085093Y-82775683D01*
X97071603Y-82773000D01*
X96928397Y-82773000D01*
X96787942Y-82800938D01*
X96655636Y-82855741D01*
X96536564Y-82935302D01*
X96435302Y-83036564D01*
X96355741Y-83155636D01*
X96300938Y-83287942D01*
X96273000Y-83428397D01*
X89317000Y-83428397D01*
X89317000Y-79550000D01*
X92871418Y-79550000D01*
X92871418Y-81150000D01*
X92877732Y-81214103D01*
X92896430Y-81275743D01*
X92926794Y-81332550D01*
X92967657Y-81382343D01*
X93017450Y-81423206D01*
X93074257Y-81453570D01*
X93135897Y-81472268D01*
X93200000Y-81478582D01*
X94800000Y-81478582D01*
X94864103Y-81472268D01*
X94925743Y-81453570D01*
X94982550Y-81423206D01*
X95032343Y-81382343D01*
X95073206Y-81332550D01*
X95103570Y-81275743D01*
X95122268Y-81214103D01*
X95128582Y-81150000D01*
X95128582Y-79550000D01*
X95122268Y-79485897D01*
X95103570Y-79424257D01*
X95073206Y-79367450D01*
X95032343Y-79317657D01*
X94982550Y-79276794D01*
X94925743Y-79246430D01*
X94864103Y-79227732D01*
X94800000Y-79221418D01*
X93200000Y-79221418D01*
X93135897Y-79227732D01*
X93074257Y-79246430D01*
X93017450Y-79276794D01*
X92967657Y-79317657D01*
X92926794Y-79367450D01*
X92896430Y-79424257D01*
X92877732Y-79485897D01*
X92871418Y-79550000D01*
X89317000Y-79550000D01*
X89317000Y-65363590D01*
X92045813Y-65363590D01*
X92048000Y-65385795D01*
X92048001Y-71477786D01*
X92048000Y-71477796D01*
X92048001Y-74477785D01*
X92045813Y-74500000D01*
X92054540Y-74588607D01*
X92080386Y-74673809D01*
X92080387Y-74673810D01*
X92122358Y-74752333D01*
X92178842Y-74821159D01*
X92196096Y-74835319D01*
X92905583Y-75544807D01*
X92916310Y-75598734D01*
X93001266Y-75803835D01*
X93124602Y-75988421D01*
X93281579Y-76145398D01*
X93466165Y-76268734D01*
X93671266Y-76353690D01*
X93889000Y-76397000D01*
X94111000Y-76397000D01*
X94328734Y-76353690D01*
X94533835Y-76268734D01*
X94718421Y-76145398D01*
X94875398Y-75988421D01*
X94998734Y-75803835D01*
X95083690Y-75598734D01*
X95127000Y-75381000D01*
X95127000Y-75159000D01*
X95083690Y-74941266D01*
X94998734Y-74736165D01*
X94875398Y-74551579D01*
X94718421Y-74394602D01*
X94533835Y-74271266D01*
X94328734Y-74186310D01*
X94111000Y-74143000D01*
X93889000Y-74143000D01*
X93671266Y-74186310D01*
X93466165Y-74271266D01*
X93281579Y-74394602D01*
X93157702Y-74518479D01*
X92952000Y-74312777D01*
X92952000Y-73144897D01*
X93001266Y-73263835D01*
X93124602Y-73448421D01*
X93281579Y-73605398D01*
X93466165Y-73728734D01*
X93671266Y-73813690D01*
X93889000Y-73857000D01*
X94111000Y-73857000D01*
X94328734Y-73813690D01*
X94533835Y-73728734D01*
X94718421Y-73605398D01*
X94875398Y-73448421D01*
X94998734Y-73263835D01*
X95083690Y-73058734D01*
X95127000Y-72841000D01*
X95127000Y-72619000D01*
X95083690Y-72401266D01*
X94998734Y-72196165D01*
X94875398Y-72011579D01*
X94718421Y-71854602D01*
X94533835Y-71731266D01*
X94328734Y-71646310D01*
X94111000Y-71603000D01*
X93889000Y-71603000D01*
X93671266Y-71646310D01*
X93466165Y-71731266D01*
X93281579Y-71854602D01*
X93124602Y-72011579D01*
X93001266Y-72196165D01*
X92952000Y-72315103D01*
X92952000Y-70604897D01*
X93001266Y-70723835D01*
X93124602Y-70908421D01*
X93281579Y-71065398D01*
X93466165Y-71188734D01*
X93671266Y-71273690D01*
X93889000Y-71317000D01*
X94111000Y-71317000D01*
X94328734Y-71273690D01*
X94533835Y-71188734D01*
X94718421Y-71065398D01*
X94875398Y-70908421D01*
X94998734Y-70723835D01*
X95083690Y-70518734D01*
X95127000Y-70301000D01*
X95127000Y-70079000D01*
X95083690Y-69861266D01*
X94998734Y-69656165D01*
X94875398Y-69471579D01*
X94718421Y-69314602D01*
X94533835Y-69191266D01*
X94328734Y-69106310D01*
X94111000Y-69063000D01*
X93889000Y-69063000D01*
X93671266Y-69106310D01*
X93466165Y-69191266D01*
X93281579Y-69314602D01*
X93124602Y-69471579D01*
X93001266Y-69656165D01*
X92952000Y-69775103D01*
X92952000Y-68064897D01*
X93001266Y-68183835D01*
X93124602Y-68368421D01*
X93281579Y-68525398D01*
X93466165Y-68648734D01*
X93671266Y-68733690D01*
X93889000Y-68777000D01*
X94111000Y-68777000D01*
X94328734Y-68733690D01*
X94533835Y-68648734D01*
X94718421Y-68525398D01*
X94875398Y-68368421D01*
X94998734Y-68183835D01*
X95083690Y-67978734D01*
X95127000Y-67761000D01*
X95127000Y-67539000D01*
X95083690Y-67321266D01*
X94998734Y-67116165D01*
X94875398Y-66931579D01*
X94718421Y-66774602D01*
X94533835Y-66651266D01*
X94452000Y-66617369D01*
X94452000Y-64699999D01*
X96971418Y-64699999D01*
X96971418Y-65350001D01*
X96982535Y-65462877D01*
X97015460Y-65571414D01*
X97068926Y-65671443D01*
X97140880Y-65759120D01*
X97228557Y-65831074D01*
X97328586Y-65884540D01*
X97437123Y-65917465D01*
X97549999Y-65928582D01*
X98450001Y-65928582D01*
X98562877Y-65917465D01*
X98671414Y-65884540D01*
X98771443Y-65831074D01*
X98859120Y-65759120D01*
X98931074Y-65671443D01*
X98984540Y-65571414D01*
X99017465Y-65462877D01*
X99028582Y-65350001D01*
X99028582Y-64699999D01*
X99017465Y-64587123D01*
X98984540Y-64478586D01*
X98931074Y-64378557D01*
X98859120Y-64290880D01*
X98771443Y-64218926D01*
X98671414Y-64165460D01*
X98562877Y-64132535D01*
X98450001Y-64121418D01*
X97549999Y-64121418D01*
X97437123Y-64132535D01*
X97328586Y-64165460D01*
X97228557Y-64218926D01*
X97140880Y-64290880D01*
X97068926Y-64378557D01*
X97015460Y-64478586D01*
X96982535Y-64587123D01*
X96971418Y-64699999D01*
X94452000Y-64699999D01*
X94452000Y-64687223D01*
X97937224Y-61202000D01*
X99188256Y-61202000D01*
X99140880Y-61240880D01*
X99068926Y-61328557D01*
X99015460Y-61428586D01*
X98982535Y-61537123D01*
X98971418Y-61649999D01*
X98971418Y-62300001D01*
X98982535Y-62412877D01*
X99015460Y-62521414D01*
X99068926Y-62621443D01*
X99140880Y-62709120D01*
X99228557Y-62781074D01*
X99328586Y-62834540D01*
X99437123Y-62867465D01*
X99549999Y-62878582D01*
X100450001Y-62878582D01*
X100485711Y-62875065D01*
X100239358Y-63121418D01*
X99549999Y-63121418D01*
X99437123Y-63132535D01*
X99328586Y-63165460D01*
X99228557Y-63218926D01*
X99140880Y-63290880D01*
X99068926Y-63378557D01*
X99015460Y-63478586D01*
X98982535Y-63587123D01*
X98971418Y-63699999D01*
X98971418Y-64350001D01*
X98982535Y-64462877D01*
X99015460Y-64571414D01*
X99068926Y-64671443D01*
X99140880Y-64759120D01*
X99228557Y-64831074D01*
X99328586Y-64884540D01*
X99437123Y-64917465D01*
X99548000Y-64928385D01*
X99548001Y-66071615D01*
X99437123Y-66082535D01*
X99328586Y-66115460D01*
X99228557Y-66168926D01*
X99140880Y-66240880D01*
X99068926Y-66328557D01*
X99015460Y-66428586D01*
X98982535Y-66537123D01*
X98971418Y-66649999D01*
X98971418Y-67300001D01*
X98982535Y-67412877D01*
X99015460Y-67521414D01*
X99068926Y-67621443D01*
X99140880Y-67709120D01*
X99228557Y-67781074D01*
X99328586Y-67834540D01*
X99437123Y-67867465D01*
X99549999Y-67878582D01*
X100450001Y-67878582D01*
X100562877Y-67867465D01*
X100671414Y-67834540D01*
X100771443Y-67781074D01*
X100859120Y-67709120D01*
X100931074Y-67621443D01*
X100984540Y-67521414D01*
X101013181Y-67427000D01*
X101986819Y-67427000D01*
X102013808Y-67515970D01*
X101942987Y-67522945D01*
X101860393Y-67548000D01*
X101857785Y-67548791D01*
X101779262Y-67590762D01*
X101710436Y-67647246D01*
X101696276Y-67664500D01*
X101164505Y-68196272D01*
X101147246Y-68210436D01*
X101090762Y-68279263D01*
X101064414Y-68328557D01*
X101048791Y-68357786D01*
X101022945Y-68442988D01*
X101014218Y-68531595D01*
X101016405Y-68553800D01*
X101016405Y-68583629D01*
X100984540Y-68478586D01*
X100931074Y-68378557D01*
X100859120Y-68290880D01*
X100771443Y-68218926D01*
X100671414Y-68165460D01*
X100562877Y-68132535D01*
X100450001Y-68121418D01*
X99549999Y-68121418D01*
X99437123Y-68132535D01*
X99328586Y-68165460D01*
X99228557Y-68218926D01*
X99140880Y-68290880D01*
X99068926Y-68378557D01*
X99015460Y-68478586D01*
X98982535Y-68587123D01*
X98971418Y-68699999D01*
X98971418Y-69350001D01*
X98982535Y-69462877D01*
X99015460Y-69571414D01*
X99068926Y-69671443D01*
X99140880Y-69759120D01*
X99228557Y-69831074D01*
X99328586Y-69884540D01*
X99396314Y-69905085D01*
X99435302Y-69963436D01*
X99536564Y-70064698D01*
X99655636Y-70144259D01*
X99787942Y-70199062D01*
X99900334Y-70221418D01*
X99899999Y-70221418D01*
X99787123Y-70232535D01*
X99678586Y-70265460D01*
X99578557Y-70318926D01*
X99490880Y-70390880D01*
X99418926Y-70478557D01*
X99365460Y-70578586D01*
X99332535Y-70687123D01*
X99321418Y-70799999D01*
X99321418Y-71700001D01*
X99332535Y-71812877D01*
X99365460Y-71921414D01*
X99418926Y-72021443D01*
X99490880Y-72109120D01*
X99578557Y-72181074D01*
X99678586Y-72234540D01*
X99773001Y-72263181D01*
X99773001Y-72646418D01*
X99620000Y-72646418D01*
X99555897Y-72652732D01*
X99494257Y-72671430D01*
X99437450Y-72701794D01*
X99387657Y-72742657D01*
X99346794Y-72792450D01*
X99316430Y-72849257D01*
X99297732Y-72910897D01*
X99291418Y-72975000D01*
X99291418Y-73625000D01*
X99297732Y-73689103D01*
X99316430Y-73750743D01*
X99329396Y-73775000D01*
X99316430Y-73799257D01*
X99297732Y-73860897D01*
X99291418Y-73925000D01*
X99291418Y-74575000D01*
X99297732Y-74639103D01*
X99316430Y-74700743D01*
X99329396Y-74725000D01*
X99316430Y-74749257D01*
X99297732Y-74810897D01*
X99291418Y-74875000D01*
X99291418Y-75525000D01*
X99297732Y-75589103D01*
X99316430Y-75650743D01*
X99346794Y-75707550D01*
X99387657Y-75757343D01*
X99437450Y-75798206D01*
X99494257Y-75828570D01*
X99555897Y-75847268D01*
X99620000Y-75853582D01*
X100680000Y-75853582D01*
X100744103Y-75847268D01*
X100805743Y-75828570D01*
X100862550Y-75798206D01*
X100912343Y-75757343D01*
X100953206Y-75707550D01*
X100983570Y-75650743D01*
X101002268Y-75589103D01*
X101008582Y-75525000D01*
X101008582Y-74875000D01*
X101002268Y-74810897D01*
X100983570Y-74749257D01*
X100970604Y-74725000D01*
X100983570Y-74700743D01*
X101002268Y-74639103D01*
X101008582Y-74575000D01*
X101008582Y-73925000D01*
X101002268Y-73860897D01*
X100983570Y-73799257D01*
X100970604Y-73775000D01*
X100983570Y-73750743D01*
X101002268Y-73689103D01*
X101008582Y-73625000D01*
X101008582Y-72975000D01*
X101002268Y-72910897D01*
X100983570Y-72849257D01*
X100953206Y-72792450D01*
X100912343Y-72742657D01*
X100862550Y-72701794D01*
X100805743Y-72671430D01*
X100744103Y-72652732D01*
X100680000Y-72646418D01*
X100677000Y-72646418D01*
X100677000Y-72263181D01*
X100771414Y-72234540D01*
X100871443Y-72181074D01*
X100959120Y-72109120D01*
X101031074Y-72021443D01*
X101084540Y-71921414D01*
X101117465Y-71812877D01*
X101128582Y-71700001D01*
X101128582Y-70985642D01*
X101377666Y-70736558D01*
X101371418Y-70799999D01*
X101371418Y-71700001D01*
X101382535Y-71812877D01*
X101415460Y-71921414D01*
X101468926Y-72021443D01*
X101540880Y-72109120D01*
X101628557Y-72181074D01*
X101728586Y-72234540D01*
X101823001Y-72263181D01*
X101823001Y-72646418D01*
X101820000Y-72646418D01*
X101755897Y-72652732D01*
X101694257Y-72671430D01*
X101637450Y-72701794D01*
X101587657Y-72742657D01*
X101546794Y-72792450D01*
X101516430Y-72849257D01*
X101497732Y-72910897D01*
X101491418Y-72975000D01*
X101491418Y-73625000D01*
X101497732Y-73689103D01*
X101516430Y-73750743D01*
X101546794Y-73807550D01*
X101587657Y-73857343D01*
X101637450Y-73898206D01*
X101694257Y-73928570D01*
X101755897Y-73947268D01*
X101820000Y-73953582D01*
X102880000Y-73953582D01*
X102944103Y-73947268D01*
X103005743Y-73928570D01*
X103062550Y-73898206D01*
X103112343Y-73857343D01*
X103153206Y-73807550D01*
X103182898Y-73752000D01*
X104009571Y-73752000D01*
X104015460Y-73771414D01*
X104068926Y-73871443D01*
X104140880Y-73959120D01*
X104228557Y-74031074D01*
X104328586Y-74084540D01*
X104437123Y-74117465D01*
X104549999Y-74128582D01*
X105450001Y-74128582D01*
X105562877Y-74117465D01*
X105671414Y-74084540D01*
X105771443Y-74031074D01*
X105859120Y-73959120D01*
X105931074Y-73871443D01*
X105984540Y-73771414D01*
X106017465Y-73662877D01*
X106028582Y-73550001D01*
X106028582Y-72899999D01*
X106017465Y-72787123D01*
X105984540Y-72678586D01*
X105931074Y-72578557D01*
X105859120Y-72490880D01*
X105771443Y-72418926D01*
X105671414Y-72365460D01*
X105562877Y-72332535D01*
X105450001Y-72321418D01*
X104549999Y-72321418D01*
X104437123Y-72332535D01*
X104328586Y-72365460D01*
X104228557Y-72418926D01*
X104140880Y-72490880D01*
X104068926Y-72578557D01*
X104015460Y-72678586D01*
X103982535Y-72787123D01*
X103976539Y-72848000D01*
X103182898Y-72848000D01*
X103153206Y-72792450D01*
X103112343Y-72742657D01*
X103062550Y-72701794D01*
X103005743Y-72671430D01*
X102944103Y-72652732D01*
X102880000Y-72646418D01*
X102727000Y-72646418D01*
X102727000Y-72263181D01*
X102821414Y-72234540D01*
X102921443Y-72181074D01*
X103009120Y-72109120D01*
X103081074Y-72021443D01*
X103134540Y-71921414D01*
X103167465Y-71812877D01*
X103178582Y-71700001D01*
X103178582Y-70799999D01*
X103167465Y-70687123D01*
X103134540Y-70578586D01*
X103081074Y-70478557D01*
X103009120Y-70390880D01*
X102921443Y-70318926D01*
X102821414Y-70265460D01*
X102712877Y-70232535D01*
X102600001Y-70221418D01*
X101949999Y-70221418D01*
X101861435Y-70230141D01*
X101888019Y-70180405D01*
X101913865Y-70095202D01*
X101920405Y-70028800D01*
X101922592Y-70006596D01*
X101920405Y-69984391D01*
X101920405Y-68718818D01*
X101974935Y-68664288D01*
X101971418Y-68699999D01*
X101971418Y-69350001D01*
X101982535Y-69462877D01*
X102015460Y-69571414D01*
X102068926Y-69671443D01*
X102140880Y-69759120D01*
X102228557Y-69831074D01*
X102328586Y-69884540D01*
X102396314Y-69905085D01*
X102435302Y-69963436D01*
X102536564Y-70064698D01*
X102655636Y-70144259D01*
X102787942Y-70199062D01*
X102928397Y-70227000D01*
X103071603Y-70227000D01*
X103212058Y-70199062D01*
X103344364Y-70144259D01*
X103463436Y-70064698D01*
X103564698Y-69963436D01*
X103603686Y-69905085D01*
X103671414Y-69884540D01*
X103771443Y-69831074D01*
X103859120Y-69759120D01*
X103931074Y-69671443D01*
X103984540Y-69571414D01*
X104017465Y-69462877D01*
X104028582Y-69350001D01*
X104028582Y-68699999D01*
X104017465Y-68587123D01*
X103984540Y-68478586D01*
X103953442Y-68420405D01*
X104009390Y-68420405D01*
X104031595Y-68422592D01*
X104053800Y-68420405D01*
X104120202Y-68413865D01*
X104205405Y-68388019D01*
X104283928Y-68346048D01*
X104352754Y-68289564D01*
X104366918Y-68272305D01*
X105303912Y-67335313D01*
X105321159Y-67321159D01*
X105377643Y-67252333D01*
X105419614Y-67173810D01*
X105430964Y-67136395D01*
X105463436Y-67114698D01*
X105564698Y-67013436D01*
X105644259Y-66894364D01*
X105699062Y-66762058D01*
X105727000Y-66621603D01*
X105727000Y-66478397D01*
X105699062Y-66337942D01*
X105644259Y-66205636D01*
X105564698Y-66086564D01*
X105463436Y-65985302D01*
X105344364Y-65905741D01*
X105212058Y-65850938D01*
X105071603Y-65823000D01*
X104928397Y-65823000D01*
X104787942Y-65850938D01*
X104655636Y-65905741D01*
X104536564Y-65985302D01*
X104435302Y-66086564D01*
X104355741Y-66205636D01*
X104300938Y-66337942D01*
X104273000Y-66478397D01*
X104273000Y-66621603D01*
X104300938Y-66762058D01*
X104355741Y-66894364D01*
X104400069Y-66960706D01*
X104025065Y-67335711D01*
X104028582Y-67300001D01*
X104028582Y-66649999D01*
X104017465Y-66537123D01*
X103984540Y-66428586D01*
X103931074Y-66328557D01*
X103859120Y-66240880D01*
X103771443Y-66168926D01*
X103671414Y-66115460D01*
X103562877Y-66082535D01*
X103450001Y-66071418D01*
X102549999Y-66071418D01*
X102437123Y-66082535D01*
X102328586Y-66115460D01*
X102228557Y-66168926D01*
X102140880Y-66240880D01*
X102068926Y-66328557D01*
X102015460Y-66428586D01*
X101986819Y-66523000D01*
X101013181Y-66523000D01*
X100984540Y-66428586D01*
X100931074Y-66328557D01*
X100859120Y-66240880D01*
X100771443Y-66168926D01*
X100671414Y-66115460D01*
X100562877Y-66082535D01*
X100452000Y-66071615D01*
X100452000Y-64928385D01*
X100562877Y-64917465D01*
X100671414Y-64884540D01*
X100771443Y-64831074D01*
X100859120Y-64759120D01*
X100907638Y-64699999D01*
X101971418Y-64699999D01*
X101971418Y-65350001D01*
X101982535Y-65462877D01*
X102015460Y-65571414D01*
X102068926Y-65671443D01*
X102140880Y-65759120D01*
X102228557Y-65831074D01*
X102328586Y-65884540D01*
X102437123Y-65917465D01*
X102549999Y-65928582D01*
X103450001Y-65928582D01*
X103562877Y-65917465D01*
X103671414Y-65884540D01*
X103771443Y-65831074D01*
X103859120Y-65759120D01*
X103931074Y-65671443D01*
X103984540Y-65571414D01*
X104017465Y-65462877D01*
X104028582Y-65350001D01*
X104028582Y-64853628D01*
X105344827Y-64853628D01*
X105405636Y-64894259D01*
X105537942Y-64949062D01*
X105678397Y-64977000D01*
X105821603Y-64977000D01*
X105962058Y-64949062D01*
X106094364Y-64894259D01*
X106213436Y-64814698D01*
X106314698Y-64713436D01*
X106394259Y-64594364D01*
X106449062Y-64462058D01*
X106477000Y-64321603D01*
X106477000Y-64178397D01*
X106449062Y-64037942D01*
X106394259Y-63905636D01*
X106314698Y-63786564D01*
X106213436Y-63685302D01*
X106094364Y-63605741D01*
X105962058Y-63550938D01*
X105821603Y-63523000D01*
X105678397Y-63523000D01*
X105537942Y-63550938D01*
X105405636Y-63605741D01*
X105286564Y-63685302D01*
X105185302Y-63786564D01*
X105105741Y-63905636D01*
X105087519Y-63949628D01*
X103645576Y-63949628D01*
X103623371Y-63947441D01*
X103534764Y-63956168D01*
X103463470Y-63977795D01*
X103449562Y-63982014D01*
X103371039Y-64023985D01*
X103302213Y-64080469D01*
X103288057Y-64097718D01*
X103264357Y-64121418D01*
X102549999Y-64121418D01*
X102437123Y-64132535D01*
X102328586Y-64165460D01*
X102228557Y-64218926D01*
X102140880Y-64290880D01*
X102068926Y-64378557D01*
X102015460Y-64478586D01*
X101982535Y-64587123D01*
X101971418Y-64699999D01*
X100907638Y-64699999D01*
X100931074Y-64671443D01*
X100984540Y-64571414D01*
X101017465Y-64462877D01*
X101028582Y-64350001D01*
X101028582Y-63699999D01*
X101020570Y-63618653D01*
X101212224Y-63427000D01*
X101986819Y-63427000D01*
X102015460Y-63521414D01*
X102068926Y-63621443D01*
X102140880Y-63709120D01*
X102228557Y-63781074D01*
X102328586Y-63834540D01*
X102437123Y-63867465D01*
X102549999Y-63878582D01*
X103450001Y-63878582D01*
X103562877Y-63867465D01*
X103671414Y-63834540D01*
X103771443Y-63781074D01*
X103859120Y-63709120D01*
X103931074Y-63621443D01*
X103984540Y-63521414D01*
X104005597Y-63452000D01*
X106312777Y-63452000D01*
X107048001Y-64187225D01*
X107048000Y-67477795D01*
X107045813Y-67500000D01*
X107048001Y-67522214D01*
X107048000Y-67999202D01*
X107048001Y-67999212D01*
X107048001Y-68071615D01*
X106937123Y-68082535D01*
X106828586Y-68115460D01*
X106728557Y-68168926D01*
X106640880Y-68240880D01*
X106568926Y-68328557D01*
X106515460Y-68428586D01*
X106482535Y-68537123D01*
X106471418Y-68649999D01*
X106471418Y-69300001D01*
X106482535Y-69412877D01*
X106515460Y-69521414D01*
X106568926Y-69621443D01*
X106640880Y-69709120D01*
X106728557Y-69781074D01*
X106828586Y-69834540D01*
X106937123Y-69867465D01*
X107049999Y-69878582D01*
X107950001Y-69878582D01*
X108062877Y-69867465D01*
X108171414Y-69834540D01*
X108271443Y-69781074D01*
X108359120Y-69709120D01*
X108431074Y-69621443D01*
X108484540Y-69521414D01*
X108517465Y-69412877D01*
X108528582Y-69300001D01*
X108528582Y-68649999D01*
X108517465Y-68537123D01*
X108491643Y-68452000D01*
X109029670Y-68452000D01*
X109015460Y-68478586D01*
X108982535Y-68587123D01*
X108971418Y-68699999D01*
X108971418Y-69350001D01*
X108982535Y-69462877D01*
X109015460Y-69571414D01*
X109068926Y-69671443D01*
X109140880Y-69759120D01*
X109228557Y-69831074D01*
X109328586Y-69884540D01*
X109437123Y-69917465D01*
X109549999Y-69928582D01*
X109789358Y-69928582D01*
X110114685Y-70253910D01*
X110128841Y-70271159D01*
X110197667Y-70327643D01*
X110276190Y-70369614D01*
X110361392Y-70395460D01*
X110449999Y-70404187D01*
X110472204Y-70402000D01*
X111226540Y-70402000D01*
X111227732Y-70414103D01*
X111246430Y-70475743D01*
X111276794Y-70532550D01*
X111317657Y-70582343D01*
X111367450Y-70623206D01*
X111424257Y-70653570D01*
X111485897Y-70672268D01*
X111550000Y-70678582D01*
X112450000Y-70678582D01*
X112514103Y-70672268D01*
X112575743Y-70653570D01*
X112632550Y-70623206D01*
X112682343Y-70582343D01*
X112723206Y-70532550D01*
X112753570Y-70475743D01*
X112772268Y-70414103D01*
X112778582Y-70350000D01*
X112778582Y-69550000D01*
X112772268Y-69485897D01*
X112753570Y-69424257D01*
X112723206Y-69367450D01*
X112682343Y-69317657D01*
X112632550Y-69276794D01*
X112575743Y-69246430D01*
X112514103Y-69227732D01*
X112450000Y-69221418D01*
X111550000Y-69221418D01*
X111485897Y-69227732D01*
X111424257Y-69246430D01*
X111367450Y-69276794D01*
X111317657Y-69317657D01*
X111276794Y-69367450D01*
X111246430Y-69424257D01*
X111227732Y-69485897D01*
X111226540Y-69498000D01*
X111006810Y-69498000D01*
X111017465Y-69462877D01*
X111028582Y-69350001D01*
X111028582Y-68699999D01*
X111017465Y-68587123D01*
X110984540Y-68478586D01*
X110970330Y-68452000D01*
X111221615Y-68452000D01*
X111227732Y-68514103D01*
X111246430Y-68575743D01*
X111276794Y-68632550D01*
X111317657Y-68682343D01*
X111367450Y-68723206D01*
X111424257Y-68753570D01*
X111485897Y-68772268D01*
X111550000Y-68778582D01*
X112450000Y-68778582D01*
X112514103Y-68772268D01*
X112575743Y-68753570D01*
X112632550Y-68723206D01*
X112682343Y-68682343D01*
X112723206Y-68632550D01*
X112753570Y-68575743D01*
X112772268Y-68514103D01*
X112778582Y-68450000D01*
X112778582Y-67960641D01*
X113787224Y-66952000D01*
X117812777Y-66952000D01*
X118048001Y-67187225D01*
X118048000Y-68712775D01*
X117487776Y-69273000D01*
X117428397Y-69273000D01*
X117287942Y-69300938D01*
X117155636Y-69355741D01*
X117036564Y-69435302D01*
X116935302Y-69536564D01*
X116855741Y-69655636D01*
X116800938Y-69787942D01*
X116773000Y-69928397D01*
X116773000Y-69987777D01*
X116664687Y-70096090D01*
X116622358Y-70147667D01*
X116580386Y-70226191D01*
X116554540Y-70311393D01*
X116545813Y-70400000D01*
X116554540Y-70488607D01*
X116580386Y-70573809D01*
X116622358Y-70652333D01*
X116678842Y-70721158D01*
X116747667Y-70777642D01*
X116826191Y-70819614D01*
X116911393Y-70845460D01*
X117000000Y-70854187D01*
X117088607Y-70845460D01*
X117173809Y-70819614D01*
X117252333Y-70777642D01*
X117303910Y-70735313D01*
X117331497Y-70707726D01*
X117428397Y-70727000D01*
X117571603Y-70727000D01*
X117712058Y-70699062D01*
X117844364Y-70644259D01*
X117963436Y-70564698D01*
X118064698Y-70463436D01*
X118144259Y-70344364D01*
X118199062Y-70212058D01*
X118227000Y-70071603D01*
X118227000Y-69928397D01*
X118207726Y-69831498D01*
X118803912Y-69235313D01*
X118821159Y-69221159D01*
X118877643Y-69152333D01*
X118919614Y-69073810D01*
X118945460Y-68988607D01*
X118952000Y-68922205D01*
X118952000Y-68922204D01*
X118954187Y-68900001D01*
X118952000Y-68877796D01*
X118952000Y-67022205D01*
X118954187Y-67000000D01*
X118945460Y-66911392D01*
X118919614Y-66826190D01*
X118880985Y-66753920D01*
X118877643Y-66747667D01*
X118821159Y-66678841D01*
X118803905Y-66664681D01*
X118335323Y-66196100D01*
X118321159Y-66178841D01*
X118252333Y-66122357D01*
X118173810Y-66080386D01*
X118088607Y-66054540D01*
X118022205Y-66048000D01*
X118000000Y-66045813D01*
X117977795Y-66048000D01*
X113622204Y-66048000D01*
X113599999Y-66045813D01*
X113511392Y-66054540D01*
X113452622Y-66072368D01*
X113426190Y-66080386D01*
X113347667Y-66122357D01*
X113278841Y-66178841D01*
X113264681Y-66196095D01*
X112139359Y-67321418D01*
X111550000Y-67321418D01*
X111485897Y-67327732D01*
X111424257Y-67346430D01*
X111367450Y-67376794D01*
X111317657Y-67417657D01*
X111276794Y-67467450D01*
X111246430Y-67524257D01*
X111239228Y-67548000D01*
X110970330Y-67548000D01*
X110984540Y-67521414D01*
X111017465Y-67412877D01*
X111028582Y-67300001D01*
X111028582Y-66649999D01*
X111022812Y-66591412D01*
X112162224Y-65452000D01*
X118312777Y-65452000D01*
X120548000Y-67687224D01*
X120548001Y-76908777D01*
X120428582Y-76789358D01*
X120428582Y-75900000D01*
X120422268Y-75835897D01*
X120403570Y-75774257D01*
X120373206Y-75717450D01*
X120332343Y-75667657D01*
X120282550Y-75626794D01*
X120225743Y-75596430D01*
X120164103Y-75577732D01*
X120100000Y-75571418D01*
X119952000Y-75571418D01*
X119952000Y-74428582D01*
X120100000Y-74428582D01*
X120164103Y-74422268D01*
X120225743Y-74403570D01*
X120282550Y-74373206D01*
X120332343Y-74332343D01*
X120373206Y-74282550D01*
X120403570Y-74225743D01*
X120422268Y-74164103D01*
X120428582Y-74100000D01*
X120428582Y-73200000D01*
X120422268Y-73135897D01*
X120403570Y-73074257D01*
X120373206Y-73017450D01*
X120332343Y-72967657D01*
X120282550Y-72926794D01*
X120225743Y-72896430D01*
X120164103Y-72877732D01*
X120100000Y-72871418D01*
X118900000Y-72871418D01*
X118835897Y-72877732D01*
X118774257Y-72896430D01*
X118717450Y-72926794D01*
X118667657Y-72967657D01*
X118626794Y-73017450D01*
X118596430Y-73074257D01*
X118577732Y-73135897D01*
X118571418Y-73200000D01*
X118571418Y-74100000D01*
X118577732Y-74164103D01*
X118596430Y-74225743D01*
X118626794Y-74282550D01*
X118667657Y-74332343D01*
X118717450Y-74373206D01*
X118774257Y-74403570D01*
X118835897Y-74422268D01*
X118900000Y-74428582D01*
X119048001Y-74428582D01*
X119048000Y-75571418D01*
X118900000Y-75571418D01*
X118835897Y-75577732D01*
X118774257Y-75596430D01*
X118717450Y-75626794D01*
X118667657Y-75667657D01*
X118626794Y-75717450D01*
X118596430Y-75774257D01*
X118577732Y-75835897D01*
X118571418Y-75900000D01*
X118571418Y-76800000D01*
X118577732Y-76864103D01*
X118596430Y-76925743D01*
X118626794Y-76982550D01*
X118667657Y-77032343D01*
X118717450Y-77073206D01*
X118774257Y-77103570D01*
X118835897Y-77122268D01*
X118900000Y-77128582D01*
X119489359Y-77128582D01*
X120548001Y-78187225D01*
X120548000Y-78522204D01*
X120548001Y-78522214D01*
X120548000Y-80262776D01*
X120186991Y-80623786D01*
X120171414Y-80615460D01*
X120062877Y-80582535D01*
X119950001Y-80571418D01*
X119049999Y-80571418D01*
X118937123Y-80582535D01*
X118828586Y-80615460D01*
X118728557Y-80668926D01*
X118640880Y-80740880D01*
X118568926Y-80828557D01*
X118515460Y-80928586D01*
X118482535Y-81037123D01*
X118471418Y-81149999D01*
X118471418Y-81800001D01*
X118482535Y-81912877D01*
X118515460Y-82021414D01*
X118568926Y-82121443D01*
X118640880Y-82209120D01*
X118728557Y-82281074D01*
X118828586Y-82334540D01*
X118937123Y-82367465D01*
X119049999Y-82378582D01*
X119950001Y-82378582D01*
X120062877Y-82367465D01*
X120171414Y-82334540D01*
X120271443Y-82281074D01*
X120359120Y-82209120D01*
X120431074Y-82121443D01*
X120484540Y-82021414D01*
X120517465Y-81912877D01*
X120528582Y-81800001D01*
X120528582Y-81560641D01*
X121303906Y-80785318D01*
X121321159Y-80771159D01*
X121377643Y-80702333D01*
X121419614Y-80623810D01*
X121445460Y-80538607D01*
X121449066Y-80502000D01*
X121454187Y-80450000D01*
X121452000Y-80427795D01*
X121452000Y-78022204D01*
X121454187Y-77999999D01*
X121452000Y-77977794D01*
X121452000Y-67522204D01*
X121454187Y-67500000D01*
X121445460Y-67411392D01*
X121419614Y-67326190D01*
X121403562Y-67296158D01*
X121377643Y-67247667D01*
X121321159Y-67178841D01*
X121303906Y-67164682D01*
X118835323Y-64696100D01*
X118821159Y-64678841D01*
X118752333Y-64622357D01*
X118673810Y-64580386D01*
X118588607Y-64554540D01*
X118522205Y-64548000D01*
X118500000Y-64545813D01*
X118477795Y-64548000D01*
X111997205Y-64548000D01*
X111975000Y-64545813D01*
X111886392Y-64554540D01*
X111817505Y-64575437D01*
X111801190Y-64580386D01*
X111722667Y-64622357D01*
X111653841Y-64678841D01*
X111639681Y-64696095D01*
X110264359Y-66071418D01*
X109549999Y-66071418D01*
X109437123Y-66082535D01*
X109328586Y-66115460D01*
X109228557Y-66168926D01*
X109140880Y-66240880D01*
X109068926Y-66328557D01*
X109015460Y-66428586D01*
X108986819Y-66523000D01*
X108662224Y-66523000D01*
X108402010Y-66262787D01*
X108402008Y-63835813D01*
X108404196Y-63813598D01*
X108395469Y-63724991D01*
X108369622Y-63639789D01*
X108327651Y-63561265D01*
X108285322Y-63509687D01*
X108285318Y-63509683D01*
X108271167Y-63492440D01*
X108253924Y-63478289D01*
X104771717Y-59996085D01*
X104757557Y-59978831D01*
X104688731Y-59922347D01*
X104610208Y-59880376D01*
X104585688Y-59872938D01*
X104525006Y-59854530D01*
X104436399Y-59845803D01*
X104414194Y-59847990D01*
X97585813Y-59847992D01*
X97563598Y-59845804D01*
X97474991Y-59854531D01*
X97389789Y-59880378D01*
X97311265Y-59922349D01*
X97259687Y-59964678D01*
X97259683Y-59964682D01*
X97242440Y-59978833D01*
X97228289Y-59996076D01*
X92196100Y-65028267D01*
X92178841Y-65042431D01*
X92122357Y-65111258D01*
X92088923Y-65173809D01*
X92080386Y-65189781D01*
X92054540Y-65274983D01*
X92045813Y-65363590D01*
X89317000Y-65363590D01*
X89317000Y-61515503D01*
X89360066Y-61076281D01*
X89483122Y-60668700D01*
X89682999Y-60292787D01*
X89952087Y-59962853D01*
X90280130Y-59691473D01*
X90654646Y-59488972D01*
X91061352Y-59363076D01*
X91499709Y-59317003D01*
X91500536Y-59317000D01*
X122984497Y-59317000D01*
X123423719Y-59360066D01*
M02*
